<?xml version="1.0" encoding="utf-8" standalone="no"?>
<!DOCTYPE svg PUBLIC "-//W3C//DTD SVG 1.1//EN"
  "http://www.w3.org/Graphics/SVG/1.1/DTD/svg11.dtd">
<!-- Created with matplotlib (https://matplotlib.org/) -->
<svg height="720pt" version="1.1" viewBox="0 0 720 720" width="720pt" xmlns="http://www.w3.org/2000/svg" xmlns:xlink="http://www.w3.org/1999/xlink">
 <defs>
  <style type="text/css">
*{stroke-linecap:butt;stroke-linejoin:round;}
  </style>
 </defs>
 <g id="figure_1">
  <g id="patch_1">
   <path d="M 0 720 
L 720 720 
L 720 0 
L 0 0 
z
" style="fill:#ffffff;"/>
  </g>
  <g id="axes_1">
   <g id="patch_2">
    <path d="M 67.71 111.408 
L 707.04 111.408 
L 707.04 27.006875 
L 67.71 27.006875 
z
" style="fill:#eaeaf2;"/>
   </g>
   <g id="matplotlib.axis_1">
    <g id="xtick_1">
     <g id="line2d_1">
      <path clip-path="url(#p51f6ee4001)" d="M 77.807064 111.408 
L 77.807064 27.006875 
" style="fill:none;stroke:#ffffff;stroke-linecap:round;"/>
     </g>
     <g id="line2d_2"/>
     <g id="text_1">
      <!-- 2006 -->
      <defs>
       <path d="M 50.34375 8.453125 
L 50.34375 0 
L 3.03125 0 
Q 2.9375 3.171875 4.046875 6.109375 
Q 5.859375 10.9375 9.828125 15.625 
Q 13.8125 20.3125 21.34375 26.46875 
Q 33.015625 36.03125 37.109375 41.625 
Q 41.21875 47.21875 41.21875 52.203125 
Q 41.21875 57.421875 37.46875 61 
Q 33.734375 64.59375 27.734375 64.59375 
Q 21.390625 64.59375 17.578125 60.78125 
Q 13.765625 56.984375 13.71875 50.25 
L 4.6875 51.171875 
Q 5.609375 61.28125 11.65625 66.578125 
Q 17.71875 71.875 27.9375 71.875 
Q 38.234375 71.875 44.234375 66.15625 
Q 50.25 60.453125 50.25 52 
Q 50.25 47.703125 48.484375 43.546875 
Q 46.734375 39.40625 42.65625 34.8125 
Q 38.578125 30.21875 29.109375 22.21875 
Q 21.1875 15.578125 18.9375 13.203125 
Q 16.703125 10.84375 15.234375 8.453125 
z
" id="ArialMT-50"/>
       <path d="M 4.15625 35.296875 
Q 4.15625 48 6.765625 55.734375 
Q 9.375 63.484375 14.515625 67.671875 
Q 19.671875 71.875 27.484375 71.875 
Q 33.25 71.875 37.59375 69.546875 
Q 41.9375 67.234375 44.765625 62.859375 
Q 47.609375 58.5 49.21875 52.21875 
Q 50.828125 45.953125 50.828125 35.296875 
Q 50.828125 22.703125 48.234375 14.96875 
Q 45.65625 7.234375 40.5 3 
Q 35.359375 -1.21875 27.484375 -1.21875 
Q 17.140625 -1.21875 11.234375 6.203125 
Q 4.15625 15.140625 4.15625 35.296875 
z
M 13.1875 35.296875 
Q 13.1875 17.671875 17.3125 11.828125 
Q 21.4375 6 27.484375 6 
Q 33.546875 6 37.671875 11.859375 
Q 41.796875 17.71875 41.796875 35.296875 
Q 41.796875 52.984375 37.671875 58.78125 
Q 33.546875 64.59375 27.390625 64.59375 
Q 21.34375 64.59375 17.71875 59.46875 
Q 13.1875 52.9375 13.1875 35.296875 
z
" id="ArialMT-48"/>
       <path d="M 49.75 54.046875 
L 41.015625 53.375 
Q 39.84375 58.546875 37.703125 60.890625 
Q 34.125 64.65625 28.90625 64.65625 
Q 24.703125 64.65625 21.53125 62.3125 
Q 17.390625 59.28125 14.984375 53.46875 
Q 12.59375 47.65625 12.5 36.921875 
Q 15.671875 41.75 20.265625 44.09375 
Q 24.859375 46.4375 29.890625 46.4375 
Q 38.671875 46.4375 44.84375 39.96875 
Q 51.03125 33.5 51.03125 23.25 
Q 51.03125 16.5 48.125 10.71875 
Q 45.21875 4.9375 40.140625 1.859375 
Q 35.0625 -1.21875 28.609375 -1.21875 
Q 17.625 -1.21875 10.6875 6.859375 
Q 3.765625 14.9375 3.765625 33.5 
Q 3.765625 54.25 11.421875 63.671875 
Q 18.109375 71.875 29.4375 71.875 
Q 37.890625 71.875 43.28125 67.140625 
Q 48.6875 62.40625 49.75 54.046875 
z
M 13.875 23.1875 
Q 13.875 18.65625 15.796875 14.5 
Q 17.71875 10.359375 21.1875 8.171875 
Q 24.65625 6 28.46875 6 
Q 34.03125 6 38.03125 10.484375 
Q 42.046875 14.984375 42.046875 22.703125 
Q 42.046875 30.125 38.078125 34.390625 
Q 34.125 38.671875 28.125 38.671875 
Q 22.171875 38.671875 18.015625 34.390625 
Q 13.875 30.125 13.875 23.1875 
z
" id="ArialMT-54"/>
      </defs>
      <g style="fill:#262626;" transform="translate(66.685189 125.565813)scale(0.1 -0.1)">
       <use xlink:href="#ArialMT-50"/>
       <use x="55.615234" xlink:href="#ArialMT-48"/>
       <use x="111.230469" xlink:href="#ArialMT-48"/>
       <use x="166.845703" xlink:href="#ArialMT-54"/>
      </g>
     </g>
    </g>
    <g id="xtick_2">
     <g id="line2d_3">
      <path clip-path="url(#p51f6ee4001)" d="M 169.484384 111.408 
L 169.484384 27.006875 
" style="fill:none;stroke:#ffffff;stroke-linecap:round;"/>
     </g>
     <g id="line2d_4"/>
     <g id="text_2">
      <!-- 2008 -->
      <defs>
       <path d="M 17.671875 38.8125 
Q 12.203125 40.828125 9.5625 44.53125 
Q 6.9375 48.25 6.9375 53.421875 
Q 6.9375 61.234375 12.546875 66.546875 
Q 18.171875 71.875 27.484375 71.875 
Q 36.859375 71.875 42.578125 66.421875 
Q 48.296875 60.984375 48.296875 53.171875 
Q 48.296875 48.1875 45.671875 44.5 
Q 43.0625 40.828125 37.75 38.8125 
Q 44.34375 36.671875 47.78125 31.875 
Q 51.21875 27.09375 51.21875 20.453125 
Q 51.21875 11.28125 44.71875 5.03125 
Q 38.234375 -1.21875 27.640625 -1.21875 
Q 17.046875 -1.21875 10.546875 5.046875 
Q 4.046875 11.328125 4.046875 20.703125 
Q 4.046875 27.6875 7.59375 32.390625 
Q 11.140625 37.109375 17.671875 38.8125 
z
M 15.921875 53.71875 
Q 15.921875 48.640625 19.1875 45.40625 
Q 22.46875 42.1875 27.6875 42.1875 
Q 32.765625 42.1875 36.015625 45.375 
Q 39.265625 48.578125 39.265625 53.21875 
Q 39.265625 58.0625 35.90625 61.359375 
Q 32.5625 64.65625 27.59375 64.65625 
Q 22.5625 64.65625 19.234375 61.421875 
Q 15.921875 58.203125 15.921875 53.71875 
z
M 13.09375 20.65625 
Q 13.09375 16.890625 14.875 13.375 
Q 16.65625 9.859375 20.171875 7.921875 
Q 23.6875 6 27.734375 6 
Q 34.03125 6 38.125 10.046875 
Q 42.234375 14.109375 42.234375 20.359375 
Q 42.234375 26.703125 38.015625 30.859375 
Q 33.796875 35.015625 27.4375 35.015625 
Q 21.234375 35.015625 17.15625 30.90625 
Q 13.09375 26.8125 13.09375 20.65625 
z
" id="ArialMT-56"/>
      </defs>
      <g style="fill:#262626;" transform="translate(158.362509 125.565813)scale(0.1 -0.1)">
       <use xlink:href="#ArialMT-50"/>
       <use x="55.615234" xlink:href="#ArialMT-48"/>
       <use x="111.230469" xlink:href="#ArialMT-48"/>
       <use x="166.845703" xlink:href="#ArialMT-56"/>
      </g>
     </g>
    </g>
    <g id="xtick_3">
     <g id="line2d_5">
      <path clip-path="url(#p51f6ee4001)" d="M 261.287289 111.408 
L 261.287289 27.006875 
" style="fill:none;stroke:#ffffff;stroke-linecap:round;"/>
     </g>
     <g id="line2d_6"/>
     <g id="text_3">
      <!-- 2010 -->
      <defs>
       <path d="M 37.25 0 
L 28.46875 0 
L 28.46875 56 
Q 25.296875 52.984375 20.140625 49.953125 
Q 14.984375 46.921875 10.890625 45.40625 
L 10.890625 53.90625 
Q 18.265625 57.375 23.78125 62.296875 
Q 29.296875 67.234375 31.59375 71.875 
L 37.25 71.875 
z
" id="ArialMT-49"/>
      </defs>
      <g style="fill:#262626;" transform="translate(250.165414 125.565813)scale(0.1 -0.1)">
       <use xlink:href="#ArialMT-50"/>
       <use x="55.615234" xlink:href="#ArialMT-48"/>
       <use x="111.230469" xlink:href="#ArialMT-49"/>
       <use x="166.845703" xlink:href="#ArialMT-48"/>
      </g>
     </g>
    </g>
    <g id="xtick_4">
     <g id="line2d_7">
      <path clip-path="url(#p51f6ee4001)" d="M 352.964609 111.408 
L 352.964609 27.006875 
" style="fill:none;stroke:#ffffff;stroke-linecap:round;"/>
     </g>
     <g id="line2d_8"/>
     <g id="text_4">
      <!-- 2012 -->
      <g style="fill:#262626;" transform="translate(341.842734 125.565813)scale(0.1 -0.1)">
       <use xlink:href="#ArialMT-50"/>
       <use x="55.615234" xlink:href="#ArialMT-48"/>
       <use x="111.230469" xlink:href="#ArialMT-49"/>
       <use x="166.845703" xlink:href="#ArialMT-50"/>
      </g>
     </g>
    </g>
    <g id="xtick_5">
     <g id="line2d_9">
      <path clip-path="url(#p51f6ee4001)" d="M 444.767514 111.408 
L 444.767514 27.006875 
" style="fill:none;stroke:#ffffff;stroke-linecap:round;"/>
     </g>
     <g id="line2d_10"/>
     <g id="text_5">
      <!-- 2014 -->
      <defs>
       <path d="M 32.328125 0 
L 32.328125 17.140625 
L 1.265625 17.140625 
L 1.265625 25.203125 
L 33.9375 71.578125 
L 41.109375 71.578125 
L 41.109375 25.203125 
L 50.78125 25.203125 
L 50.78125 17.140625 
L 41.109375 17.140625 
L 41.109375 0 
z
M 32.328125 25.203125 
L 32.328125 57.46875 
L 9.90625 25.203125 
z
" id="ArialMT-52"/>
      </defs>
      <g style="fill:#262626;" transform="translate(433.645639 125.565813)scale(0.1 -0.1)">
       <use xlink:href="#ArialMT-50"/>
       <use x="55.615234" xlink:href="#ArialMT-48"/>
       <use x="111.230469" xlink:href="#ArialMT-49"/>
       <use x="166.845703" xlink:href="#ArialMT-52"/>
      </g>
     </g>
    </g>
    <g id="xtick_6">
     <g id="line2d_11">
      <path clip-path="url(#p51f6ee4001)" d="M 536.444834 111.408 
L 536.444834 27.006875 
" style="fill:none;stroke:#ffffff;stroke-linecap:round;"/>
     </g>
     <g id="line2d_12"/>
     <g id="text_6">
      <!-- 2016 -->
      <g style="fill:#262626;" transform="translate(525.322959 125.565813)scale(0.1 -0.1)">
       <use xlink:href="#ArialMT-50"/>
       <use x="55.615234" xlink:href="#ArialMT-48"/>
       <use x="111.230469" xlink:href="#ArialMT-49"/>
       <use x="166.845703" xlink:href="#ArialMT-54"/>
      </g>
     </g>
    </g>
    <g id="xtick_7">
     <g id="line2d_13">
      <path clip-path="url(#p51f6ee4001)" d="M 628.247739 111.408 
L 628.247739 27.006875 
" style="fill:none;stroke:#ffffff;stroke-linecap:round;"/>
     </g>
     <g id="line2d_14"/>
     <g id="text_7">
      <!-- 2018 -->
      <g style="fill:#262626;" transform="translate(617.125864 125.565813)scale(0.1 -0.1)">
       <use xlink:href="#ArialMT-50"/>
       <use x="55.615234" xlink:href="#ArialMT-48"/>
       <use x="111.230469" xlink:href="#ArialMT-49"/>
       <use x="166.845703" xlink:href="#ArialMT-56"/>
      </g>
     </g>
    </g>
    <g id="text_8">
     <!-- Date -->
     <defs>
      <path d="M 7.71875 0 
L 7.71875 71.578125 
L 32.375 71.578125 
Q 40.71875 71.578125 45.125 70.5625 
Q 51.265625 69.140625 55.609375 65.4375 
Q 61.28125 60.640625 64.078125 53.1875 
Q 66.890625 45.75 66.890625 36.1875 
Q 66.890625 28.03125 64.984375 21.734375 
Q 63.09375 15.4375 60.109375 11.296875 
Q 57.125 7.171875 53.578125 4.796875 
Q 50.046875 2.4375 45.046875 1.21875 
Q 40.046875 0 33.546875 0 
z
M 17.1875 8.453125 
L 32.46875 8.453125 
Q 39.546875 8.453125 43.578125 9.765625 
Q 47.609375 11.078125 50 13.484375 
Q 53.375 16.84375 55.25 22.53125 
Q 57.125 28.21875 57.125 36.328125 
Q 57.125 47.5625 53.4375 53.59375 
Q 49.75 59.625 44.484375 61.671875 
Q 40.671875 63.140625 32.234375 63.140625 
L 17.1875 63.140625 
z
" id="ArialMT-68"/>
      <path d="M 40.4375 6.390625 
Q 35.546875 2.25 31.03125 0.53125 
Q 26.515625 -1.171875 21.34375 -1.171875 
Q 12.796875 -1.171875 8.203125 3 
Q 3.609375 7.171875 3.609375 13.671875 
Q 3.609375 17.484375 5.34375 20.625 
Q 7.078125 23.78125 9.890625 25.6875 
Q 12.703125 27.59375 16.21875 28.5625 
Q 18.796875 29.25 24.03125 29.890625 
Q 34.671875 31.15625 39.703125 32.90625 
Q 39.75 34.71875 39.75 35.203125 
Q 39.75 40.578125 37.25 42.78125 
Q 33.890625 45.75 27.25 45.75 
Q 21.046875 45.75 18.09375 43.578125 
Q 15.140625 41.40625 13.71875 35.890625 
L 5.125 37.0625 
Q 6.296875 42.578125 8.984375 45.96875 
Q 11.671875 49.359375 16.75 51.1875 
Q 21.828125 53.03125 28.515625 53.03125 
Q 35.15625 53.03125 39.296875 51.46875 
Q 43.453125 49.90625 45.40625 47.53125 
Q 47.359375 45.171875 48.140625 41.546875 
Q 48.578125 39.3125 48.578125 33.453125 
L 48.578125 21.734375 
Q 48.578125 9.46875 49.140625 6.21875 
Q 49.703125 2.984375 51.375 0 
L 42.1875 0 
Q 40.828125 2.734375 40.4375 6.390625 
z
M 39.703125 26.03125 
Q 34.90625 24.078125 25.34375 22.703125 
Q 19.921875 21.921875 17.671875 20.9375 
Q 15.4375 19.96875 14.203125 18.09375 
Q 12.984375 16.21875 12.984375 13.921875 
Q 12.984375 10.40625 15.640625 8.0625 
Q 18.3125 5.71875 23.4375 5.71875 
Q 28.515625 5.71875 32.46875 7.9375 
Q 36.421875 10.15625 38.28125 14.015625 
Q 39.703125 17 39.703125 22.796875 
z
" id="ArialMT-97"/>
      <path d="M 25.78125 7.859375 
L 27.046875 0.09375 
Q 23.34375 -0.6875 20.40625 -0.6875 
Q 15.625 -0.6875 12.984375 0.828125 
Q 10.359375 2.34375 9.28125 4.8125 
Q 8.203125 7.28125 8.203125 15.1875 
L 8.203125 45.015625 
L 1.765625 45.015625 
L 1.765625 51.859375 
L 8.203125 51.859375 
L 8.203125 64.703125 
L 16.9375 69.96875 
L 16.9375 51.859375 
L 25.78125 51.859375 
L 25.78125 45.015625 
L 16.9375 45.015625 
L 16.9375 14.703125 
Q 16.9375 10.9375 17.40625 9.859375 
Q 17.875 8.796875 18.921875 8.15625 
Q 19.96875 7.515625 21.921875 7.515625 
Q 23.390625 7.515625 25.78125 7.859375 
z
" id="ArialMT-116"/>
      <path d="M 42.09375 16.703125 
L 51.171875 15.578125 
Q 49.03125 7.625 43.21875 3.21875 
Q 37.40625 -1.171875 28.375 -1.171875 
Q 17 -1.171875 10.328125 5.828125 
Q 3.65625 12.84375 3.65625 25.484375 
Q 3.65625 38.578125 10.390625 45.796875 
Q 17.140625 53.03125 27.875 53.03125 
Q 38.28125 53.03125 44.875 45.953125 
Q 51.46875 38.875 51.46875 26.03125 
Q 51.46875 25.25 51.421875 23.6875 
L 12.75 23.6875 
Q 13.234375 15.140625 17.578125 10.59375 
Q 21.921875 6.0625 28.421875 6.0625 
Q 33.25 6.0625 36.671875 8.59375 
Q 40.09375 11.140625 42.09375 16.703125 
z
M 13.234375 30.90625 
L 42.1875 30.90625 
Q 41.609375 37.453125 38.875 40.71875 
Q 34.671875 45.796875 27.984375 45.796875 
Q 21.921875 45.796875 17.796875 41.75 
Q 13.671875 37.703125 13.234375 30.90625 
z
" id="ArialMT-101"/>
     </defs>
     <g style="fill:#262626;" transform="translate(375.757969 139.426906)scale(0.11 -0.11)">
      <use xlink:href="#ArialMT-68"/>
      <use x="72.216797" xlink:href="#ArialMT-97"/>
      <use x="127.832031" xlink:href="#ArialMT-116"/>
      <use x="155.615234" xlink:href="#ArialMT-101"/>
     </g>
    </g>
   </g>
   <g id="matplotlib.axis_2">
    <g id="ytick_1">
     <g id="line2d_15">
      <path clip-path="url(#p51f6ee4001)" d="M 67.71 107.63582 
L 707.04 107.63582 
" style="fill:none;stroke:#ffffff;stroke-linecap:round;"/>
     </g>
     <g id="line2d_16"/>
     <g id="text_9">
      <!-- 0 -->
      <g style="fill:#262626;" transform="translate(55.149063 111.214726)scale(0.1 -0.1)">
       <use xlink:href="#ArialMT-48"/>
      </g>
     </g>
    </g>
    <g id="ytick_2">
     <g id="line2d_17">
      <path clip-path="url(#p51f6ee4001)" d="M 67.71 86.224268 
L 707.04 86.224268 
" style="fill:none;stroke:#ffffff;stroke-linecap:round;"/>
     </g>
     <g id="line2d_18"/>
     <g id="text_10">
      <!-- 50000 -->
      <defs>
       <path d="M 4.15625 18.75 
L 13.375 19.53125 
Q 14.40625 12.796875 18.140625 9.390625 
Q 21.875 6 27.15625 6 
Q 33.5 6 37.890625 10.78125 
Q 42.28125 15.578125 42.28125 23.484375 
Q 42.28125 31 38.0625 35.34375 
Q 33.84375 39.703125 27 39.703125 
Q 22.75 39.703125 19.328125 37.765625 
Q 15.921875 35.84375 13.96875 32.765625 
L 5.71875 33.84375 
L 12.640625 70.609375 
L 48.25 70.609375 
L 48.25 62.203125 
L 19.671875 62.203125 
L 15.828125 42.96875 
Q 22.265625 47.46875 29.34375 47.46875 
Q 38.71875 47.46875 45.15625 40.96875 
Q 51.609375 34.46875 51.609375 24.265625 
Q 51.609375 14.546875 45.953125 7.46875 
Q 39.0625 -1.21875 27.15625 -1.21875 
Q 17.390625 -1.21875 11.203125 4.25 
Q 5.03125 9.71875 4.15625 18.75 
z
" id="ArialMT-53"/>
      </defs>
      <g style="fill:#262626;" transform="translate(32.905313 89.803174)scale(0.1 -0.1)">
       <use xlink:href="#ArialMT-53"/>
       <use x="55.615234" xlink:href="#ArialMT-48"/>
       <use x="111.230469" xlink:href="#ArialMT-48"/>
       <use x="166.845703" xlink:href="#ArialMT-48"/>
       <use x="222.460938" xlink:href="#ArialMT-48"/>
      </g>
     </g>
    </g>
    <g id="ytick_3">
     <g id="line2d_19">
      <path clip-path="url(#p51f6ee4001)" d="M 67.71 64.812717 
L 707.04 64.812717 
" style="fill:none;stroke:#ffffff;stroke-linecap:round;"/>
     </g>
     <g id="line2d_20"/>
     <g id="text_11">
      <!-- 100000 -->
      <g style="fill:#262626;" transform="translate(27.344375 68.391623)scale(0.1 -0.1)">
       <use xlink:href="#ArialMT-49"/>
       <use x="55.615234" xlink:href="#ArialMT-48"/>
       <use x="111.230469" xlink:href="#ArialMT-48"/>
       <use x="166.845703" xlink:href="#ArialMT-48"/>
       <use x="222.460938" xlink:href="#ArialMT-48"/>
       <use x="278.076172" xlink:href="#ArialMT-48"/>
      </g>
     </g>
    </g>
    <g id="ytick_4">
     <g id="line2d_21">
      <path clip-path="url(#p51f6ee4001)" d="M 67.71 43.401165 
L 707.04 43.401165 
" style="fill:none;stroke:#ffffff;stroke-linecap:round;"/>
     </g>
     <g id="line2d_22"/>
     <g id="text_12">
      <!-- 150000 -->
      <g style="fill:#262626;" transform="translate(27.344375 46.980071)scale(0.1 -0.1)">
       <use xlink:href="#ArialMT-49"/>
       <use x="55.615234" xlink:href="#ArialMT-53"/>
       <use x="111.230469" xlink:href="#ArialMT-48"/>
       <use x="166.845703" xlink:href="#ArialMT-48"/>
       <use x="222.460938" xlink:href="#ArialMT-48"/>
       <use x="278.076172" xlink:href="#ArialMT-48"/>
      </g>
     </g>
    </g>
    <g id="text_13">
     <!-- Loan Amount -->
     <defs>
      <path d="M 7.328125 0 
L 7.328125 71.578125 
L 16.796875 71.578125 
L 16.796875 8.453125 
L 52.046875 8.453125 
L 52.046875 0 
z
" id="ArialMT-76"/>
      <path d="M 3.328125 25.921875 
Q 3.328125 40.328125 11.328125 47.265625 
Q 18.015625 53.03125 27.640625 53.03125 
Q 38.328125 53.03125 45.109375 46.015625 
Q 51.90625 39.015625 51.90625 26.65625 
Q 51.90625 16.65625 48.90625 10.90625 
Q 45.90625 5.171875 40.15625 2 
Q 34.421875 -1.171875 27.640625 -1.171875 
Q 16.75 -1.171875 10.03125 5.8125 
Q 3.328125 12.796875 3.328125 25.921875 
z
M 12.359375 25.921875 
Q 12.359375 15.96875 16.703125 11.015625 
Q 21.046875 6.0625 27.640625 6.0625 
Q 34.1875 6.0625 38.53125 11.03125 
Q 42.875 16.015625 42.875 26.21875 
Q 42.875 35.84375 38.5 40.796875 
Q 34.125 45.75 27.640625 45.75 
Q 21.046875 45.75 16.703125 40.8125 
Q 12.359375 35.890625 12.359375 25.921875 
z
" id="ArialMT-111"/>
      <path d="M 6.59375 0 
L 6.59375 51.859375 
L 14.5 51.859375 
L 14.5 44.484375 
Q 20.21875 53.03125 31 53.03125 
Q 35.6875 53.03125 39.625 51.34375 
Q 43.5625 49.65625 45.515625 46.921875 
Q 47.46875 44.1875 48.25 40.4375 
Q 48.734375 37.984375 48.734375 31.890625 
L 48.734375 0 
L 39.9375 0 
L 39.9375 31.546875 
Q 39.9375 36.921875 38.90625 39.578125 
Q 37.890625 42.234375 35.28125 43.8125 
Q 32.671875 45.40625 29.15625 45.40625 
Q 23.53125 45.40625 19.453125 41.84375 
Q 15.375 38.28125 15.375 28.328125 
L 15.375 0 
z
" id="ArialMT-110"/>
      <path id="ArialMT-32"/>
      <path d="M -0.140625 0 
L 27.34375 71.578125 
L 37.546875 71.578125 
L 66.84375 0 
L 56.0625 0 
L 47.703125 21.6875 
L 17.78125 21.6875 
L 9.90625 0 
z
M 20.515625 29.390625 
L 44.78125 29.390625 
L 37.3125 49.21875 
Q 33.890625 58.25 32.234375 64.0625 
Q 30.859375 57.171875 28.375 50.390625 
z
" id="ArialMT-65"/>
      <path d="M 6.59375 0 
L 6.59375 51.859375 
L 14.453125 51.859375 
L 14.453125 44.578125 
Q 16.890625 48.390625 20.9375 50.703125 
Q 25 53.03125 30.171875 53.03125 
Q 35.9375 53.03125 39.625 50.640625 
Q 43.3125 48.25 44.828125 43.953125 
Q 50.984375 53.03125 60.84375 53.03125 
Q 68.5625 53.03125 72.703125 48.75 
Q 76.859375 44.484375 76.859375 35.59375 
L 76.859375 0 
L 68.109375 0 
L 68.109375 32.671875 
Q 68.109375 37.9375 67.25 40.25 
Q 66.40625 42.578125 64.15625 43.984375 
Q 61.921875 45.40625 58.890625 45.40625 
Q 53.421875 45.40625 49.796875 41.765625 
Q 46.1875 38.140625 46.1875 30.125 
L 46.1875 0 
L 37.40625 0 
L 37.40625 33.6875 
Q 37.40625 39.546875 35.25 42.46875 
Q 33.109375 45.40625 28.21875 45.40625 
Q 24.515625 45.40625 21.359375 43.453125 
Q 18.21875 41.5 16.796875 37.734375 
Q 15.375 33.984375 15.375 26.90625 
L 15.375 0 
z
" id="ArialMT-109"/>
      <path d="M 40.578125 0 
L 40.578125 7.625 
Q 34.515625 -1.171875 24.125 -1.171875 
Q 19.53125 -1.171875 15.546875 0.578125 
Q 11.578125 2.34375 9.640625 5 
Q 7.71875 7.671875 6.9375 11.53125 
Q 6.390625 14.109375 6.390625 19.734375 
L 6.390625 51.859375 
L 15.1875 51.859375 
L 15.1875 23.09375 
Q 15.1875 16.21875 15.71875 13.8125 
Q 16.546875 10.359375 19.234375 8.375 
Q 21.921875 6.390625 25.875 6.390625 
Q 29.828125 6.390625 33.296875 8.421875 
Q 36.765625 10.453125 38.203125 13.9375 
Q 39.65625 17.4375 39.65625 24.078125 
L 39.65625 51.859375 
L 48.4375 51.859375 
L 48.4375 0 
z
" id="ArialMT-117"/>
     </defs>
     <g style="fill:#262626;" transform="translate(21.158125 101.620484)rotate(-90)scale(0.11 -0.11)">
      <use xlink:href="#ArialMT-76"/>
      <use x="55.615234" xlink:href="#ArialMT-111"/>
      <use x="111.230469" xlink:href="#ArialMT-97"/>
      <use x="166.845703" xlink:href="#ArialMT-110"/>
      <use x="222.460938" xlink:href="#ArialMT-32"/>
      <use x="244.744141" xlink:href="#ArialMT-65"/>
      <use x="311.443359" xlink:href="#ArialMT-109"/>
      <use x="394.744141" xlink:href="#ArialMT-111"/>
      <use x="450.359375" xlink:href="#ArialMT-117"/>
      <use x="505.974609" xlink:href="#ArialMT-110"/>
      <use x="561.589844" xlink:href="#ArialMT-116"/>
     </g>
    </g>
   </g>
   <g id="line2d_23">
    <path clip-path="url(#p51f6ee4001)" d="M 96.770455 107.571585 
L 104.431162 107.378881 
L 115.985016 106.768652 
L 119.752577 104.959376 
L 123.645724 106.083482 
L 127.53887 106.6723 
L 131.05526 102.679046 
L 134.948407 101.137414 
L 138.715968 105.119963 
L 142.609114 106.265481 
L 146.376676 103.439156 
L 150.269822 105.83725 
L 154.162968 104.231383 
L 157.93053 103.610448 
L 161.823676 103.364215 
L 165.591237 101.715526 
L 169.484384 100.291658 
L 173.37753 96.416167 
L 177.019506 103.920916 
L 184.680213 107.121943 
L 188.57336 105.805132 
L 192.340921 106.59736 
L 196.234067 106.608065 
L 200.127214 105.783721 
L 203.894775 107.057708 
L 207.787921 107.346764 
L 211.555482 107.35747 
L 219.341775 106.59736 
L 222.858166 95.688174 
L 226.751312 96.651694 
L 230.518873 84.254405 
L 234.41202 95.056533 
L 238.179581 97.529567 
L 242.072727 94.788889 
L 245.965874 88.558127 
L 249.733435 93.29008 
L 253.626581 89.307532 
L 257.394142 86.491913 
L 261.287289 84.811106 
L 265.180435 83.76194 
L 268.696826 101.42647 
L 276.357533 106.094188 
L 280.25068 102.004582 
L 284.018241 92.562087 
L 287.911387 89.714351 
L 291.804534 97.658037 
L 295.572095 82.03831 
L 299.465241 72.114056 
L 303.232802 85.442747 
L 307.125949 77.338474 
L 311.019095 77.370592 
L 314.535486 103.696094 
L 318.428632 95.388412 
L 322.196193 94.628302 
L 326.08934 100.098954 
L 329.856901 84.489933 
L 333.750047 83.612059 
L 337.643194 97.326158 
L 341.410755 106.072777 
L 345.303901 107.186177 
L 349.071462 68.003038 
L 352.964609 64.181076 
L 356.857755 68.388446 
L 360.499731 61.076401 
L 364.392877 70.604541 
L 368.160438 85.292866 
L 372.053585 91.641391 
L 375.821146 100.355892 
L 379.714292 95.484764 
L 383.607439 99.178257 
L 387.375 99.863427 
L 391.268146 87.744488 
L 395.035708 80.368209 
L 398.928854 76.139427 
L 402.822 57.607729 
L 406.338391 32.866681 
L 410.231537 55.95904 
L 413.999098 64.641424 
L 417.892245 70.711599 
L 421.659806 60.637464 
L 425.552952 49.417811 
L 429.446099 44.932091 
L 433.21366 75.989546 
L 437.106806 68.345623 
L 440.874367 90.067642 
L 444.767514 88.301189 
L 448.66066 90.52799 
L 452.177051 88.140602 
L 456.070197 94.467716 
L 459.837758 92.572793 
L 463.730905 104.788084 
L 471.391612 101.854701 
L 475.284759 92.926084 
L 479.05232 85.635451 
L 482.945466 89.735763 
L 486.713027 91.523627 
L 490.606174 84.222288 
L 494.49932 86.834497 
L 498.015711 30.84329 
L 501.908857 78.430463 
L 505.676418 97.326158 
L 509.569565 70.45466 
L 513.337126 85.121573 
L 517.230272 89.521647 
L 521.123419 97.754389 
L 524.89098 97.122748 
L 528.784126 92.904672 
L 532.551687 85.153691 
L 536.444834 93.49349 
L 540.33798 91.951858 
L 543.979956 83.194534 
L 547.873102 48.368645 
L 551.640664 63.217556 
L 555.53381 86.363443 
L 559.301371 80.539501 
L 563.194518 78.462581 
L 567.087664 89.735763 
L 570.855225 85.999447 
L 574.748372 77.167182 
L 578.515933 87.455432 
L 582.409079 82.31666 
L 586.302226 81.8349 
L 589.818616 77.006595 
L 593.711762 94.928064 
L 597.479323 79.586687 
L 601.37247 64.694953 
L 605.140031 80.978438 
L 609.033177 85.76392 
L 612.926324 88.012133 
L 616.693885 70.636659 
L 620.587032 78.323406 
L 624.354593 37.416636 
L 628.247739 63.335319 
L 632.140886 62.189801 
L 635.657276 52.672367 
L 639.550422 52.907894 
L 643.317983 52.490369 
L 647.21113 63.710022 
L 650.978691 60.830168 
L 654.871837 56.879737 
L 658.764984 41.045894 
L 662.532545 56.879737 
L 666.425691 55.734219 
L 670.193253 56.869031 
L 674.086399 68.977263 
L 677.979545 86.652499 
L 677.979545 86.652499 
" style="fill:none;stroke:#ffa500;stroke-linecap:round;stroke-width:1.75;"/>
   </g>
   <g id="patch_3">
    <path d="M 67.71 111.408 
L 67.71 27.006875 
" style="fill:none;"/>
   </g>
   <g id="patch_4">
    <path d="M 707.04 111.408 
L 707.04 27.006875 
" style="fill:none;"/>
   </g>
   <g id="patch_5">
    <path d="M 67.71 111.408 
L 707.04 111.408 
" style="fill:none;"/>
   </g>
   <g id="patch_6">
    <path d="M 67.71 27.006875 
L 707.04 27.006875 
" style="fill:none;"/>
   </g>
   <g id="text_14">
    <!-- Agriculture loans over time -->
    <defs>
     <path d="M 4.984375 -4.296875 
L 13.53125 -5.5625 
Q 14.0625 -9.515625 16.5 -11.328125 
Q 19.78125 -13.765625 25.4375 -13.765625 
Q 31.546875 -13.765625 34.859375 -11.328125 
Q 38.1875 -8.890625 39.359375 -4.5 
Q 40.046875 -1.8125 39.984375 6.78125 
Q 34.234375 0 25.640625 0 
Q 14.9375 0 9.078125 7.71875 
Q 3.21875 15.4375 3.21875 26.21875 
Q 3.21875 33.640625 5.90625 39.90625 
Q 8.59375 46.1875 13.6875 49.609375 
Q 18.796875 53.03125 25.6875 53.03125 
Q 34.859375 53.03125 40.828125 45.609375 
L 40.828125 51.859375 
L 48.921875 51.859375 
L 48.921875 7.03125 
Q 48.921875 -5.078125 46.453125 -10.125 
Q 44 -15.1875 38.640625 -18.109375 
Q 33.296875 -21.046875 25.484375 -21.046875 
Q 16.21875 -21.046875 10.5 -16.875 
Q 4.78125 -12.703125 4.984375 -4.296875 
z
M 12.25 26.859375 
Q 12.25 16.65625 16.296875 11.96875 
Q 20.359375 7.28125 26.46875 7.28125 
Q 32.515625 7.28125 36.609375 11.9375 
Q 40.71875 16.609375 40.71875 26.5625 
Q 40.71875 36.078125 36.5 40.90625 
Q 32.28125 45.75 26.3125 45.75 
Q 20.453125 45.75 16.34375 40.984375 
Q 12.25 36.234375 12.25 26.859375 
z
" id="ArialMT-103"/>
     <path d="M 6.5 0 
L 6.5 51.859375 
L 14.40625 51.859375 
L 14.40625 44 
Q 17.4375 49.515625 20 51.265625 
Q 22.5625 53.03125 25.640625 53.03125 
Q 30.078125 53.03125 34.671875 50.203125 
L 31.640625 42.046875 
Q 28.421875 43.953125 25.203125 43.953125 
Q 22.3125 43.953125 20.015625 42.21875 
Q 17.71875 40.484375 16.75 37.40625 
Q 15.28125 32.71875 15.28125 27.15625 
L 15.28125 0 
z
" id="ArialMT-114"/>
     <path d="M 6.640625 61.46875 
L 6.640625 71.578125 
L 15.4375 71.578125 
L 15.4375 61.46875 
z
M 6.640625 0 
L 6.640625 51.859375 
L 15.4375 51.859375 
L 15.4375 0 
z
" id="ArialMT-105"/>
     <path d="M 40.4375 19 
L 49.078125 17.875 
Q 47.65625 8.9375 41.8125 3.875 
Q 35.984375 -1.171875 27.484375 -1.171875 
Q 16.84375 -1.171875 10.375 5.78125 
Q 3.90625 12.75 3.90625 25.734375 
Q 3.90625 34.125 6.6875 40.421875 
Q 9.46875 46.734375 15.15625 49.875 
Q 20.84375 53.03125 27.546875 53.03125 
Q 35.984375 53.03125 41.359375 48.75 
Q 46.734375 44.484375 48.25 36.625 
L 39.703125 35.296875 
Q 38.484375 40.53125 35.375 43.15625 
Q 32.28125 45.796875 27.875 45.796875 
Q 21.234375 45.796875 17.078125 41.03125 
Q 12.9375 36.28125 12.9375 25.984375 
Q 12.9375 15.53125 16.9375 10.796875 
Q 20.953125 6.0625 27.390625 6.0625 
Q 32.5625 6.0625 36.03125 9.234375 
Q 39.5 12.40625 40.4375 19 
z
" id="ArialMT-99"/>
     <path d="M 6.390625 0 
L 6.390625 71.578125 
L 15.1875 71.578125 
L 15.1875 0 
z
" id="ArialMT-108"/>
     <path d="M 3.078125 15.484375 
L 11.765625 16.84375 
Q 12.5 11.625 15.84375 8.84375 
Q 19.1875 6.0625 25.203125 6.0625 
Q 31.25 6.0625 34.171875 8.515625 
Q 37.109375 10.984375 37.109375 14.3125 
Q 37.109375 17.28125 34.515625 19 
Q 32.71875 20.171875 25.53125 21.96875 
Q 15.875 24.421875 12.140625 26.203125 
Q 8.40625 27.984375 6.46875 31.125 
Q 4.546875 34.28125 4.546875 38.09375 
Q 4.546875 41.546875 6.125 44.5 
Q 7.71875 47.46875 10.453125 49.421875 
Q 12.5 50.921875 16.03125 51.96875 
Q 19.578125 53.03125 23.640625 53.03125 
Q 29.734375 53.03125 34.34375 51.265625 
Q 38.96875 49.515625 41.15625 46.5 
Q 43.359375 43.5 44.1875 38.484375 
L 35.59375 37.3125 
Q 35.015625 41.3125 32.203125 43.546875 
Q 29.390625 45.796875 24.265625 45.796875 
Q 18.21875 45.796875 15.625 43.796875 
Q 13.03125 41.796875 13.03125 39.109375 
Q 13.03125 37.40625 14.109375 36.03125 
Q 15.1875 34.625 17.484375 33.6875 
Q 18.796875 33.203125 25.25 31.453125 
Q 34.578125 28.953125 38.25 27.359375 
Q 41.9375 25.78125 44.03125 22.75 
Q 46.140625 19.734375 46.140625 15.234375 
Q 46.140625 10.84375 43.578125 6.953125 
Q 41.015625 3.078125 36.171875 0.953125 
Q 31.34375 -1.171875 25.25 -1.171875 
Q 15.140625 -1.171875 9.84375 3.03125 
Q 4.546875 7.234375 3.078125 15.484375 
z
" id="ArialMT-115"/>
     <path d="M 21 0 
L 1.265625 51.859375 
L 10.546875 51.859375 
L 21.6875 20.796875 
Q 23.484375 15.765625 25 10.359375 
Q 26.171875 14.453125 28.265625 20.21875 
L 39.796875 51.859375 
L 48.828125 51.859375 
L 29.203125 0 
z
" id="ArialMT-118"/>
    </defs>
    <g style="fill:#262626;" transform="translate(316.349063 21.006875)scale(0.12 -0.12)">
     <use xlink:href="#ArialMT-65"/>
     <use x="66.699219" xlink:href="#ArialMT-103"/>
     <use x="122.314453" xlink:href="#ArialMT-114"/>
     <use x="155.615234" xlink:href="#ArialMT-105"/>
     <use x="177.832031" xlink:href="#ArialMT-99"/>
     <use x="227.832031" xlink:href="#ArialMT-117"/>
     <use x="283.447266" xlink:href="#ArialMT-108"/>
     <use x="305.664062" xlink:href="#ArialMT-116"/>
     <use x="333.447266" xlink:href="#ArialMT-117"/>
     <use x="389.0625" xlink:href="#ArialMT-114"/>
     <use x="422.363281" xlink:href="#ArialMT-101"/>
     <use x="477.978516" xlink:href="#ArialMT-32"/>
     <use x="505.761719" xlink:href="#ArialMT-108"/>
     <use x="527.978516" xlink:href="#ArialMT-111"/>
     <use x="583.59375" xlink:href="#ArialMT-97"/>
     <use x="639.208984" xlink:href="#ArialMT-110"/>
     <use x="694.824219" xlink:href="#ArialMT-115"/>
     <use x="744.824219" xlink:href="#ArialMT-32"/>
     <use x="772.607422" xlink:href="#ArialMT-111"/>
     <use x="828.222656" xlink:href="#ArialMT-118"/>
     <use x="878.222656" xlink:href="#ArialMT-101"/>
     <use x="933.837891" xlink:href="#ArialMT-114"/>
     <use x="967.138672" xlink:href="#ArialMT-32"/>
     <use x="994.921875" xlink:href="#ArialMT-116"/>
     <use x="1022.705078" xlink:href="#ArialMT-105"/>
     <use x="1044.921875" xlink:href="#ArialMT-109"/>
     <use x="1128.222656" xlink:href="#ArialMT-101"/>
    </g>
   </g>
  </g>
  <g id="axes_2">
   <g id="patch_7">
    <path d="M 67.71 252.816 
L 707.04 252.816 
L 707.04 168.414875 
L 67.71 168.414875 
z
" style="fill:#eaeaf2;"/>
   </g>
   <g id="matplotlib.axis_3">
    <g id="xtick_8">
     <g id="line2d_24">
      <path clip-path="url(#p72685ae07c)" d="M 85.61481 252.816 
L 85.61481 168.414875 
" style="fill:none;stroke:#ffffff;stroke-linecap:round;"/>
     </g>
     <g id="line2d_25"/>
     <g id="text_15">
      <!-- 2006 -->
      <g style="fill:#262626;" transform="translate(74.492935 266.973813)scale(0.1 -0.1)">
       <use xlink:href="#ArialMT-50"/>
       <use x="55.615234" xlink:href="#ArialMT-48"/>
       <use x="111.230469" xlink:href="#ArialMT-48"/>
       <use x="166.845703" xlink:href="#ArialMT-54"/>
      </g>
     </g>
    </g>
    <g id="xtick_9">
     <g id="line2d_26">
      <path clip-path="url(#p72685ae07c)" d="M 176.099484 252.816 
L 176.099484 168.414875 
" style="fill:none;stroke:#ffffff;stroke-linecap:round;"/>
     </g>
     <g id="line2d_27"/>
     <g id="text_16">
      <!-- 2008 -->
      <g style="fill:#262626;" transform="translate(164.977609 266.973813)scale(0.1 -0.1)">
       <use xlink:href="#ArialMT-50"/>
       <use x="55.615234" xlink:href="#ArialMT-48"/>
       <use x="111.230469" xlink:href="#ArialMT-48"/>
       <use x="166.845703" xlink:href="#ArialMT-56"/>
      </g>
     </g>
    </g>
    <g id="xtick_10">
     <g id="line2d_28">
      <path clip-path="url(#p72685ae07c)" d="M 266.708109 252.816 
L 266.708109 168.414875 
" style="fill:none;stroke:#ffffff;stroke-linecap:round;"/>
     </g>
     <g id="line2d_29"/>
     <g id="text_17">
      <!-- 2010 -->
      <g style="fill:#262626;" transform="translate(255.586234 266.973813)scale(0.1 -0.1)">
       <use xlink:href="#ArialMT-50"/>
       <use x="55.615234" xlink:href="#ArialMT-48"/>
       <use x="111.230469" xlink:href="#ArialMT-49"/>
       <use x="166.845703" xlink:href="#ArialMT-48"/>
      </g>
     </g>
    </g>
    <g id="xtick_11">
     <g id="line2d_30">
      <path clip-path="url(#p72685ae07c)" d="M 357.192783 252.816 
L 357.192783 168.414875 
" style="fill:none;stroke:#ffffff;stroke-linecap:round;"/>
     </g>
     <g id="line2d_31"/>
     <g id="text_18">
      <!-- 2012 -->
      <g style="fill:#262626;" transform="translate(346.070908 266.973813)scale(0.1 -0.1)">
       <use xlink:href="#ArialMT-50"/>
       <use x="55.615234" xlink:href="#ArialMT-48"/>
       <use x="111.230469" xlink:href="#ArialMT-49"/>
       <use x="166.845703" xlink:href="#ArialMT-50"/>
      </g>
     </g>
    </g>
    <g id="xtick_12">
     <g id="line2d_32">
      <path clip-path="url(#p72685ae07c)" d="M 447.801409 252.816 
L 447.801409 168.414875 
" style="fill:none;stroke:#ffffff;stroke-linecap:round;"/>
     </g>
     <g id="line2d_33"/>
     <g id="text_19">
      <!-- 2014 -->
      <g style="fill:#262626;" transform="translate(436.679534 266.973813)scale(0.1 -0.1)">
       <use xlink:href="#ArialMT-50"/>
       <use x="55.615234" xlink:href="#ArialMT-48"/>
       <use x="111.230469" xlink:href="#ArialMT-49"/>
       <use x="166.845703" xlink:href="#ArialMT-52"/>
      </g>
     </g>
    </g>
    <g id="xtick_13">
     <g id="line2d_34">
      <path clip-path="url(#p72685ae07c)" d="M 538.286083 252.816 
L 538.286083 168.414875 
" style="fill:none;stroke:#ffffff;stroke-linecap:round;"/>
     </g>
     <g id="line2d_35"/>
     <g id="text_20">
      <!-- 2016 -->
      <g style="fill:#262626;" transform="translate(527.164208 266.973813)scale(0.1 -0.1)">
       <use xlink:href="#ArialMT-50"/>
       <use x="55.615234" xlink:href="#ArialMT-48"/>
       <use x="111.230469" xlink:href="#ArialMT-49"/>
       <use x="166.845703" xlink:href="#ArialMT-54"/>
      </g>
     </g>
    </g>
    <g id="xtick_14">
     <g id="line2d_36">
      <path clip-path="url(#p72685ae07c)" d="M 628.894709 252.816 
L 628.894709 168.414875 
" style="fill:none;stroke:#ffffff;stroke-linecap:round;"/>
     </g>
     <g id="line2d_37"/>
     <g id="text_21">
      <!-- 2018 -->
      <g style="fill:#262626;" transform="translate(617.772834 266.973813)scale(0.1 -0.1)">
       <use xlink:href="#ArialMT-50"/>
       <use x="55.615234" xlink:href="#ArialMT-48"/>
       <use x="111.230469" xlink:href="#ArialMT-49"/>
       <use x="166.845703" xlink:href="#ArialMT-56"/>
      </g>
     </g>
    </g>
    <g id="text_22">
     <!-- Date -->
     <g style="fill:#262626;" transform="translate(375.757969 280.834906)scale(0.11 -0.11)">
      <use xlink:href="#ArialMT-68"/>
      <use x="72.216797" xlink:href="#ArialMT-97"/>
      <use x="127.832031" xlink:href="#ArialMT-116"/>
      <use x="155.615234" xlink:href="#ArialMT-101"/>
     </g>
    </g>
   </g>
   <g id="matplotlib.axis_4">
    <g id="ytick_5">
     <g id="line2d_38">
      <path clip-path="url(#p72685ae07c)" d="M 67.71 249.212684 
L 707.04 249.212684 
" style="fill:none;stroke:#ffffff;stroke-linecap:round;"/>
     </g>
     <g id="line2d_39"/>
     <g id="text_23">
      <!-- 0 -->
      <g style="fill:#262626;" transform="translate(55.149063 252.79159)scale(0.1 -0.1)">
       <use xlink:href="#ArialMT-48"/>
      </g>
     </g>
    </g>
    <g id="ytick_6">
     <g id="line2d_40">
      <path clip-path="url(#p72685ae07c)" d="M 67.71 223.312837 
L 707.04 223.312837 
" style="fill:none;stroke:#ffffff;stroke-linecap:round;"/>
     </g>
     <g id="line2d_41"/>
     <g id="text_24">
      <!-- 50000 -->
      <g style="fill:#262626;" transform="translate(32.905313 226.891744)scale(0.1 -0.1)">
       <use xlink:href="#ArialMT-53"/>
       <use x="55.615234" xlink:href="#ArialMT-48"/>
       <use x="111.230469" xlink:href="#ArialMT-48"/>
       <use x="166.845703" xlink:href="#ArialMT-48"/>
       <use x="222.460938" xlink:href="#ArialMT-48"/>
      </g>
     </g>
    </g>
    <g id="ytick_7">
     <g id="line2d_42">
      <path clip-path="url(#p72685ae07c)" d="M 67.71 197.412991 
L 707.04 197.412991 
" style="fill:none;stroke:#ffffff;stroke-linecap:round;"/>
     </g>
     <g id="line2d_43"/>
     <g id="text_25">
      <!-- 100000 -->
      <g style="fill:#262626;" transform="translate(27.344375 200.991897)scale(0.1 -0.1)">
       <use xlink:href="#ArialMT-49"/>
       <use x="55.615234" xlink:href="#ArialMT-48"/>
       <use x="111.230469" xlink:href="#ArialMT-48"/>
       <use x="166.845703" xlink:href="#ArialMT-48"/>
       <use x="222.460938" xlink:href="#ArialMT-48"/>
       <use x="278.076172" xlink:href="#ArialMT-48"/>
      </g>
     </g>
    </g>
    <g id="ytick_8">
     <g id="line2d_44">
      <path clip-path="url(#p72685ae07c)" d="M 67.71 171.513144 
L 707.04 171.513144 
" style="fill:none;stroke:#ffffff;stroke-linecap:round;"/>
     </g>
     <g id="line2d_45"/>
     <g id="text_26">
      <!-- 150000 -->
      <g style="fill:#262626;" transform="translate(27.344375 175.09205)scale(0.1 -0.1)">
       <use xlink:href="#ArialMT-49"/>
       <use x="55.615234" xlink:href="#ArialMT-53"/>
       <use x="111.230469" xlink:href="#ArialMT-48"/>
       <use x="166.845703" xlink:href="#ArialMT-48"/>
       <use x="222.460938" xlink:href="#ArialMT-48"/>
       <use x="278.076172" xlink:href="#ArialMT-48"/>
      </g>
     </g>
    </g>
    <g id="text_27">
     <!-- Loan Amount -->
     <g style="fill:#262626;" transform="translate(21.158125 243.028484)rotate(-90)scale(0.11 -0.11)">
      <use xlink:href="#ArialMT-76"/>
      <use x="55.615234" xlink:href="#ArialMT-111"/>
      <use x="111.230469" xlink:href="#ArialMT-97"/>
      <use x="166.845703" xlink:href="#ArialMT-110"/>
      <use x="222.460938" xlink:href="#ArialMT-32"/>
      <use x="244.744141" xlink:href="#ArialMT-65"/>
      <use x="311.443359" xlink:href="#ArialMT-109"/>
      <use x="394.744141" xlink:href="#ArialMT-111"/>
      <use x="450.359375" xlink:href="#ArialMT-117"/>
      <use x="505.974609" xlink:href="#ArialMT-110"/>
      <use x="561.589844" xlink:href="#ArialMT-116"/>
     </g>
    </g>
   </g>
   <g id="line2d_46">
    <path clip-path="url(#p72685ae07c)" d="M 96.770455 248.979585 
L 115.735051 248.383889 
L 119.453599 248.798286 
L 123.296099 245.340657 
L 127.014647 243.501768 
L 130.857147 247.140696 
L 134.699647 246.078802 
L 138.170292 240.989483 
L 142.012792 238.904545 
L 145.73134 242.439874 
L 149.57384 238.580797 
L 153.292388 239.539091 
L 157.134888 245.832754 
L 160.977388 237.441204 
L 164.695936 240.044138 
L 168.538436 233.595076 
L 172.256984 233.659826 
L 176.099484 233.983574 
L 179.941984 232.416633 
L 183.53658 243.799616 
L 187.37908 247.231346 
L 191.097628 245.444256 
L 194.940128 245.677355 
L 198.658676 247.179546 
L 202.501176 246.583849 
L 206.343676 247.412645 
L 210.062224 247.283145 
L 213.904724 248.435688 
L 217.623273 246.337801 
L 225.308272 244.913309 
L 228.778917 219.660959 
L 232.621417 209.585919 
L 236.339965 223.882634 
L 240.182465 218.728564 
L 243.901013 239.021094 
L 247.743513 228.531656 
L 255.304561 215.750082 
L 259.147061 198.707983 
L 262.86561 199.14828 
L 266.708109 214.921287 
L 270.550609 217.511272 
L 274.021254 237.881501 
L 277.863754 243.657167 
L 281.582302 247.956541 
L 285.424802 236.223911 
L 289.14335 231.536039 
L 292.98585 223.222188 
L 296.82835 233.452627 
L 300.546898 206.633336 
L 304.389398 206.205989 
L 308.107947 213.950043 
L 311.950446 208.744174 
L 315.792946 217.329973 
L 319.263591 245.936353 
L 323.106091 236.703058 
L 326.824639 240.057088 
L 330.667139 245.638505 
L 334.385687 215.128486 
L 338.228187 225.449575 
L 342.070687 227.184864 
L 345.789235 245.250007 
L 349.631735 248.16374 
L 353.350284 207.047734 
L 357.192783 187.506299 
L 361.035283 183.440023 
L 364.62988 181.186737 
L 368.47238 202.709509 
L 372.190928 205.662092 
L 376.033428 230.396445 
L 379.751976 238.943395 
L 383.594476 231.380639 
L 387.436976 237.234005 
L 391.155524 240.471486 
L 394.998024 230.279896 
L 398.716572 215.853681 
L 402.559072 207.099533 
L 406.401572 192.958217 
L 409.872217 174.918974 
L 413.714717 190.186934 
L 417.433265 189.254539 
L 421.275765 217.161624 
L 424.994313 172.25129 
L 428.836813 189.798436 
L 432.679313 205.221794 
L 436.397861 211.670856 
L 440.240361 214.765888 
L 443.958909 241.248481 
L 447.801409 232.455483 
L 451.643909 223.170388 
L 455.114554 232.028136 
L 458.957054 237.402354 
L 462.675602 230.979192 
L 466.518102 248.474538 
L 470.23665 245.288857 
L 474.07915 242.711822 
L 477.92165 240.445586 
L 485.482698 220.994801 
L 489.201246 233.711626 
L 493.043746 213.263697 
L 496.886246 214.765888 
L 500.356891 192.608569 
L 504.199391 223.766085 
L 507.917939 233.193629 
L 511.760439 214.675238 
L 515.478987 231.937486 
L 519.321487 228.855404 
L 523.163987 227.430913 
L 526.882535 235.783613 
L 530.725035 218.715615 
L 534.443583 206.296638 
L 538.286083 239.629741 
L 542.128583 230.694294 
L 545.723179 213.483846 
L 549.565679 183.569523 
L 553.284228 203.823203 
L 557.126727 225.902822 
L 560.845276 219.194762 
L 564.687776 228.687055 
L 568.530275 214.519839 
L 572.248824 209.482319 
L 576.091324 212.486701 
L 579.809872 235.226767 
L 583.652372 210.466513 
L 587.494871 224.944528 
L 590.965516 218.832164 
L 594.808016 235.498715 
L 598.526565 198.979931 
L 602.369064 204.457749 
L 606.087613 212.214753 
L 609.930113 230.577744 
L 613.772612 223.856734 
L 617.491161 195.9108 
L 621.333661 220.101256 
L 625.052209 211.748556 
L 628.894709 199.057631 
L 632.737208 207.125433 
L 636.207853 204.885096 
L 640.050353 196.066199 
L 643.768902 183.025626 
L 647.611401 212.318352 
L 651.32995 190.031534 
L 655.17245 189.552387 
L 659.014949 175.67007 
L 662.733498 190.018585 
L 666.575997 189.953835 
L 670.294546 183.893271 
L 674.137046 204.574298 
L 677.979545 206.827585 
L 677.979545 206.827585 
" style="fill:none;stroke:#0000ff;stroke-linecap:round;stroke-width:1.75;"/>
   </g>
   <g id="patch_8">
    <path d="M 67.71 252.816 
L 67.71 168.414875 
" style="fill:none;"/>
   </g>
   <g id="patch_9">
    <path d="M 707.04 252.816 
L 707.04 168.414875 
" style="fill:none;"/>
   </g>
   <g id="patch_10">
    <path d="M 67.71 252.816 
L 707.04 252.816 
" style="fill:none;"/>
   </g>
   <g id="patch_11">
    <path d="M 67.71 168.414875 
L 707.04 168.414875 
" style="fill:none;"/>
   </g>
   <g id="text_28">
    <!-- Food loans over time -->
    <defs>
     <path d="M 8.203125 0 
L 8.203125 71.578125 
L 56.5 71.578125 
L 56.5 63.140625 
L 17.671875 63.140625 
L 17.671875 40.96875 
L 51.265625 40.96875 
L 51.265625 32.515625 
L 17.671875 32.515625 
L 17.671875 0 
z
" id="ArialMT-70"/>
     <path d="M 40.234375 0 
L 40.234375 6.546875 
Q 35.296875 -1.171875 25.734375 -1.171875 
Q 19.53125 -1.171875 14.328125 2.25 
Q 9.125 5.671875 6.265625 11.796875 
Q 3.421875 17.921875 3.421875 25.875 
Q 3.421875 33.640625 6 39.96875 
Q 8.59375 46.296875 13.765625 49.65625 
Q 18.953125 53.03125 25.34375 53.03125 
Q 30.03125 53.03125 33.6875 51.046875 
Q 37.359375 49.078125 39.65625 45.90625 
L 39.65625 71.578125 
L 48.390625 71.578125 
L 48.390625 0 
z
M 12.453125 25.875 
Q 12.453125 15.921875 16.640625 10.984375 
Q 20.84375 6.0625 26.5625 6.0625 
Q 32.328125 6.0625 36.34375 10.765625 
Q 40.375 15.484375 40.375 25.140625 
Q 40.375 35.796875 36.265625 40.765625 
Q 32.171875 45.75 26.171875 45.75 
Q 20.3125 45.75 16.375 40.96875 
Q 12.453125 36.1875 12.453125 25.875 
z
" id="ArialMT-100"/>
    </defs>
    <g style="fill:#262626;" transform="translate(331.351875 162.414875)scale(0.12 -0.12)">
     <use xlink:href="#ArialMT-70"/>
     <use x="61.083984" xlink:href="#ArialMT-111"/>
     <use x="116.699219" xlink:href="#ArialMT-111"/>
     <use x="172.314453" xlink:href="#ArialMT-100"/>
     <use x="227.929688" xlink:href="#ArialMT-32"/>
     <use x="255.712891" xlink:href="#ArialMT-108"/>
     <use x="277.929688" xlink:href="#ArialMT-111"/>
     <use x="333.544922" xlink:href="#ArialMT-97"/>
     <use x="389.160156" xlink:href="#ArialMT-110"/>
     <use x="444.775391" xlink:href="#ArialMT-115"/>
     <use x="494.775391" xlink:href="#ArialMT-32"/>
     <use x="522.558594" xlink:href="#ArialMT-111"/>
     <use x="578.173828" xlink:href="#ArialMT-118"/>
     <use x="628.173828" xlink:href="#ArialMT-101"/>
     <use x="683.789062" xlink:href="#ArialMT-114"/>
     <use x="717.089844" xlink:href="#ArialMT-32"/>
     <use x="744.873047" xlink:href="#ArialMT-116"/>
     <use x="772.65625" xlink:href="#ArialMT-105"/>
     <use x="794.873047" xlink:href="#ArialMT-109"/>
     <use x="878.173828" xlink:href="#ArialMT-101"/>
    </g>
   </g>
  </g>
  <g id="axes_3">
   <g id="patch_12">
    <path d="M 67.71 394.224 
L 707.04 394.224 
L 707.04 309.822875 
L 67.71 309.822875 
z
" style="fill:#eaeaf2;"/>
   </g>
   <g id="matplotlib.axis_5">
    <g id="xtick_15">
     <g id="line2d_47">
      <path clip-path="url(#p391a32f8c9)" d="M 85.61481 394.224 
L 85.61481 309.822875 
" style="fill:none;stroke:#ffffff;stroke-linecap:round;"/>
     </g>
     <g id="line2d_48"/>
     <g id="text_29">
      <!-- 2006 -->
      <g style="fill:#262626;" transform="translate(74.492935 408.381813)scale(0.1 -0.1)">
       <use xlink:href="#ArialMT-50"/>
       <use x="55.615234" xlink:href="#ArialMT-48"/>
       <use x="111.230469" xlink:href="#ArialMT-48"/>
       <use x="166.845703" xlink:href="#ArialMT-54"/>
      </g>
     </g>
    </g>
    <g id="xtick_16">
     <g id="line2d_49">
      <path clip-path="url(#p391a32f8c9)" d="M 176.099484 394.224 
L 176.099484 309.822875 
" style="fill:none;stroke:#ffffff;stroke-linecap:round;"/>
     </g>
     <g id="line2d_50"/>
     <g id="text_30">
      <!-- 2008 -->
      <g style="fill:#262626;" transform="translate(164.977609 408.381813)scale(0.1 -0.1)">
       <use xlink:href="#ArialMT-50"/>
       <use x="55.615234" xlink:href="#ArialMT-48"/>
       <use x="111.230469" xlink:href="#ArialMT-48"/>
       <use x="166.845703" xlink:href="#ArialMT-56"/>
      </g>
     </g>
    </g>
    <g id="xtick_17">
     <g id="line2d_51">
      <path clip-path="url(#p391a32f8c9)" d="M 266.708109 394.224 
L 266.708109 309.822875 
" style="fill:none;stroke:#ffffff;stroke-linecap:round;"/>
     </g>
     <g id="line2d_52"/>
     <g id="text_31">
      <!-- 2010 -->
      <g style="fill:#262626;" transform="translate(255.586234 408.381813)scale(0.1 -0.1)">
       <use xlink:href="#ArialMT-50"/>
       <use x="55.615234" xlink:href="#ArialMT-48"/>
       <use x="111.230469" xlink:href="#ArialMT-49"/>
       <use x="166.845703" xlink:href="#ArialMT-48"/>
      </g>
     </g>
    </g>
    <g id="xtick_18">
     <g id="line2d_53">
      <path clip-path="url(#p391a32f8c9)" d="M 357.192783 394.224 
L 357.192783 309.822875 
" style="fill:none;stroke:#ffffff;stroke-linecap:round;"/>
     </g>
     <g id="line2d_54"/>
     <g id="text_32">
      <!-- 2012 -->
      <g style="fill:#262626;" transform="translate(346.070908 408.381813)scale(0.1 -0.1)">
       <use xlink:href="#ArialMT-50"/>
       <use x="55.615234" xlink:href="#ArialMT-48"/>
       <use x="111.230469" xlink:href="#ArialMT-49"/>
       <use x="166.845703" xlink:href="#ArialMT-50"/>
      </g>
     </g>
    </g>
    <g id="xtick_19">
     <g id="line2d_55">
      <path clip-path="url(#p391a32f8c9)" d="M 447.801409 394.224 
L 447.801409 309.822875 
" style="fill:none;stroke:#ffffff;stroke-linecap:round;"/>
     </g>
     <g id="line2d_56"/>
     <g id="text_33">
      <!-- 2014 -->
      <g style="fill:#262626;" transform="translate(436.679534 408.381813)scale(0.1 -0.1)">
       <use xlink:href="#ArialMT-50"/>
       <use x="55.615234" xlink:href="#ArialMT-48"/>
       <use x="111.230469" xlink:href="#ArialMT-49"/>
       <use x="166.845703" xlink:href="#ArialMT-52"/>
      </g>
     </g>
    </g>
    <g id="xtick_20">
     <g id="line2d_57">
      <path clip-path="url(#p391a32f8c9)" d="M 538.286083 394.224 
L 538.286083 309.822875 
" style="fill:none;stroke:#ffffff;stroke-linecap:round;"/>
     </g>
     <g id="line2d_58"/>
     <g id="text_34">
      <!-- 2016 -->
      <g style="fill:#262626;" transform="translate(527.164208 408.381813)scale(0.1 -0.1)">
       <use xlink:href="#ArialMT-50"/>
       <use x="55.615234" xlink:href="#ArialMT-48"/>
       <use x="111.230469" xlink:href="#ArialMT-49"/>
       <use x="166.845703" xlink:href="#ArialMT-54"/>
      </g>
     </g>
    </g>
    <g id="xtick_21">
     <g id="line2d_59">
      <path clip-path="url(#p391a32f8c9)" d="M 628.894709 394.224 
L 628.894709 309.822875 
" style="fill:none;stroke:#ffffff;stroke-linecap:round;"/>
     </g>
     <g id="line2d_60"/>
     <g id="text_35">
      <!-- 2018 -->
      <g style="fill:#262626;" transform="translate(617.772834 408.381813)scale(0.1 -0.1)">
       <use xlink:href="#ArialMT-50"/>
       <use x="55.615234" xlink:href="#ArialMT-48"/>
       <use x="111.230469" xlink:href="#ArialMT-49"/>
       <use x="166.845703" xlink:href="#ArialMT-56"/>
      </g>
     </g>
    </g>
    <g id="text_36">
     <!-- Date -->
     <g style="fill:#262626;" transform="translate(375.757969 422.242906)scale(0.11 -0.11)">
      <use xlink:href="#ArialMT-68"/>
      <use x="72.216797" xlink:href="#ArialMT-97"/>
      <use x="127.832031" xlink:href="#ArialMT-116"/>
      <use x="155.615234" xlink:href="#ArialMT-101"/>
     </g>
    </g>
   </g>
   <g id="matplotlib.axis_6">
    <g id="ytick_9">
     <g id="line2d_61">
      <path clip-path="url(#p391a32f8c9)" d="M 67.71 390.526614 
L 707.04 390.526614 
" style="fill:none;stroke:#ffffff;stroke-linecap:round;"/>
     </g>
     <g id="line2d_62"/>
     <g id="text_37">
      <!-- 0 -->
      <g style="fill:#262626;" transform="translate(55.149063 394.10552)scale(0.1 -0.1)">
       <use xlink:href="#ArialMT-48"/>
      </g>
     </g>
    </g>
    <g id="ytick_10">
     <g id="line2d_63">
      <path clip-path="url(#p391a32f8c9)" d="M 67.71 359.631387 
L 707.04 359.631387 
" style="fill:none;stroke:#ffffff;stroke-linecap:round;"/>
     </g>
     <g id="line2d_64"/>
     <g id="text_38">
      <!-- 50000 -->
      <g style="fill:#262626;" transform="translate(32.905313 363.210293)scale(0.1 -0.1)">
       <use xlink:href="#ArialMT-53"/>
       <use x="55.615234" xlink:href="#ArialMT-48"/>
       <use x="111.230469" xlink:href="#ArialMT-48"/>
       <use x="166.845703" xlink:href="#ArialMT-48"/>
       <use x="222.460938" xlink:href="#ArialMT-48"/>
      </g>
     </g>
    </g>
    <g id="ytick_11">
     <g id="line2d_65">
      <path clip-path="url(#p391a32f8c9)" d="M 67.71 328.73616 
L 707.04 328.73616 
" style="fill:none;stroke:#ffffff;stroke-linecap:round;"/>
     </g>
     <g id="line2d_66"/>
     <g id="text_39">
      <!-- 100000 -->
      <g style="fill:#262626;" transform="translate(27.344375 332.315067)scale(0.1 -0.1)">
       <use xlink:href="#ArialMT-49"/>
       <use x="55.615234" xlink:href="#ArialMT-48"/>
       <use x="111.230469" xlink:href="#ArialMT-48"/>
       <use x="166.845703" xlink:href="#ArialMT-48"/>
       <use x="222.460938" xlink:href="#ArialMT-48"/>
       <use x="278.076172" xlink:href="#ArialMT-48"/>
      </g>
     </g>
    </g>
    <g id="text_40">
     <!-- Loan Amount -->
     <g style="fill:#262626;" transform="translate(21.158125 384.436484)rotate(-90)scale(0.11 -0.11)">
      <use xlink:href="#ArialMT-76"/>
      <use x="55.615234" xlink:href="#ArialMT-111"/>
      <use x="111.230469" xlink:href="#ArialMT-97"/>
      <use x="166.845703" xlink:href="#ArialMT-110"/>
      <use x="222.460938" xlink:href="#ArialMT-32"/>
      <use x="244.744141" xlink:href="#ArialMT-65"/>
      <use x="311.443359" xlink:href="#ArialMT-109"/>
      <use x="394.744141" xlink:href="#ArialMT-111"/>
      <use x="450.359375" xlink:href="#ArialMT-117"/>
      <use x="505.974609" xlink:href="#ArialMT-110"/>
      <use x="561.589844" xlink:href="#ArialMT-116"/>
     </g>
    </g>
   </g>
   <g id="line2d_67">
    <path clip-path="url(#p391a32f8c9)" d="M 96.770455 390.387585 
L 115.735051 389.877814 
L 119.453599 390.387585 
L 123.296099 388.966405 
L 127.014647 385.815092 
L 130.857147 387.174482 
L 134.699647 387.776939 
L 138.170292 383.667873 
L 142.012792 384.347568 
L 145.73134 384.100407 
L 149.57384 381.922293 
L 153.292388 384.702864 
L 157.134888 385.985015 
L 160.977388 380.748275 
L 164.695936 385.228082 
L 168.538436 381.335284 
L 172.256984 373.302525 
L 179.941984 377.550619 
L 183.53658 387.066348 
L 187.37908 389.3217 
L 191.097628 388.0241 
L 194.940128 389.630652 
L 198.658676 389.893262 
L 202.501176 388.93551 
L 206.343676 389.738785 
L 210.062224 388.626557 
L 213.904724 388.781033 
L 217.623273 389.476176 
L 225.308272 386.865529 
L 228.778917 366.938108 
L 232.621417 364.744547 
L 236.339965 357.654093 
L 240.182465 355.151579 
L 243.901013 370.043078 
L 247.743513 356.789026 
L 251.586013 347.999334 
L 255.304561 316.084565 
L 259.147061 351.783999 
L 262.86561 313.65929 
L 266.708109 343.30326 
L 270.550609 346.609049 
L 274.021254 377.040847 
L 277.863754 382.756464 
L 281.582302 387.004558 
L 285.424802 370.969935 
L 289.14335 362.72091 
L 292.98585 376.036752 
L 296.82835 368.529212 
L 300.546898 326.048276 
L 304.389398 335.085129 
L 308.107947 323.931953 
L 311.950446 336.660786 
L 315.792946 350.779905 
L 319.263591 382.215798 
L 323.106091 378.817323 
L 326.824639 375.696905 
L 330.667139 381.628788 
L 334.385687 357.34514 
L 338.228187 362.813595 
L 342.070687 366.876318 
L 345.789235 387.097244 
L 349.631735 389.445281 
L 353.350284 340.553585 
L 357.192783 334.17372 
L 361.035283 324.843362 
L 368.47238 337.942938 
L 372.190928 357.592302 
L 376.033428 372.282982 
L 379.751976 379.110827 
L 383.594476 378.292104 
L 387.436976 374.383858 
L 391.155524 380.825513 
L 394.998024 369.116222 
L 398.716572 337.525852 
L 402.559072 336.429072 
L 406.401572 338.854347 
L 409.872217 322.896963 
L 413.714717 341.928422 
L 417.433265 340.306423 
L 421.275765 350.254686 
L 424.994313 339.22509 
L 428.836813 328.906084 
L 432.679313 334.992444 
L 436.397861 366.428337 
L 440.240361 363.508738 
L 443.958909 377.288009 
L 447.801409 382.13856 
L 451.643909 377.936809 
L 455.114554 356.093884 
L 458.957054 377.875018 
L 462.675602 380.933646 
L 466.518102 388.966405 
L 470.23665 383.745111 
L 474.07915 379.110827 
L 477.92165 372.638278 
L 481.640198 345.342345 
L 485.482698 364.713652 
L 489.201246 372.205744 
L 493.043746 354.641808 
L 496.886246 373.225287 
L 500.356891 330.09555 
L 504.199391 365.964909 
L 507.917939 377.875018 
L 511.760439 354.842627 
L 515.478987 372.051268 
L 519.321487 369.038984 
L 523.163987 378.431133 
L 526.882535 386.046806 
L 530.725035 365.532375 
L 534.443583 344.554516 
L 538.286083 375.758695 
L 542.128583 359.569597 
L 545.723179 352.355561 
L 549.565679 350.455505 
L 553.284228 353.421447 
L 557.126727 368.86906 
L 560.845276 357.097978 
L 564.687776 374.445648 
L 568.530275 363.972166 
L 572.248824 366.969003 
L 576.091324 363.076205 
L 583.652372 367.370641 
L 587.494871 366.721842 
L 590.965516 359.013483 
L 594.808016 377.627857 
L 598.526565 356.819921 
L 602.369064 355.460531 
L 606.087613 365.655956 
L 609.930113 365.903118 
L 613.772612 369.239803 
L 617.491161 347.242401 
L 621.333661 365.455137 
L 625.052209 363.292471 
L 628.894709 340.785299 
L 632.737208 361.639577 
L 636.207853 321.846525 
L 640.050353 334.714387 
L 643.768902 349.590438 
L 647.611401 331.841131 
L 651.32995 335.47132 
L 655.17245 349.945734 
L 659.014949 315.914641 
L 662.733498 345.790326 
L 666.575997 324.843362 
L 670.294546 348.926191 
L 674.137046 350.579086 
L 677.979545 371.247992 
L 677.979545 371.247992 
" style="fill:none;stroke:#ff0000;stroke-linecap:round;stroke-width:1.75;"/>
   </g>
   <g id="patch_13">
    <path d="M 67.71 394.224 
L 67.71 309.822875 
" style="fill:none;"/>
   </g>
   <g id="patch_14">
    <path d="M 707.04 394.224 
L 707.04 309.822875 
" style="fill:none;"/>
   </g>
   <g id="patch_15">
    <path d="M 67.71 394.224 
L 707.04 394.224 
" style="fill:none;"/>
   </g>
   <g id="patch_16">
    <path d="M 67.71 309.822875 
L 707.04 309.822875 
" style="fill:none;"/>
   </g>
   <g id="text_41">
    <!-- Retail loans over time -->
    <defs>
     <path d="M 7.859375 0 
L 7.859375 71.578125 
L 39.59375 71.578125 
Q 49.171875 71.578125 54.140625 69.640625 
Q 59.125 67.71875 62.109375 62.828125 
Q 65.09375 57.953125 65.09375 52.046875 
Q 65.09375 44.4375 60.15625 39.203125 
Q 55.21875 33.984375 44.921875 32.5625 
Q 48.6875 30.765625 50.640625 29 
Q 54.78125 25.203125 58.5 19.484375 
L 70.953125 0 
L 59.03125 0 
L 49.5625 14.890625 
Q 45.40625 21.34375 42.71875 24.75 
Q 40.046875 28.171875 37.921875 29.53125 
Q 35.796875 30.90625 33.59375 31.453125 
Q 31.984375 31.78125 28.328125 31.78125 
L 17.328125 31.78125 
L 17.328125 0 
z
M 17.328125 39.984375 
L 37.703125 39.984375 
Q 44.1875 39.984375 47.84375 41.328125 
Q 51.515625 42.671875 53.421875 45.625 
Q 55.328125 48.578125 55.328125 52.046875 
Q 55.328125 57.125 51.640625 60.390625 
Q 47.953125 63.671875 39.984375 63.671875 
L 17.328125 63.671875 
z
" id="ArialMT-82"/>
    </defs>
    <g style="fill:#262626;" transform="translate(329.686875 303.822875)scale(0.12 -0.12)">
     <use xlink:href="#ArialMT-82"/>
     <use x="72.216797" xlink:href="#ArialMT-101"/>
     <use x="127.832031" xlink:href="#ArialMT-116"/>
     <use x="155.615234" xlink:href="#ArialMT-97"/>
     <use x="211.230469" xlink:href="#ArialMT-105"/>
     <use x="233.447266" xlink:href="#ArialMT-108"/>
     <use x="255.664062" xlink:href="#ArialMT-32"/>
     <use x="283.447266" xlink:href="#ArialMT-108"/>
     <use x="305.664062" xlink:href="#ArialMT-111"/>
     <use x="361.279297" xlink:href="#ArialMT-97"/>
     <use x="416.894531" xlink:href="#ArialMT-110"/>
     <use x="472.509766" xlink:href="#ArialMT-115"/>
     <use x="522.509766" xlink:href="#ArialMT-32"/>
     <use x="550.292969" xlink:href="#ArialMT-111"/>
     <use x="605.908203" xlink:href="#ArialMT-118"/>
     <use x="655.908203" xlink:href="#ArialMT-101"/>
     <use x="711.523438" xlink:href="#ArialMT-114"/>
     <use x="744.824219" xlink:href="#ArialMT-32"/>
     <use x="772.607422" xlink:href="#ArialMT-116"/>
     <use x="800.390625" xlink:href="#ArialMT-105"/>
     <use x="822.607422" xlink:href="#ArialMT-109"/>
     <use x="905.908203" xlink:href="#ArialMT-101"/>
    </g>
   </g>
  </g>
  <g id="axes_4">
   <g id="patch_17">
    <path d="M 67.71 535.632 
L 707.04 535.632 
L 707.04 451.230875 
L 67.71 451.230875 
z
" style="fill:#eaeaf2;"/>
   </g>
   <g id="matplotlib.axis_7">
    <g id="xtick_22">
     <g id="line2d_68">
      <path clip-path="url(#p4ebae9bd60)" d="M 81.800484 535.632 
L 81.800484 451.230875 
" style="fill:none;stroke:#ffffff;stroke-linecap:round;"/>
     </g>
     <g id="line2d_69"/>
     <g id="text_42">
      <!-- 2006 -->
      <g style="fill:#262626;" transform="translate(70.678609 549.789813)scale(0.1 -0.1)">
       <use xlink:href="#ArialMT-50"/>
       <use x="55.615234" xlink:href="#ArialMT-48"/>
       <use x="111.230469" xlink:href="#ArialMT-48"/>
       <use x="166.845703" xlink:href="#ArialMT-54"/>
      </g>
     </g>
    </g>
    <g id="xtick_23">
     <g id="line2d_70">
      <path clip-path="url(#p4ebae9bd60)" d="M 172.867803 535.632 
L 172.867803 451.230875 
" style="fill:none;stroke:#ffffff;stroke-linecap:round;"/>
     </g>
     <g id="line2d_71"/>
     <g id="text_43">
      <!-- 2008 -->
      <g style="fill:#262626;" transform="translate(161.745928 549.789813)scale(0.1 -0.1)">
       <use xlink:href="#ArialMT-50"/>
       <use x="55.615234" xlink:href="#ArialMT-48"/>
       <use x="111.230469" xlink:href="#ArialMT-48"/>
       <use x="166.845703" xlink:href="#ArialMT-56"/>
      </g>
     </g>
    </g>
    <g id="xtick_24">
     <g id="line2d_72">
      <path clip-path="url(#p4ebae9bd60)" d="M 264.059871 535.632 
L 264.059871 451.230875 
" style="fill:none;stroke:#ffffff;stroke-linecap:round;"/>
     </g>
     <g id="line2d_73"/>
     <g id="text_44">
      <!-- 2010 -->
      <g style="fill:#262626;" transform="translate(252.937996 549.789813)scale(0.1 -0.1)">
       <use xlink:href="#ArialMT-50"/>
       <use x="55.615234" xlink:href="#ArialMT-48"/>
       <use x="111.230469" xlink:href="#ArialMT-49"/>
       <use x="166.845703" xlink:href="#ArialMT-48"/>
      </g>
     </g>
    </g>
    <g id="xtick_25">
     <g id="line2d_74">
      <path clip-path="url(#p4ebae9bd60)" d="M 355.127189 535.632 
L 355.127189 451.230875 
" style="fill:none;stroke:#ffffff;stroke-linecap:round;"/>
     </g>
     <g id="line2d_75"/>
     <g id="text_45">
      <!-- 2012 -->
      <g style="fill:#262626;" transform="translate(344.005314 549.789813)scale(0.1 -0.1)">
       <use xlink:href="#ArialMT-50"/>
       <use x="55.615234" xlink:href="#ArialMT-48"/>
       <use x="111.230469" xlink:href="#ArialMT-49"/>
       <use x="166.845703" xlink:href="#ArialMT-50"/>
      </g>
     </g>
    </g>
    <g id="xtick_26">
     <g id="line2d_76">
      <path clip-path="url(#p4ebae9bd60)" d="M 446.319257 535.632 
L 446.319257 451.230875 
" style="fill:none;stroke:#ffffff;stroke-linecap:round;"/>
     </g>
     <g id="line2d_77"/>
     <g id="text_46">
      <!-- 2014 -->
      <g style="fill:#262626;" transform="translate(435.197382 549.789813)scale(0.1 -0.1)">
       <use xlink:href="#ArialMT-50"/>
       <use x="55.615234" xlink:href="#ArialMT-48"/>
       <use x="111.230469" xlink:href="#ArialMT-49"/>
       <use x="166.845703" xlink:href="#ArialMT-52"/>
      </g>
     </g>
    </g>
    <g id="xtick_27">
     <g id="line2d_78">
      <path clip-path="url(#p4ebae9bd60)" d="M 537.386576 535.632 
L 537.386576 451.230875 
" style="fill:none;stroke:#ffffff;stroke-linecap:round;"/>
     </g>
     <g id="line2d_79"/>
     <g id="text_47">
      <!-- 2016 -->
      <g style="fill:#262626;" transform="translate(526.264701 549.789813)scale(0.1 -0.1)">
       <use xlink:href="#ArialMT-50"/>
       <use x="55.615234" xlink:href="#ArialMT-48"/>
       <use x="111.230469" xlink:href="#ArialMT-49"/>
       <use x="166.845703" xlink:href="#ArialMT-54"/>
      </g>
     </g>
    </g>
    <g id="xtick_28">
     <g id="line2d_80">
      <path clip-path="url(#p4ebae9bd60)" d="M 628.578644 535.632 
L 628.578644 451.230875 
" style="fill:none;stroke:#ffffff;stroke-linecap:round;"/>
     </g>
     <g id="line2d_81"/>
     <g id="text_48">
      <!-- 2018 -->
      <g style="fill:#262626;" transform="translate(617.456769 549.789813)scale(0.1 -0.1)">
       <use xlink:href="#ArialMT-50"/>
       <use x="55.615234" xlink:href="#ArialMT-48"/>
       <use x="111.230469" xlink:href="#ArialMT-49"/>
       <use x="166.845703" xlink:href="#ArialMT-56"/>
      </g>
     </g>
    </g>
    <g id="text_49">
     <!-- Date -->
     <g style="fill:#262626;" transform="translate(375.757969 563.650906)scale(0.11 -0.11)">
      <use xlink:href="#ArialMT-68"/>
      <use x="72.216797" xlink:href="#ArialMT-97"/>
      <use x="127.832031" xlink:href="#ArialMT-116"/>
      <use x="155.615234" xlink:href="#ArialMT-101"/>
     </g>
    </g>
   </g>
   <g id="matplotlib.axis_8">
    <g id="ytick_12">
     <g id="line2d_82">
      <path clip-path="url(#p4ebae9bd60)" d="M 67.71 532.257804 
L 707.04 532.257804 
" style="fill:none;stroke:#ffffff;stroke-linecap:round;"/>
     </g>
     <g id="line2d_83"/>
     <g id="text_50">
      <!-- 0 -->
      <g style="fill:#262626;" transform="translate(55.149063 535.83671)scale(0.1 -0.1)">
       <use xlink:href="#ArialMT-48"/>
      </g>
     </g>
    </g>
    <g id="ytick_13">
     <g id="line2d_84">
      <path clip-path="url(#p4ebae9bd60)" d="M 67.71 509.146872 
L 707.04 509.146872 
" style="fill:none;stroke:#ffffff;stroke-linecap:round;"/>
     </g>
     <g id="line2d_85"/>
     <g id="text_51">
      <!-- 25000 -->
      <g style="fill:#262626;" transform="translate(32.905313 512.725778)scale(0.1 -0.1)">
       <use xlink:href="#ArialMT-50"/>
       <use x="55.615234" xlink:href="#ArialMT-53"/>
       <use x="111.230469" xlink:href="#ArialMT-48"/>
       <use x="166.845703" xlink:href="#ArialMT-48"/>
       <use x="222.460938" xlink:href="#ArialMT-48"/>
      </g>
     </g>
    </g>
    <g id="ytick_14">
     <g id="line2d_86">
      <path clip-path="url(#p4ebae9bd60)" d="M 67.71 486.035939 
L 707.04 486.035939 
" style="fill:none;stroke:#ffffff;stroke-linecap:round;"/>
     </g>
     <g id="line2d_87"/>
     <g id="text_52">
      <!-- 50000 -->
      <g style="fill:#262626;" transform="translate(32.905313 489.614845)scale(0.1 -0.1)">
       <use xlink:href="#ArialMT-53"/>
       <use x="55.615234" xlink:href="#ArialMT-48"/>
       <use x="111.230469" xlink:href="#ArialMT-48"/>
       <use x="166.845703" xlink:href="#ArialMT-48"/>
       <use x="222.460938" xlink:href="#ArialMT-48"/>
      </g>
     </g>
    </g>
    <g id="ytick_15">
     <g id="line2d_88">
      <path clip-path="url(#p4ebae9bd60)" d="M 67.71 462.925007 
L 707.04 462.925007 
" style="fill:none;stroke:#ffffff;stroke-linecap:round;"/>
     </g>
     <g id="line2d_89"/>
     <g id="text_53">
      <!-- 75000 -->
      <defs>
       <path d="M 4.734375 62.203125 
L 4.734375 70.65625 
L 51.078125 70.65625 
L 51.078125 63.8125 
Q 44.234375 56.546875 37.515625 44.484375 
Q 30.8125 32.421875 27.15625 19.671875 
Q 24.515625 10.6875 23.78125 0 
L 14.75 0 
Q 14.890625 8.453125 18.0625 20.40625 
Q 21.234375 32.375 27.171875 43.484375 
Q 33.109375 54.59375 39.796875 62.203125 
z
" id="ArialMT-55"/>
      </defs>
      <g style="fill:#262626;" transform="translate(32.905313 466.503913)scale(0.1 -0.1)">
       <use xlink:href="#ArialMT-55"/>
       <use x="55.615234" xlink:href="#ArialMT-53"/>
       <use x="111.230469" xlink:href="#ArialMT-48"/>
       <use x="166.845703" xlink:href="#ArialMT-48"/>
       <use x="222.460938" xlink:href="#ArialMT-48"/>
      </g>
     </g>
    </g>
    <g id="text_54">
     <!-- Loan Amount -->
     <g style="fill:#262626;" transform="translate(26.719063 525.844484)rotate(-90)scale(0.11 -0.11)">
      <use xlink:href="#ArialMT-76"/>
      <use x="55.615234" xlink:href="#ArialMT-111"/>
      <use x="111.230469" xlink:href="#ArialMT-97"/>
      <use x="166.845703" xlink:href="#ArialMT-110"/>
      <use x="222.460938" xlink:href="#ArialMT-32"/>
      <use x="244.744141" xlink:href="#ArialMT-65"/>
      <use x="311.443359" xlink:href="#ArialMT-109"/>
      <use x="394.744141" xlink:href="#ArialMT-111"/>
      <use x="450.359375" xlink:href="#ArialMT-117"/>
      <use x="505.974609" xlink:href="#ArialMT-110"/>
      <use x="561.589844" xlink:href="#ArialMT-116"/>
     </g>
    </g>
   </g>
   <g id="line2d_90">
    <path clip-path="url(#p4ebae9bd60)" d="M 96.770455 531.148479 
L 100.637697 531.726252 
L 108.247432 531.795585 
L 115.857166 530.848037 
L 119.724409 529.969822 
L 123.466901 524.654307 
L 127.334144 528.4445 
L 131.201386 528.583166 
L 134.694379 527.127177 
L 138.561621 524.492531 
L 142.304114 530.154709 
L 146.171356 528.976051 
L 149.913849 528.791164 
L 153.781091 529.068495 
L 157.648333 525.786743 
L 161.390826 527.057844 
L 165.258068 524.145867 
L 169.00056 522.019661 
L 172.867803 520.217008 
L 176.735045 520.471228 
L 180.352788 528.583166 
L 184.22003 527.011622 
L 187.962523 530.616928 
L 195.572258 529.900489 
L 199.4395 527.335175 
L 203.306742 530.940481 
L 210.916477 530.824926 
L 214.658969 531.65692 
L 222.393454 530.986703 
L 225.886447 520.240119 
L 229.753689 515.617933 
L 233.496182 506.697113 
L 237.363424 518.252579 
L 241.105917 518.414355 
L 244.973159 519.731679 
L 248.840401 511.180634 
L 252.582894 502.282925 
L 256.450136 505.310457 
L 260.192629 487.699926 
L 264.059871 506.835778 
L 267.927113 509.123761 
L 271.420106 529.18405 
L 275.287349 529.9236 
L 279.029841 530.408929 
L 282.897083 521.904106 
L 286.639576 518.27569 
L 290.506818 525.370746 
L 294.37406 526.942289 
L 298.116553 505.171791 
L 301.983795 508.384211 
L 305.726288 499.278503 
L 309.59353 503.577137 
L 313.460772 519.824122 
L 316.953765 531.333367 
L 320.821008 521.834773 
L 324.5635 522.897876 
L 328.430743 522.805433 
L 332.173235 519.130794 
L 336.040477 516.080151 
L 339.90772 519.893455 
L 343.650212 530.963592 
L 347.517454 530.986703 
L 351.259947 500.364717 
L 355.127189 501.843817 
L 358.994432 484.718616 
L 362.612174 483.401293 
L 366.479417 508.638431 
L 370.221909 499.209171 
L 374.089151 527.70495 
L 377.831644 528.906719 
L 381.698886 519.962788 
L 385.566129 522.597434 
L 389.308621 527.011622 
L 393.175863 519.246349 
L 396.918356 502.121148 
L 400.785598 498.746952 
L 404.652841 487.815481 
L 408.145834 481.020867 
L 412.013076 487.561261 
L 415.755568 497.152298 
L 419.622811 515.849042 
L 423.365303 501.612708 
L 427.232546 485.827941 
L 431.099788 485.296389 
L 434.84228 504.062466 
L 438.709523 496.22786 
L 442.452015 526.734291 
L 446.319257 519.569902 
L 450.1865 510.071309 
L 453.679493 499.44028 
L 457.546735 528.768053 
L 461.289228 531.217812 
L 468.898962 529.623158 
L 472.766205 526.272072 
L 476.633447 527.889838 
L 480.37594 522.689878 
L 484.243182 514.855272 
L 487.985674 518.807241 
L 491.852917 514.832161 
L 495.720159 521.950328 
L 499.213152 485.504388 
L 503.080394 512.289958 
L 506.822887 512.105071 
L 510.690129 511.249966 
L 514.432622 525.763632 
L 518.299864 511.481076 
L 522.167106 530.501373 
L 525.909599 520.794781 
L 529.776841 523.845424 
L 533.519334 514.32372 
L 537.386576 522.435658 
L 541.253818 516.842812 
L 544.871561 521.880995 
L 548.738803 504.917571 
L 552.481296 502.860698 
L 556.348538 516.958367 
L 560.091031 504.501574 
L 563.958273 514.300609 
L 567.825515 516.218817 
L 571.568008 520.794781 
L 575.43525 518.714798 
L 579.177742 518.945907 
L 583.044985 513.745947 
L 586.912227 516.496148 
L 590.40522 513.468616 
L 594.272462 526.040963 
L 598.014955 518.899685 
L 601.882197 512.128182 
L 605.62469 519.477458 
L 609.491932 521.626775 
L 613.359174 521.280111 
L 617.101667 503.138029 
L 620.968909 512.867732 
L 624.711402 501.728262 
L 628.578644 511.481076 
L 632.445886 484.441285 
L 635.938879 490.819902 
L 639.806122 506.743335 
L 643.548614 455.06729 
L 647.415856 498.908728 
L 651.158349 496.019862 
L 655.025591 472.492933 
L 658.892834 494.24032 
L 662.635326 484.880393 
L 666.502568 495.580754 
L 670.245061 509.678423 
L 674.112303 508.961984 
L 677.979545 510.787748 
L 677.979545 510.787748 
" style="fill:none;stroke:#008000;stroke-linecap:round;stroke-width:1.75;"/>
   </g>
   <g id="patch_18">
    <path d="M 67.71 535.632 
L 67.71 451.230875 
" style="fill:none;"/>
   </g>
   <g id="patch_19">
    <path d="M 707.04 535.632 
L 707.04 451.230875 
" style="fill:none;"/>
   </g>
   <g id="patch_20">
    <path d="M 67.71 535.632 
L 707.04 535.632 
" style="fill:none;"/>
   </g>
   <g id="patch_21">
    <path d="M 67.71 451.230875 
L 707.04 451.230875 
" style="fill:none;"/>
   </g>
   <g id="text_55">
    <!-- Services loans over time -->
    <defs>
     <path d="M 4.5 23 
L 13.421875 23.78125 
Q 14.0625 18.40625 16.375 14.96875 
Q 18.703125 11.53125 23.578125 9.40625 
Q 28.46875 7.28125 34.578125 7.28125 
Q 39.984375 7.28125 44.140625 8.890625 
Q 48.296875 10.5 50.3125 13.296875 
Q 52.34375 16.109375 52.34375 19.4375 
Q 52.34375 22.796875 50.390625 25.3125 
Q 48.4375 27.828125 43.953125 29.546875 
Q 41.0625 30.671875 31.203125 33.03125 
Q 21.34375 35.40625 17.390625 37.5 
Q 12.25 40.1875 9.734375 44.15625 
Q 7.234375 48.140625 7.234375 53.078125 
Q 7.234375 58.5 10.296875 63.203125 
Q 13.375 67.921875 19.28125 70.359375 
Q 25.203125 72.796875 32.421875 72.796875 
Q 40.375 72.796875 46.453125 70.234375 
Q 52.546875 67.671875 55.8125 62.6875 
Q 59.078125 57.71875 59.328125 51.421875 
L 50.25 50.734375 
Q 49.515625 57.515625 45.28125 60.984375 
Q 41.0625 64.453125 32.8125 64.453125 
Q 24.21875 64.453125 20.28125 61.296875 
Q 16.359375 58.15625 16.359375 53.71875 
Q 16.359375 49.859375 19.140625 47.359375 
Q 21.875 44.875 33.421875 42.265625 
Q 44.96875 39.65625 49.265625 37.703125 
Q 55.515625 34.8125 58.484375 30.390625 
Q 61.46875 25.984375 61.46875 20.21875 
Q 61.46875 14.5 58.203125 9.4375 
Q 54.9375 4.390625 48.796875 1.578125 
Q 42.671875 -1.21875 35.015625 -1.21875 
Q 25.296875 -1.21875 18.71875 1.609375 
Q 12.15625 4.4375 8.421875 10.125 
Q 4.6875 15.828125 4.5 23 
z
" id="ArialMT-83"/>
    </defs>
    <g style="fill:#262626;" transform="translate(322.02 445.230875)scale(0.12 -0.12)">
     <use xlink:href="#ArialMT-83"/>
     <use x="66.699219" xlink:href="#ArialMT-101"/>
     <use x="122.314453" xlink:href="#ArialMT-114"/>
     <use x="155.615234" xlink:href="#ArialMT-118"/>
     <use x="205.615234" xlink:href="#ArialMT-105"/>
     <use x="227.832031" xlink:href="#ArialMT-99"/>
     <use x="277.832031" xlink:href="#ArialMT-101"/>
     <use x="333.447266" xlink:href="#ArialMT-115"/>
     <use x="383.447266" xlink:href="#ArialMT-32"/>
     <use x="411.230469" xlink:href="#ArialMT-108"/>
     <use x="433.447266" xlink:href="#ArialMT-111"/>
     <use x="489.0625" xlink:href="#ArialMT-97"/>
     <use x="544.677734" xlink:href="#ArialMT-110"/>
     <use x="600.292969" xlink:href="#ArialMT-115"/>
     <use x="650.292969" xlink:href="#ArialMT-32"/>
     <use x="678.076172" xlink:href="#ArialMT-111"/>
     <use x="733.691406" xlink:href="#ArialMT-118"/>
     <use x="783.691406" xlink:href="#ArialMT-101"/>
     <use x="839.306641" xlink:href="#ArialMT-114"/>
     <use x="872.607422" xlink:href="#ArialMT-32"/>
     <use x="900.390625" xlink:href="#ArialMT-116"/>
     <use x="928.173828" xlink:href="#ArialMT-105"/>
     <use x="950.390625" xlink:href="#ArialMT-109"/>
     <use x="1033.691406" xlink:href="#ArialMT-101"/>
    </g>
   </g>
  </g>
  <g id="axes_5">
   <g id="patch_22">
    <path d="M 67.71 677.04 
L 707.04 677.04 
L 707.04 592.638875 
L 67.71 592.638875 
z
" style="fill:#eaeaf2;"/>
   </g>
   <g id="matplotlib.axis_9">
    <g id="xtick_29">
     <g id="line2d_91">
      <path clip-path="url(#pf3b286c25c)" d="M 155.716871 677.04 
L 155.716871 592.638875 
" style="fill:none;stroke:#ffffff;stroke-linecap:round;"/>
     </g>
     <g id="line2d_92"/>
     <g id="text_56">
      <!-- 2008 -->
      <g style="fill:#262626;" transform="translate(144.594996 691.197813)scale(0.1 -0.1)">
       <use xlink:href="#ArialMT-50"/>
       <use x="55.615234" xlink:href="#ArialMT-48"/>
       <use x="111.230469" xlink:href="#ArialMT-48"/>
       <use x="166.845703" xlink:href="#ArialMT-56"/>
      </g>
     </g>
    </g>
    <g id="xtick_30">
     <g id="line2d_93">
      <path clip-path="url(#pf3b286c25c)" d="M 250.005341 677.04 
L 250.005341 592.638875 
" style="fill:none;stroke:#ffffff;stroke-linecap:round;"/>
     </g>
     <g id="line2d_94"/>
     <g id="text_57">
      <!-- 2010 -->
      <g style="fill:#262626;" transform="translate(238.883466 691.197813)scale(0.1 -0.1)">
       <use xlink:href="#ArialMT-50"/>
       <use x="55.615234" xlink:href="#ArialMT-48"/>
       <use x="111.230469" xlink:href="#ArialMT-49"/>
       <use x="166.845703" xlink:href="#ArialMT-48"/>
      </g>
     </g>
    </g>
    <g id="xtick_31">
     <g id="line2d_95">
      <path clip-path="url(#pf3b286c25c)" d="M 344.164826 677.04 
L 344.164826 592.638875 
" style="fill:none;stroke:#ffffff;stroke-linecap:round;"/>
     </g>
     <g id="line2d_96"/>
     <g id="text_58">
      <!-- 2012 -->
      <g style="fill:#262626;" transform="translate(333.042951 691.197813)scale(0.1 -0.1)">
       <use xlink:href="#ArialMT-50"/>
       <use x="55.615234" xlink:href="#ArialMT-48"/>
       <use x="111.230469" xlink:href="#ArialMT-49"/>
       <use x="166.845703" xlink:href="#ArialMT-50"/>
      </g>
     </g>
    </g>
    <g id="xtick_32">
     <g id="line2d_97">
      <path clip-path="url(#pf3b286c25c)" d="M 438.453296 677.04 
L 438.453296 592.638875 
" style="fill:none;stroke:#ffffff;stroke-linecap:round;"/>
     </g>
     <g id="line2d_98"/>
     <g id="text_59">
      <!-- 2014 -->
      <g style="fill:#262626;" transform="translate(427.331421 691.197813)scale(0.1 -0.1)">
       <use xlink:href="#ArialMT-50"/>
       <use x="55.615234" xlink:href="#ArialMT-48"/>
       <use x="111.230469" xlink:href="#ArialMT-49"/>
       <use x="166.845703" xlink:href="#ArialMT-52"/>
      </g>
     </g>
    </g>
    <g id="xtick_33">
     <g id="line2d_99">
      <path clip-path="url(#pf3b286c25c)" d="M 532.61278 677.04 
L 532.61278 592.638875 
" style="fill:none;stroke:#ffffff;stroke-linecap:round;"/>
     </g>
     <g id="line2d_100"/>
     <g id="text_60">
      <!-- 2016 -->
      <g style="fill:#262626;" transform="translate(521.490905 691.197813)scale(0.1 -0.1)">
       <use xlink:href="#ArialMT-50"/>
       <use x="55.615234" xlink:href="#ArialMT-48"/>
       <use x="111.230469" xlink:href="#ArialMT-49"/>
       <use x="166.845703" xlink:href="#ArialMT-54"/>
      </g>
     </g>
    </g>
    <g id="xtick_34">
     <g id="line2d_101">
      <path clip-path="url(#pf3b286c25c)" d="M 626.90125 677.04 
L 626.90125 592.638875 
" style="fill:none;stroke:#ffffff;stroke-linecap:round;"/>
     </g>
     <g id="line2d_102"/>
     <g id="text_61">
      <!-- 2018 -->
      <g style="fill:#262626;" transform="translate(615.779375 691.197813)scale(0.1 -0.1)">
       <use xlink:href="#ArialMT-50"/>
       <use x="55.615234" xlink:href="#ArialMT-48"/>
       <use x="111.230469" xlink:href="#ArialMT-49"/>
       <use x="166.845703" xlink:href="#ArialMT-56"/>
      </g>
     </g>
    </g>
    <g id="text_62">
     <!-- Date -->
     <g style="fill:#262626;" transform="translate(375.757969 705.058906)scale(0.11 -0.11)">
      <use xlink:href="#ArialMT-68"/>
      <use x="72.216797" xlink:href="#ArialMT-97"/>
      <use x="127.832031" xlink:href="#ArialMT-116"/>
      <use x="155.615234" xlink:href="#ArialMT-101"/>
     </g>
    </g>
   </g>
   <g id="matplotlib.axis_10">
    <g id="ytick_16">
     <g id="line2d_103">
      <path clip-path="url(#pf3b286c25c)" d="M 67.71 673.518821 
L 707.04 673.518821 
" style="fill:none;stroke:#ffffff;stroke-linecap:round;"/>
     </g>
     <g id="line2d_104"/>
     <g id="text_63">
      <!-- 0 -->
      <g style="fill:#262626;" transform="translate(55.149063 677.097727)scale(0.1 -0.1)">
       <use xlink:href="#ArialMT-48"/>
      </g>
     </g>
    </g>
    <g id="ytick_17">
     <g id="line2d_105">
      <path clip-path="url(#pf3b286c25c)" d="M 67.71 648.299989 
L 707.04 648.299989 
" style="fill:none;stroke:#ffffff;stroke-linecap:round;"/>
     </g>
     <g id="line2d_106"/>
     <g id="text_64">
      <!-- 20000 -->
      <g style="fill:#262626;" transform="translate(32.905313 651.878895)scale(0.1 -0.1)">
       <use xlink:href="#ArialMT-50"/>
       <use x="55.615234" xlink:href="#ArialMT-48"/>
       <use x="111.230469" xlink:href="#ArialMT-48"/>
       <use x="166.845703" xlink:href="#ArialMT-48"/>
       <use x="222.460938" xlink:href="#ArialMT-48"/>
      </g>
     </g>
    </g>
    <g id="ytick_18">
     <g id="line2d_107">
      <path clip-path="url(#pf3b286c25c)" d="M 67.71 623.081157 
L 707.04 623.081157 
" style="fill:none;stroke:#ffffff;stroke-linecap:round;"/>
     </g>
     <g id="line2d_108"/>
     <g id="text_65">
      <!-- 40000 -->
      <g style="fill:#262626;" transform="translate(32.905313 626.660063)scale(0.1 -0.1)">
       <use xlink:href="#ArialMT-52"/>
       <use x="55.615234" xlink:href="#ArialMT-48"/>
       <use x="111.230469" xlink:href="#ArialMT-48"/>
       <use x="166.845703" xlink:href="#ArialMT-48"/>
       <use x="222.460938" xlink:href="#ArialMT-48"/>
      </g>
     </g>
    </g>
    <g id="ytick_19">
     <g id="line2d_109">
      <path clip-path="url(#pf3b286c25c)" d="M 67.71 597.862326 
L 707.04 597.862326 
" style="fill:none;stroke:#ffffff;stroke-linecap:round;"/>
     </g>
     <g id="line2d_110"/>
     <g id="text_66">
      <!-- 60000 -->
      <g style="fill:#262626;" transform="translate(32.905313 601.441232)scale(0.1 -0.1)">
       <use xlink:href="#ArialMT-54"/>
       <use x="55.615234" xlink:href="#ArialMT-48"/>
       <use x="111.230469" xlink:href="#ArialMT-48"/>
       <use x="166.845703" xlink:href="#ArialMT-48"/>
       <use x="222.460938" xlink:href="#ArialMT-48"/>
      </g>
     </g>
    </g>
    <g id="text_67">
     <!-- Loan Amount -->
     <g style="fill:#262626;" transform="translate(26.719063 667.252484)rotate(-90)scale(0.11 -0.11)">
      <use xlink:href="#ArialMT-76"/>
      <use x="55.615234" xlink:href="#ArialMT-111"/>
      <use x="111.230469" xlink:href="#ArialMT-97"/>
      <use x="166.845703" xlink:href="#ArialMT-110"/>
      <use x="222.460938" xlink:href="#ArialMT-32"/>
      <use x="244.744141" xlink:href="#ArialMT-65"/>
      <use x="311.443359" xlink:href="#ArialMT-109"/>
      <use x="394.744141" xlink:href="#ArialMT-111"/>
      <use x="450.359375" xlink:href="#ArialMT-117"/>
      <use x="505.974609" xlink:href="#ArialMT-110"/>
      <use x="561.589844" xlink:href="#ArialMT-116"/>
     </g>
    </g>
   </g>
   <g id="line2d_111">
    <path clip-path="url(#pf3b286c25c)" d="M 96.770455 673.203585 
L 100.769008 671.217602 
L 104.638576 668.443531 
L 108.637129 666.268407 
L 112.635683 668.79029 
L 116.247279 670.93389 
L 120.245833 667.37173 
L 124.115401 669.389237 
L 128.113954 661.855111 
L 131.983522 669.483808 
L 135.982075 668.285913 
L 139.980629 666.961924 
L 143.850197 663.557382 
L 147.84875 666.426024 
L 151.718318 664.093282 
L 155.716871 658.797328 
L 159.715425 656.716774 
L 163.456007 669.483808 
L 167.454561 671.249126 
L 171.324128 667.529348 
L 175.322682 669.546855 
L 179.19225 672.98292 
L 183.190803 671.91112 
L 187.189357 672.762256 
L 191.058924 671.123032 
L 195.057478 673.077491 
L 206.924153 669.578378 
L 210.535749 660.846358 
L 214.534303 653.343755 
L 218.403871 653.469849 
L 222.402424 664.219376 
L 226.271992 660.15284 
L 230.270545 654.699267 
L 234.269099 644.674782 
L 238.138667 631.466419 
L 242.13722 643.382317 
L 246.006788 633.483925 
L 250.005341 650.695778 
L 254.003895 645.809629 
L 257.615491 662.706247 
L 265.483613 672.541591 
L 269.482166 659.774557 
L 273.351734 658.135333 
L 277.350287 661.319211 
L 281.348841 665.038988 
L 285.218409 654.510126 
L 289.216962 633.546972 
L 293.08653 639.032068 
L 297.085084 648.173895 
L 301.083637 653.942703 
L 304.695234 670.145802 
L 308.693787 663.80957 
L 312.563355 662.958435 
L 316.561908 668.002201 
L 320.431476 641.207193 
L 324.43003 641.081098 
L 328.428583 665.291177 
L 336.296704 668.821813 
L 340.166272 625.098664 
L 344.164826 612.962101 
L 348.163379 643.287746 
L 351.903961 600.478779 
L 355.902515 639.378827 
L 359.772083 648.48913 
L 363.770636 665.637936 
L 367.640204 666.993448 
L 371.638757 669.704472 
L 375.637311 653.280708 
L 379.506879 665.133559 
L 387.375 646.786859 
L 391.373553 627.525976 
L 395.372107 621.757169 
L 398.983704 624.941046 
L 402.982257 638.559215 
L 406.851825 631.088136 
L 410.850378 651.546914 
L 414.719946 616.87102 
L 418.7185 626.990076 
L 422.717053 632.63279 
L 426.586621 639.631016 
L 430.585174 648.835889 
L 434.454742 665.480318 
L 438.453296 645.588965 
L 442.451849 650.00226 
L 446.063446 662.958435 
L 450.061999 672.415497 
L 453.931567 663.683476 
L 457.93012 672.762256 
L 465.798242 667.340207 
L 469.796795 656.905915 
L 473.666363 660.184363 
L 477.664916 655.834115 
L 481.534484 657.032009 
L 485.533038 640.324533 
L 489.531591 635.75362 
L 493.143188 638.401597 
L 497.141741 660.531122 
L 501.011309 667.151066 
L 505.009863 655.07755 
L 508.87943 652.996996 
L 512.877984 642.373563 
L 516.876537 667.245636 
L 520.746105 670.492561 
L 524.744659 659.774557 
L 528.614226 642.783369 
L 532.61278 660.121316 
L 536.611333 657.315721 
L 540.351916 638.433121 
L 544.350469 647.291236 
L 548.220037 639.788633 
L 552.21859 664.534612 
L 556.088158 652.303478 
L 560.086712 652.461096 
L 564.085265 646.408577 
L 567.954833 658.387522 
L 571.953386 651.326249 
L 575.822954 649.403313 
L 579.821508 663.399764 
L 583.820061 664.124806 
L 587.431658 653.816608 
L 591.430211 664.629182 
L 595.299779 647.165141 
L 599.298333 651.263202 
L 603.1679 651.673008 
L 607.166454 647.133618 
L 611.165007 662.044252 
L 615.034575 631.11966 
L 619.033129 604.482269 
L 622.902696 596.47529 
L 630.899803 656.401539 
L 634.5114 601.771244 
L 638.509953 634.429631 
L 642.379521 639.347304 
L 646.378075 604.482269 
L 650.247643 636.919991 
L 654.246196 633.956778 
L 658.244749 622.860492 
L 662.114317 606.247587 
L 666.112871 611.543542 
L 669.982439 623.648581 
L 673.980992 653.091567 
L 677.979545 654.54165 
L 677.979545 654.54165 
" style="fill:none;stroke:#ffff00;stroke-linecap:round;stroke-width:1.75;"/>
   </g>
   <g id="patch_23">
    <path d="M 67.71 677.04 
L 67.71 592.638875 
" style="fill:none;"/>
   </g>
   <g id="patch_24">
    <path d="M 707.04 677.04 
L 707.04 592.638875 
" style="fill:none;"/>
   </g>
   <g id="patch_25">
    <path d="M 67.71 677.04 
L 707.04 677.04 
" style="fill:none;"/>
   </g>
   <g id="patch_26">
    <path d="M 67.71 592.638875 
L 707.04 592.638875 
" style="fill:none;"/>
   </g>
   <g id="text_68">
    <!-- Clothing loans over time -->
    <defs>
     <path d="M 58.796875 25.09375 
L 68.265625 22.703125 
Q 65.28125 11.03125 57.546875 4.90625 
Q 49.8125 -1.21875 38.625 -1.21875 
Q 27.046875 -1.21875 19.796875 3.484375 
Q 12.546875 8.203125 8.765625 17.140625 
Q 4.984375 26.078125 4.984375 36.328125 
Q 4.984375 47.515625 9.25 55.828125 
Q 13.53125 64.15625 21.40625 68.46875 
Q 29.296875 72.796875 38.765625 72.796875 
Q 49.515625 72.796875 56.828125 67.328125 
Q 64.15625 61.859375 67.046875 51.953125 
L 57.71875 49.75 
Q 55.21875 57.5625 50.484375 61.125 
Q 45.75 64.703125 38.578125 64.703125 
Q 30.328125 64.703125 24.78125 60.734375 
Q 19.234375 56.78125 16.984375 50.109375 
Q 14.75 43.453125 14.75 36.375 
Q 14.75 27.25 17.40625 20.4375 
Q 20.0625 13.625 25.671875 10.25 
Q 31.296875 6.890625 37.84375 6.890625 
Q 45.796875 6.890625 51.3125 11.46875 
Q 56.84375 16.0625 58.796875 25.09375 
z
" id="ArialMT-67"/>
     <path d="M 6.59375 0 
L 6.59375 71.578125 
L 15.375 71.578125 
L 15.375 45.90625 
Q 21.53125 53.03125 30.90625 53.03125 
Q 36.671875 53.03125 40.921875 50.75 
Q 45.171875 48.484375 47 44.484375 
Q 48.828125 40.484375 48.828125 32.859375 
L 48.828125 0 
L 40.046875 0 
L 40.046875 32.859375 
Q 40.046875 39.453125 37.1875 42.453125 
Q 34.328125 45.453125 29.109375 45.453125 
Q 25.203125 45.453125 21.75 43.421875 
Q 18.3125 41.40625 16.84375 37.9375 
Q 15.375 34.46875 15.375 28.375 
L 15.375 0 
z
" id="ArialMT-104"/>
    </defs>
    <g style="fill:#262626;" transform="translate(323.01375 586.638875)scale(0.12 -0.12)">
     <use xlink:href="#ArialMT-67"/>
     <use x="72.216797" xlink:href="#ArialMT-108"/>
     <use x="94.433594" xlink:href="#ArialMT-111"/>
     <use x="150.048828" xlink:href="#ArialMT-116"/>
     <use x="177.832031" xlink:href="#ArialMT-104"/>
     <use x="233.447266" xlink:href="#ArialMT-105"/>
     <use x="255.664062" xlink:href="#ArialMT-110"/>
     <use x="311.279297" xlink:href="#ArialMT-103"/>
     <use x="366.894531" xlink:href="#ArialMT-32"/>
     <use x="394.677734" xlink:href="#ArialMT-108"/>
     <use x="416.894531" xlink:href="#ArialMT-111"/>
     <use x="472.509766" xlink:href="#ArialMT-97"/>
     <use x="528.125" xlink:href="#ArialMT-110"/>
     <use x="583.740234" xlink:href="#ArialMT-115"/>
     <use x="633.740234" xlink:href="#ArialMT-32"/>
     <use x="661.523438" xlink:href="#ArialMT-111"/>
     <use x="717.138672" xlink:href="#ArialMT-118"/>
     <use x="767.138672" xlink:href="#ArialMT-101"/>
     <use x="822.753906" xlink:href="#ArialMT-114"/>
     <use x="856.054688" xlink:href="#ArialMT-32"/>
     <use x="883.837891" xlink:href="#ArialMT-116"/>
     <use x="911.621094" xlink:href="#ArialMT-105"/>
     <use x="933.837891" xlink:href="#ArialMT-109"/>
     <use x="1017.138672" xlink:href="#ArialMT-101"/>
    </g>
   </g>
  </g>
 </g>
 <defs>
  <clipPath id="p51f6ee4001">
   <rect height="84.401125" width="639.33" x="67.71" y="27.006875"/>
  </clipPath>
  <clipPath id="p72685ae07c">
   <rect height="84.401125" width="639.33" x="67.71" y="168.414875"/>
  </clipPath>
  <clipPath id="p391a32f8c9">
   <rect height="84.401125" width="639.33" x="67.71" y="309.822875"/>
  </clipPath>
  <clipPath id="p4ebae9bd60">
   <rect height="84.401125" width="639.33" x="67.71" y="451.230875"/>
  </clipPath>
  <clipPath id="pf3b286c25c">
   <rect height="84.401125" width="639.33" x="67.71" y="592.638875"/>
  </clipPath>
 </defs>
</svg>
