<?xml version="1.0" encoding="utf-8" standalone="no"?>
<!DOCTYPE svg PUBLIC "-//W3C//DTD SVG 1.1//EN"
  "http://www.w3.org/Graphics/SVG/1.1/DTD/svg11.dtd">
<!-- Created with matplotlib (https://matplotlib.org/) -->
<svg height="720pt" version="1.1" viewBox="0 0 720 720" width="720pt" xmlns="http://www.w3.org/2000/svg" xmlns:xlink="http://www.w3.org/1999/xlink">
 <defs>
  <style type="text/css">
*{stroke-linecap:butt;stroke-linejoin:round;}
  </style>
 </defs>
 <g id="figure_1">
  <g id="patch_1">
   <path d="M 0 720 
L 720 720 
L 720 0 
L 0 0 
z
" style="fill:#ffffff;"/>
  </g>
  <g id="axes_1">
   <g id="patch_2">
    <path d="M 62.085 111.408 
L 707.04 111.408 
L 707.04 27.006875 
L 62.085 27.006875 
z
" style="fill:#eaeaf2;"/>
   </g>
   <g id="matplotlib.axis_1">
    <g id="xtick_1">
     <g id="line2d_1">
      <path clip-path="url(#pca55712439)" d="M 145.024299 111.408 
L 145.024299 27.006875 
" style="fill:none;stroke:#ffffff;stroke-linecap:round;"/>
     </g>
     <g id="line2d_2"/>
     <g id="text_1">
      <!-- 2010 -->
      <defs>
       <path d="M 50.34375 8.453125 
L 50.34375 0 
L 3.03125 0 
Q 2.9375 3.171875 4.046875 6.109375 
Q 5.859375 10.9375 9.828125 15.625 
Q 13.8125 20.3125 21.34375 26.46875 
Q 33.015625 36.03125 37.109375 41.625 
Q 41.21875 47.21875 41.21875 52.203125 
Q 41.21875 57.421875 37.46875 61 
Q 33.734375 64.59375 27.734375 64.59375 
Q 21.390625 64.59375 17.578125 60.78125 
Q 13.765625 56.984375 13.71875 50.25 
L 4.6875 51.171875 
Q 5.609375 61.28125 11.65625 66.578125 
Q 17.71875 71.875 27.9375 71.875 
Q 38.234375 71.875 44.234375 66.15625 
Q 50.25 60.453125 50.25 52 
Q 50.25 47.703125 48.484375 43.546875 
Q 46.734375 39.40625 42.65625 34.8125 
Q 38.578125 30.21875 29.109375 22.21875 
Q 21.1875 15.578125 18.9375 13.203125 
Q 16.703125 10.84375 15.234375 8.453125 
z
" id="ArialMT-50"/>
       <path d="M 4.15625 35.296875 
Q 4.15625 48 6.765625 55.734375 
Q 9.375 63.484375 14.515625 67.671875 
Q 19.671875 71.875 27.484375 71.875 
Q 33.25 71.875 37.59375 69.546875 
Q 41.9375 67.234375 44.765625 62.859375 
Q 47.609375 58.5 49.21875 52.21875 
Q 50.828125 45.953125 50.828125 35.296875 
Q 50.828125 22.703125 48.234375 14.96875 
Q 45.65625 7.234375 40.5 3 
Q 35.359375 -1.21875 27.484375 -1.21875 
Q 17.140625 -1.21875 11.234375 6.203125 
Q 4.15625 15.140625 4.15625 35.296875 
z
M 13.1875 35.296875 
Q 13.1875 17.671875 17.3125 11.828125 
Q 21.4375 6 27.484375 6 
Q 33.546875 6 37.671875 11.859375 
Q 41.796875 17.71875 41.796875 35.296875 
Q 41.796875 52.984375 37.671875 58.78125 
Q 33.546875 64.59375 27.390625 64.59375 
Q 21.34375 64.59375 17.71875 59.46875 
Q 13.1875 52.9375 13.1875 35.296875 
z
" id="ArialMT-48"/>
       <path d="M 37.25 0 
L 28.46875 0 
L 28.46875 56 
Q 25.296875 52.984375 20.140625 49.953125 
Q 14.984375 46.921875 10.890625 45.40625 
L 10.890625 53.90625 
Q 18.265625 57.375 23.78125 62.296875 
Q 29.296875 67.234375 31.59375 71.875 
L 37.25 71.875 
z
" id="ArialMT-49"/>
      </defs>
      <g style="fill:#262626;" transform="translate(133.902424 125.565812)scale(0.1 -0.1)">
       <use xlink:href="#ArialMT-50"/>
       <use x="55.615234" xlink:href="#ArialMT-48"/>
       <use x="111.230469" xlink:href="#ArialMT-49"/>
       <use x="166.845703" xlink:href="#ArialMT-48"/>
      </g>
     </g>
    </g>
    <g id="xtick_2">
     <g id="line2d_3">
      <path clip-path="url(#pca55712439)" d="M 262.224625 111.408 
L 262.224625 27.006875 
" style="fill:none;stroke:#ffffff;stroke-linecap:round;"/>
     </g>
     <g id="line2d_4"/>
     <g id="text_2">
      <!-- 2012 -->
      <g style="fill:#262626;" transform="translate(251.10275 125.565812)scale(0.1 -0.1)">
       <use xlink:href="#ArialMT-50"/>
       <use x="55.615234" xlink:href="#ArialMT-48"/>
       <use x="111.230469" xlink:href="#ArialMT-49"/>
       <use x="166.845703" xlink:href="#ArialMT-50"/>
      </g>
     </g>
    </g>
    <g id="xtick_3">
     <g id="line2d_5">
      <path clip-path="url(#pca55712439)" d="M 379.5855 111.408 
L 379.5855 27.006875 
" style="fill:none;stroke:#ffffff;stroke-linecap:round;"/>
     </g>
     <g id="line2d_6"/>
     <g id="text_3">
      <!-- 2014 -->
      <defs>
       <path d="M 32.328125 0 
L 32.328125 17.140625 
L 1.265625 17.140625 
L 1.265625 25.203125 
L 33.9375 71.578125 
L 41.109375 71.578125 
L 41.109375 25.203125 
L 50.78125 25.203125 
L 50.78125 17.140625 
L 41.109375 17.140625 
L 41.109375 0 
z
M 32.328125 25.203125 
L 32.328125 57.46875 
L 9.90625 25.203125 
z
" id="ArialMT-52"/>
      </defs>
      <g style="fill:#262626;" transform="translate(368.463625 125.565812)scale(0.1 -0.1)">
       <use xlink:href="#ArialMT-50"/>
       <use x="55.615234" xlink:href="#ArialMT-48"/>
       <use x="111.230469" xlink:href="#ArialMT-49"/>
       <use x="166.845703" xlink:href="#ArialMT-52"/>
      </g>
     </g>
    </g>
    <g id="xtick_4">
     <g id="line2d_7">
      <path clip-path="url(#pca55712439)" d="M 496.785826 111.408 
L 496.785826 27.006875 
" style="fill:none;stroke:#ffffff;stroke-linecap:round;"/>
     </g>
     <g id="line2d_8"/>
     <g id="text_4">
      <!-- 2016 -->
      <defs>
       <path d="M 49.75 54.046875 
L 41.015625 53.375 
Q 39.84375 58.546875 37.703125 60.890625 
Q 34.125 64.65625 28.90625 64.65625 
Q 24.703125 64.65625 21.53125 62.3125 
Q 17.390625 59.28125 14.984375 53.46875 
Q 12.59375 47.65625 12.5 36.921875 
Q 15.671875 41.75 20.265625 44.09375 
Q 24.859375 46.4375 29.890625 46.4375 
Q 38.671875 46.4375 44.84375 39.96875 
Q 51.03125 33.5 51.03125 23.25 
Q 51.03125 16.5 48.125 10.71875 
Q 45.21875 4.9375 40.140625 1.859375 
Q 35.0625 -1.21875 28.609375 -1.21875 
Q 17.625 -1.21875 10.6875 6.859375 
Q 3.765625 14.9375 3.765625 33.5 
Q 3.765625 54.25 11.421875 63.671875 
Q 18.109375 71.875 29.4375 71.875 
Q 37.890625 71.875 43.28125 67.140625 
Q 48.6875 62.40625 49.75 54.046875 
z
M 13.875 23.1875 
Q 13.875 18.65625 15.796875 14.5 
Q 17.71875 10.359375 21.1875 8.171875 
Q 24.65625 6 28.46875 6 
Q 34.03125 6 38.03125 10.484375 
Q 42.046875 14.984375 42.046875 22.703125 
Q 42.046875 30.125 38.078125 34.390625 
Q 34.125 38.671875 28.125 38.671875 
Q 22.171875 38.671875 18.015625 34.390625 
Q 13.875 30.125 13.875 23.1875 
z
" id="ArialMT-54"/>
      </defs>
      <g style="fill:#262626;" transform="translate(485.663951 125.565812)scale(0.1 -0.1)">
       <use xlink:href="#ArialMT-50"/>
       <use x="55.615234" xlink:href="#ArialMT-48"/>
       <use x="111.230469" xlink:href="#ArialMT-49"/>
       <use x="166.845703" xlink:href="#ArialMT-54"/>
      </g>
     </g>
    </g>
    <g id="xtick_5">
     <g id="line2d_9">
      <path clip-path="url(#pca55712439)" d="M 614.1467 111.408 
L 614.1467 27.006875 
" style="fill:none;stroke:#ffffff;stroke-linecap:round;"/>
     </g>
     <g id="line2d_10"/>
     <g id="text_5">
      <!-- 2018 -->
      <defs>
       <path d="M 17.671875 38.8125 
Q 12.203125 40.828125 9.5625 44.53125 
Q 6.9375 48.25 6.9375 53.421875 
Q 6.9375 61.234375 12.546875 66.546875 
Q 18.171875 71.875 27.484375 71.875 
Q 36.859375 71.875 42.578125 66.421875 
Q 48.296875 60.984375 48.296875 53.171875 
Q 48.296875 48.1875 45.671875 44.5 
Q 43.0625 40.828125 37.75 38.8125 
Q 44.34375 36.671875 47.78125 31.875 
Q 51.21875 27.09375 51.21875 20.453125 
Q 51.21875 11.28125 44.71875 5.03125 
Q 38.234375 -1.21875 27.640625 -1.21875 
Q 17.046875 -1.21875 10.546875 5.046875 
Q 4.046875 11.328125 4.046875 20.703125 
Q 4.046875 27.6875 7.59375 32.390625 
Q 11.140625 37.109375 17.671875 38.8125 
z
M 15.921875 53.71875 
Q 15.921875 48.640625 19.1875 45.40625 
Q 22.46875 42.1875 27.6875 42.1875 
Q 32.765625 42.1875 36.015625 45.375 
Q 39.265625 48.578125 39.265625 53.21875 
Q 39.265625 58.0625 35.90625 61.359375 
Q 32.5625 64.65625 27.59375 64.65625 
Q 22.5625 64.65625 19.234375 61.421875 
Q 15.921875 58.203125 15.921875 53.71875 
z
M 13.09375 20.65625 
Q 13.09375 16.890625 14.875 13.375 
Q 16.65625 9.859375 20.171875 7.921875 
Q 23.6875 6 27.734375 6 
Q 34.03125 6 38.125 10.046875 
Q 42.234375 14.109375 42.234375 20.359375 
Q 42.234375 26.703125 38.015625 30.859375 
Q 33.796875 35.015625 27.4375 35.015625 
Q 21.234375 35.015625 17.15625 30.90625 
Q 13.09375 26.8125 13.09375 20.65625 
z
" id="ArialMT-56"/>
      </defs>
      <g style="fill:#262626;" transform="translate(603.024825 125.565812)scale(0.1 -0.1)">
       <use xlink:href="#ArialMT-50"/>
       <use x="55.615234" xlink:href="#ArialMT-48"/>
       <use x="111.230469" xlink:href="#ArialMT-49"/>
       <use x="166.845703" xlink:href="#ArialMT-56"/>
      </g>
     </g>
    </g>
    <g id="text_6">
     <!-- Date -->
     <defs>
      <path d="M 7.71875 0 
L 7.71875 71.578125 
L 32.375 71.578125 
Q 40.71875 71.578125 45.125 70.5625 
Q 51.265625 69.140625 55.609375 65.4375 
Q 61.28125 60.640625 64.078125 53.1875 
Q 66.890625 45.75 66.890625 36.1875 
Q 66.890625 28.03125 64.984375 21.734375 
Q 63.09375 15.4375 60.109375 11.296875 
Q 57.125 7.171875 53.578125 4.796875 
Q 50.046875 2.4375 45.046875 1.21875 
Q 40.046875 0 33.546875 0 
z
M 17.1875 8.453125 
L 32.46875 8.453125 
Q 39.546875 8.453125 43.578125 9.765625 
Q 47.609375 11.078125 50 13.484375 
Q 53.375 16.84375 55.25 22.53125 
Q 57.125 28.21875 57.125 36.328125 
Q 57.125 47.5625 53.4375 53.59375 
Q 49.75 59.625 44.484375 61.671875 
Q 40.671875 63.140625 32.234375 63.140625 
L 17.1875 63.140625 
z
" id="ArialMT-68"/>
      <path d="M 40.4375 6.390625 
Q 35.546875 2.25 31.03125 0.53125 
Q 26.515625 -1.171875 21.34375 -1.171875 
Q 12.796875 -1.171875 8.203125 3 
Q 3.609375 7.171875 3.609375 13.671875 
Q 3.609375 17.484375 5.34375 20.625 
Q 7.078125 23.78125 9.890625 25.6875 
Q 12.703125 27.59375 16.21875 28.5625 
Q 18.796875 29.25 24.03125 29.890625 
Q 34.671875 31.15625 39.703125 32.90625 
Q 39.75 34.71875 39.75 35.203125 
Q 39.75 40.578125 37.25 42.78125 
Q 33.890625 45.75 27.25 45.75 
Q 21.046875 45.75 18.09375 43.578125 
Q 15.140625 41.40625 13.71875 35.890625 
L 5.125 37.0625 
Q 6.296875 42.578125 8.984375 45.96875 
Q 11.671875 49.359375 16.75 51.1875 
Q 21.828125 53.03125 28.515625 53.03125 
Q 35.15625 53.03125 39.296875 51.46875 
Q 43.453125 49.90625 45.40625 47.53125 
Q 47.359375 45.171875 48.140625 41.546875 
Q 48.578125 39.3125 48.578125 33.453125 
L 48.578125 21.734375 
Q 48.578125 9.46875 49.140625 6.21875 
Q 49.703125 2.984375 51.375 0 
L 42.1875 0 
Q 40.828125 2.734375 40.4375 6.390625 
z
M 39.703125 26.03125 
Q 34.90625 24.078125 25.34375 22.703125 
Q 19.921875 21.921875 17.671875 20.9375 
Q 15.4375 19.96875 14.203125 18.09375 
Q 12.984375 16.21875 12.984375 13.921875 
Q 12.984375 10.40625 15.640625 8.0625 
Q 18.3125 5.71875 23.4375 5.71875 
Q 28.515625 5.71875 32.46875 7.9375 
Q 36.421875 10.15625 38.28125 14.015625 
Q 39.703125 17 39.703125 22.796875 
z
" id="ArialMT-97"/>
      <path d="M 25.78125 7.859375 
L 27.046875 0.09375 
Q 23.34375 -0.6875 20.40625 -0.6875 
Q 15.625 -0.6875 12.984375 0.828125 
Q 10.359375 2.34375 9.28125 4.8125 
Q 8.203125 7.28125 8.203125 15.1875 
L 8.203125 45.015625 
L 1.765625 45.015625 
L 1.765625 51.859375 
L 8.203125 51.859375 
L 8.203125 64.703125 
L 16.9375 69.96875 
L 16.9375 51.859375 
L 25.78125 51.859375 
L 25.78125 45.015625 
L 16.9375 45.015625 
L 16.9375 14.703125 
Q 16.9375 10.9375 17.40625 9.859375 
Q 17.875 8.796875 18.921875 8.15625 
Q 19.96875 7.515625 21.921875 7.515625 
Q 23.390625 7.515625 25.78125 7.859375 
z
" id="ArialMT-116"/>
      <path d="M 42.09375 16.703125 
L 51.171875 15.578125 
Q 49.03125 7.625 43.21875 3.21875 
Q 37.40625 -1.171875 28.375 -1.171875 
Q 17 -1.171875 10.328125 5.828125 
Q 3.65625 12.84375 3.65625 25.484375 
Q 3.65625 38.578125 10.390625 45.796875 
Q 17.140625 53.03125 27.875 53.03125 
Q 38.28125 53.03125 44.875 45.953125 
Q 51.46875 38.875 51.46875 26.03125 
Q 51.46875 25.25 51.421875 23.6875 
L 12.75 23.6875 
Q 13.234375 15.140625 17.578125 10.59375 
Q 21.921875 6.0625 28.421875 6.0625 
Q 33.25 6.0625 36.671875 8.59375 
Q 40.09375 11.140625 42.09375 16.703125 
z
M 13.234375 30.90625 
L 42.1875 30.90625 
Q 41.609375 37.453125 38.875 40.71875 
Q 34.671875 45.796875 27.984375 45.796875 
Q 21.921875 45.796875 17.796875 41.75 
Q 13.671875 37.703125 13.234375 30.90625 
z
" id="ArialMT-101"/>
     </defs>
     <g style="fill:#262626;" transform="translate(372.945469 139.426906)scale(0.11 -0.11)">
      <use xlink:href="#ArialMT-68"/>
      <use x="72.216797" xlink:href="#ArialMT-97"/>
      <use x="127.832031" xlink:href="#ArialMT-116"/>
      <use x="155.615234" xlink:href="#ArialMT-101"/>
     </g>
    </g>
   </g>
   <g id="matplotlib.axis_2">
    <g id="ytick_1">
     <g id="line2d_11">
      <path clip-path="url(#pca55712439)" d="M 62.085 107.695983 
L 707.04 107.695983 
" style="fill:none;stroke:#ffffff;stroke-linecap:round;"/>
     </g>
     <g id="line2d_12"/>
     <g id="text_7">
      <!-- 0 -->
      <g style="fill:#262626;" transform="translate(49.524063 111.274889)scale(0.1 -0.1)">
       <use xlink:href="#ArialMT-48"/>
      </g>
     </g>
    </g>
    <g id="ytick_2">
     <g id="line2d_13">
      <path clip-path="url(#pca55712439)" d="M 62.085 82.816509 
L 707.04 82.816509 
" style="fill:none;stroke:#ffffff;stroke-linecap:round;"/>
     </g>
     <g id="line2d_14"/>
     <g id="text_8">
      <!-- 25000 -->
      <defs>
       <path d="M 4.15625 18.75 
L 13.375 19.53125 
Q 14.40625 12.796875 18.140625 9.390625 
Q 21.875 6 27.15625 6 
Q 33.5 6 37.890625 10.78125 
Q 42.28125 15.578125 42.28125 23.484375 
Q 42.28125 31 38.0625 35.34375 
Q 33.84375 39.703125 27 39.703125 
Q 22.75 39.703125 19.328125 37.765625 
Q 15.921875 35.84375 13.96875 32.765625 
L 5.71875 33.84375 
L 12.640625 70.609375 
L 48.25 70.609375 
L 48.25 62.203125 
L 19.671875 62.203125 
L 15.828125 42.96875 
Q 22.265625 47.46875 29.34375 47.46875 
Q 38.71875 47.46875 45.15625 40.96875 
Q 51.609375 34.46875 51.609375 24.265625 
Q 51.609375 14.546875 45.953125 7.46875 
Q 39.0625 -1.21875 27.15625 -1.21875 
Q 17.390625 -1.21875 11.203125 4.25 
Q 5.03125 9.71875 4.15625 18.75 
z
" id="ArialMT-53"/>
      </defs>
      <g style="fill:#262626;" transform="translate(27.280313 86.395416)scale(0.1 -0.1)">
       <use xlink:href="#ArialMT-50"/>
       <use x="55.615234" xlink:href="#ArialMT-53"/>
       <use x="111.230469" xlink:href="#ArialMT-48"/>
       <use x="166.845703" xlink:href="#ArialMT-48"/>
       <use x="222.460938" xlink:href="#ArialMT-48"/>
      </g>
     </g>
    </g>
    <g id="ytick_3">
     <g id="line2d_15">
      <path clip-path="url(#pca55712439)" d="M 62.085 57.937036 
L 707.04 57.937036 
" style="fill:none;stroke:#ffffff;stroke-linecap:round;"/>
     </g>
     <g id="line2d_16"/>
     <g id="text_9">
      <!-- 50000 -->
      <g style="fill:#262626;" transform="translate(27.280313 61.515942)scale(0.1 -0.1)">
       <use xlink:href="#ArialMT-53"/>
       <use x="55.615234" xlink:href="#ArialMT-48"/>
       <use x="111.230469" xlink:href="#ArialMT-48"/>
       <use x="166.845703" xlink:href="#ArialMT-48"/>
       <use x="222.460938" xlink:href="#ArialMT-48"/>
      </g>
     </g>
    </g>
    <g id="ytick_4">
     <g id="line2d_17">
      <path clip-path="url(#pca55712439)" d="M 62.085 33.057563 
L 707.04 33.057563 
" style="fill:none;stroke:#ffffff;stroke-linecap:round;"/>
     </g>
     <g id="line2d_18"/>
     <g id="text_10">
      <!-- 75000 -->
      <defs>
       <path d="M 4.734375 62.203125 
L 4.734375 70.65625 
L 51.078125 70.65625 
L 51.078125 63.8125 
Q 44.234375 56.546875 37.515625 44.484375 
Q 30.8125 32.421875 27.15625 19.671875 
Q 24.515625 10.6875 23.78125 0 
L 14.75 0 
Q 14.890625 8.453125 18.0625 20.40625 
Q 21.234375 32.375 27.171875 43.484375 
Q 33.109375 54.59375 39.796875 62.203125 
z
" id="ArialMT-55"/>
      </defs>
      <g style="fill:#262626;" transform="translate(27.280313 36.636469)scale(0.1 -0.1)">
       <use xlink:href="#ArialMT-55"/>
       <use x="55.615234" xlink:href="#ArialMT-53"/>
       <use x="111.230469" xlink:href="#ArialMT-48"/>
       <use x="166.845703" xlink:href="#ArialMT-48"/>
       <use x="222.460938" xlink:href="#ArialMT-48"/>
      </g>
     </g>
    </g>
    <g id="text_11">
     <!-- Loan Amount -->
     <defs>
      <path d="M 7.328125 0 
L 7.328125 71.578125 
L 16.796875 71.578125 
L 16.796875 8.453125 
L 52.046875 8.453125 
L 52.046875 0 
z
" id="ArialMT-76"/>
      <path d="M 3.328125 25.921875 
Q 3.328125 40.328125 11.328125 47.265625 
Q 18.015625 53.03125 27.640625 53.03125 
Q 38.328125 53.03125 45.109375 46.015625 
Q 51.90625 39.015625 51.90625 26.65625 
Q 51.90625 16.65625 48.90625 10.90625 
Q 45.90625 5.171875 40.15625 2 
Q 34.421875 -1.171875 27.640625 -1.171875 
Q 16.75 -1.171875 10.03125 5.8125 
Q 3.328125 12.796875 3.328125 25.921875 
z
M 12.359375 25.921875 
Q 12.359375 15.96875 16.703125 11.015625 
Q 21.046875 6.0625 27.640625 6.0625 
Q 34.1875 6.0625 38.53125 11.03125 
Q 42.875 16.015625 42.875 26.21875 
Q 42.875 35.84375 38.5 40.796875 
Q 34.125 45.75 27.640625 45.75 
Q 21.046875 45.75 16.703125 40.8125 
Q 12.359375 35.890625 12.359375 25.921875 
z
" id="ArialMT-111"/>
      <path d="M 6.59375 0 
L 6.59375 51.859375 
L 14.5 51.859375 
L 14.5 44.484375 
Q 20.21875 53.03125 31 53.03125 
Q 35.6875 53.03125 39.625 51.34375 
Q 43.5625 49.65625 45.515625 46.921875 
Q 47.46875 44.1875 48.25 40.4375 
Q 48.734375 37.984375 48.734375 31.890625 
L 48.734375 0 
L 39.9375 0 
L 39.9375 31.546875 
Q 39.9375 36.921875 38.90625 39.578125 
Q 37.890625 42.234375 35.28125 43.8125 
Q 32.671875 45.40625 29.15625 45.40625 
Q 23.53125 45.40625 19.453125 41.84375 
Q 15.375 38.28125 15.375 28.328125 
L 15.375 0 
z
" id="ArialMT-110"/>
      <path id="ArialMT-32"/>
      <path d="M -0.140625 0 
L 27.34375 71.578125 
L 37.546875 71.578125 
L 66.84375 0 
L 56.0625 0 
L 47.703125 21.6875 
L 17.78125 21.6875 
L 9.90625 0 
z
M 20.515625 29.390625 
L 44.78125 29.390625 
L 37.3125 49.21875 
Q 33.890625 58.25 32.234375 64.0625 
Q 30.859375 57.171875 28.375 50.390625 
z
" id="ArialMT-65"/>
      <path d="M 6.59375 0 
L 6.59375 51.859375 
L 14.453125 51.859375 
L 14.453125 44.578125 
Q 16.890625 48.390625 20.9375 50.703125 
Q 25 53.03125 30.171875 53.03125 
Q 35.9375 53.03125 39.625 50.640625 
Q 43.3125 48.25 44.828125 43.953125 
Q 50.984375 53.03125 60.84375 53.03125 
Q 68.5625 53.03125 72.703125 48.75 
Q 76.859375 44.484375 76.859375 35.59375 
L 76.859375 0 
L 68.109375 0 
L 68.109375 32.671875 
Q 68.109375 37.9375 67.25 40.25 
Q 66.40625 42.578125 64.15625 43.984375 
Q 61.921875 45.40625 58.890625 45.40625 
Q 53.421875 45.40625 49.796875 41.765625 
Q 46.1875 38.140625 46.1875 30.125 
L 46.1875 0 
L 37.40625 0 
L 37.40625 33.6875 
Q 37.40625 39.546875 35.25 42.46875 
Q 33.109375 45.40625 28.21875 45.40625 
Q 24.515625 45.40625 21.359375 43.453125 
Q 18.21875 41.5 16.796875 37.734375 
Q 15.375 33.984375 15.375 26.90625 
L 15.375 0 
z
" id="ArialMT-109"/>
      <path d="M 40.578125 0 
L 40.578125 7.625 
Q 34.515625 -1.171875 24.125 -1.171875 
Q 19.53125 -1.171875 15.546875 0.578125 
Q 11.578125 2.34375 9.640625 5 
Q 7.71875 7.671875 6.9375 11.53125 
Q 6.390625 14.109375 6.390625 19.734375 
L 6.390625 51.859375 
L 15.1875 51.859375 
L 15.1875 23.09375 
Q 15.1875 16.21875 15.71875 13.8125 
Q 16.546875 10.359375 19.234375 8.375 
Q 21.921875 6.390625 25.875 6.390625 
Q 29.828125 6.390625 33.296875 8.421875 
Q 36.765625 10.453125 38.203125 13.9375 
Q 39.65625 17.4375 39.65625 24.078125 
L 39.65625 51.859375 
L 48.4375 51.859375 
L 48.4375 0 
z
" id="ArialMT-117"/>
     </defs>
     <g style="fill:#262626;" transform="translate(21.094063 101.620484)rotate(-90)scale(0.11 -0.11)">
      <use xlink:href="#ArialMT-76"/>
      <use x="55.615234" xlink:href="#ArialMT-111"/>
      <use x="111.230469" xlink:href="#ArialMT-97"/>
      <use x="166.845703" xlink:href="#ArialMT-110"/>
      <use x="222.460938" xlink:href="#ArialMT-32"/>
      <use x="244.744141" xlink:href="#ArialMT-65"/>
      <use x="311.443359" xlink:href="#ArialMT-109"/>
      <use x="394.744141" xlink:href="#ArialMT-111"/>
      <use x="450.359375" xlink:href="#ArialMT-117"/>
      <use x="505.974609" xlink:href="#ArialMT-110"/>
      <use x="561.589844" xlink:href="#ArialMT-116"/>
     </g>
    </g>
   </g>
   <g id="line2d_19">
    <path clip-path="url(#pca55712439)" d="M 91.401136 107.571585 
L 95.896491 102.919124 
L 100.873491 98.83889 
L 105.689943 95.455282 
L 110.666943 94.236188 
L 115.483395 102.446414 
L 120.460395 94.907933 
L 125.437395 89.210534 
L 130.253847 81.025187 
L 135.230847 91.151133 
L 140.047299 81.398379 
L 145.024299 78.53724 
L 150.001299 82.965786 
L 154.496654 92.444866 
L 159.473655 106.551527 
L 164.290106 106.800322 
L 169.267106 99.585274 
L 174.083558 90.031557 
L 179.060558 95.480161 
L 184.037558 94.484982 
L 188.85401 79.258745 
L 193.83101 81.945728 
L 198.647462 83.065304 
L 203.624462 78.810914 
L 208.601462 96.525099 
L 213.096817 101.923945 
L 218.073818 97.520278 
L 222.890269 100.406297 
L 227.867269 101.600512 
L 232.683721 89.907159 
L 237.660721 90.504267 
L 242.637722 96.301184 
L 247.454173 105.531468 
L 252.431173 105.606107 
L 257.247625 83.936086 
L 262.224625 77.392784 
L 267.201626 81.547656 
L 271.857529 73.412068 
L 276.834529 82.79163 
L 281.650981 88.887101 
L 286.627981 93.116611 
L 291.444433 104.262615 
L 296.421433 103.043521 
L 301.398433 88.563668 
L 306.214885 105.158276 
L 311.191885 89.38469 
L 316.008337 85.976202 
L 320.985337 79.432901 
L 325.962337 30.84329 
L 330.457692 52.339155 
L 335.434692 61.818234 
L 340.251144 75.477065 
L 345.228144 83.164822 
L 350.044596 62.216306 
L 355.021596 61.942631 
L 359.998596 67.316598 
L 364.815048 86.598189 
L 369.792048 83.463376 
L 374.6085 106.004178 
L 379.5855 100.331659 
L 384.5625 95.753835 
L 389.057855 90.106195 
L 394.034855 94.11179 
L 398.851307 103.317195 
L 408.644759 99.212082 
L 413.621759 101.973704 
L 418.598759 94.982572 
L 423.415211 80.204165 
L 428.392211 75.850257 
L 433.208663 91.822879 
L 438.185663 82.070125 
L 443.162663 81.398379 
L 447.658018 47.985247 
L 452.635018 86.846984 
L 457.45147 97.793952 
L 462.42847 67.416115 
L 467.244922 81.622295 
L 472.221922 90.35499 
L 477.198922 93.514683 
L 482.015374 99.560395 
L 486.992374 76.795677 
L 491.808826 86.797225 
L 496.785826 101.102922 
L 501.762826 77.989892 
L 506.418729 89.086137 
L 511.39573 53.259695 
L 516.212181 71.247554 
L 521.189182 91.325289 
L 526.005633 66.868767 
L 530.982633 77.094231 
L 535.959634 81.995487 
L 540.776085 73.36231 
L 545.753085 71.570987 
L 550.569537 96.823653 
L 555.546537 86.523551 
L 560.523538 78.636758 
L 565.018893 91.897517 
L 569.995893 92.419986 
L 574.812344 78.114289 
L 579.789345 52.961141 
L 584.605796 92.818058 
L 589.582796 80.801272 
L 594.559797 86.448912 
L 599.376248 58.409746 
L 604.353249 96.350943 
L 609.1697 80.925669 
L 614.1467 74.28285 
L 619.123701 73.934537 
L 623.619056 63.932989 
L 628.596056 45.547058 
L 633.412507 57.862398 
L 638.389508 73.138394 
L 643.205959 59.056612 
L 648.18296 69.879183 
L 653.15996 56.81746 
L 657.976411 53.135298 
L 662.953412 44.925072 
L 667.769863 51.219578 
L 672.746863 66.445816 
L 677.723864 80.801272 
" style="fill:none;stroke:#ffa500;stroke-linecap:round;stroke-width:1.75;"/>
   </g>
   <g id="patch_3">
    <path d="M 62.085 111.408 
L 62.085 27.006875 
" style="fill:none;"/>
   </g>
   <g id="patch_4">
    <path d="M 707.04 111.408 
L 707.04 27.006875 
" style="fill:none;"/>
   </g>
   <g id="patch_5">
    <path d="M 62.085 111.408 
L 707.04 111.408 
" style="fill:none;"/>
   </g>
   <g id="patch_6">
    <path d="M 62.085 27.006875 
L 707.04 27.006875 
" style="fill:none;"/>
   </g>
   <g id="text_12">
    <!-- Philippines loans over time -->
    <defs>
     <path d="M 7.71875 0 
L 7.71875 71.578125 
L 34.71875 71.578125 
Q 41.84375 71.578125 45.609375 70.90625 
Q 50.875 70.015625 54.4375 67.546875 
Q 58.015625 65.09375 60.1875 60.640625 
Q 62.359375 56.203125 62.359375 50.875 
Q 62.359375 41.75 56.546875 35.421875 
Q 50.734375 29.109375 35.546875 29.109375 
L 17.1875 29.109375 
L 17.1875 0 
z
M 17.1875 37.546875 
L 35.6875 37.546875 
Q 44.875 37.546875 48.734375 40.96875 
Q 52.59375 44.390625 52.59375 50.59375 
Q 52.59375 55.078125 50.3125 58.265625 
Q 48.046875 61.46875 44.34375 62.5 
Q 41.9375 63.140625 35.5 63.140625 
L 17.1875 63.140625 
z
" id="ArialMT-80"/>
     <path d="M 6.59375 0 
L 6.59375 71.578125 
L 15.375 71.578125 
L 15.375 45.90625 
Q 21.53125 53.03125 30.90625 53.03125 
Q 36.671875 53.03125 40.921875 50.75 
Q 45.171875 48.484375 47 44.484375 
Q 48.828125 40.484375 48.828125 32.859375 
L 48.828125 0 
L 40.046875 0 
L 40.046875 32.859375 
Q 40.046875 39.453125 37.1875 42.453125 
Q 34.328125 45.453125 29.109375 45.453125 
Q 25.203125 45.453125 21.75 43.421875 
Q 18.3125 41.40625 16.84375 37.9375 
Q 15.375 34.46875 15.375 28.375 
L 15.375 0 
z
" id="ArialMT-104"/>
     <path d="M 6.640625 61.46875 
L 6.640625 71.578125 
L 15.4375 71.578125 
L 15.4375 61.46875 
z
M 6.640625 0 
L 6.640625 51.859375 
L 15.4375 51.859375 
L 15.4375 0 
z
" id="ArialMT-105"/>
     <path d="M 6.390625 0 
L 6.390625 71.578125 
L 15.1875 71.578125 
L 15.1875 0 
z
" id="ArialMT-108"/>
     <path d="M 6.59375 -19.875 
L 6.59375 51.859375 
L 14.59375 51.859375 
L 14.59375 45.125 
Q 17.4375 49.078125 21 51.046875 
Q 24.5625 53.03125 29.640625 53.03125 
Q 36.28125 53.03125 41.359375 49.609375 
Q 46.4375 46.1875 49.015625 39.953125 
Q 51.609375 33.734375 51.609375 26.3125 
Q 51.609375 18.359375 48.75 11.984375 
Q 45.90625 5.609375 40.453125 2.21875 
Q 35.015625 -1.171875 29 -1.171875 
Q 24.609375 -1.171875 21.109375 0.6875 
Q 17.625 2.546875 15.375 5.375 
L 15.375 -19.875 
z
M 14.546875 25.640625 
Q 14.546875 15.625 18.59375 10.84375 
Q 22.65625 6.0625 28.421875 6.0625 
Q 34.28125 6.0625 38.453125 11.015625 
Q 42.625 15.96875 42.625 26.375 
Q 42.625 36.28125 38.546875 41.203125 
Q 34.46875 46.140625 28.8125 46.140625 
Q 23.1875 46.140625 18.859375 40.890625 
Q 14.546875 35.640625 14.546875 25.640625 
z
" id="ArialMT-112"/>
     <path d="M 3.078125 15.484375 
L 11.765625 16.84375 
Q 12.5 11.625 15.84375 8.84375 
Q 19.1875 6.0625 25.203125 6.0625 
Q 31.25 6.0625 34.171875 8.515625 
Q 37.109375 10.984375 37.109375 14.3125 
Q 37.109375 17.28125 34.515625 19 
Q 32.71875 20.171875 25.53125 21.96875 
Q 15.875 24.421875 12.140625 26.203125 
Q 8.40625 27.984375 6.46875 31.125 
Q 4.546875 34.28125 4.546875 38.09375 
Q 4.546875 41.546875 6.125 44.5 
Q 7.71875 47.46875 10.453125 49.421875 
Q 12.5 50.921875 16.03125 51.96875 
Q 19.578125 53.03125 23.640625 53.03125 
Q 29.734375 53.03125 34.34375 51.265625 
Q 38.96875 49.515625 41.15625 46.5 
Q 43.359375 43.5 44.1875 38.484375 
L 35.59375 37.3125 
Q 35.015625 41.3125 32.203125 43.546875 
Q 29.390625 45.796875 24.265625 45.796875 
Q 18.21875 45.796875 15.625 43.796875 
Q 13.03125 41.796875 13.03125 39.109375 
Q 13.03125 37.40625 14.109375 36.03125 
Q 15.1875 34.625 17.484375 33.6875 
Q 18.796875 33.203125 25.25 31.453125 
Q 34.578125 28.953125 38.25 27.359375 
Q 41.9375 25.78125 44.03125 22.75 
Q 46.140625 19.734375 46.140625 15.234375 
Q 46.140625 10.84375 43.578125 6.953125 
Q 41.015625 3.078125 36.171875 0.953125 
Q 31.34375 -1.171875 25.25 -1.171875 
Q 15.140625 -1.171875 9.84375 3.03125 
Q 4.546875 7.234375 3.078125 15.484375 
z
" id="ArialMT-115"/>
     <path d="M 21 0 
L 1.265625 51.859375 
L 10.546875 51.859375 
L 21.6875 20.796875 
Q 23.484375 15.765625 25 10.359375 
Q 26.171875 14.453125 28.265625 20.21875 
L 39.796875 51.859375 
L 48.828125 51.859375 
L 29.203125 0 
z
" id="ArialMT-118"/>
     <path d="M 6.5 0 
L 6.5 51.859375 
L 14.40625 51.859375 
L 14.40625 44 
Q 17.4375 49.515625 20 51.265625 
Q 22.5625 53.03125 25.640625 53.03125 
Q 30.078125 53.03125 34.671875 50.203125 
L 31.640625 42.046875 
Q 28.421875 43.953125 25.203125 43.953125 
Q 22.3125 43.953125 20.015625 42.21875 
Q 17.71875 40.484375 16.75 37.40625 
Q 15.28125 32.71875 15.28125 27.15625 
L 15.28125 0 
z
" id="ArialMT-114"/>
    </defs>
    <g style="fill:#262626;" transform="translate(313.19625 21.006875)scale(0.12 -0.12)">
     <use xlink:href="#ArialMT-80"/>
     <use x="66.699219" xlink:href="#ArialMT-104"/>
     <use x="122.314453" xlink:href="#ArialMT-105"/>
     <use x="144.53125" xlink:href="#ArialMT-108"/>
     <use x="166.748047" xlink:href="#ArialMT-105"/>
     <use x="188.964844" xlink:href="#ArialMT-112"/>
     <use x="244.580078" xlink:href="#ArialMT-112"/>
     <use x="300.195312" xlink:href="#ArialMT-105"/>
     <use x="322.412109" xlink:href="#ArialMT-110"/>
     <use x="378.027344" xlink:href="#ArialMT-101"/>
     <use x="433.642578" xlink:href="#ArialMT-115"/>
     <use x="483.642578" xlink:href="#ArialMT-32"/>
     <use x="511.425781" xlink:href="#ArialMT-108"/>
     <use x="533.642578" xlink:href="#ArialMT-111"/>
     <use x="589.257812" xlink:href="#ArialMT-97"/>
     <use x="644.873047" xlink:href="#ArialMT-110"/>
     <use x="700.488281" xlink:href="#ArialMT-115"/>
     <use x="750.488281" xlink:href="#ArialMT-32"/>
     <use x="778.271484" xlink:href="#ArialMT-111"/>
     <use x="833.886719" xlink:href="#ArialMT-118"/>
     <use x="883.886719" xlink:href="#ArialMT-101"/>
     <use x="939.501953" xlink:href="#ArialMT-114"/>
     <use x="972.802734" xlink:href="#ArialMT-32"/>
     <use x="1000.585938" xlink:href="#ArialMT-116"/>
     <use x="1028.369141" xlink:href="#ArialMT-105"/>
     <use x="1050.585938" xlink:href="#ArialMT-109"/>
     <use x="1133.886719" xlink:href="#ArialMT-101"/>
    </g>
   </g>
  </g>
  <g id="axes_2">
   <g id="patch_7">
    <path d="M 62.085 252.816 
L 707.04 252.816 
L 707.04 168.414875 
L 62.085 168.414875 
z
" style="fill:#eaeaf2;"/>
   </g>
   <g id="matplotlib.axis_3">
    <g id="xtick_6">
     <g id="line2d_20">
      <path clip-path="url(#pfd7c7279d9)" d="M 116.887407 252.816 
L 116.887407 168.414875 
" style="fill:none;stroke:#ffffff;stroke-linecap:round;"/>
     </g>
     <g id="line2d_21"/>
     <g id="text_13">
      <!-- 2008 -->
      <g style="fill:#262626;" transform="translate(105.765532 266.973813)scale(0.1 -0.1)">
       <use xlink:href="#ArialMT-50"/>
       <use x="55.615234" xlink:href="#ArialMT-48"/>
       <use x="111.230469" xlink:href="#ArialMT-48"/>
       <use x="166.845703" xlink:href="#ArialMT-56"/>
      </g>
     </g>
    </g>
    <g id="xtick_7">
     <g id="line2d_22">
      <path clip-path="url(#pfd7c7279d9)" d="M 218.139926 252.816 
L 218.139926 168.414875 
" style="fill:none;stroke:#ffffff;stroke-linecap:round;"/>
     </g>
     <g id="line2d_23"/>
     <g id="text_14">
      <!-- 2010 -->
      <g style="fill:#262626;" transform="translate(207.018051 266.973813)scale(0.1 -0.1)">
       <use xlink:href="#ArialMT-50"/>
       <use x="55.615234" xlink:href="#ArialMT-48"/>
       <use x="111.230469" xlink:href="#ArialMT-49"/>
       <use x="166.845703" xlink:href="#ArialMT-48"/>
      </g>
     </g>
    </g>
    <g id="xtick_8">
     <g id="line2d_24">
      <path clip-path="url(#pfd7c7279d9)" d="M 319.253933 252.816 
L 319.253933 168.414875 
" style="fill:none;stroke:#ffffff;stroke-linecap:round;"/>
     </g>
     <g id="line2d_25"/>
     <g id="text_15">
      <!-- 2012 -->
      <g style="fill:#262626;" transform="translate(308.132058 266.973813)scale(0.1 -0.1)">
       <use xlink:href="#ArialMT-50"/>
       <use x="55.615234" xlink:href="#ArialMT-48"/>
       <use x="111.230469" xlink:href="#ArialMT-49"/>
       <use x="166.845703" xlink:href="#ArialMT-50"/>
      </g>
     </g>
    </g>
    <g id="xtick_9">
     <g id="line2d_26">
      <path clip-path="url(#pfd7c7279d9)" d="M 420.506452 252.816 
L 420.506452 168.414875 
" style="fill:none;stroke:#ffffff;stroke-linecap:round;"/>
     </g>
     <g id="line2d_27"/>
     <g id="text_16">
      <!-- 2014 -->
      <g style="fill:#262626;" transform="translate(409.384577 266.973813)scale(0.1 -0.1)">
       <use xlink:href="#ArialMT-50"/>
       <use x="55.615234" xlink:href="#ArialMT-48"/>
       <use x="111.230469" xlink:href="#ArialMT-49"/>
       <use x="166.845703" xlink:href="#ArialMT-52"/>
      </g>
     </g>
    </g>
    <g id="xtick_10">
     <g id="line2d_28">
      <path clip-path="url(#pfd7c7279d9)" d="M 521.620459 252.816 
L 521.620459 168.414875 
" style="fill:none;stroke:#ffffff;stroke-linecap:round;"/>
     </g>
     <g id="line2d_29"/>
     <g id="text_17">
      <!-- 2016 -->
      <g style="fill:#262626;" transform="translate(510.498584 266.973813)scale(0.1 -0.1)">
       <use xlink:href="#ArialMT-50"/>
       <use x="55.615234" xlink:href="#ArialMT-48"/>
       <use x="111.230469" xlink:href="#ArialMT-49"/>
       <use x="166.845703" xlink:href="#ArialMT-54"/>
      </g>
     </g>
    </g>
    <g id="xtick_11">
     <g id="line2d_30">
      <path clip-path="url(#pfd7c7279d9)" d="M 622.872978 252.816 
L 622.872978 168.414875 
" style="fill:none;stroke:#ffffff;stroke-linecap:round;"/>
     </g>
     <g id="line2d_31"/>
     <g id="text_18">
      <!-- 2018 -->
      <g style="fill:#262626;" transform="translate(611.751103 266.973813)scale(0.1 -0.1)">
       <use xlink:href="#ArialMT-50"/>
       <use x="55.615234" xlink:href="#ArialMT-48"/>
       <use x="111.230469" xlink:href="#ArialMT-49"/>
       <use x="166.845703" xlink:href="#ArialMT-56"/>
      </g>
     </g>
    </g>
    <g id="text_19">
     <!-- Date -->
     <g style="fill:#262626;" transform="translate(372.945469 280.834906)scale(0.11 -0.11)">
      <use xlink:href="#ArialMT-68"/>
      <use x="72.216797" xlink:href="#ArialMT-97"/>
      <use x="127.832031" xlink:href="#ArialMT-116"/>
      <use x="155.615234" xlink:href="#ArialMT-101"/>
     </g>
    </g>
   </g>
   <g id="matplotlib.axis_4">
    <g id="ytick_5">
     <g id="line2d_32">
      <path clip-path="url(#pfd7c7279d9)" d="M 62.085 249.439036 
L 707.04 249.439036 
" style="fill:none;stroke:#ffffff;stroke-linecap:round;"/>
     </g>
     <g id="line2d_33"/>
     <g id="text_20">
      <!-- 0 -->
      <g style="fill:#262626;" transform="translate(49.524063 253.017942)scale(0.1 -0.1)">
       <use xlink:href="#ArialMT-48"/>
      </g>
     </g>
    </g>
    <g id="ytick_6">
     <g id="line2d_34">
      <path clip-path="url(#pfd7c7279d9)" d="M 62.085 227.817819 
L 707.04 227.817819 
" style="fill:none;stroke:#ffffff;stroke-linecap:round;"/>
     </g>
     <g id="line2d_35"/>
     <g id="text_21">
      <!-- 20000 -->
      <g style="fill:#262626;" transform="translate(27.280313 231.396725)scale(0.1 -0.1)">
       <use xlink:href="#ArialMT-50"/>
       <use x="55.615234" xlink:href="#ArialMT-48"/>
       <use x="111.230469" xlink:href="#ArialMT-48"/>
       <use x="166.845703" xlink:href="#ArialMT-48"/>
       <use x="222.460938" xlink:href="#ArialMT-48"/>
      </g>
     </g>
    </g>
    <g id="ytick_7">
     <g id="line2d_36">
      <path clip-path="url(#pfd7c7279d9)" d="M 62.085 206.196601 
L 707.04 206.196601 
" style="fill:none;stroke:#ffffff;stroke-linecap:round;"/>
     </g>
     <g id="line2d_37"/>
     <g id="text_22">
      <!-- 40000 -->
      <g style="fill:#262626;" transform="translate(27.280313 209.775507)scale(0.1 -0.1)">
       <use xlink:href="#ArialMT-52"/>
       <use x="55.615234" xlink:href="#ArialMT-48"/>
       <use x="111.230469" xlink:href="#ArialMT-48"/>
       <use x="166.845703" xlink:href="#ArialMT-48"/>
       <use x="222.460938" xlink:href="#ArialMT-48"/>
      </g>
     </g>
    </g>
    <g id="ytick_8">
     <g id="line2d_38">
      <path clip-path="url(#pfd7c7279d9)" d="M 62.085 184.575384 
L 707.04 184.575384 
" style="fill:none;stroke:#ffffff;stroke-linecap:round;"/>
     </g>
     <g id="line2d_39"/>
     <g id="text_23">
      <!-- 60000 -->
      <g style="fill:#262626;" transform="translate(27.280313 188.15429)scale(0.1 -0.1)">
       <use xlink:href="#ArialMT-54"/>
       <use x="55.615234" xlink:href="#ArialMT-48"/>
       <use x="111.230469" xlink:href="#ArialMT-48"/>
       <use x="166.845703" xlink:href="#ArialMT-48"/>
       <use x="222.460938" xlink:href="#ArialMT-48"/>
      </g>
     </g>
    </g>
    <g id="text_24">
     <!-- Loan Amount -->
     <g style="fill:#262626;" transform="translate(21.094063 243.028484)rotate(-90)scale(0.11 -0.11)">
      <use xlink:href="#ArialMT-76"/>
      <use x="55.615234" xlink:href="#ArialMT-111"/>
      <use x="111.230469" xlink:href="#ArialMT-97"/>
      <use x="166.845703" xlink:href="#ArialMT-110"/>
      <use x="222.460938" xlink:href="#ArialMT-32"/>
      <use x="244.744141" xlink:href="#ArialMT-65"/>
      <use x="311.443359" xlink:href="#ArialMT-109"/>
      <use x="394.744141" xlink:href="#ArialMT-111"/>
      <use x="450.359375" xlink:href="#ArialMT-117"/>
      <use x="505.974609" xlink:href="#ArialMT-110"/>
      <use x="561.589844" xlink:href="#ArialMT-116"/>
     </g>
    </g>
   </g>
   <g id="line2d_40">
    <path clip-path="url(#pfd7c7279d9)" d="M 91.401136 248.655267 
L 95.695019 248.898506 
L 99.988901 247.763392 
L 104.144271 244.114811 
L 108.438154 235.439298 
L 112.593524 231.520452 
L 116.887407 235.898749 
L 121.181289 236.3582 
L 125.198147 244.114811 
L 129.492029 248.70932 
L 133.647399 248.00663 
L 137.941282 248.357975 
L 142.096652 248.979585 
L 146.390535 247.574206 
L 150.684417 248.898506 
L 154.839787 248.736347 
L 159.13367 246.114774 
L 163.28904 246.547198 
L 171.876805 247.709339 
L 175.75515 218.817987 
L 180.049033 233.006911 
L 184.204403 229.250224 
L 188.498285 229.061039 
L 192.653656 232.709619 
L 196.947538 228.169163 
L 201.24142 230.574524 
L 205.396791 207.223609 
L 209.690673 222.466567 
L 213.846043 203.115578 
L 218.139926 211.034349 
L 222.433808 217.250449 
L 226.312154 244.628315 
L 230.606036 246.033694 
L 234.761406 248.330949 
L 239.055289 239.9257 
L 243.210659 229.142118 
L 247.504541 232.493407 
L 251.798424 240.54731 
L 255.953794 205.547965 
L 260.247677 199.331865 
L 264.403047 213.385656 
L 268.696929 216.547759 
L 272.990812 214.953194 
L 276.869157 247.763392 
L 281.16304 238.871666 
L 285.31841 239.682462 
L 289.612292 243.65536 
L 293.767662 228.925906 
L 298.061545 223.061151 
L 302.355427 230.844789 
L 306.510797 246.547198 
L 314.96005 205.007434 
L 319.253933 214.304558 
L 323.547815 209.601943 
L 327.564673 198.602149 
L 331.858555 204.710142 
L 336.013925 233.979866 
L 340.307808 226.844864 
L 344.463178 240.304072 
L 348.757061 241.358106 
L 353.050943 243.979679 
L 357.206313 242.358087 
L 361.500196 242.249981 
L 365.655566 221.034162 
L 369.949448 230.466418 
L 374.243331 216.818024 
L 378.121676 216.763971 
L 382.415559 205.547965 
L 386.570929 218.574748 
L 390.864811 233.223123 
L 395.020182 208.30467 
L 399.314064 216.520733 
L 403.607946 218.79096 
L 407.763317 232.763672 
L 412.057199 236.97981 
L 416.212569 246.898543 
L 420.506452 233.196096 
L 424.800334 241.222973 
L 428.67868 239.763541 
L 432.972562 242.277008 
L 437.127932 237.412234 
L 441.421815 248.466081 
L 445.577185 247.357994 
L 449.871067 246.871517 
L 454.16495 229.547516 
L 458.32032 236.169014 
L 462.614203 235.223086 
L 466.769573 231.520452 
L 471.063455 213.845107 
L 475.357338 228.89888 
L 479.235683 227.736739 
L 483.529566 239.871647 
L 487.684936 246.628278 
L 491.978818 231.979903 
L 496.134188 245.412084 
L 500.428071 234.95282 
L 504.721953 244.682368 
L 508.877323 247.898524 
L 513.171206 229.790755 
L 517.326576 223.115204 
L 521.620459 245.466137 
L 525.914341 231.30424 
L 529.931199 231.655585 
L 534.225081 212.061356 
L 538.380451 215.304539 
L 542.674334 228.466455 
L 546.829704 229.817781 
L 551.123587 237.817632 
L 555.417469 240.385151 
L 559.572839 231.22316 
L 563.866722 235.060926 
L 568.022092 243.304016 
L 572.315974 241.33108 
L 576.609857 237.196022 
L 580.488202 242.41214 
L 584.782085 238.277083 
L 588.937455 236.114961 
L 593.231337 217.304502 
L 597.386708 239.763541 
L 601.68059 238.006817 
L 605.974472 241.547292 
L 610.129843 195.548152 
L 614.423725 238.250056 
L 618.579095 233.466362 
L 622.872978 221.304427 
L 627.16686 232.439354 
L 631.045206 215.115353 
L 635.339088 216.872077 
L 639.494458 211.818118 
L 643.788341 211.764065 
L 647.943711 194.223852 
L 652.237593 232.385301 
L 656.531476 172.25129 
L 660.686846 223.466549 
L 664.980729 200.169687 
L 669.136099 235.412271 
L 673.429981 233.033937 
L 677.723864 232.925831 
L 677.723864 232.925831 
" style="fill:none;stroke:#0000ff;stroke-linecap:round;stroke-width:1.75;"/>
   </g>
   <g id="patch_8">
    <path d="M 62.085 252.816 
L 62.085 168.414875 
" style="fill:none;"/>
   </g>
   <g id="patch_9">
    <path d="M 707.04 252.816 
L 707.04 168.414875 
" style="fill:none;"/>
   </g>
   <g id="patch_10">
    <path d="M 62.085 252.816 
L 707.04 252.816 
" style="fill:none;"/>
   </g>
   <g id="patch_11">
    <path d="M 62.085 168.414875 
L 707.04 168.414875 
" style="fill:none;"/>
   </g>
   <g id="text_25">
    <!-- Peru loans over time -->
    <g style="fill:#262626;" transform="translate(329.540625 162.414875)scale(0.12 -0.12)">
     <use xlink:href="#ArialMT-80"/>
     <use x="66.699219" xlink:href="#ArialMT-101"/>
     <use x="122.314453" xlink:href="#ArialMT-114"/>
     <use x="155.615234" xlink:href="#ArialMT-117"/>
     <use x="211.230469" xlink:href="#ArialMT-32"/>
     <use x="239.013672" xlink:href="#ArialMT-108"/>
     <use x="261.230469" xlink:href="#ArialMT-111"/>
     <use x="316.845703" xlink:href="#ArialMT-97"/>
     <use x="372.460938" xlink:href="#ArialMT-110"/>
     <use x="428.076172" xlink:href="#ArialMT-115"/>
     <use x="478.076172" xlink:href="#ArialMT-32"/>
     <use x="505.859375" xlink:href="#ArialMT-111"/>
     <use x="561.474609" xlink:href="#ArialMT-118"/>
     <use x="611.474609" xlink:href="#ArialMT-101"/>
     <use x="667.089844" xlink:href="#ArialMT-114"/>
     <use x="700.390625" xlink:href="#ArialMT-32"/>
     <use x="728.173828" xlink:href="#ArialMT-116"/>
     <use x="755.957031" xlink:href="#ArialMT-105"/>
     <use x="778.173828" xlink:href="#ArialMT-109"/>
     <use x="861.474609" xlink:href="#ArialMT-101"/>
    </g>
   </g>
  </g>
  <g id="axes_3">
   <g id="patch_12">
    <path d="M 62.085 394.224 
L 707.04 394.224 
L 707.04 309.822875 
L 62.085 309.822875 
z
" style="fill:#eaeaf2;"/>
   </g>
   <g id="matplotlib.axis_5">
    <g id="xtick_12">
     <g id="line2d_41">
      <path clip-path="url(#pa58e188a4d)" d="M 80.147341 394.224 
L 80.147341 309.822875 
" style="fill:none;stroke:#ffffff;stroke-linecap:round;"/>
     </g>
     <g id="line2d_42"/>
     <g id="text_26">
      <!-- 2006 -->
      <g style="fill:#262626;" transform="translate(69.025466 408.381813)scale(0.1 -0.1)">
       <use xlink:href="#ArialMT-50"/>
       <use x="55.615234" xlink:href="#ArialMT-48"/>
       <use x="111.230469" xlink:href="#ArialMT-48"/>
       <use x="166.845703" xlink:href="#ArialMT-54"/>
      </g>
     </g>
    </g>
    <g id="xtick_13">
     <g id="line2d_43">
      <path clip-path="url(#pa58e188a4d)" d="M 171.428124 394.224 
L 171.428124 309.822875 
" style="fill:none;stroke:#ffffff;stroke-linecap:round;"/>
     </g>
     <g id="line2d_44"/>
     <g id="text_27">
      <!-- 2008 -->
      <g style="fill:#262626;" transform="translate(160.306249 408.381813)scale(0.1 -0.1)">
       <use xlink:href="#ArialMT-50"/>
       <use x="55.615234" xlink:href="#ArialMT-48"/>
       <use x="111.230469" xlink:href="#ArialMT-48"/>
       <use x="166.845703" xlink:href="#ArialMT-56"/>
      </g>
     </g>
    </g>
    <g id="xtick_14">
     <g id="line2d_45">
      <path clip-path="url(#pa58e188a4d)" d="M 262.833949 394.224 
L 262.833949 309.822875 
" style="fill:none;stroke:#ffffff;stroke-linecap:round;"/>
     </g>
     <g id="line2d_46"/>
     <g id="text_28">
      <!-- 2010 -->
      <g style="fill:#262626;" transform="translate(251.712074 408.381813)scale(0.1 -0.1)">
       <use xlink:href="#ArialMT-50"/>
       <use x="55.615234" xlink:href="#ArialMT-48"/>
       <use x="111.230469" xlink:href="#ArialMT-49"/>
       <use x="166.845703" xlink:href="#ArialMT-48"/>
      </g>
     </g>
    </g>
    <g id="xtick_15">
     <g id="line2d_47">
      <path clip-path="url(#pa58e188a4d)" d="M 354.114732 394.224 
L 354.114732 309.822875 
" style="fill:none;stroke:#ffffff;stroke-linecap:round;"/>
     </g>
     <g id="line2d_48"/>
     <g id="text_29">
      <!-- 2012 -->
      <g style="fill:#262626;" transform="translate(342.992857 408.381813)scale(0.1 -0.1)">
       <use xlink:href="#ArialMT-50"/>
       <use x="55.615234" xlink:href="#ArialMT-48"/>
       <use x="111.230469" xlink:href="#ArialMT-49"/>
       <use x="166.845703" xlink:href="#ArialMT-50"/>
      </g>
     </g>
    </g>
    <g id="xtick_16">
     <g id="line2d_49">
      <path clip-path="url(#pa58e188a4d)" d="M 445.520557 394.224 
L 445.520557 309.822875 
" style="fill:none;stroke:#ffffff;stroke-linecap:round;"/>
     </g>
     <g id="line2d_50"/>
     <g id="text_30">
      <!-- 2014 -->
      <g style="fill:#262626;" transform="translate(434.398682 408.381813)scale(0.1 -0.1)">
       <use xlink:href="#ArialMT-50"/>
       <use x="55.615234" xlink:href="#ArialMT-48"/>
       <use x="111.230469" xlink:href="#ArialMT-49"/>
       <use x="166.845703" xlink:href="#ArialMT-52"/>
      </g>
     </g>
    </g>
    <g id="xtick_17">
     <g id="line2d_51">
      <path clip-path="url(#pa58e188a4d)" d="M 536.80134 394.224 
L 536.80134 309.822875 
" style="fill:none;stroke:#ffffff;stroke-linecap:round;"/>
     </g>
     <g id="line2d_52"/>
     <g id="text_31">
      <!-- 2016 -->
      <g style="fill:#262626;" transform="translate(525.679465 408.381813)scale(0.1 -0.1)">
       <use xlink:href="#ArialMT-50"/>
       <use x="55.615234" xlink:href="#ArialMT-48"/>
       <use x="111.230469" xlink:href="#ArialMT-49"/>
       <use x="166.845703" xlink:href="#ArialMT-54"/>
      </g>
     </g>
    </g>
    <g id="xtick_18">
     <g id="line2d_53">
      <path clip-path="url(#pa58e188a4d)" d="M 628.207165 394.224 
L 628.207165 309.822875 
" style="fill:none;stroke:#ffffff;stroke-linecap:round;"/>
     </g>
     <g id="line2d_54"/>
     <g id="text_32">
      <!-- 2018 -->
      <g style="fill:#262626;" transform="translate(617.08529 408.381813)scale(0.1 -0.1)">
       <use xlink:href="#ArialMT-50"/>
       <use x="55.615234" xlink:href="#ArialMT-48"/>
       <use x="111.230469" xlink:href="#ArialMT-49"/>
       <use x="166.845703" xlink:href="#ArialMT-56"/>
      </g>
     </g>
    </g>
    <g id="text_33">
     <!-- Date -->
     <g style="fill:#262626;" transform="translate(372.945469 422.242906)scale(0.11 -0.11)">
      <use xlink:href="#ArialMT-68"/>
      <use x="72.216797" xlink:href="#ArialMT-97"/>
      <use x="127.832031" xlink:href="#ArialMT-116"/>
      <use x="155.615234" xlink:href="#ArialMT-101"/>
     </g>
    </g>
   </g>
   <g id="matplotlib.axis_6">
    <g id="ytick_9">
     <g id="line2d_55">
      <path clip-path="url(#pa58e188a4d)" d="M 62.085 390.58167 
L 707.04 390.58167 
" style="fill:none;stroke:#ffffff;stroke-linecap:round;"/>
     </g>
     <g id="line2d_56"/>
     <g id="text_34">
      <!-- 0 -->
      <g style="fill:#262626;" transform="translate(49.524063 394.160577)scale(0.1 -0.1)">
       <use xlink:href="#ArialMT-48"/>
      </g>
     </g>
    </g>
    <g id="ytick_10">
     <g id="line2d_57">
      <path clip-path="url(#pa58e188a4d)" d="M 62.085 364.703662 
L 707.04 364.703662 
" style="fill:none;stroke:#ffffff;stroke-linecap:round;"/>
     </g>
     <g id="line2d_58"/>
     <g id="text_35">
      <!-- 20000 -->
      <g style="fill:#262626;" transform="translate(27.280313 368.282568)scale(0.1 -0.1)">
       <use xlink:href="#ArialMT-50"/>
       <use x="55.615234" xlink:href="#ArialMT-48"/>
       <use x="111.230469" xlink:href="#ArialMT-48"/>
       <use x="166.845703" xlink:href="#ArialMT-48"/>
       <use x="222.460938" xlink:href="#ArialMT-48"/>
      </g>
     </g>
    </g>
    <g id="ytick_11">
     <g id="line2d_59">
      <path clip-path="url(#pa58e188a4d)" d="M 62.085 338.825653 
L 707.04 338.825653 
" style="fill:none;stroke:#ffffff;stroke-linecap:round;"/>
     </g>
     <g id="line2d_60"/>
     <g id="text_36">
      <!-- 40000 -->
      <g style="fill:#262626;" transform="translate(27.280313 342.404559)scale(0.1 -0.1)">
       <use xlink:href="#ArialMT-52"/>
       <use x="55.615234" xlink:href="#ArialMT-48"/>
       <use x="111.230469" xlink:href="#ArialMT-48"/>
       <use x="166.845703" xlink:href="#ArialMT-48"/>
       <use x="222.460938" xlink:href="#ArialMT-48"/>
      </g>
     </g>
    </g>
    <g id="ytick_12">
     <g id="line2d_61">
      <path clip-path="url(#pa58e188a4d)" d="M 62.085 312.947645 
L 707.04 312.947645 
" style="fill:none;stroke:#ffffff;stroke-linecap:round;"/>
     </g>
     <g id="line2d_62"/>
     <g id="text_37">
      <!-- 60000 -->
      <g style="fill:#262626;" transform="translate(27.280313 316.526551)scale(0.1 -0.1)">
       <use xlink:href="#ArialMT-54"/>
       <use x="55.615234" xlink:href="#ArialMT-48"/>
       <use x="111.230469" xlink:href="#ArialMT-48"/>
       <use x="166.845703" xlink:href="#ArialMT-48"/>
       <use x="222.460938" xlink:href="#ArialMT-48"/>
      </g>
     </g>
    </g>
    <g id="text_38">
     <!-- Loan Amount -->
     <g style="fill:#262626;" transform="translate(21.094063 384.436484)rotate(-90)scale(0.11 -0.11)">
      <use xlink:href="#ArialMT-76"/>
      <use x="55.615234" xlink:href="#ArialMT-111"/>
      <use x="111.230469" xlink:href="#ArialMT-97"/>
      <use x="166.845703" xlink:href="#ArialMT-110"/>
      <use x="222.460938" xlink:href="#ArialMT-32"/>
      <use x="244.744141" xlink:href="#ArialMT-65"/>
      <use x="311.443359" xlink:href="#ArialMT-109"/>
      <use x="394.744141" xlink:href="#ArialMT-111"/>
      <use x="450.359375" xlink:href="#ArialMT-117"/>
      <use x="505.974609" xlink:href="#ArialMT-110"/>
      <use x="561.589844" xlink:href="#ArialMT-116"/>
     </g>
    </g>
   </g>
   <g id="line2d_63">
    <path clip-path="url(#pa58e188a4d)" d="M 91.401136 389.708288 
L 99.028709 388.867252 
L 106.656281 389.80533 
L 110.532588 388.058564 
L 114.283853 390.290543 
L 118.16016 385.664849 
L 121.911425 384.759118 
L 125.787733 387.314572 
L 129.66404 388.446735 
L 133.165221 377.739709 
L 137.041528 380.262814 
L 140.792793 386.958749 
L 144.6691 384.759118 
L 148.420365 387.961522 
L 152.296672 389.837678 
L 156.17298 390.387585 
L 159.924245 384.662076 
L 163.800552 385.535459 
L 167.551817 386.894054 
L 171.428124 389.02899 
L 175.304431 386.667621 
L 178.930654 389.093685 
L 209.565985 390.128805 
L 224.571046 389.02899 
L 228.447353 389.578897 
L 232.198618 389.41716 
L 236.074925 388.996642 
L 239.82619 389.870025 
L 243.702497 386.861707 
L 247.578805 380.780375 
L 251.33007 377.480928 
L 255.206377 377.739709 
L 258.957642 381.589062 
L 262.833949 386.829359 
L 266.710256 378.613091 
L 270.211437 387.993869 
L 274.087744 390.225848 
L 281.715317 384.241558 
L 285.466582 378.419006 
L 289.342889 383.238785 
L 293.219196 383.723998 
L 296.970461 363.377414 
L 300.846768 362.827506 
L 304.598033 374.957823 
L 308.474341 370.752646 
L 312.350648 366.903292 
L 315.851829 386.764664 
L 319.728136 384.112168 
L 323.479401 386.376494 
L 327.355708 384.112168 
L 331.106973 371.787767 
L 334.98328 369.943958 
L 338.859587 377.739709 
L 346.48716 388.220302 
L 350.238425 337.370015 
L 354.114732 346.168538 
L 357.991039 351.279445 
L 361.617262 352.735083 
L 365.493569 361.274826 
L 369.244834 335.299774 
L 373.121142 381.36263 
L 376.872407 387.120487 
L 380.748714 383.788693 
L 384.625021 374.569652 
L 388.376286 388.38204 
L 392.252593 365.64174 
L 396.003858 366.062257 
L 399.880166 349.403289 
L 403.756473 336.108462 
L 407.257654 313.65929 
L 411.133961 348.174084 
L 414.885226 351.311792 
L 418.761533 354.028983 
L 422.512798 342.836744 
L 426.389105 347.915304 
L 430.265413 356.713827 
L 434.016678 377.804404 
L 437.892985 368.585363 
L 441.64425 385.276679 
L 445.520557 378.289616 
L 449.396864 383.950431 
L 452.898045 367.259115 
L 456.774352 381.524367 
L 460.525617 375.540078 
L 464.401924 389.320117 
L 468.15319 390.161153 
L 472.029497 388.479082 
L 475.905804 382.980005 
L 479.657069 376.251723 
L 483.533376 376.833978 
L 487.284641 372.693497 
L 491.160948 369.426398 
L 495.037256 372.693497 
L 498.538436 346.944878 
L 502.414744 362.018818 
L 506.166009 378.904219 
L 510.042316 371.270206 
L 513.793581 377.772056 
L 517.669888 378.030836 
L 521.546195 383.659303 
L 525.29746 381.136197 
L 529.173768 377.222148 
L 532.925033 365.674087 
L 536.80134 384.435643 
L 540.677647 375.8959 
L 544.30387 372.370022 
L 548.180177 350.794232 
L 551.931442 352.702735 
L 555.80775 381.394977 
L 559.559015 366.191647 
L 563.435322 373.243405 
L 567.311629 376.672241 
L 571.062894 383.756346 
L 574.939201 376.089985 
L 578.690466 367.388505 
L 582.566774 362.406988 
L 586.443081 363.636194 
L 589.944261 377.125106 
L 593.820569 381.912537 
L 597.571834 367.679633 
L 601.448141 368.908838 
L 605.199406 371.270206 
L 609.075713 385.082593 
L 612.95202 381.88019 
L 616.703285 362.083513 
L 620.579593 364.412534 
L 624.330858 355.775749 
L 628.207165 352.63804 
L 632.083472 358.23416 
L 635.584653 325.983691 
L 639.46096 352.799778 
L 643.212225 345.262808 
L 647.088532 359.431017 
L 650.839797 355.808096 
L 654.716105 346.977226 
L 658.592412 343.386652 
L 662.343677 341.413454 
L 666.219984 355.808096 
L 669.971249 346.653751 
L 673.847556 353.737856 
L 677.723864 370.073348 
L 677.723864 370.073348 
" style="fill:none;stroke:#ff0000;stroke-linecap:round;stroke-width:1.75;"/>
   </g>
   <g id="patch_13">
    <path d="M 62.085 394.224 
L 62.085 309.822875 
" style="fill:none;"/>
   </g>
   <g id="patch_14">
    <path d="M 707.04 394.224 
L 707.04 309.822875 
" style="fill:none;"/>
   </g>
   <g id="patch_15">
    <path d="M 62.085 394.224 
L 707.04 394.224 
" style="fill:none;"/>
   </g>
   <g id="patch_16">
    <path d="M 62.085 309.822875 
L 707.04 309.822875 
" style="fill:none;"/>
   </g>
   <g id="text_39">
    <!-- Kenya loans over time -->
    <defs>
     <path d="M 7.328125 0 
L 7.328125 71.578125 
L 16.796875 71.578125 
L 16.796875 36.078125 
L 52.34375 71.578125 
L 65.1875 71.578125 
L 35.15625 42.578125 
L 66.5 0 
L 54 0 
L 28.515625 36.234375 
L 16.796875 24.8125 
L 16.796875 0 
z
" id="ArialMT-75"/>
     <path d="M 6.203125 -19.96875 
L 5.21875 -11.71875 
Q 8.109375 -12.5 10.25 -12.5 
Q 13.1875 -12.5 14.9375 -11.515625 
Q 16.703125 -10.546875 17.828125 -8.796875 
Q 18.65625 -7.46875 20.515625 -2.25 
Q 20.75 -1.515625 21.296875 -0.09375 
L 1.609375 51.859375 
L 11.078125 51.859375 
L 21.875 21.828125 
Q 23.96875 16.109375 25.640625 9.8125 
Q 27.15625 15.875 29.25 21.625 
L 40.328125 51.859375 
L 49.125 51.859375 
L 29.390625 -0.875 
Q 26.21875 -9.421875 24.46875 -12.640625 
Q 22.125 -17 19.09375 -19.015625 
Q 16.0625 -21.046875 11.859375 -21.046875 
Q 9.328125 -21.046875 6.203125 -19.96875 
z
" id="ArialMT-121"/>
    </defs>
    <g style="fill:#262626;" transform="translate(325.201875 303.822875)scale(0.12 -0.12)">
     <use xlink:href="#ArialMT-75"/>
     <use x="66.699219" xlink:href="#ArialMT-101"/>
     <use x="122.314453" xlink:href="#ArialMT-110"/>
     <use x="177.929688" xlink:href="#ArialMT-121"/>
     <use x="227.929688" xlink:href="#ArialMT-97"/>
     <use x="283.544922" xlink:href="#ArialMT-32"/>
     <use x="311.328125" xlink:href="#ArialMT-108"/>
     <use x="333.544922" xlink:href="#ArialMT-111"/>
     <use x="389.160156" xlink:href="#ArialMT-97"/>
     <use x="444.775391" xlink:href="#ArialMT-110"/>
     <use x="500.390625" xlink:href="#ArialMT-115"/>
     <use x="550.390625" xlink:href="#ArialMT-32"/>
     <use x="578.173828" xlink:href="#ArialMT-111"/>
     <use x="633.789062" xlink:href="#ArialMT-118"/>
     <use x="683.789062" xlink:href="#ArialMT-101"/>
     <use x="739.404297" xlink:href="#ArialMT-114"/>
     <use x="772.705078" xlink:href="#ArialMT-32"/>
     <use x="800.488281" xlink:href="#ArialMT-116"/>
     <use x="828.271484" xlink:href="#ArialMT-105"/>
     <use x="850.488281" xlink:href="#ArialMT-109"/>
     <use x="933.789062" xlink:href="#ArialMT-101"/>
    </g>
   </g>
  </g>
  <g id="axes_4">
   <g id="patch_17">
    <path d="M 62.085 535.632 
L 707.04 535.632 
L 707.04 451.230875 
L 62.085 451.230875 
z
" style="fill:#eaeaf2;"/>
   </g>
   <g id="matplotlib.axis_7">
    <g id="xtick_19">
     <g id="line2d_64">
      <path clip-path="url(#pef7a18bbe8)" d="M 120.83418 535.632 
L 120.83418 451.230875 
" style="fill:none;stroke:#ffffff;stroke-linecap:round;"/>
     </g>
     <g id="line2d_65"/>
     <g id="text_40">
      <!-- 2008 -->
      <g style="fill:#262626;" transform="translate(109.712305 549.789813)scale(0.1 -0.1)">
       <use xlink:href="#ArialMT-50"/>
       <use x="55.615234" xlink:href="#ArialMT-48"/>
       <use x="111.230469" xlink:href="#ArialMT-48"/>
       <use x="166.845703" xlink:href="#ArialMT-56"/>
      </g>
     </g>
    </g>
    <g id="xtick_20">
     <g id="line2d_66">
      <path clip-path="url(#pef7a18bbe8)" d="M 221.374155 535.632 
L 221.374155 451.230875 
" style="fill:none;stroke:#ffffff;stroke-linecap:round;"/>
     </g>
     <g id="line2d_67"/>
     <g id="text_41">
      <!-- 2010 -->
      <g style="fill:#262626;" transform="translate(210.25228 549.789813)scale(0.1 -0.1)">
       <use xlink:href="#ArialMT-50"/>
       <use x="55.615234" xlink:href="#ArialMT-48"/>
       <use x="111.230469" xlink:href="#ArialMT-49"/>
       <use x="166.845703" xlink:href="#ArialMT-48"/>
      </g>
     </g>
    </g>
    <g id="xtick_21">
     <g id="line2d_68">
      <path clip-path="url(#pef7a18bbe8)" d="M 321.776592 535.632 
L 321.776592 451.230875 
" style="fill:none;stroke:#ffffff;stroke-linecap:round;"/>
     </g>
     <g id="line2d_69"/>
     <g id="text_42">
      <!-- 2012 -->
      <g style="fill:#262626;" transform="translate(310.654717 549.789813)scale(0.1 -0.1)">
       <use xlink:href="#ArialMT-50"/>
       <use x="55.615234" xlink:href="#ArialMT-48"/>
       <use x="111.230469" xlink:href="#ArialMT-49"/>
       <use x="166.845703" xlink:href="#ArialMT-50"/>
      </g>
     </g>
    </g>
    <g id="xtick_22">
     <g id="line2d_70">
      <path clip-path="url(#pef7a18bbe8)" d="M 422.316567 535.632 
L 422.316567 451.230875 
" style="fill:none;stroke:#ffffff;stroke-linecap:round;"/>
     </g>
     <g id="line2d_71"/>
     <g id="text_43">
      <!-- 2014 -->
      <g style="fill:#262626;" transform="translate(411.194692 549.789813)scale(0.1 -0.1)">
       <use xlink:href="#ArialMT-50"/>
       <use x="55.615234" xlink:href="#ArialMT-48"/>
       <use x="111.230469" xlink:href="#ArialMT-49"/>
       <use x="166.845703" xlink:href="#ArialMT-52"/>
      </g>
     </g>
    </g>
    <g id="xtick_23">
     <g id="line2d_72">
      <path clip-path="url(#pef7a18bbe8)" d="M 522.719005 535.632 
L 522.719005 451.230875 
" style="fill:none;stroke:#ffffff;stroke-linecap:round;"/>
     </g>
     <g id="line2d_73"/>
     <g id="text_44">
      <!-- 2016 -->
      <g style="fill:#262626;" transform="translate(511.59713 549.789813)scale(0.1 -0.1)">
       <use xlink:href="#ArialMT-50"/>
       <use x="55.615234" xlink:href="#ArialMT-48"/>
       <use x="111.230469" xlink:href="#ArialMT-49"/>
       <use x="166.845703" xlink:href="#ArialMT-54"/>
      </g>
     </g>
    </g>
    <g id="xtick_24">
     <g id="line2d_74">
      <path clip-path="url(#pef7a18bbe8)" d="M 623.25898 535.632 
L 623.25898 451.230875 
" style="fill:none;stroke:#ffffff;stroke-linecap:round;"/>
     </g>
     <g id="line2d_75"/>
     <g id="text_45">
      <!-- 2018 -->
      <g style="fill:#262626;" transform="translate(612.137105 549.789813)scale(0.1 -0.1)">
       <use xlink:href="#ArialMT-50"/>
       <use x="55.615234" xlink:href="#ArialMT-48"/>
       <use x="111.230469" xlink:href="#ArialMT-49"/>
       <use x="166.845703" xlink:href="#ArialMT-56"/>
      </g>
     </g>
    </g>
    <g id="text_46">
     <!-- Date -->
     <g style="fill:#262626;" transform="translate(372.945469 563.650906)scale(0.11 -0.11)">
      <use xlink:href="#ArialMT-68"/>
      <use x="72.216797" xlink:href="#ArialMT-97"/>
      <use x="127.832031" xlink:href="#ArialMT-116"/>
      <use x="155.615234" xlink:href="#ArialMT-101"/>
     </g>
    </g>
   </g>
   <g id="matplotlib.axis_8">
    <g id="ytick_13">
     <g id="line2d_76">
      <path clip-path="url(#pef7a18bbe8)" d="M 62.085 532.34469 
L 707.04 532.34469 
" style="fill:none;stroke:#ffffff;stroke-linecap:round;"/>
     </g>
     <g id="line2d_77"/>
     <g id="text_47">
      <!-- 0 -->
      <g style="fill:#262626;" transform="translate(49.524063 535.923597)scale(0.1 -0.1)">
       <use xlink:href="#ArialMT-48"/>
      </g>
     </g>
    </g>
    <g id="ytick_14">
     <g id="line2d_78">
      <path clip-path="url(#pef7a18bbe8)" d="M 62.085 503.059081 
L 707.04 503.059081 
" style="fill:none;stroke:#ffffff;stroke-linecap:round;"/>
     </g>
     <g id="line2d_79"/>
     <g id="text_48">
      <!-- 20000 -->
      <g style="fill:#262626;" transform="translate(27.280313 506.637988)scale(0.1 -0.1)">
       <use xlink:href="#ArialMT-50"/>
       <use x="55.615234" xlink:href="#ArialMT-48"/>
       <use x="111.230469" xlink:href="#ArialMT-48"/>
       <use x="166.845703" xlink:href="#ArialMT-48"/>
       <use x="222.460938" xlink:href="#ArialMT-48"/>
      </g>
     </g>
    </g>
    <g id="ytick_15">
     <g id="line2d_80">
      <path clip-path="url(#pef7a18bbe8)" d="M 62.085 473.773472 
L 707.04 473.773472 
" style="fill:none;stroke:#ffffff;stroke-linecap:round;"/>
     </g>
     <g id="line2d_81"/>
     <g id="text_49">
      <!-- 40000 -->
      <g style="fill:#262626;" transform="translate(27.280313 477.352379)scale(0.1 -0.1)">
       <use xlink:href="#ArialMT-52"/>
       <use x="55.615234" xlink:href="#ArialMT-48"/>
       <use x="111.230469" xlink:href="#ArialMT-48"/>
       <use x="166.845703" xlink:href="#ArialMT-48"/>
       <use x="222.460938" xlink:href="#ArialMT-48"/>
      </g>
     </g>
    </g>
    <g id="text_50">
     <!-- Loan Amount -->
     <g style="fill:#262626;" transform="translate(21.094063 525.844484)rotate(-90)scale(0.11 -0.11)">
      <use xlink:href="#ArialMT-76"/>
      <use x="55.615234" xlink:href="#ArialMT-111"/>
      <use x="111.230469" xlink:href="#ArialMT-97"/>
      <use x="166.845703" xlink:href="#ArialMT-110"/>
      <use x="222.460938" xlink:href="#ArialMT-32"/>
      <use x="244.744141" xlink:href="#ArialMT-65"/>
      <use x="311.443359" xlink:href="#ArialMT-109"/>
      <use x="394.744141" xlink:href="#ArialMT-111"/>
      <use x="450.359375" xlink:href="#ArialMT-117"/>
      <use x="505.974609" xlink:href="#ArialMT-110"/>
      <use x="561.589844" xlink:href="#ArialMT-116"/>
     </g>
    </g>
   </g>
   <g id="line2d_82">
    <path clip-path="url(#pef7a18bbe8)" d="M 91.401136 530.953624 
L 95.527264 527.439351 
L 99.790929 529.928628 
L 104.054594 527.146495 
L 112.444387 524.87686 
L 116.570515 524.291148 
L 125.097845 527.219709 
L 129.086435 529.050059 
L 137.476228 530.953624 
L 145.86602 531.61255 
L 150.129685 530.587554 
L 158.519478 531.209873 
L 179.287654 531.392908 
L 183.551319 525.023288 
L 187.677446 528.720596 
L 191.941111 523.668829 
L 196.067239 530.88041 
L 200.330904 519.568843 
L 204.594569 524.620611 
L 208.720697 530.843803 
L 212.984362 531.100052 
L 217.11049 503.095688 
L 225.63782 525.316144 
L 229.488872 528.647382 
L 237.878665 530.697375 
L 242.14233 524.181327 
L 246.268458 528.867024 
L 250.532123 512.101013 
L 254.795788 525.133109 
L 258.921916 521.399194 
L 263.185581 524.217934 
L 267.311708 524.657218 
L 275.839039 515.102788 
L 279.690091 531.539336 
L 283.953756 521.728657 
L 288.079884 524.547397 
L 292.343549 524.657218 
L 296.469676 518.250991 
L 300.733342 524.364362 
L 304.997007 523.485794 
L 317.512927 509.282273 
L 321.776592 508.184063 
L 326.040257 488.343063 
L 330.028847 506.976032 
L 334.292512 498.153742 
L 338.41864 525.24293 
L 342.682305 528.757203 
L 346.808433 523.595615 
L 351.072098 530.184877 
L 355.335763 527.439351 
L 359.461891 530.843803 
L 363.725556 499.618022 
L 367.851683 515.615286 
L 372.115349 517.994742 
L 376.379014 498.702847 
L 380.230066 501.777836 
L 384.493731 508.659954 
L 388.619859 488.928775 
L 392.883524 478.605598 
L 397.009651 475.567216 
L 401.273317 470.405627 
L 405.536982 496.543033 
L 409.663109 523.961685 
L 413.926775 509.465308 
L 426.580232 498.373384 
L 430.431285 525.645607 
L 434.69495 527.951849 
L 447.21087 531.24648 
L 451.474535 526.487569 
L 459.864328 513.089403 
L 464.127993 520.850089 
L 468.254121 503.644794 
L 472.517786 510.526912 
L 476.781451 509.648343 
L 480.632504 481.314517 
L 484.896169 528.391133 
L 489.022296 526.487569 
L 493.285961 505.109074 
L 497.412089 529.892021 
L 501.675754 519.678665 
L 505.939419 530.807196 
L 510.065547 505.438537 
L 514.329212 500.533198 
L 518.45534 513.235831 
L 522.719005 531.795585 
L 526.98267 504.376934 
L 530.97126 495.993928 
L 535.234925 478.276135 
L 539.361053 514.846539 
L 543.624718 526.267927 
L 547.750845 514.077792 
L 552.01451 525.133109 
L 556.278176 502.985867 
L 560.404303 491.967157 
L 564.667968 509.831379 
L 573.057761 529.306308 
L 581.172479 531.649157 
L 585.436144 515.359037 
L 589.562271 513.49208 
L 593.825936 523.998292 
L 597.952064 524.14472 
L 602.215729 517.628672 
L 606.479394 529.745593 
L 610.605522 512.50369 
L 614.869187 510.600126 
L 618.995315 476.299356 
L 623.25898 494.456434 
L 627.522645 509.794772 
L 631.373697 503.351938 
L 635.637362 507.085853 
L 639.76349 473.480616 
L 644.027155 512.13762 
L 648.153283 494.053757 
L 652.416948 482.522548 
L 656.680613 456.202107 
L 660.806741 500.240342 
L 665.070406 484.975218 
L 669.196533 495.8475 
L 673.460198 467.001175 
L 677.723864 455.06729 
" style="fill:none;stroke:#008000;stroke-linecap:round;stroke-width:1.75;"/>
   </g>
   <g id="patch_18">
    <path d="M 62.085 535.632 
L 62.085 451.230875 
" style="fill:none;"/>
   </g>
   <g id="patch_19">
    <path d="M 707.04 535.632 
L 707.04 451.230875 
" style="fill:none;"/>
   </g>
   <g id="patch_20">
    <path d="M 62.085 535.632 
L 707.04 535.632 
" style="fill:none;"/>
   </g>
   <g id="patch_21">
    <path d="M 62.085 451.230875 
L 707.04 451.230875 
" style="fill:none;"/>
   </g>
   <g id="text_51">
    <!-- Paraguay loans over time -->
    <defs>
     <path d="M 4.984375 -4.296875 
L 13.53125 -5.5625 
Q 14.0625 -9.515625 16.5 -11.328125 
Q 19.78125 -13.765625 25.4375 -13.765625 
Q 31.546875 -13.765625 34.859375 -11.328125 
Q 38.1875 -8.890625 39.359375 -4.5 
Q 40.046875 -1.8125 39.984375 6.78125 
Q 34.234375 0 25.640625 0 
Q 14.9375 0 9.078125 7.71875 
Q 3.21875 15.4375 3.21875 26.21875 
Q 3.21875 33.640625 5.90625 39.90625 
Q 8.59375 46.1875 13.6875 49.609375 
Q 18.796875 53.03125 25.6875 53.03125 
Q 34.859375 53.03125 40.828125 45.609375 
L 40.828125 51.859375 
L 48.921875 51.859375 
L 48.921875 7.03125 
Q 48.921875 -5.078125 46.453125 -10.125 
Q 44 -15.1875 38.640625 -18.109375 
Q 33.296875 -21.046875 25.484375 -21.046875 
Q 16.21875 -21.046875 10.5 -16.875 
Q 4.78125 -12.703125 4.984375 -4.296875 
z
M 12.25 26.859375 
Q 12.25 16.65625 16.296875 11.96875 
Q 20.359375 7.28125 26.46875 7.28125 
Q 32.515625 7.28125 36.609375 11.9375 
Q 40.71875 16.609375 40.71875 26.5625 
Q 40.71875 36.078125 36.5 40.90625 
Q 32.28125 45.75 26.3125 45.75 
Q 20.453125 45.75 16.34375 40.984375 
Q 12.25 36.234375 12.25 26.859375 
z
" id="ArialMT-103"/>
    </defs>
    <g style="fill:#262626;" transform="translate(316.530937 445.230875)scale(0.12 -0.12)">
     <use xlink:href="#ArialMT-80"/>
     <use x="66.699219" xlink:href="#ArialMT-97"/>
     <use x="122.314453" xlink:href="#ArialMT-114"/>
     <use x="155.615234" xlink:href="#ArialMT-97"/>
     <use x="211.230469" xlink:href="#ArialMT-103"/>
     <use x="266.845703" xlink:href="#ArialMT-117"/>
     <use x="322.460938" xlink:href="#ArialMT-97"/>
     <use x="378.076172" xlink:href="#ArialMT-121"/>
     <use x="428.076172" xlink:href="#ArialMT-32"/>
     <use x="455.859375" xlink:href="#ArialMT-108"/>
     <use x="478.076172" xlink:href="#ArialMT-111"/>
     <use x="533.691406" xlink:href="#ArialMT-97"/>
     <use x="589.306641" xlink:href="#ArialMT-110"/>
     <use x="644.921875" xlink:href="#ArialMT-115"/>
     <use x="694.921875" xlink:href="#ArialMT-32"/>
     <use x="722.705078" xlink:href="#ArialMT-111"/>
     <use x="778.320312" xlink:href="#ArialMT-118"/>
     <use x="828.320312" xlink:href="#ArialMT-101"/>
     <use x="883.935547" xlink:href="#ArialMT-114"/>
     <use x="917.236328" xlink:href="#ArialMT-32"/>
     <use x="945.019531" xlink:href="#ArialMT-116"/>
     <use x="972.802734" xlink:href="#ArialMT-105"/>
     <use x="995.019531" xlink:href="#ArialMT-109"/>
     <use x="1078.320312" xlink:href="#ArialMT-101"/>
    </g>
   </g>
  </g>
  <g id="axes_5">
   <g id="patch_22">
    <path d="M 62.085 677.04 
L 707.04 677.04 
L 707.04 592.638875 
L 62.085 592.638875 
z
" style="fill:#eaeaf2;"/>
   </g>
   <g id="matplotlib.axis_9">
    <g id="xtick_25">
     <g id="line2d_83">
      <path clip-path="url(#p04dc214ef2)" d="M 122.762585 677.04 
L 122.762585 592.638875 
" style="fill:none;stroke:#ffffff;stroke-linecap:round;"/>
     </g>
     <g id="line2d_84"/>
     <g id="text_52">
      <!-- 2010 -->
      <g style="fill:#262626;" transform="translate(111.64071 691.197812)scale(0.1 -0.1)">
       <use xlink:href="#ArialMT-50"/>
       <use x="55.615234" xlink:href="#ArialMT-48"/>
       <use x="111.230469" xlink:href="#ArialMT-49"/>
       <use x="166.845703" xlink:href="#ArialMT-48"/>
      </g>
     </g>
    </g>
    <g id="xtick_26">
     <g id="line2d_85">
      <path clip-path="url(#p04dc214ef2)" d="M 184.974153 677.04 
L 184.974153 592.638875 
" style="fill:none;stroke:#ffffff;stroke-linecap:round;"/>
     </g>
     <g id="line2d_86"/>
     <g id="text_53">
      <!-- 2011 -->
      <g style="fill:#262626;" transform="translate(174.221028 691.197812)scale(0.1 -0.1)">
       <use xlink:href="#ArialMT-50"/>
       <use x="55.615234" xlink:href="#ArialMT-48"/>
       <use x="111.230469" xlink:href="#ArialMT-49"/>
       <use x="159.470703" xlink:href="#ArialMT-49"/>
      </g>
     </g>
    </g>
    <g id="xtick_27">
     <g id="line2d_87">
      <path clip-path="url(#p04dc214ef2)" d="M 247.185721 677.04 
L 247.185721 592.638875 
" style="fill:none;stroke:#ffffff;stroke-linecap:round;"/>
     </g>
     <g id="line2d_88"/>
     <g id="text_54">
      <!-- 2012 -->
      <g style="fill:#262626;" transform="translate(236.063846 691.197812)scale(0.1 -0.1)">
       <use xlink:href="#ArialMT-50"/>
       <use x="55.615234" xlink:href="#ArialMT-48"/>
       <use x="111.230469" xlink:href="#ArialMT-49"/>
       <use x="166.845703" xlink:href="#ArialMT-50"/>
      </g>
     </g>
    </g>
    <g id="xtick_28">
     <g id="line2d_89">
      <path clip-path="url(#p04dc214ef2)" d="M 309.567733 677.04 
L 309.567733 592.638875 
" style="fill:none;stroke:#ffffff;stroke-linecap:round;"/>
     </g>
     <g id="line2d_90"/>
     <g id="text_55">
      <!-- 2013 -->
      <defs>
       <path d="M 4.203125 18.890625 
L 12.984375 20.0625 
Q 14.5 12.59375 18.140625 9.296875 
Q 21.78125 6 27 6 
Q 33.203125 6 37.46875 10.296875 
Q 41.75 14.59375 41.75 20.953125 
Q 41.75 27 37.796875 30.921875 
Q 33.84375 34.859375 27.734375 34.859375 
Q 25.25 34.859375 21.53125 33.890625 
L 22.515625 41.609375 
Q 23.390625 41.5 23.921875 41.5 
Q 29.546875 41.5 34.03125 44.421875 
Q 38.53125 47.359375 38.53125 53.46875 
Q 38.53125 58.296875 35.25 61.46875 
Q 31.984375 64.65625 26.8125 64.65625 
Q 21.6875 64.65625 18.265625 61.421875 
Q 14.84375 58.203125 13.875 51.765625 
L 5.078125 53.328125 
Q 6.6875 62.15625 12.390625 67.015625 
Q 18.109375 71.875 26.609375 71.875 
Q 32.46875 71.875 37.390625 69.359375 
Q 42.328125 66.84375 44.9375 62.5 
Q 47.5625 58.15625 47.5625 53.265625 
Q 47.5625 48.640625 45.0625 44.828125 
Q 42.578125 41.015625 37.703125 38.765625 
Q 44.046875 37.3125 47.5625 32.6875 
Q 51.078125 28.078125 51.078125 21.140625 
Q 51.078125 11.765625 44.234375 5.25 
Q 37.40625 -1.265625 26.953125 -1.265625 
Q 17.53125 -1.265625 11.296875 4.34375 
Q 5.078125 9.96875 4.203125 18.890625 
z
" id="ArialMT-51"/>
      </defs>
      <g style="fill:#262626;" transform="translate(298.445858 691.197812)scale(0.1 -0.1)">
       <use xlink:href="#ArialMT-50"/>
       <use x="55.615234" xlink:href="#ArialMT-48"/>
       <use x="111.230469" xlink:href="#ArialMT-49"/>
       <use x="166.845703" xlink:href="#ArialMT-51"/>
      </g>
     </g>
    </g>
    <g id="xtick_29">
     <g id="line2d_91">
      <path clip-path="url(#p04dc214ef2)" d="M 371.779301 677.04 
L 371.779301 592.638875 
" style="fill:none;stroke:#ffffff;stroke-linecap:round;"/>
     </g>
     <g id="line2d_92"/>
     <g id="text_56">
      <!-- 2014 -->
      <g style="fill:#262626;" transform="translate(360.657426 691.197812)scale(0.1 -0.1)">
       <use xlink:href="#ArialMT-50"/>
       <use x="55.615234" xlink:href="#ArialMT-48"/>
       <use x="111.230469" xlink:href="#ArialMT-49"/>
       <use x="166.845703" xlink:href="#ArialMT-52"/>
      </g>
     </g>
    </g>
    <g id="xtick_30">
     <g id="line2d_93">
      <path clip-path="url(#p04dc214ef2)" d="M 433.990869 677.04 
L 433.990869 592.638875 
" style="fill:none;stroke:#ffffff;stroke-linecap:round;"/>
     </g>
     <g id="line2d_94"/>
     <g id="text_57">
      <!-- 2015 -->
      <g style="fill:#262626;" transform="translate(422.868994 691.197812)scale(0.1 -0.1)">
       <use xlink:href="#ArialMT-50"/>
       <use x="55.615234" xlink:href="#ArialMT-48"/>
       <use x="111.230469" xlink:href="#ArialMT-49"/>
       <use x="166.845703" xlink:href="#ArialMT-53"/>
      </g>
     </g>
    </g>
    <g id="xtick_31">
     <g id="line2d_95">
      <path clip-path="url(#p04dc214ef2)" d="M 496.202438 677.04 
L 496.202438 592.638875 
" style="fill:none;stroke:#ffffff;stroke-linecap:round;"/>
     </g>
     <g id="line2d_96"/>
     <g id="text_58">
      <!-- 2016 -->
      <g style="fill:#262626;" transform="translate(485.080563 691.197812)scale(0.1 -0.1)">
       <use xlink:href="#ArialMT-50"/>
       <use x="55.615234" xlink:href="#ArialMT-48"/>
       <use x="111.230469" xlink:href="#ArialMT-49"/>
       <use x="166.845703" xlink:href="#ArialMT-54"/>
      </g>
     </g>
    </g>
    <g id="xtick_32">
     <g id="line2d_97">
      <path clip-path="url(#p04dc214ef2)" d="M 558.584449 677.04 
L 558.584449 592.638875 
" style="fill:none;stroke:#ffffff;stroke-linecap:round;"/>
     </g>
     <g id="line2d_98"/>
     <g id="text_59">
      <!-- 2017 -->
      <g style="fill:#262626;" transform="translate(547.462574 691.197812)scale(0.1 -0.1)">
       <use xlink:href="#ArialMT-50"/>
       <use x="55.615234" xlink:href="#ArialMT-48"/>
       <use x="111.230469" xlink:href="#ArialMT-49"/>
       <use x="166.845703" xlink:href="#ArialMT-55"/>
      </g>
     </g>
    </g>
    <g id="xtick_33">
     <g id="line2d_99">
      <path clip-path="url(#p04dc214ef2)" d="M 620.796017 677.04 
L 620.796017 592.638875 
" style="fill:none;stroke:#ffffff;stroke-linecap:round;"/>
     </g>
     <g id="line2d_100"/>
     <g id="text_60">
      <!-- 2018 -->
      <g style="fill:#262626;" transform="translate(609.674142 691.197812)scale(0.1 -0.1)">
       <use xlink:href="#ArialMT-50"/>
       <use x="55.615234" xlink:href="#ArialMT-48"/>
       <use x="111.230469" xlink:href="#ArialMT-49"/>
       <use x="166.845703" xlink:href="#ArialMT-56"/>
      </g>
     </g>
    </g>
    <g id="xtick_34">
     <g id="line2d_101">
      <path clip-path="url(#p04dc214ef2)" d="M 683.007586 677.04 
L 683.007586 592.638875 
" style="fill:none;stroke:#ffffff;stroke-linecap:round;"/>
     </g>
     <g id="line2d_102"/>
     <g id="text_61">
      <!-- 2019 -->
      <defs>
       <path d="M 5.46875 16.546875 
L 13.921875 17.328125 
Q 14.984375 11.375 18.015625 8.6875 
Q 21.046875 6 25.78125 6 
Q 29.828125 6 32.875 7.859375 
Q 35.9375 9.71875 37.890625 12.8125 
Q 39.84375 15.921875 41.15625 21.1875 
Q 42.484375 26.46875 42.484375 31.9375 
Q 42.484375 32.515625 42.4375 33.6875 
Q 39.796875 29.5 35.234375 26.875 
Q 30.671875 24.265625 25.34375 24.265625 
Q 16.453125 24.265625 10.296875 30.703125 
Q 4.15625 37.15625 4.15625 47.703125 
Q 4.15625 58.59375 10.578125 65.234375 
Q 17 71.875 26.65625 71.875 
Q 33.640625 71.875 39.421875 68.109375 
Q 45.21875 64.359375 48.21875 57.390625 
Q 51.21875 50.4375 51.21875 37.25 
Q 51.21875 23.53125 48.234375 15.40625 
Q 45.265625 7.28125 39.375 3.03125 
Q 33.5 -1.21875 25.59375 -1.21875 
Q 17.1875 -1.21875 11.859375 3.4375 
Q 6.546875 8.109375 5.46875 16.546875 
z
M 41.453125 48.140625 
Q 41.453125 55.71875 37.421875 60.15625 
Q 33.40625 64.59375 27.734375 64.59375 
Q 21.875 64.59375 17.53125 59.8125 
Q 13.1875 55.03125 13.1875 47.40625 
Q 13.1875 40.578125 17.3125 36.296875 
Q 21.4375 32.03125 27.484375 32.03125 
Q 33.59375 32.03125 37.515625 36.296875 
Q 41.453125 40.578125 41.453125 48.140625 
z
" id="ArialMT-57"/>
      </defs>
      <g style="fill:#262626;" transform="translate(671.885711 691.197812)scale(0.1 -0.1)">
       <use xlink:href="#ArialMT-50"/>
       <use x="55.615234" xlink:href="#ArialMT-48"/>
       <use x="111.230469" xlink:href="#ArialMT-49"/>
       <use x="166.845703" xlink:href="#ArialMT-57"/>
      </g>
     </g>
    </g>
    <g id="text_62">
     <!-- Date -->
     <g style="fill:#262626;" transform="translate(372.945469 705.058906)scale(0.11 -0.11)">
      <use xlink:href="#ArialMT-68"/>
      <use x="72.216797" xlink:href="#ArialMT-97"/>
      <use x="127.832031" xlink:href="#ArialMT-116"/>
      <use x="155.615234" xlink:href="#ArialMT-101"/>
     </g>
    </g>
   </g>
   <g id="matplotlib.axis_10">
    <g id="ytick_16">
     <g id="line2d_103">
      <path clip-path="url(#p04dc214ef2)" d="M 62.085 675.045064 
L 707.04 675.045064 
" style="fill:none;stroke:#ffffff;stroke-linecap:round;"/>
     </g>
     <g id="line2d_104"/>
     <g id="text_63">
      <!-- 0 -->
      <g style="fill:#262626;" transform="translate(49.524063 678.623971)scale(0.1 -0.1)">
       <use xlink:href="#ArialMT-48"/>
      </g>
     </g>
    </g>
    <g id="ytick_17">
     <g id="line2d_105">
      <path clip-path="url(#p04dc214ef2)" d="M 62.085 650.49201 
L 707.04 650.49201 
" style="fill:none;stroke:#ffffff;stroke-linecap:round;"/>
     </g>
     <g id="line2d_106"/>
     <g id="text_64">
      <!-- 20000 -->
      <g style="fill:#262626;" transform="translate(27.280313 654.070916)scale(0.1 -0.1)">
       <use xlink:href="#ArialMT-50"/>
       <use x="55.615234" xlink:href="#ArialMT-48"/>
       <use x="111.230469" xlink:href="#ArialMT-48"/>
       <use x="166.845703" xlink:href="#ArialMT-48"/>
       <use x="222.460938" xlink:href="#ArialMT-48"/>
      </g>
     </g>
    </g>
    <g id="ytick_18">
     <g id="line2d_107">
      <path clip-path="url(#p04dc214ef2)" d="M 62.085 625.938955 
L 707.04 625.938955 
" style="fill:none;stroke:#ffffff;stroke-linecap:round;"/>
     </g>
     <g id="line2d_108"/>
     <g id="text_65">
      <!-- 40000 -->
      <g style="fill:#262626;" transform="translate(27.280313 629.517861)scale(0.1 -0.1)">
       <use xlink:href="#ArialMT-52"/>
       <use x="55.615234" xlink:href="#ArialMT-48"/>
       <use x="111.230469" xlink:href="#ArialMT-48"/>
       <use x="166.845703" xlink:href="#ArialMT-48"/>
       <use x="222.460938" xlink:href="#ArialMT-48"/>
      </g>
     </g>
    </g>
    <g id="ytick_19">
     <g id="line2d_109">
      <path clip-path="url(#p04dc214ef2)" d="M 62.085 601.385901 
L 707.04 601.385901 
" style="fill:none;stroke:#ffffff;stroke-linecap:round;"/>
     </g>
     <g id="line2d_110"/>
     <g id="text_66">
      <!-- 60000 -->
      <g style="fill:#262626;" transform="translate(27.280313 604.964807)scale(0.1 -0.1)">
       <use xlink:href="#ArialMT-54"/>
       <use x="55.615234" xlink:href="#ArialMT-48"/>
       <use x="111.230469" xlink:href="#ArialMT-48"/>
       <use x="166.845703" xlink:href="#ArialMT-48"/>
       <use x="222.460938" xlink:href="#ArialMT-48"/>
      </g>
     </g>
    </g>
    <g id="text_67">
     <!-- Loan Amount -->
     <g style="fill:#262626;" transform="translate(21.094063 667.252484)rotate(-90)scale(0.11 -0.11)">
      <use xlink:href="#ArialMT-76"/>
      <use x="55.615234" xlink:href="#ArialMT-111"/>
      <use x="111.230469" xlink:href="#ArialMT-97"/>
      <use x="166.845703" xlink:href="#ArialMT-110"/>
      <use x="222.460938" xlink:href="#ArialMT-32"/>
      <use x="244.744141" xlink:href="#ArialMT-65"/>
      <use x="311.443359" xlink:href="#ArialMT-109"/>
      <use x="394.744141" xlink:href="#ArialMT-111"/>
      <use x="450.359375" xlink:href="#ArialMT-117"/>
      <use x="505.974609" xlink:href="#ArialMT-110"/>
      <use x="561.589844" xlink:href="#ArialMT-116"/>
     </g>
    </g>
   </g>
   <g id="line2d_111">
    <path clip-path="url(#p04dc214ef2)" d="M 91.401136 666.451495 
L 107.08186 651.719662 
L 112.365583 652.947315 
L 128.046307 662.768537 
L 169.293429 663.228907 
L 174.577151 643.27955 
L 215.824273 669.152331 
L 221.107996 662.768537 
L 241.901999 669.82754 
L 247.185721 671.085884 
L 252.469444 657.520322 
L 267.809283 668.292974 
L 273.093005 672.37492 
L 278.206284 668.507814 
L 283.490007 668.906801 
L 304.28401 662.768537 
L 309.567733 660.957749 
L 314.851455 642.266736 
L 319.623849 651.90381 
L 324.907571 624.097476 
L 330.020851 633.489019 
L 335.304573 667.372235 
L 340.417853 666.512878 
L 345.701575 672.37492 
L 350.985297 661.786415 
L 356.098577 668.354357 
L 361.382299 667.556383 
L 371.779301 668.507814 
L 377.063023 659.791479 
L 402.629421 673.203585 
L 407.913143 668.906801 
L 428.707147 649.908875 
L 433.990869 663.99619 
L 439.274592 656.630273 
L 444.046986 626.552782 
L 449.330708 656.630273 
L 454.443988 653.131463 
L 459.72771 643.433007 
L 470.124712 661.172588 
L 485.805436 651.995884 
L 490.918716 657.551013 
L 496.202438 660.313232 
L 501.48616 659.11627 
L 506.428997 662.768537 
L 511.712719 626.123103 
L 522.109721 655.126399 
L 527.223001 618.849261 
L 532.506723 659.085579 
L 537.790445 607.524164 
L 542.903725 654.174968 
L 548.187447 649.264357 
L 553.300727 651.719662 
L 558.584449 653.929437 
L 563.868171 654.174968 
L 568.640566 650.49201 
L 573.924288 652.947315 
L 579.037567 596.47529 
L 584.32129 646.809052 
L 589.434569 659.085579 
L 594.718291 651.719662 
L 600.002014 639.443135 
L 605.115293 660.313232 
L 610.399016 663.99619 
L 615.512295 636.98783 
L 620.796017 656.630273 
L 626.07974 638.215482 
L 630.852134 633.304872 
L 636.135856 657.857926 
L 641.249136 631.279245 
L 646.532858 623.48365 
L 651.646138 640.670788 
L 656.92986 643.126093 
L 662.213582 619.800692 
L 667.326862 649.264357 
L 672.610584 617.345386 
L 677.723864 648.036704 
" style="fill:none;stroke:#ffff00;stroke-linecap:round;stroke-width:1.75;"/>
   </g>
   <g id="patch_23">
    <path d="M 62.085 677.04 
L 62.085 592.638875 
" style="fill:none;"/>
   </g>
   <g id="patch_24">
    <path d="M 707.04 677.04 
L 707.04 592.638875 
" style="fill:none;"/>
   </g>
   <g id="patch_25">
    <path d="M 62.085 677.04 
L 707.04 677.04 
" style="fill:none;"/>
   </g>
   <g id="patch_26">
    <path d="M 62.085 592.638875 
L 707.04 592.638875 
" style="fill:none;"/>
   </g>
   <g id="text_68">
    <!-- United States loans over time -->
    <defs>
     <path d="M 54.6875 71.578125 
L 64.15625 71.578125 
L 64.15625 30.21875 
Q 64.15625 19.4375 61.71875 13.078125 
Q 59.28125 6.734375 52.90625 2.75 
Q 46.53125 -1.21875 36.1875 -1.21875 
Q 26.125 -1.21875 19.71875 2.25 
Q 13.328125 5.71875 10.59375 12.28125 
Q 7.859375 18.84375 7.859375 30.21875 
L 7.859375 71.578125 
L 17.328125 71.578125 
L 17.328125 30.28125 
Q 17.328125 20.953125 19.0625 16.53125 
Q 20.796875 12.109375 25.015625 9.71875 
Q 29.25 7.328125 35.359375 7.328125 
Q 45.796875 7.328125 50.234375 12.0625 
Q 54.6875 16.796875 54.6875 30.28125 
z
" id="ArialMT-85"/>
     <path d="M 40.234375 0 
L 40.234375 6.546875 
Q 35.296875 -1.171875 25.734375 -1.171875 
Q 19.53125 -1.171875 14.328125 2.25 
Q 9.125 5.671875 6.265625 11.796875 
Q 3.421875 17.921875 3.421875 25.875 
Q 3.421875 33.640625 6 39.96875 
Q 8.59375 46.296875 13.765625 49.65625 
Q 18.953125 53.03125 25.34375 53.03125 
Q 30.03125 53.03125 33.6875 51.046875 
Q 37.359375 49.078125 39.65625 45.90625 
L 39.65625 71.578125 
L 48.390625 71.578125 
L 48.390625 0 
z
M 12.453125 25.875 
Q 12.453125 15.921875 16.640625 10.984375 
Q 20.84375 6.0625 26.5625 6.0625 
Q 32.328125 6.0625 36.34375 10.765625 
Q 40.375 15.484375 40.375 25.140625 
Q 40.375 35.796875 36.265625 40.765625 
Q 32.171875 45.75 26.171875 45.75 
Q 20.3125 45.75 16.375 40.96875 
Q 12.453125 36.1875 12.453125 25.875 
z
" id="ArialMT-100"/>
     <path d="M 4.5 23 
L 13.421875 23.78125 
Q 14.0625 18.40625 16.375 14.96875 
Q 18.703125 11.53125 23.578125 9.40625 
Q 28.46875 7.28125 34.578125 7.28125 
Q 39.984375 7.28125 44.140625 8.890625 
Q 48.296875 10.5 50.3125 13.296875 
Q 52.34375 16.109375 52.34375 19.4375 
Q 52.34375 22.796875 50.390625 25.3125 
Q 48.4375 27.828125 43.953125 29.546875 
Q 41.0625 30.671875 31.203125 33.03125 
Q 21.34375 35.40625 17.390625 37.5 
Q 12.25 40.1875 9.734375 44.15625 
Q 7.234375 48.140625 7.234375 53.078125 
Q 7.234375 58.5 10.296875 63.203125 
Q 13.375 67.921875 19.28125 70.359375 
Q 25.203125 72.796875 32.421875 72.796875 
Q 40.375 72.796875 46.453125 70.234375 
Q 52.546875 67.671875 55.8125 62.6875 
Q 59.078125 57.71875 59.328125 51.421875 
L 50.25 50.734375 
Q 49.515625 57.515625 45.28125 60.984375 
Q 41.0625 64.453125 32.8125 64.453125 
Q 24.21875 64.453125 20.28125 61.296875 
Q 16.359375 58.15625 16.359375 53.71875 
Q 16.359375 49.859375 19.140625 47.359375 
Q 21.875 44.875 33.421875 42.265625 
Q 44.96875 39.65625 49.265625 37.703125 
Q 55.515625 34.8125 58.484375 30.390625 
Q 61.46875 25.984375 61.46875 20.21875 
Q 61.46875 14.5 58.203125 9.4375 
Q 54.9375 4.390625 48.796875 1.578125 
Q 42.671875 -1.21875 35.015625 -1.21875 
Q 25.296875 -1.21875 18.71875 1.609375 
Q 12.15625 4.4375 8.421875 10.125 
Q 4.6875 15.828125 4.5 23 
z
" id="ArialMT-83"/>
    </defs>
    <g style="fill:#262626;" transform="translate(306.195 586.638875)scale(0.12 -0.12)">
     <use xlink:href="#ArialMT-85"/>
     <use x="72.216797" xlink:href="#ArialMT-110"/>
     <use x="127.832031" xlink:href="#ArialMT-105"/>
     <use x="150.048828" xlink:href="#ArialMT-116"/>
     <use x="177.832031" xlink:href="#ArialMT-101"/>
     <use x="233.447266" xlink:href="#ArialMT-100"/>
     <use x="289.0625" xlink:href="#ArialMT-32"/>
     <use x="316.845703" xlink:href="#ArialMT-83"/>
     <use x="383.544922" xlink:href="#ArialMT-116"/>
     <use x="411.328125" xlink:href="#ArialMT-97"/>
     <use x="466.943359" xlink:href="#ArialMT-116"/>
     <use x="494.726562" xlink:href="#ArialMT-101"/>
     <use x="550.341797" xlink:href="#ArialMT-115"/>
     <use x="600.341797" xlink:href="#ArialMT-32"/>
     <use x="628.125" xlink:href="#ArialMT-108"/>
     <use x="650.341797" xlink:href="#ArialMT-111"/>
     <use x="705.957031" xlink:href="#ArialMT-97"/>
     <use x="761.572266" xlink:href="#ArialMT-110"/>
     <use x="817.1875" xlink:href="#ArialMT-115"/>
     <use x="867.1875" xlink:href="#ArialMT-32"/>
     <use x="894.970703" xlink:href="#ArialMT-111"/>
     <use x="950.585938" xlink:href="#ArialMT-118"/>
     <use x="1000.585938" xlink:href="#ArialMT-101"/>
     <use x="1056.201172" xlink:href="#ArialMT-114"/>
     <use x="1089.501953" xlink:href="#ArialMT-32"/>
     <use x="1117.285156" xlink:href="#ArialMT-116"/>
     <use x="1145.068359" xlink:href="#ArialMT-105"/>
     <use x="1167.285156" xlink:href="#ArialMT-109"/>
     <use x="1250.585938" xlink:href="#ArialMT-101"/>
    </g>
   </g>
  </g>
 </g>
 <defs>
  <clipPath id="pca55712439">
   <rect height="84.401125" width="644.955" x="62.085" y="27.006875"/>
  </clipPath>
  <clipPath id="pfd7c7279d9">
   <rect height="84.401125" width="644.955" x="62.085" y="168.414875"/>
  </clipPath>
  <clipPath id="pa58e188a4d">
   <rect height="84.401125" width="644.955" x="62.085" y="309.822875"/>
  </clipPath>
  <clipPath id="pef7a18bbe8">
   <rect height="84.401125" width="644.955" x="62.085" y="451.230875"/>
  </clipPath>
  <clipPath id="p04dc214ef2">
   <rect height="84.401125" width="644.955" x="62.085" y="592.638875"/>
  </clipPath>
 </defs>
</svg>
