<?xml version="1.0" encoding="utf-8" standalone="no"?>
<!DOCTYPE svg PUBLIC "-//W3C//DTD SVG 1.1//EN"
  "http://www.w3.org/Graphics/SVG/1.1/DTD/svg11.dtd">
<!-- Created with matplotlib (https://matplotlib.org/) -->
<svg height="720pt" version="1.1" viewBox="0 0 720 720" width="720pt" xmlns="http://www.w3.org/2000/svg" xmlns:xlink="http://www.w3.org/1999/xlink">
 <defs>
  <style type="text/css">
*{stroke-linecap:butt;stroke-linejoin:round;}
  </style>
 </defs>
 <g id="figure_1">
  <g id="patch_1">
   <path d="M 0 720 
L 720 720 
L 720 0 
L 0 0 
z
" style="fill:#ffffff;"/>
  </g>
  <g id="axes_1">
   <g id="patch_2">
    <path d="M 69.77 110.68 
L 709.2 110.68 
L 709.2 26.88 
L 69.77 26.88 
z
" style="fill:#ffffff;"/>
   </g>
   <g id="matplotlib.axis_1">
    <g id="xtick_1">
     <g id="line2d_1">
      <defs>
       <path d="M 0 0 
L 0 3.5 
" id="m32209fd7c3" style="stroke:#000000;stroke-width:0.8;"/>
      </defs>
      <g>
       <use style="stroke:#000000;stroke-width:0.8;" x="79.868643" xlink:href="#m32209fd7c3" y="110.68"/>
      </g>
     </g>
     <g id="text_1">
      <!-- 2006 -->
      <defs>
       <path d="M 19.1875 8.296875 
L 53.609375 8.296875 
L 53.609375 0 
L 7.328125 0 
L 7.328125 8.296875 
Q 12.9375 14.109375 22.625 23.890625 
Q 32.328125 33.6875 34.8125 36.53125 
Q 39.546875 41.84375 41.421875 45.53125 
Q 43.3125 49.21875 43.3125 52.78125 
Q 43.3125 58.59375 39.234375 62.25 
Q 35.15625 65.921875 28.609375 65.921875 
Q 23.96875 65.921875 18.8125 64.3125 
Q 13.671875 62.703125 7.8125 59.421875 
L 7.8125 69.390625 
Q 13.765625 71.78125 18.9375 73 
Q 24.125 74.21875 28.421875 74.21875 
Q 39.75 74.21875 46.484375 68.546875 
Q 53.21875 62.890625 53.21875 53.421875 
Q 53.21875 48.921875 51.53125 44.890625 
Q 49.859375 40.875 45.40625 35.40625 
Q 44.1875 33.984375 37.640625 27.21875 
Q 31.109375 20.453125 19.1875 8.296875 
z
" id="DejaVuSans-50"/>
       <path d="M 31.78125 66.40625 
Q 24.171875 66.40625 20.328125 58.90625 
Q 16.5 51.421875 16.5 36.375 
Q 16.5 21.390625 20.328125 13.890625 
Q 24.171875 6.390625 31.78125 6.390625 
Q 39.453125 6.390625 43.28125 13.890625 
Q 47.125 21.390625 47.125 36.375 
Q 47.125 51.421875 43.28125 58.90625 
Q 39.453125 66.40625 31.78125 66.40625 
z
M 31.78125 74.21875 
Q 44.046875 74.21875 50.515625 64.515625 
Q 56.984375 54.828125 56.984375 36.375 
Q 56.984375 17.96875 50.515625 8.265625 
Q 44.046875 -1.421875 31.78125 -1.421875 
Q 19.53125 -1.421875 13.0625 8.265625 
Q 6.59375 17.96875 6.59375 36.375 
Q 6.59375 54.828125 13.0625 64.515625 
Q 19.53125 74.21875 31.78125 74.21875 
z
" id="DejaVuSans-48"/>
       <path d="M 33.015625 40.375 
Q 26.375 40.375 22.484375 35.828125 
Q 18.609375 31.296875 18.609375 23.390625 
Q 18.609375 15.53125 22.484375 10.953125 
Q 26.375 6.390625 33.015625 6.390625 
Q 39.65625 6.390625 43.53125 10.953125 
Q 47.40625 15.53125 47.40625 23.390625 
Q 47.40625 31.296875 43.53125 35.828125 
Q 39.65625 40.375 33.015625 40.375 
z
M 52.59375 71.296875 
L 52.59375 62.3125 
Q 48.875 64.0625 45.09375 64.984375 
Q 41.3125 65.921875 37.59375 65.921875 
Q 27.828125 65.921875 22.671875 59.328125 
Q 17.53125 52.734375 16.796875 39.40625 
Q 19.671875 43.65625 24.015625 45.921875 
Q 28.375 48.1875 33.59375 48.1875 
Q 44.578125 48.1875 50.953125 41.515625 
Q 57.328125 34.859375 57.328125 23.390625 
Q 57.328125 12.15625 50.6875 5.359375 
Q 44.046875 -1.421875 33.015625 -1.421875 
Q 20.359375 -1.421875 13.671875 8.265625 
Q 6.984375 17.96875 6.984375 36.375 
Q 6.984375 53.65625 15.1875 63.9375 
Q 23.390625 74.21875 37.203125 74.21875 
Q 40.921875 74.21875 44.703125 73.484375 
Q 48.484375 72.75 52.59375 71.296875 
z
" id="DejaVuSans-54"/>
      </defs>
      <g transform="translate(67.143643 125.278438)scale(0.1 -0.1)">
       <use xlink:href="#DejaVuSans-50"/>
       <use x="63.623047" xlink:href="#DejaVuSans-48"/>
       <use x="127.246094" xlink:href="#DejaVuSans-48"/>
       <use x="190.869141" xlink:href="#DejaVuSans-54"/>
      </g>
     </g>
    </g>
    <g id="xtick_2">
     <g id="line2d_2">
      <g>
       <use style="stroke:#000000;stroke-width:0.8;" x="171.560303" xlink:href="#m32209fd7c3" y="110.68"/>
      </g>
     </g>
     <g id="text_2">
      <!-- 2008 -->
      <defs>
       <path d="M 31.78125 34.625 
Q 24.75 34.625 20.71875 30.859375 
Q 16.703125 27.09375 16.703125 20.515625 
Q 16.703125 13.921875 20.71875 10.15625 
Q 24.75 6.390625 31.78125 6.390625 
Q 38.8125 6.390625 42.859375 10.171875 
Q 46.921875 13.96875 46.921875 20.515625 
Q 46.921875 27.09375 42.890625 30.859375 
Q 38.875 34.625 31.78125 34.625 
z
M 21.921875 38.8125 
Q 15.578125 40.375 12.03125 44.71875 
Q 8.5 49.078125 8.5 55.328125 
Q 8.5 64.0625 14.71875 69.140625 
Q 20.953125 74.21875 31.78125 74.21875 
Q 42.671875 74.21875 48.875 69.140625 
Q 55.078125 64.0625 55.078125 55.328125 
Q 55.078125 49.078125 51.53125 44.71875 
Q 48 40.375 41.703125 38.8125 
Q 48.828125 37.15625 52.796875 32.3125 
Q 56.78125 27.484375 56.78125 20.515625 
Q 56.78125 9.90625 50.3125 4.234375 
Q 43.84375 -1.421875 31.78125 -1.421875 
Q 19.734375 -1.421875 13.25 4.234375 
Q 6.78125 9.90625 6.78125 20.515625 
Q 6.78125 27.484375 10.78125 32.3125 
Q 14.796875 37.15625 21.921875 38.8125 
z
M 18.3125 54.390625 
Q 18.3125 48.734375 21.84375 45.5625 
Q 25.390625 42.390625 31.78125 42.390625 
Q 38.140625 42.390625 41.71875 45.5625 
Q 45.3125 48.734375 45.3125 54.390625 
Q 45.3125 60.0625 41.71875 63.234375 
Q 38.140625 66.40625 31.78125 66.40625 
Q 25.390625 66.40625 21.84375 63.234375 
Q 18.3125 60.0625 18.3125 54.390625 
z
" id="DejaVuSans-56"/>
      </defs>
      <g transform="translate(158.835303 125.278438)scale(0.1 -0.1)">
       <use xlink:href="#DejaVuSans-50"/>
       <use x="63.623047" xlink:href="#DejaVuSans-48"/>
       <use x="127.246094" xlink:href="#DejaVuSans-48"/>
       <use x="190.869141" xlink:href="#DejaVuSans-56"/>
      </g>
     </g>
    </g>
    <g id="xtick_3">
     <g id="line2d_3">
      <g>
       <use style="stroke:#000000;stroke-width:0.8;" x="263.377567" xlink:href="#m32209fd7c3" y="110.68"/>
      </g>
     </g>
     <g id="text_3">
      <!-- 2010 -->
      <defs>
       <path d="M 12.40625 8.296875 
L 28.515625 8.296875 
L 28.515625 63.921875 
L 10.984375 60.40625 
L 10.984375 69.390625 
L 28.421875 72.90625 
L 38.28125 72.90625 
L 38.28125 8.296875 
L 54.390625 8.296875 
L 54.390625 0 
L 12.40625 0 
z
" id="DejaVuSans-49"/>
      </defs>
      <g transform="translate(250.652567 125.278438)scale(0.1 -0.1)">
       <use xlink:href="#DejaVuSans-50"/>
       <use x="63.623047" xlink:href="#DejaVuSans-48"/>
       <use x="127.246094" xlink:href="#DejaVuSans-49"/>
       <use x="190.869141" xlink:href="#DejaVuSans-48"/>
      </g>
     </g>
    </g>
    <g id="xtick_4">
     <g id="line2d_4">
      <g>
       <use style="stroke:#000000;stroke-width:0.8;" x="355.069226" xlink:href="#m32209fd7c3" y="110.68"/>
      </g>
     </g>
     <g id="text_4">
      <!-- 2012 -->
      <g transform="translate(342.344226 125.278438)scale(0.1 -0.1)">
       <use xlink:href="#DejaVuSans-50"/>
       <use x="63.623047" xlink:href="#DejaVuSans-48"/>
       <use x="127.246094" xlink:href="#DejaVuSans-49"/>
       <use x="190.869141" xlink:href="#DejaVuSans-50"/>
      </g>
     </g>
    </g>
    <g id="xtick_5">
     <g id="line2d_5">
      <g>
       <use style="stroke:#000000;stroke-width:0.8;" x="446.886491" xlink:href="#m32209fd7c3" y="110.68"/>
      </g>
     </g>
     <g id="text_5">
      <!-- 2014 -->
      <defs>
       <path d="M 37.796875 64.3125 
L 12.890625 25.390625 
L 37.796875 25.390625 
z
M 35.203125 72.90625 
L 47.609375 72.90625 
L 47.609375 25.390625 
L 58.015625 25.390625 
L 58.015625 17.1875 
L 47.609375 17.1875 
L 47.609375 0 
L 37.796875 0 
L 37.796875 17.1875 
L 4.890625 17.1875 
L 4.890625 26.703125 
z
" id="DejaVuSans-52"/>
      </defs>
      <g transform="translate(434.161491 125.278438)scale(0.1 -0.1)">
       <use xlink:href="#DejaVuSans-50"/>
       <use x="63.623047" xlink:href="#DejaVuSans-48"/>
       <use x="127.246094" xlink:href="#DejaVuSans-49"/>
       <use x="190.869141" xlink:href="#DejaVuSans-52"/>
      </g>
     </g>
    </g>
    <g id="xtick_6">
     <g id="line2d_6">
      <g>
       <use style="stroke:#000000;stroke-width:0.8;" x="538.57815" xlink:href="#m32209fd7c3" y="110.68"/>
      </g>
     </g>
     <g id="text_6">
      <!-- 2016 -->
      <g transform="translate(525.85315 125.278438)scale(0.1 -0.1)">
       <use xlink:href="#DejaVuSans-50"/>
       <use x="63.623047" xlink:href="#DejaVuSans-48"/>
       <use x="127.246094" xlink:href="#DejaVuSans-49"/>
       <use x="190.869141" xlink:href="#DejaVuSans-54"/>
      </g>
     </g>
    </g>
    <g id="xtick_7">
     <g id="line2d_7">
      <g>
       <use style="stroke:#000000;stroke-width:0.8;" x="630.395415" xlink:href="#m32209fd7c3" y="110.68"/>
      </g>
     </g>
     <g id="text_7">
      <!-- 2018 -->
      <g transform="translate(617.670415 125.278438)scale(0.1 -0.1)">
       <use xlink:href="#DejaVuSans-50"/>
       <use x="63.623047" xlink:href="#DejaVuSans-48"/>
       <use x="127.246094" xlink:href="#DejaVuSans-49"/>
       <use x="190.869141" xlink:href="#DejaVuSans-56"/>
      </g>
     </g>
    </g>
    <g id="text_8">
     <!-- Date -->
     <defs>
      <path d="M 19.671875 64.796875 
L 19.671875 8.109375 
L 31.59375 8.109375 
Q 46.6875 8.109375 53.6875 14.9375 
Q 60.6875 21.78125 60.6875 36.53125 
Q 60.6875 51.171875 53.6875 57.984375 
Q 46.6875 64.796875 31.59375 64.796875 
z
M 9.8125 72.90625 
L 30.078125 72.90625 
Q 51.265625 72.90625 61.171875 64.09375 
Q 71.09375 55.28125 71.09375 36.53125 
Q 71.09375 17.671875 61.125 8.828125 
Q 51.171875 0 30.078125 0 
L 9.8125 0 
z
" id="DejaVuSans-68"/>
      <path d="M 34.28125 27.484375 
Q 23.390625 27.484375 19.1875 25 
Q 14.984375 22.515625 14.984375 16.5 
Q 14.984375 11.71875 18.140625 8.90625 
Q 21.296875 6.109375 26.703125 6.109375 
Q 34.1875 6.109375 38.703125 11.40625 
Q 43.21875 16.703125 43.21875 25.484375 
L 43.21875 27.484375 
z
M 52.203125 31.203125 
L 52.203125 0 
L 43.21875 0 
L 43.21875 8.296875 
Q 40.140625 3.328125 35.546875 0.953125 
Q 30.953125 -1.421875 24.3125 -1.421875 
Q 15.921875 -1.421875 10.953125 3.296875 
Q 6 8.015625 6 15.921875 
Q 6 25.140625 12.171875 29.828125 
Q 18.359375 34.515625 30.609375 34.515625 
L 43.21875 34.515625 
L 43.21875 35.40625 
Q 43.21875 41.609375 39.140625 45 
Q 35.0625 48.390625 27.6875 48.390625 
Q 23 48.390625 18.546875 47.265625 
Q 14.109375 46.140625 10.015625 43.890625 
L 10.015625 52.203125 
Q 14.9375 54.109375 19.578125 55.046875 
Q 24.21875 56 28.609375 56 
Q 40.484375 56 46.34375 49.84375 
Q 52.203125 43.703125 52.203125 31.203125 
z
" id="DejaVuSans-97"/>
      <path d="M 18.3125 70.21875 
L 18.3125 54.6875 
L 36.8125 54.6875 
L 36.8125 47.703125 
L 18.3125 47.703125 
L 18.3125 18.015625 
Q 18.3125 11.328125 20.140625 9.421875 
Q 21.96875 7.515625 27.59375 7.515625 
L 36.8125 7.515625 
L 36.8125 0 
L 27.59375 0 
Q 17.1875 0 13.234375 3.875 
Q 9.28125 7.765625 9.28125 18.015625 
L 9.28125 47.703125 
L 2.6875 47.703125 
L 2.6875 54.6875 
L 9.28125 54.6875 
L 9.28125 70.21875 
z
" id="DejaVuSans-116"/>
      <path d="M 56.203125 29.59375 
L 56.203125 25.203125 
L 14.890625 25.203125 
Q 15.484375 15.921875 20.484375 11.0625 
Q 25.484375 6.203125 34.421875 6.203125 
Q 39.59375 6.203125 44.453125 7.46875 
Q 49.3125 8.734375 54.109375 11.28125 
L 54.109375 2.78125 
Q 49.265625 0.734375 44.1875 -0.34375 
Q 39.109375 -1.421875 33.890625 -1.421875 
Q 20.796875 -1.421875 13.15625 6.1875 
Q 5.515625 13.8125 5.515625 26.8125 
Q 5.515625 40.234375 12.765625 48.109375 
Q 20.015625 56 32.328125 56 
Q 43.359375 56 49.78125 48.890625 
Q 56.203125 41.796875 56.203125 29.59375 
z
M 47.21875 32.234375 
Q 47.125 39.59375 43.09375 43.984375 
Q 39.0625 48.390625 32.421875 48.390625 
Q 24.90625 48.390625 20.390625 44.140625 
Q 15.875 39.890625 15.1875 32.171875 
z
" id="DejaVuSans-101"/>
     </defs>
     <g transform="translate(377.534219 138.956563)scale(0.1 -0.1)">
      <use xlink:href="#DejaVuSans-68"/>
      <use x="77.001953" xlink:href="#DejaVuSans-97"/>
      <use x="138.28125" xlink:href="#DejaVuSans-116"/>
      <use x="177.490234" xlink:href="#DejaVuSans-101"/>
     </g>
    </g>
   </g>
   <g id="matplotlib.axis_2">
    <g id="ytick_1">
     <g id="line2d_8">
      <defs>
       <path d="M 0 0 
L -3.5 0 
" id="ma3241fbf63" style="stroke:#000000;stroke-width:0.8;"/>
      </defs>
      <g>
       <use style="stroke:#000000;stroke-width:0.8;" x="69.77" xlink:href="#ma3241fbf63" y="106.934686"/>
      </g>
     </g>
     <g id="text_9">
      <!-- 0 -->
      <g transform="translate(56.4075 110.733905)scale(0.1 -0.1)">
       <use xlink:href="#DejaVuSans-48"/>
      </g>
     </g>
    </g>
    <g id="ytick_2">
     <g id="line2d_9">
      <g>
       <use style="stroke:#000000;stroke-width:0.8;" x="69.77" xlink:href="#ma3241fbf63" y="85.675633"/>
      </g>
     </g>
     <g id="text_10">
      <!-- 50000 -->
      <defs>
       <path d="M 10.796875 72.90625 
L 49.515625 72.90625 
L 49.515625 64.59375 
L 19.828125 64.59375 
L 19.828125 46.734375 
Q 21.96875 47.46875 24.109375 47.828125 
Q 26.265625 48.1875 28.421875 48.1875 
Q 40.625 48.1875 47.75 41.5 
Q 54.890625 34.8125 54.890625 23.390625 
Q 54.890625 11.625 47.5625 5.09375 
Q 40.234375 -1.421875 26.90625 -1.421875 
Q 22.3125 -1.421875 17.546875 -0.640625 
Q 12.796875 0.140625 7.71875 1.703125 
L 7.71875 11.625 
Q 12.109375 9.234375 16.796875 8.0625 
Q 21.484375 6.890625 26.703125 6.890625 
Q 35.15625 6.890625 40.078125 11.328125 
Q 45.015625 15.765625 45.015625 23.390625 
Q 45.015625 31 40.078125 35.4375 
Q 35.15625 39.890625 26.703125 39.890625 
Q 22.75 39.890625 18.8125 39.015625 
Q 14.890625 38.140625 10.796875 36.28125 
z
" id="DejaVuSans-53"/>
      </defs>
      <g transform="translate(30.9575 89.474852)scale(0.1 -0.1)">
       <use xlink:href="#DejaVuSans-53"/>
       <use x="63.623047" xlink:href="#DejaVuSans-48"/>
       <use x="127.246094" xlink:href="#DejaVuSans-48"/>
       <use x="190.869141" xlink:href="#DejaVuSans-48"/>
       <use x="254.492188" xlink:href="#DejaVuSans-48"/>
      </g>
     </g>
    </g>
    <g id="ytick_3">
     <g id="line2d_10">
      <g>
       <use style="stroke:#000000;stroke-width:0.8;" x="69.77" xlink:href="#ma3241fbf63" y="64.416579"/>
      </g>
     </g>
     <g id="text_11">
      <!-- 100000 -->
      <g transform="translate(24.595 68.215798)scale(0.1 -0.1)">
       <use xlink:href="#DejaVuSans-49"/>
       <use x="63.623047" xlink:href="#DejaVuSans-48"/>
       <use x="127.246094" xlink:href="#DejaVuSans-48"/>
       <use x="190.869141" xlink:href="#DejaVuSans-48"/>
       <use x="254.492188" xlink:href="#DejaVuSans-48"/>
       <use x="318.115234" xlink:href="#DejaVuSans-48"/>
      </g>
     </g>
    </g>
    <g id="ytick_4">
     <g id="line2d_11">
      <g>
       <use style="stroke:#000000;stroke-width:0.8;" x="69.77" xlink:href="#ma3241fbf63" y="43.157526"/>
      </g>
     </g>
     <g id="text_12">
      <!-- 150000 -->
      <g transform="translate(24.595 46.956745)scale(0.1 -0.1)">
       <use xlink:href="#DejaVuSans-49"/>
       <use x="63.623047" xlink:href="#DejaVuSans-53"/>
       <use x="127.246094" xlink:href="#DejaVuSans-48"/>
       <use x="190.869141" xlink:href="#DejaVuSans-48"/>
       <use x="254.492188" xlink:href="#DejaVuSans-48"/>
       <use x="318.115234" xlink:href="#DejaVuSans-48"/>
      </g>
     </g>
    </g>
    <g id="text_13">
     <!-- Loan Amount -->
     <defs>
      <path d="M 9.8125 72.90625 
L 19.671875 72.90625 
L 19.671875 8.296875 
L 55.171875 8.296875 
L 55.171875 0 
L 9.8125 0 
z
" id="DejaVuSans-76"/>
      <path d="M 30.609375 48.390625 
Q 23.390625 48.390625 19.1875 42.75 
Q 14.984375 37.109375 14.984375 27.296875 
Q 14.984375 17.484375 19.15625 11.84375 
Q 23.34375 6.203125 30.609375 6.203125 
Q 37.796875 6.203125 41.984375 11.859375 
Q 46.1875 17.53125 46.1875 27.296875 
Q 46.1875 37.015625 41.984375 42.703125 
Q 37.796875 48.390625 30.609375 48.390625 
z
M 30.609375 56 
Q 42.328125 56 49.015625 48.375 
Q 55.71875 40.765625 55.71875 27.296875 
Q 55.71875 13.875 49.015625 6.21875 
Q 42.328125 -1.421875 30.609375 -1.421875 
Q 18.84375 -1.421875 12.171875 6.21875 
Q 5.515625 13.875 5.515625 27.296875 
Q 5.515625 40.765625 12.171875 48.375 
Q 18.84375 56 30.609375 56 
z
" id="DejaVuSans-111"/>
      <path d="M 54.890625 33.015625 
L 54.890625 0 
L 45.90625 0 
L 45.90625 32.71875 
Q 45.90625 40.484375 42.875 44.328125 
Q 39.84375 48.1875 33.796875 48.1875 
Q 26.515625 48.1875 22.3125 43.546875 
Q 18.109375 38.921875 18.109375 30.90625 
L 18.109375 0 
L 9.078125 0 
L 9.078125 54.6875 
L 18.109375 54.6875 
L 18.109375 46.1875 
Q 21.34375 51.125 25.703125 53.5625 
Q 30.078125 56 35.796875 56 
Q 45.21875 56 50.046875 50.171875 
Q 54.890625 44.34375 54.890625 33.015625 
z
" id="DejaVuSans-110"/>
      <path id="DejaVuSans-32"/>
      <path d="M 34.1875 63.1875 
L 20.796875 26.90625 
L 47.609375 26.90625 
z
M 28.609375 72.90625 
L 39.796875 72.90625 
L 67.578125 0 
L 57.328125 0 
L 50.6875 18.703125 
L 17.828125 18.703125 
L 11.1875 0 
L 0.78125 0 
z
" id="DejaVuSans-65"/>
      <path d="M 52 44.1875 
Q 55.375 50.25 60.0625 53.125 
Q 64.75 56 71.09375 56 
Q 79.640625 56 84.28125 50.015625 
Q 88.921875 44.046875 88.921875 33.015625 
L 88.921875 0 
L 79.890625 0 
L 79.890625 32.71875 
Q 79.890625 40.578125 77.09375 44.375 
Q 74.3125 48.1875 68.609375 48.1875 
Q 61.625 48.1875 57.5625 43.546875 
Q 53.515625 38.921875 53.515625 30.90625 
L 53.515625 0 
L 44.484375 0 
L 44.484375 32.71875 
Q 44.484375 40.625 41.703125 44.40625 
Q 38.921875 48.1875 33.109375 48.1875 
Q 26.21875 48.1875 22.15625 43.53125 
Q 18.109375 38.875 18.109375 30.90625 
L 18.109375 0 
L 9.078125 0 
L 9.078125 54.6875 
L 18.109375 54.6875 
L 18.109375 46.1875 
Q 21.1875 51.21875 25.484375 53.609375 
Q 29.78125 56 35.6875 56 
Q 41.65625 56 45.828125 52.96875 
Q 50 49.953125 52 44.1875 
z
" id="DejaVuSans-109"/>
      <path d="M 8.5 21.578125 
L 8.5 54.6875 
L 17.484375 54.6875 
L 17.484375 21.921875 
Q 17.484375 14.15625 20.5 10.265625 
Q 23.53125 6.390625 29.59375 6.390625 
Q 36.859375 6.390625 41.078125 11.03125 
Q 45.3125 15.671875 45.3125 23.6875 
L 45.3125 54.6875 
L 54.296875 54.6875 
L 54.296875 0 
L 45.3125 0 
L 45.3125 8.40625 
Q 42.046875 3.421875 37.71875 1 
Q 33.40625 -1.421875 27.6875 -1.421875 
Q 18.265625 -1.421875 13.375 4.4375 
Q 8.5 10.296875 8.5 21.578125 
z
M 31.109375 56 
z
" id="DejaVuSans-117"/>
     </defs>
     <g transform="translate(18.515313 102.007344)rotate(-90)scale(0.1 -0.1)">
      <use xlink:href="#DejaVuSans-76"/>
      <use x="53.962891" xlink:href="#DejaVuSans-111"/>
      <use x="115.144531" xlink:href="#DejaVuSans-97"/>
      <use x="176.423828" xlink:href="#DejaVuSans-110"/>
      <use x="239.802734" xlink:href="#DejaVuSans-32"/>
      <use x="271.589844" xlink:href="#DejaVuSans-65"/>
      <use x="339.998047" xlink:href="#DejaVuSans-109"/>
      <use x="437.410156" xlink:href="#DejaVuSans-111"/>
      <use x="498.591797" xlink:href="#DejaVuSans-117"/>
      <use x="561.970703" xlink:href="#DejaVuSans-110"/>
      <use x="625.349609" xlink:href="#DejaVuSans-116"/>
     </g>
    </g>
   </g>
   <g id="line2d_12">
    <path clip-path="url(#pb95c94367b)" d="M 98.835 106.870909 
L 106.496906 106.679578 
L 118.052567 106.073695 
L 121.820717 104.277305 
L 125.714473 105.393405 
L 129.608228 105.978029 
L 133.125169 102.013215 
L 137.018924 100.482564 
L 140.787074 104.436747 
L 144.68083 105.574107 
L 148.44898 102.767912 
L 152.342736 105.148926 
L 156.236491 103.554497 
L 160.004641 102.937984 
L 163.898397 102.693505 
L 167.666547 101.056558 
L 171.560303 99.642831 
L 175.454058 95.794942 
L 179.096603 103.24624 
L 186.758509 106.424469 
L 190.652264 105.117037 
L 194.420415 105.903622 
L 198.31417 105.914252 
L 202.207926 105.095778 
L 205.976076 106.360692 
L 209.869831 106.647689 
L 213.637982 106.658319 
L 221.425493 105.903622 
L 224.942433 95.072134 
L 228.836188 96.028792 
L 232.604339 83.7198 
L 236.498094 94.444992 
L 240.266245 96.900413 
L 244.16 94.179254 
L 248.053755 87.99287 
L 251.821906 92.69112 
L 255.715661 88.736936 
L 259.483812 85.941371 
L 263.377567 84.272535 
L 267.271322 83.230842 
L 270.788263 100.769561 
L 278.450169 105.404034 
L 282.343924 101.343555 
L 286.112074 91.968313 
L 290.00583 89.140858 
L 293.899585 97.027967 
L 297.667736 81.519488 
L 301.561491 71.665917 
L 305.329641 84.899677 
L 309.223397 76.853126 
L 313.117152 76.885014 
L 316.634092 103.02302 
L 320.527848 94.774508 
L 324.295998 94.019811 
L 328.189754 99.451499 
L 331.957904 83.953649 
L 335.851659 83.082028 
L 339.745415 96.698452 
L 343.513565 105.382775 
L 347.407321 106.488246 
L 351.175471 67.584178 
L 355.069226 63.789437 
L 358.962982 67.966841 
L 362.605527 60.706874 
L 366.499283 70.167153 
L 370.267433 84.750864 
L 374.161188 91.054173 
L 377.929339 99.706608 
L 381.823094 94.870173 
L 385.71685 98.53736 
L 389.485 99.21765 
L 393.378755 87.185026 
L 397.146906 79.861282 
L 401.040661 75.662619 
L 404.934417 57.262908 
L 408.451357 32.698071 
L 412.345112 55.625961 
L 416.113263 64.246507 
L 420.007018 70.273449 
L 423.775169 60.271064 
L 427.668924 49.13132 
L 431.562679 44.677548 
L 435.33083 75.513805 
L 439.224585 67.924323 
L 442.992736 89.491633 
L 446.886491 87.737761 
L 450.780246 89.948703 
L 454.297187 87.578318 
L 458.190942 93.860368 
L 461.959092 91.978942 
L 465.852848 104.107232 
L 473.514754 101.194742 
L 477.408509 92.329717 
L 481.176659 85.091009 
L 485.070415 89.162118 
L 488.838565 90.937249 
L 492.732321 83.687911 
L 496.626076 86.281516 
L 500.143016 30.689091 
L 504.036772 77.937337 
L 507.804922 96.698452 
L 511.698678 70.01834 
L 515.466828 84.580792 
L 519.360583 88.949527 
L 523.254339 97.123633 
L 527.022489 96.496491 
L 530.916245 92.308457 
L 534.684395 84.61268 
L 538.57815 92.893081 
L 542.471906 91.36243 
L 546.114451 82.667477 
L 550.008207 48.089626 
L 553.776357 62.83278 
L 557.670112 85.813817 
L 561.438263 80.031354 
L 565.332018 77.969226 
L 569.225774 89.162118 
L 572.993924 85.452413 
L 576.887679 76.683053 
L 580.65583 86.898028 
L 584.549585 81.795855 
L 588.443341 81.317527 
L 591.960281 76.52361 
L 595.854036 94.317438 
L 599.622187 79.085326 
L 603.515942 64.299654 
L 607.284092 80.467165 
L 611.177848 85.218563 
L 615.071603 87.450764 
L 618.839754 70.199042 
L 622.733509 77.831042 
L 626.501659 37.21562 
L 630.395415 62.949705 
L 634.28917 61.812345 
L 637.806111 52.362696 
L 641.699866 52.596546 
L 645.468016 52.181994 
L 649.361772 63.321738 
L 653.129922 60.462395 
L 657.023678 56.5401 
L 660.917433 40.81903 
L 664.685583 56.5401 
L 668.579339 55.402741 
L 672.347489 56.52947 
L 676.241245 68.551465 
L 680.135 86.100814 
L 680.135 86.100814 
" style="fill:none;stroke:#ffa500;stroke-linecap:square;stroke-width:1.5;"/>
   </g>
   <g id="patch_3">
    <path d="M 69.77 110.68 
L 69.77 26.88 
" style="fill:none;stroke:#000000;stroke-linecap:square;stroke-linejoin:miter;stroke-width:0.8;"/>
   </g>
   <g id="patch_4">
    <path d="M 709.2 110.68 
L 709.2 26.88 
" style="fill:none;stroke:#000000;stroke-linecap:square;stroke-linejoin:miter;stroke-width:0.8;"/>
   </g>
   <g id="patch_5">
    <path d="M 69.77 110.68 
L 709.2 110.68 
" style="fill:none;stroke:#000000;stroke-linecap:square;stroke-linejoin:miter;stroke-width:0.8;"/>
   </g>
   <g id="patch_6">
    <path d="M 69.77 26.88 
L 709.2 26.88 
" style="fill:none;stroke:#000000;stroke-linecap:square;stroke-linejoin:miter;stroke-width:0.8;"/>
   </g>
   <g id="text_14">
    <!-- Agriculture loans over time -->
    <defs>
     <path d="M 45.40625 27.984375 
Q 45.40625 37.75 41.375 43.109375 
Q 37.359375 48.484375 30.078125 48.484375 
Q 22.859375 48.484375 18.828125 43.109375 
Q 14.796875 37.75 14.796875 27.984375 
Q 14.796875 18.265625 18.828125 12.890625 
Q 22.859375 7.515625 30.078125 7.515625 
Q 37.359375 7.515625 41.375 12.890625 
Q 45.40625 18.265625 45.40625 27.984375 
z
M 54.390625 6.78125 
Q 54.390625 -7.171875 48.1875 -13.984375 
Q 42 -20.796875 29.203125 -20.796875 
Q 24.46875 -20.796875 20.265625 -20.09375 
Q 16.0625 -19.390625 12.109375 -17.921875 
L 12.109375 -9.1875 
Q 16.0625 -11.328125 19.921875 -12.34375 
Q 23.78125 -13.375 27.78125 -13.375 
Q 36.625 -13.375 41.015625 -8.765625 
Q 45.40625 -4.15625 45.40625 5.171875 
L 45.40625 9.625 
Q 42.625 4.78125 38.28125 2.390625 
Q 33.9375 0 27.875 0 
Q 17.828125 0 11.671875 7.65625 
Q 5.515625 15.328125 5.515625 27.984375 
Q 5.515625 40.671875 11.671875 48.328125 
Q 17.828125 56 27.875 56 
Q 33.9375 56 38.28125 53.609375 
Q 42.625 51.21875 45.40625 46.390625 
L 45.40625 54.6875 
L 54.390625 54.6875 
z
" id="DejaVuSans-103"/>
     <path d="M 41.109375 46.296875 
Q 39.59375 47.171875 37.8125 47.578125 
Q 36.03125 48 33.890625 48 
Q 26.265625 48 22.1875 43.046875 
Q 18.109375 38.09375 18.109375 28.8125 
L 18.109375 0 
L 9.078125 0 
L 9.078125 54.6875 
L 18.109375 54.6875 
L 18.109375 46.1875 
Q 20.953125 51.171875 25.484375 53.578125 
Q 30.03125 56 36.53125 56 
Q 37.453125 56 38.578125 55.875 
Q 39.703125 55.765625 41.0625 55.515625 
z
" id="DejaVuSans-114"/>
     <path d="M 9.421875 54.6875 
L 18.40625 54.6875 
L 18.40625 0 
L 9.421875 0 
z
M 9.421875 75.984375 
L 18.40625 75.984375 
L 18.40625 64.59375 
L 9.421875 64.59375 
z
" id="DejaVuSans-105"/>
     <path d="M 48.78125 52.59375 
L 48.78125 44.1875 
Q 44.96875 46.296875 41.140625 47.34375 
Q 37.3125 48.390625 33.40625 48.390625 
Q 24.65625 48.390625 19.8125 42.84375 
Q 14.984375 37.3125 14.984375 27.296875 
Q 14.984375 17.28125 19.8125 11.734375 
Q 24.65625 6.203125 33.40625 6.203125 
Q 37.3125 6.203125 41.140625 7.25 
Q 44.96875 8.296875 48.78125 10.40625 
L 48.78125 2.09375 
Q 45.015625 0.34375 40.984375 -0.53125 
Q 36.96875 -1.421875 32.421875 -1.421875 
Q 20.0625 -1.421875 12.78125 6.34375 
Q 5.515625 14.109375 5.515625 27.296875 
Q 5.515625 40.671875 12.859375 48.328125 
Q 20.21875 56 33.015625 56 
Q 37.15625 56 41.109375 55.140625 
Q 45.0625 54.296875 48.78125 52.59375 
z
" id="DejaVuSans-99"/>
     <path d="M 9.421875 75.984375 
L 18.40625 75.984375 
L 18.40625 0 
L 9.421875 0 
z
" id="DejaVuSans-108"/>
     <path d="M 44.28125 53.078125 
L 44.28125 44.578125 
Q 40.484375 46.53125 36.375 47.5 
Q 32.28125 48.484375 27.875 48.484375 
Q 21.1875 48.484375 17.84375 46.4375 
Q 14.5 44.390625 14.5 40.28125 
Q 14.5 37.15625 16.890625 35.375 
Q 19.28125 33.59375 26.515625 31.984375 
L 29.59375 31.296875 
Q 39.15625 29.25 43.1875 25.515625 
Q 47.21875 21.78125 47.21875 15.09375 
Q 47.21875 7.46875 41.1875 3.015625 
Q 35.15625 -1.421875 24.609375 -1.421875 
Q 20.21875 -1.421875 15.453125 -0.5625 
Q 10.6875 0.296875 5.421875 2 
L 5.421875 11.28125 
Q 10.40625 8.6875 15.234375 7.390625 
Q 20.0625 6.109375 24.8125 6.109375 
Q 31.15625 6.109375 34.5625 8.28125 
Q 37.984375 10.453125 37.984375 14.40625 
Q 37.984375 18.0625 35.515625 20.015625 
Q 33.0625 21.96875 24.703125 23.78125 
L 21.578125 24.515625 
Q 13.234375 26.265625 9.515625 29.90625 
Q 5.8125 33.546875 5.8125 39.890625 
Q 5.8125 47.609375 11.28125 51.796875 
Q 16.75 56 26.8125 56 
Q 31.78125 56 36.171875 55.265625 
Q 40.578125 54.546875 44.28125 53.078125 
z
" id="DejaVuSans-115"/>
     <path d="M 2.984375 54.6875 
L 12.5 54.6875 
L 29.59375 8.796875 
L 46.6875 54.6875 
L 56.203125 54.6875 
L 35.6875 0 
L 23.484375 0 
z
" id="DejaVuSans-118"/>
    </defs>
    <g transform="translate(307.891563 20.88)scale(0.12 -0.12)">
     <use xlink:href="#DejaVuSans-65"/>
     <use x="68.408203" xlink:href="#DejaVuSans-103"/>
     <use x="131.884766" xlink:href="#DejaVuSans-114"/>
     <use x="172.998047" xlink:href="#DejaVuSans-105"/>
     <use x="200.78125" xlink:href="#DejaVuSans-99"/>
     <use x="255.761719" xlink:href="#DejaVuSans-117"/>
     <use x="319.140625" xlink:href="#DejaVuSans-108"/>
     <use x="346.923828" xlink:href="#DejaVuSans-116"/>
     <use x="386.132812" xlink:href="#DejaVuSans-117"/>
     <use x="449.511719" xlink:href="#DejaVuSans-114"/>
     <use x="488.375" xlink:href="#DejaVuSans-101"/>
     <use x="549.898438" xlink:href="#DejaVuSans-32"/>
     <use x="581.685547" xlink:href="#DejaVuSans-108"/>
     <use x="609.46875" xlink:href="#DejaVuSans-111"/>
     <use x="670.650391" xlink:href="#DejaVuSans-97"/>
     <use x="731.929688" xlink:href="#DejaVuSans-110"/>
     <use x="795.308594" xlink:href="#DejaVuSans-115"/>
     <use x="847.408203" xlink:href="#DejaVuSans-32"/>
     <use x="879.195312" xlink:href="#DejaVuSans-111"/>
     <use x="940.376953" xlink:href="#DejaVuSans-118"/>
     <use x="999.556641" xlink:href="#DejaVuSans-101"/>
     <use x="1061.080078" xlink:href="#DejaVuSans-114"/>
     <use x="1102.193359" xlink:href="#DejaVuSans-32"/>
     <use x="1133.980469" xlink:href="#DejaVuSans-116"/>
     <use x="1173.189453" xlink:href="#DejaVuSans-105"/>
     <use x="1200.972656" xlink:href="#DejaVuSans-109"/>
     <use x="1298.384766" xlink:href="#DejaVuSans-101"/>
    </g>
   </g>
  </g>
  <g id="axes_2">
   <g id="patch_7">
    <path d="M 69.77 252.52 
L 709.2 252.52 
L 709.2 168.72 
L 69.77 168.72 
z
" style="fill:#ffffff;"/>
   </g>
   <g id="matplotlib.axis_3">
    <g id="xtick_8">
     <g id="line2d_13">
      <g>
       <use style="stroke:#000000;stroke-width:0.8;" x="87.67761" xlink:href="#m32209fd7c3" y="252.52"/>
      </g>
     </g>
     <g id="text_15">
      <!-- 2006 -->
      <g transform="translate(74.95261 267.118438)scale(0.1 -0.1)">
       <use xlink:href="#DejaVuSans-50"/>
       <use x="63.623047" xlink:href="#DejaVuSans-48"/>
       <use x="127.246094" xlink:href="#DejaVuSans-48"/>
       <use x="190.869141" xlink:href="#DejaVuSans-54"/>
      </g>
     </g>
    </g>
    <g id="xtick_9">
     <g id="line2d_14">
      <g>
       <use style="stroke:#000000;stroke-width:0.8;" x="178.176437" xlink:href="#m32209fd7c3" y="252.52"/>
      </g>
     </g>
     <g id="text_16">
      <!-- 2008 -->
      <g transform="translate(165.451437 267.118438)scale(0.1 -0.1)">
       <use xlink:href="#DejaVuSans-50"/>
       <use x="63.623047" xlink:href="#DejaVuSans-48"/>
       <use x="127.246094" xlink:href="#DejaVuSans-48"/>
       <use x="190.869141" xlink:href="#DejaVuSans-56"/>
      </g>
     </g>
    </g>
    <g id="xtick_10">
     <g id="line2d_15">
      <g>
       <use style="stroke:#000000;stroke-width:0.8;" x="268.799235" xlink:href="#m32209fd7c3" y="252.52"/>
      </g>
     </g>
     <g id="text_17">
      <!-- 2010 -->
      <g transform="translate(256.074235 267.118438)scale(0.1 -0.1)">
       <use xlink:href="#DejaVuSans-50"/>
       <use x="63.623047" xlink:href="#DejaVuSans-48"/>
       <use x="127.246094" xlink:href="#DejaVuSans-49"/>
       <use x="190.869141" xlink:href="#DejaVuSans-48"/>
      </g>
     </g>
    </g>
    <g id="xtick_11">
     <g id="line2d_16">
      <g>
       <use style="stroke:#000000;stroke-width:0.8;" x="359.298062" xlink:href="#m32209fd7c3" y="252.52"/>
      </g>
     </g>
     <g id="text_18">
      <!-- 2012 -->
      <g transform="translate(346.573062 267.118438)scale(0.1 -0.1)">
       <use xlink:href="#DejaVuSans-50"/>
       <use x="63.623047" xlink:href="#DejaVuSans-48"/>
       <use x="127.246094" xlink:href="#DejaVuSans-49"/>
       <use x="190.869141" xlink:href="#DejaVuSans-50"/>
      </g>
     </g>
    </g>
    <g id="xtick_12">
     <g id="line2d_17">
      <g>
       <use style="stroke:#000000;stroke-width:0.8;" x="449.920861" xlink:href="#m32209fd7c3" y="252.52"/>
      </g>
     </g>
     <g id="text_19">
      <!-- 2014 -->
      <g transform="translate(437.195861 267.118438)scale(0.1 -0.1)">
       <use xlink:href="#DejaVuSans-50"/>
       <use x="63.623047" xlink:href="#DejaVuSans-48"/>
       <use x="127.246094" xlink:href="#DejaVuSans-49"/>
       <use x="190.869141" xlink:href="#DejaVuSans-52"/>
      </g>
     </g>
    </g>
    <g id="xtick_13">
     <g id="line2d_18">
      <g>
       <use style="stroke:#000000;stroke-width:0.8;" x="540.419688" xlink:href="#m32209fd7c3" y="252.52"/>
      </g>
     </g>
     <g id="text_20">
      <!-- 2016 -->
      <g transform="translate(527.694688 267.118438)scale(0.1 -0.1)">
       <use xlink:href="#DejaVuSans-50"/>
       <use x="63.623047" xlink:href="#DejaVuSans-48"/>
       <use x="127.246094" xlink:href="#DejaVuSans-49"/>
       <use x="190.869141" xlink:href="#DejaVuSans-54"/>
      </g>
     </g>
    </g>
    <g id="xtick_14">
     <g id="line2d_19">
      <g>
       <use style="stroke:#000000;stroke-width:0.8;" x="631.042486" xlink:href="#m32209fd7c3" y="252.52"/>
      </g>
     </g>
     <g id="text_21">
      <!-- 2018 -->
      <g transform="translate(618.317486 267.118438)scale(0.1 -0.1)">
       <use xlink:href="#DejaVuSans-50"/>
       <use x="63.623047" xlink:href="#DejaVuSans-48"/>
       <use x="127.246094" xlink:href="#DejaVuSans-49"/>
       <use x="190.869141" xlink:href="#DejaVuSans-56"/>
      </g>
     </g>
    </g>
    <g id="text_22">
     <!-- Date -->
     <g transform="translate(377.534219 280.796563)scale(0.1 -0.1)">
      <use xlink:href="#DejaVuSans-68"/>
      <use x="77.001953" xlink:href="#DejaVuSans-97"/>
      <use x="138.28125" xlink:href="#DejaVuSans-116"/>
      <use x="177.490234" xlink:href="#DejaVuSans-101"/>
     </g>
    </g>
   </g>
   <g id="matplotlib.axis_4">
    <g id="ytick_5">
     <g id="line2d_20">
      <g>
       <use style="stroke:#000000;stroke-width:0.8;" x="69.77" xlink:href="#ma3241fbf63" y="248.942348"/>
      </g>
     </g>
     <g id="text_23">
      <!-- 0 -->
      <g transform="translate(56.4075 252.741566)scale(0.1 -0.1)">
       <use xlink:href="#DejaVuSans-48"/>
      </g>
     </g>
    </g>
    <g id="ytick_6">
     <g id="line2d_21">
      <g>
       <use style="stroke:#000000;stroke-width:0.8;" x="69.77" xlink:href="#ma3241fbf63" y="223.226966"/>
      </g>
     </g>
     <g id="text_24">
      <!-- 50000 -->
      <g transform="translate(30.9575 227.026185)scale(0.1 -0.1)">
       <use xlink:href="#DejaVuSans-53"/>
       <use x="63.623047" xlink:href="#DejaVuSans-48"/>
       <use x="127.246094" xlink:href="#DejaVuSans-48"/>
       <use x="190.869141" xlink:href="#DejaVuSans-48"/>
       <use x="254.492188" xlink:href="#DejaVuSans-48"/>
      </g>
     </g>
    </g>
    <g id="ytick_7">
     <g id="line2d_22">
      <g>
       <use style="stroke:#000000;stroke-width:0.8;" x="69.77" xlink:href="#ma3241fbf63" y="197.511584"/>
      </g>
     </g>
     <g id="text_25">
      <!-- 100000 -->
      <g transform="translate(24.595 201.310803)scale(0.1 -0.1)">
       <use xlink:href="#DejaVuSans-49"/>
       <use x="63.623047" xlink:href="#DejaVuSans-48"/>
       <use x="127.246094" xlink:href="#DejaVuSans-48"/>
       <use x="190.869141" xlink:href="#DejaVuSans-48"/>
       <use x="254.492188" xlink:href="#DejaVuSans-48"/>
       <use x="318.115234" xlink:href="#DejaVuSans-48"/>
      </g>
     </g>
    </g>
    <g id="ytick_8">
     <g id="line2d_23">
      <g>
       <use style="stroke:#000000;stroke-width:0.8;" x="69.77" xlink:href="#ma3241fbf63" y="171.796203"/>
      </g>
     </g>
     <g id="text_26">
      <!-- 150000 -->
      <g transform="translate(24.595 175.595421)scale(0.1 -0.1)">
       <use xlink:href="#DejaVuSans-49"/>
       <use x="63.623047" xlink:href="#DejaVuSans-53"/>
       <use x="127.246094" xlink:href="#DejaVuSans-48"/>
       <use x="190.869141" xlink:href="#DejaVuSans-48"/>
       <use x="254.492188" xlink:href="#DejaVuSans-48"/>
       <use x="318.115234" xlink:href="#DejaVuSans-48"/>
      </g>
     </g>
    </g>
    <g id="text_27">
     <!-- Loan Amount -->
     <g transform="translate(18.515313 243.847344)rotate(-90)scale(0.1 -0.1)">
      <use xlink:href="#DejaVuSans-76"/>
      <use x="53.962891" xlink:href="#DejaVuSans-111"/>
      <use x="115.144531" xlink:href="#DejaVuSans-97"/>
      <use x="176.423828" xlink:href="#DejaVuSans-110"/>
      <use x="239.802734" xlink:href="#DejaVuSans-32"/>
      <use x="271.589844" xlink:href="#DejaVuSans-65"/>
      <use x="339.998047" xlink:href="#DejaVuSans-109"/>
      <use x="437.410156" xlink:href="#DejaVuSans-111"/>
      <use x="498.591797" xlink:href="#DejaVuSans-117"/>
      <use x="561.970703" xlink:href="#DejaVuSans-110"/>
      <use x="625.349609" xlink:href="#DejaVuSans-116"/>
     </g>
    </g>
   </g>
   <g id="line2d_24">
    <path clip-path="url(#p8e7524ef2f)" d="M 98.835 248.710909 
L 117.802562 248.119455 
L 121.521692 248.530901 
L 125.364793 245.097898 
L 129.083923 243.272106 
L 132.927024 246.885117 
L 136.770125 245.830786 
L 140.241313 240.777714 
L 144.084414 238.707626 
L 147.803543 242.217775 
L 151.646644 238.386183 
L 155.365774 239.337652 
L 159.208875 245.58649 
L 163.051976 237.254707 
L 166.771106 239.839102 
L 170.614207 233.435972 
L 174.333337 233.500261 
L 178.176437 233.821703 
L 182.019538 232.265923 
L 185.614697 243.567833 
L 189.457798 246.975121 
L 193.176928 245.200759 
L 197.020029 245.432198 
L 200.739159 246.92369 
L 204.58226 246.332236 
L 208.42536 247.155129 
L 212.14449 247.026552 
L 215.987591 248.170886 
L 219.706721 246.08794 
L 227.392923 244.673594 
L 230.864111 219.601097 
L 234.707212 209.597814 
L 238.426341 223.792704 
L 242.269442 218.675343 
L 245.988572 238.823345 
L 249.831673 228.408615 
L 257.393904 215.718074 
L 261.237005 198.797353 
L 264.956135 199.234515 
L 268.799235 214.895182 
L 272.642336 217.46672 
L 276.113524 237.691868 
L 279.956625 243.426398 
L 283.675755 247.695152 
L 287.518856 236.046084 
L 291.237986 231.3916 
L 295.081087 223.136962 
L 298.924187 233.294538 
L 302.643317 206.66626 
L 306.486418 206.241956 
L 310.205548 213.930855 
L 314.048649 208.762064 
L 317.89175 217.286713 
L 321.362938 245.689352 
L 325.206039 236.521818 
L 328.925168 239.85196 
L 332.768269 245.393625 
L 336.487399 215.100905 
L 340.3305 225.348485 
L 344.173601 227.071415 
L 347.892731 245.007894 
L 351.735832 247.900875 
L 355.454962 207.077706 
L 359.298062 187.675451 
L 363.141163 183.638136 
L 366.736322 181.400898 
L 370.579423 202.77038 
L 374.298553 205.701933 
L 378.141654 230.260123 
L 381.860784 238.746199 
L 385.703885 231.237307 
L 389.546985 237.048984 
L 393.266115 240.263406 
L 397.109216 230.144404 
L 400.828346 215.820936 
L 404.671447 207.129137 
L 408.514548 193.088539 
L 411.985736 175.177775 
L 415.828837 190.336993 
L 419.547967 189.411239 
L 423.391067 217.119563 
L 427.110197 172.529091 
L 430.953298 189.951262 
L 434.796399 205.264772 
L 438.515529 211.667902 
L 442.35863 214.74089 
L 446.07776 241.034868 
L 449.920861 232.304496 
L 453.763961 223.085531 
L 457.235149 231.880192 
L 461.07825 237.216133 
L 464.79738 230.838719 
L 468.640481 248.209459 
L 472.359611 245.046467 
L 476.202712 242.487787 
L 480.045813 240.237691 
L 487.608043 220.925439 
L 491.327173 233.551692 
L 495.170274 213.249398 
L 499.013375 214.74089 
L 502.484563 192.741381 
L 506.327664 223.676985 
L 510.046794 233.037384 
L 513.889894 214.650886 
L 517.609024 231.790188 
L 521.452125 228.730058 
L 525.295226 227.315712 
L 529.014356 235.608922 
L 532.857457 218.662486 
L 536.576587 206.33196 
L 540.419688 239.427656 
L 544.262788 230.55585 
L 547.857947 213.467979 
L 551.701048 183.766713 
L 555.420178 203.876141 
L 559.263279 225.798504 
L 562.982409 219.13822 
L 566.82551 228.562908 
L 570.668611 214.496594 
L 574.38774 209.494952 
L 578.230841 212.477936 
L 581.949971 235.056041 
L 585.793072 210.472137 
L 589.636173 224.847035 
L 593.107361 218.778205 
L 596.950462 235.326053 
L 600.669592 199.067365 
L 604.512692 204.506168 
L 608.231822 212.207925 
L 612.074923 230.44013 
L 615.918024 223.766989 
L 619.637154 196.020092 
L 623.480255 220.038259 
L 627.199385 211.745048 
L 631.042486 199.144511 
L 634.885586 207.154852 
L 638.356774 204.930472 
L 642.199875 196.174384 
L 645.919005 183.22669 
L 649.762106 212.310786 
L 653.481236 190.1827 
L 657.324337 189.706966 
L 661.167438 175.923521 
L 664.886567 190.169843 
L 668.729668 190.105554 
L 672.448798 184.088155 
L 676.291899 204.621887 
L 680.135 206.859125 
L 680.135 206.859125 
" style="fill:none;stroke:#0000ff;stroke-linecap:square;stroke-width:1.5;"/>
   </g>
   <g id="patch_8">
    <path d="M 69.77 252.52 
L 69.77 168.72 
" style="fill:none;stroke:#000000;stroke-linecap:square;stroke-linejoin:miter;stroke-width:0.8;"/>
   </g>
   <g id="patch_9">
    <path d="M 709.2 252.52 
L 709.2 168.72 
" style="fill:none;stroke:#000000;stroke-linecap:square;stroke-linejoin:miter;stroke-width:0.8;"/>
   </g>
   <g id="patch_10">
    <path d="M 69.77 252.52 
L 709.2 252.52 
" style="fill:none;stroke:#000000;stroke-linecap:square;stroke-linejoin:miter;stroke-width:0.8;"/>
   </g>
   <g id="patch_11">
    <path d="M 69.77 168.72 
L 709.2 168.72 
" style="fill:none;stroke:#000000;stroke-linecap:square;stroke-linejoin:miter;stroke-width:0.8;"/>
   </g>
   <g id="text_28">
    <!-- Food loans over time -->
    <defs>
     <path d="M 9.8125 72.90625 
L 51.703125 72.90625 
L 51.703125 64.59375 
L 19.671875 64.59375 
L 19.671875 43.109375 
L 48.578125 43.109375 
L 48.578125 34.8125 
L 19.671875 34.8125 
L 19.671875 0 
L 9.8125 0 
z
" id="DejaVuSans-70"/>
     <path d="M 45.40625 46.390625 
L 45.40625 75.984375 
L 54.390625 75.984375 
L 54.390625 0 
L 45.40625 0 
L 45.40625 8.203125 
Q 42.578125 3.328125 38.25 0.953125 
Q 33.9375 -1.421875 27.875 -1.421875 
Q 17.96875 -1.421875 11.734375 6.484375 
Q 5.515625 14.40625 5.515625 27.296875 
Q 5.515625 40.1875 11.734375 48.09375 
Q 17.96875 56 27.875 56 
Q 33.9375 56 38.25 53.625 
Q 42.578125 51.265625 45.40625 46.390625 
z
M 14.796875 27.296875 
Q 14.796875 17.390625 18.875 11.75 
Q 22.953125 6.109375 30.078125 6.109375 
Q 37.203125 6.109375 41.296875 11.75 
Q 45.40625 17.390625 45.40625 27.296875 
Q 45.40625 37.203125 41.296875 42.84375 
Q 37.203125 48.484375 30.078125 48.484375 
Q 22.953125 48.484375 18.875 42.84375 
Q 14.796875 37.203125 14.796875 27.296875 
z
" id="DejaVuSans-100"/>
    </defs>
    <g transform="translate(326.5 162.72)scale(0.12 -0.12)">
     <use xlink:href="#DejaVuSans-70"/>
     <use x="53.894531" xlink:href="#DejaVuSans-111"/>
     <use x="115.076172" xlink:href="#DejaVuSans-111"/>
     <use x="176.257812" xlink:href="#DejaVuSans-100"/>
     <use x="239.734375" xlink:href="#DejaVuSans-32"/>
     <use x="271.521484" xlink:href="#DejaVuSans-108"/>
     <use x="299.304688" xlink:href="#DejaVuSans-111"/>
     <use x="360.486328" xlink:href="#DejaVuSans-97"/>
     <use x="421.765625" xlink:href="#DejaVuSans-110"/>
     <use x="485.144531" xlink:href="#DejaVuSans-115"/>
     <use x="537.244141" xlink:href="#DejaVuSans-32"/>
     <use x="569.03125" xlink:href="#DejaVuSans-111"/>
     <use x="630.212891" xlink:href="#DejaVuSans-118"/>
     <use x="689.392578" xlink:href="#DejaVuSans-101"/>
     <use x="750.916016" xlink:href="#DejaVuSans-114"/>
     <use x="792.029297" xlink:href="#DejaVuSans-32"/>
     <use x="823.816406" xlink:href="#DejaVuSans-116"/>
     <use x="863.025391" xlink:href="#DejaVuSans-105"/>
     <use x="890.808594" xlink:href="#DejaVuSans-109"/>
     <use x="988.220703" xlink:href="#DejaVuSans-101"/>
    </g>
   </g>
  </g>
  <g id="axes_3">
   <g id="patch_12">
    <path d="M 69.77 394.36 
L 709.2 394.36 
L 709.2 310.56 
L 69.77 310.56 
z
" style="fill:#ffffff;"/>
   </g>
   <g id="matplotlib.axis_5">
    <g id="xtick_15">
     <g id="line2d_25">
      <g>
       <use style="stroke:#000000;stroke-width:0.8;" x="87.67761" xlink:href="#m32209fd7c3" y="394.36"/>
      </g>
     </g>
     <g id="text_29">
      <!-- 2006 -->
      <g transform="translate(74.95261 408.958438)scale(0.1 -0.1)">
       <use xlink:href="#DejaVuSans-50"/>
       <use x="63.623047" xlink:href="#DejaVuSans-48"/>
       <use x="127.246094" xlink:href="#DejaVuSans-48"/>
       <use x="190.869141" xlink:href="#DejaVuSans-54"/>
      </g>
     </g>
    </g>
    <g id="xtick_16">
     <g id="line2d_26">
      <g>
       <use style="stroke:#000000;stroke-width:0.8;" x="178.176437" xlink:href="#m32209fd7c3" y="394.36"/>
      </g>
     </g>
     <g id="text_30">
      <!-- 2008 -->
      <g transform="translate(165.451437 408.958438)scale(0.1 -0.1)">
       <use xlink:href="#DejaVuSans-50"/>
       <use x="63.623047" xlink:href="#DejaVuSans-48"/>
       <use x="127.246094" xlink:href="#DejaVuSans-48"/>
       <use x="190.869141" xlink:href="#DejaVuSans-56"/>
      </g>
     </g>
    </g>
    <g id="xtick_17">
     <g id="line2d_27">
      <g>
       <use style="stroke:#000000;stroke-width:0.8;" x="268.799235" xlink:href="#m32209fd7c3" y="394.36"/>
      </g>
     </g>
     <g id="text_31">
      <!-- 2010 -->
      <g transform="translate(256.074235 408.958438)scale(0.1 -0.1)">
       <use xlink:href="#DejaVuSans-50"/>
       <use x="63.623047" xlink:href="#DejaVuSans-48"/>
       <use x="127.246094" xlink:href="#DejaVuSans-49"/>
       <use x="190.869141" xlink:href="#DejaVuSans-48"/>
      </g>
     </g>
    </g>
    <g id="xtick_18">
     <g id="line2d_28">
      <g>
       <use style="stroke:#000000;stroke-width:0.8;" x="359.298062" xlink:href="#m32209fd7c3" y="394.36"/>
      </g>
     </g>
     <g id="text_32">
      <!-- 2012 -->
      <g transform="translate(346.573062 408.958438)scale(0.1 -0.1)">
       <use xlink:href="#DejaVuSans-50"/>
       <use x="63.623047" xlink:href="#DejaVuSans-48"/>
       <use x="127.246094" xlink:href="#DejaVuSans-49"/>
       <use x="190.869141" xlink:href="#DejaVuSans-50"/>
      </g>
     </g>
    </g>
    <g id="xtick_19">
     <g id="line2d_29">
      <g>
       <use style="stroke:#000000;stroke-width:0.8;" x="449.920861" xlink:href="#m32209fd7c3" y="394.36"/>
      </g>
     </g>
     <g id="text_33">
      <!-- 2014 -->
      <g transform="translate(437.195861 408.958438)scale(0.1 -0.1)">
       <use xlink:href="#DejaVuSans-50"/>
       <use x="63.623047" xlink:href="#DejaVuSans-48"/>
       <use x="127.246094" xlink:href="#DejaVuSans-49"/>
       <use x="190.869141" xlink:href="#DejaVuSans-52"/>
      </g>
     </g>
    </g>
    <g id="xtick_20">
     <g id="line2d_30">
      <g>
       <use style="stroke:#000000;stroke-width:0.8;" x="540.419688" xlink:href="#m32209fd7c3" y="394.36"/>
      </g>
     </g>
     <g id="text_34">
      <!-- 2016 -->
      <g transform="translate(527.694688 408.958438)scale(0.1 -0.1)">
       <use xlink:href="#DejaVuSans-50"/>
       <use x="63.623047" xlink:href="#DejaVuSans-48"/>
       <use x="127.246094" xlink:href="#DejaVuSans-49"/>
       <use x="190.869141" xlink:href="#DejaVuSans-54"/>
      </g>
     </g>
    </g>
    <g id="xtick_21">
     <g id="line2d_31">
      <g>
       <use style="stroke:#000000;stroke-width:0.8;" x="631.042486" xlink:href="#m32209fd7c3" y="394.36"/>
      </g>
     </g>
     <g id="text_35">
      <!-- 2018 -->
      <g transform="translate(618.317486 408.958438)scale(0.1 -0.1)">
       <use xlink:href="#DejaVuSans-50"/>
       <use x="63.623047" xlink:href="#DejaVuSans-48"/>
       <use x="127.246094" xlink:href="#DejaVuSans-49"/>
       <use x="190.869141" xlink:href="#DejaVuSans-56"/>
      </g>
     </g>
    </g>
    <g id="text_36">
     <!-- Date -->
     <g transform="translate(377.534219 422.636563)scale(0.1 -0.1)">
      <use xlink:href="#DejaVuSans-68"/>
      <use x="77.001953" xlink:href="#DejaVuSans-97"/>
      <use x="138.28125" xlink:href="#DejaVuSans-116"/>
      <use x="177.490234" xlink:href="#DejaVuSans-101"/>
     </g>
    </g>
   </g>
   <g id="matplotlib.axis_6">
    <g id="ytick_9">
     <g id="line2d_32">
      <g>
       <use style="stroke:#000000;stroke-width:0.8;" x="69.77" xlink:href="#ma3241fbf63" y="390.688947"/>
      </g>
     </g>
     <g id="text_37">
      <!-- 0 -->
      <g transform="translate(56.4075 394.488166)scale(0.1 -0.1)">
       <use xlink:href="#DejaVuSans-48"/>
      </g>
     </g>
    </g>
    <g id="ytick_10">
     <g id="line2d_33">
      <g>
       <use style="stroke:#000000;stroke-width:0.8;" x="69.77" xlink:href="#ma3241fbf63" y="360.013764"/>
      </g>
     </g>
     <g id="text_38">
      <!-- 50000 -->
      <g transform="translate(30.9575 363.812983)scale(0.1 -0.1)">
       <use xlink:href="#DejaVuSans-53"/>
       <use x="63.623047" xlink:href="#DejaVuSans-48"/>
       <use x="127.246094" xlink:href="#DejaVuSans-48"/>
       <use x="190.869141" xlink:href="#DejaVuSans-48"/>
       <use x="254.492188" xlink:href="#DejaVuSans-48"/>
      </g>
     </g>
    </g>
    <g id="ytick_11">
     <g id="line2d_34">
      <g>
       <use style="stroke:#000000;stroke-width:0.8;" x="69.77" xlink:href="#ma3241fbf63" y="329.33858"/>
      </g>
     </g>
     <g id="text_39">
      <!-- 100000 -->
      <g transform="translate(24.595 333.137799)scale(0.1 -0.1)">
       <use xlink:href="#DejaVuSans-49"/>
       <use x="63.623047" xlink:href="#DejaVuSans-48"/>
       <use x="127.246094" xlink:href="#DejaVuSans-48"/>
       <use x="190.869141" xlink:href="#DejaVuSans-48"/>
       <use x="254.492188" xlink:href="#DejaVuSans-48"/>
       <use x="318.115234" xlink:href="#DejaVuSans-48"/>
      </g>
     </g>
    </g>
    <g id="text_40">
     <!-- Loan Amount -->
     <g transform="translate(18.515313 385.687344)rotate(-90)scale(0.1 -0.1)">
      <use xlink:href="#DejaVuSans-76"/>
      <use x="53.962891" xlink:href="#DejaVuSans-111"/>
      <use x="115.144531" xlink:href="#DejaVuSans-97"/>
      <use x="176.423828" xlink:href="#DejaVuSans-110"/>
      <use x="239.802734" xlink:href="#DejaVuSans-32"/>
      <use x="271.589844" xlink:href="#DejaVuSans-65"/>
      <use x="339.998047" xlink:href="#DejaVuSans-109"/>
      <use x="437.410156" xlink:href="#DejaVuSans-111"/>
      <use x="498.591797" xlink:href="#DejaVuSans-117"/>
      <use x="561.970703" xlink:href="#DejaVuSans-110"/>
      <use x="625.349609" xlink:href="#DejaVuSans-116"/>
     </g>
    </g>
   </g>
   <g id="line2d_35">
    <path clip-path="url(#p99ff309ac9)" d="M 98.835 390.550909 
L 117.802562 390.044769 
L 121.521692 390.550909 
L 125.364793 389.139851 
L 129.083923 386.010982 
L 132.927024 387.36069 
L 136.770125 387.958856 
L 140.241313 383.879057 
L 144.084414 384.553911 
L 147.803543 384.308509 
L 151.646644 382.145909 
L 155.365774 384.906675 
L 159.208875 386.179695 
L 163.051976 380.980252 
L 166.771106 385.428153 
L 170.614207 381.56308 
L 174.333337 373.587533 
L 182.019538 377.80537 
L 185.614697 387.253327 
L 189.457798 389.492615 
L 193.176928 388.204258 
L 197.020029 389.799367 
L 200.739159 390.060106 
L 204.58226 389.109175 
L 208.42536 389.90673 
L 212.14449 388.802424 
L 215.987591 388.9558 
L 219.706721 389.645991 
L 227.392923 387.053938 
L 230.864111 367.268445 
L 234.707212 365.090507 
L 238.426341 358.050552 
L 242.269442 355.565862 
L 245.988572 370.351301 
L 249.831673 357.191647 
L 253.674774 348.464557 
L 257.393904 316.777093 
L 261.237005 352.222267 
L 264.956135 314.369091 
L 268.799235 343.801929 
L 272.642336 347.084174 
L 276.113524 377.29923 
L 279.956625 382.974139 
L 283.675755 387.191976 
L 287.518856 371.271556 
L 291.237986 363.081282 
L 295.081087 376.302286 
L 298.924187 368.848217 
L 302.643317 326.669839 
L 306.486418 335.642331 
L 310.205548 324.568589 
L 314.048649 337.206765 
L 317.89175 351.225324 
L 321.362938 382.437323 
L 325.206039 379.063053 
L 328.925168 375.964859 
L 332.768269 381.854495 
L 336.487399 357.7438 
L 340.3305 363.173308 
L 344.173601 367.207094 
L 347.892731 387.284002 
L 351.735832 389.615316 
L 355.454962 341.071838 
L 359.298062 334.737413 
L 363.141163 325.473507 
L 370.579423 338.479785 
L 374.298553 357.989202 
L 378.141654 372.575252 
L 381.860784 379.354467 
L 385.703885 378.541575 
L 389.546985 374.661164 
L 393.266115 381.05694 
L 397.109216 369.431045 
L 400.828346 338.06567 
L 404.671447 336.976701 
L 408.514548 339.384703 
L 411.985736 323.540971 
L 415.828837 342.436884 
L 419.547967 340.826437 
L 423.391067 350.703846 
L 427.110197 339.752805 
L 430.953298 329.507294 
L 434.796399 335.550305 
L 438.515529 366.762304 
L 442.35863 363.863499 
L 446.07776 377.544631 
L 449.920861 382.360635 
L 453.763961 378.18881 
L 457.235149 356.501455 
L 461.07825 378.12746 
L 464.79738 381.164303 
L 468.640481 389.139851 
L 472.359611 383.955745 
L 476.202712 379.354467 
L 480.045813 372.928016 
L 483.764942 345.826492 
L 487.608043 365.059832 
L 491.327173 372.498564 
L 495.170274 355.059722 
L 499.013375 373.510845 
L 502.484563 330.688289 
L 506.327664 366.302177 
L 510.046794 378.12746 
L 513.889894 355.25911 
L 517.609024 372.345188 
L 521.452125 369.354357 
L 525.295226 378.679613 
L 529.014356 386.241046 
L 532.857457 365.872724 
L 536.576587 345.044274 
L 540.419688 376.02621 
L 544.262788 359.952414 
L 547.857947 352.789758 
L 551.701048 350.903234 
L 555.420178 353.848052 
L 559.263279 369.185644 
L 562.982409 357.498399 
L 566.82551 374.722514 
L 570.668611 364.323627 
L 574.38774 367.29912 
L 578.230841 363.434047 
L 585.793072 367.697897 
L 589.636173 367.053719 
L 593.107361 359.40026 
L 596.950462 377.882058 
L 600.669592 357.222322 
L 604.512692 355.872614 
L 608.231822 365.995425 
L 612.074923 366.240826 
L 615.918024 369.553746 
L 619.637154 347.713015 
L 623.480255 365.796036 
L 627.199385 363.648773 
L 631.042486 341.301902 
L 634.885586 362.007651 
L 638.356774 322.498015 
L 642.199875 335.274228 
L 645.919005 350.044329 
L 649.762106 332.421436 
L 653.481236 336.02577 
L 657.324337 350.397094 
L 661.167438 316.608379 
L 664.886567 346.271282 
L 668.729668 325.473507 
L 672.448798 349.384813 
L 676.291899 351.025935 
L 680.135 371.547633 
L 680.135 371.547633 
" style="fill:none;stroke:#ff0000;stroke-linecap:square;stroke-width:1.5;"/>
   </g>
   <g id="patch_13">
    <path d="M 69.77 394.36 
L 69.77 310.56 
" style="fill:none;stroke:#000000;stroke-linecap:square;stroke-linejoin:miter;stroke-width:0.8;"/>
   </g>
   <g id="patch_14">
    <path d="M 709.2 394.36 
L 709.2 310.56 
" style="fill:none;stroke:#000000;stroke-linecap:square;stroke-linejoin:miter;stroke-width:0.8;"/>
   </g>
   <g id="patch_15">
    <path d="M 69.77 394.36 
L 709.2 394.36 
" style="fill:none;stroke:#000000;stroke-linecap:square;stroke-linejoin:miter;stroke-width:0.8;"/>
   </g>
   <g id="patch_16">
    <path d="M 69.77 310.56 
L 709.2 310.56 
" style="fill:none;stroke:#000000;stroke-linecap:square;stroke-linejoin:miter;stroke-width:0.8;"/>
   </g>
   <g id="text_41">
    <!-- Retail loans over time -->
    <defs>
     <path d="M 44.390625 34.1875 
Q 47.5625 33.109375 50.5625 29.59375 
Q 53.5625 26.078125 56.59375 19.921875 
L 66.609375 0 
L 56 0 
L 46.6875 18.703125 
Q 43.0625 26.03125 39.671875 28.421875 
Q 36.28125 30.8125 30.421875 30.8125 
L 19.671875 30.8125 
L 19.671875 0 
L 9.8125 0 
L 9.8125 72.90625 
L 32.078125 72.90625 
Q 44.578125 72.90625 50.734375 67.671875 
Q 56.890625 62.453125 56.890625 51.90625 
Q 56.890625 45.015625 53.6875 40.46875 
Q 50.484375 35.9375 44.390625 34.1875 
z
M 19.671875 64.796875 
L 19.671875 38.921875 
L 32.078125 38.921875 
Q 39.203125 38.921875 42.84375 42.21875 
Q 46.484375 45.515625 46.484375 51.90625 
Q 46.484375 58.296875 42.84375 61.546875 
Q 39.203125 64.796875 32.078125 64.796875 
z
" id="DejaVuSans-82"/>
    </defs>
    <g transform="translate(323.93125 304.56)scale(0.12 -0.12)">
     <use xlink:href="#DejaVuSans-82"/>
     <use x="64.982422" xlink:href="#DejaVuSans-101"/>
     <use x="126.505859" xlink:href="#DejaVuSans-116"/>
     <use x="165.714844" xlink:href="#DejaVuSans-97"/>
     <use x="226.994141" xlink:href="#DejaVuSans-105"/>
     <use x="254.777344" xlink:href="#DejaVuSans-108"/>
     <use x="282.560547" xlink:href="#DejaVuSans-32"/>
     <use x="314.347656" xlink:href="#DejaVuSans-108"/>
     <use x="342.130859" xlink:href="#DejaVuSans-111"/>
     <use x="403.3125" xlink:href="#DejaVuSans-97"/>
     <use x="464.591797" xlink:href="#DejaVuSans-110"/>
     <use x="527.970703" xlink:href="#DejaVuSans-115"/>
     <use x="580.070312" xlink:href="#DejaVuSans-32"/>
     <use x="611.857422" xlink:href="#DejaVuSans-111"/>
     <use x="673.039062" xlink:href="#DejaVuSans-118"/>
     <use x="732.21875" xlink:href="#DejaVuSans-101"/>
     <use x="793.742188" xlink:href="#DejaVuSans-114"/>
     <use x="834.855469" xlink:href="#DejaVuSans-32"/>
     <use x="866.642578" xlink:href="#DejaVuSans-116"/>
     <use x="905.851562" xlink:href="#DejaVuSans-105"/>
     <use x="933.634766" xlink:href="#DejaVuSans-109"/>
     <use x="1031.046875" xlink:href="#DejaVuSans-101"/>
    </g>
   </g>
  </g>
  <g id="axes_4">
   <g id="patch_17">
    <path d="M 69.77 536.2 
L 709.2 536.2 
L 709.2 452.4 
L 69.77 452.4 
z
" style="fill:#ffffff;"/>
   </g>
   <g id="matplotlib.axis_7">
    <g id="xtick_22">
     <g id="line2d_36">
      <g>
       <use style="stroke:#000000;stroke-width:0.8;" x="83.862688" xlink:href="#m32209fd7c3" y="536.2"/>
      </g>
     </g>
     <g id="text_42">
      <!-- 2006 -->
      <g transform="translate(71.137688 550.798438)scale(0.1 -0.1)">
       <use xlink:href="#DejaVuSans-50"/>
       <use x="63.623047" xlink:href="#DejaVuSans-48"/>
       <use x="127.246094" xlink:href="#DejaVuSans-48"/>
       <use x="190.869141" xlink:href="#DejaVuSans-54"/>
      </g>
     </g>
    </g>
    <g id="xtick_23">
     <g id="line2d_37">
      <g>
       <use style="stroke:#000000;stroke-width:0.8;" x="174.944251" xlink:href="#m32209fd7c3" y="536.2"/>
      </g>
     </g>
     <g id="text_43">
      <!-- 2008 -->
      <g transform="translate(162.219251 550.798438)scale(0.1 -0.1)">
       <use xlink:href="#DejaVuSans-50"/>
       <use x="63.623047" xlink:href="#DejaVuSans-48"/>
       <use x="127.246094" xlink:href="#DejaVuSans-48"/>
       <use x="190.869141" xlink:href="#DejaVuSans-56"/>
      </g>
     </g>
    </g>
    <g id="xtick_24">
     <g id="line2d_38">
      <g>
       <use style="stroke:#000000;stroke-width:0.8;" x="266.150583" xlink:href="#m32209fd7c3" y="536.2"/>
      </g>
     </g>
     <g id="text_44">
      <!-- 2010 -->
      <g transform="translate(253.425583 550.798438)scale(0.1 -0.1)">
       <use xlink:href="#DejaVuSans-50"/>
       <use x="63.623047" xlink:href="#DejaVuSans-48"/>
       <use x="127.246094" xlink:href="#DejaVuSans-49"/>
       <use x="190.869141" xlink:href="#DejaVuSans-48"/>
      </g>
     </g>
    </g>
    <g id="xtick_25">
     <g id="line2d_39">
      <g>
       <use style="stroke:#000000;stroke-width:0.8;" x="357.232145" xlink:href="#m32209fd7c3" y="536.2"/>
      </g>
     </g>
     <g id="text_45">
      <!-- 2012 -->
      <g transform="translate(344.507145 550.798438)scale(0.1 -0.1)">
       <use xlink:href="#DejaVuSans-50"/>
       <use x="63.623047" xlink:href="#DejaVuSans-48"/>
       <use x="127.246094" xlink:href="#DejaVuSans-49"/>
       <use x="190.869141" xlink:href="#DejaVuSans-50"/>
      </g>
     </g>
    </g>
    <g id="xtick_26">
     <g id="line2d_40">
      <g>
       <use style="stroke:#000000;stroke-width:0.8;" x="448.438477" xlink:href="#m32209fd7c3" y="536.2"/>
      </g>
     </g>
     <g id="text_46">
      <!-- 2014 -->
      <g transform="translate(435.713477 550.798438)scale(0.1 -0.1)">
       <use xlink:href="#DejaVuSans-50"/>
       <use x="63.623047" xlink:href="#DejaVuSans-48"/>
       <use x="127.246094" xlink:href="#DejaVuSans-49"/>
       <use x="190.869141" xlink:href="#DejaVuSans-52"/>
      </g>
     </g>
    </g>
    <g id="xtick_27">
     <g id="line2d_41">
      <g>
       <use style="stroke:#000000;stroke-width:0.8;" x="539.52004" xlink:href="#m32209fd7c3" y="536.2"/>
      </g>
     </g>
     <g id="text_47">
      <!-- 2016 -->
      <g transform="translate(526.79504 550.798438)scale(0.1 -0.1)">
       <use xlink:href="#DejaVuSans-50"/>
       <use x="63.623047" xlink:href="#DejaVuSans-48"/>
       <use x="127.246094" xlink:href="#DejaVuSans-49"/>
       <use x="190.869141" xlink:href="#DejaVuSans-54"/>
      </g>
     </g>
    </g>
    <g id="xtick_28">
     <g id="line2d_42">
      <g>
       <use style="stroke:#000000;stroke-width:0.8;" x="630.726372" xlink:href="#m32209fd7c3" y="536.2"/>
      </g>
     </g>
     <g id="text_48">
      <!-- 2018 -->
      <g transform="translate(618.001372 550.798438)scale(0.1 -0.1)">
       <use xlink:href="#DejaVuSans-50"/>
       <use x="63.623047" xlink:href="#DejaVuSans-48"/>
       <use x="127.246094" xlink:href="#DejaVuSans-49"/>
       <use x="190.869141" xlink:href="#DejaVuSans-56"/>
      </g>
     </g>
    </g>
    <g id="text_49">
     <!-- Date -->
     <g transform="translate(377.534219 564.476562)scale(0.1 -0.1)">
      <use xlink:href="#DejaVuSans-68"/>
      <use x="77.001953" xlink:href="#DejaVuSans-97"/>
      <use x="138.28125" xlink:href="#DejaVuSans-116"/>
      <use x="177.490234" xlink:href="#DejaVuSans-101"/>
     </g>
    </g>
   </g>
   <g id="matplotlib.axis_8">
    <g id="ytick_12">
     <g id="line2d_43">
      <g>
       <use style="stroke:#000000;stroke-width:0.8;" x="69.77" xlink:href="#ma3241fbf63" y="532.849836"/>
      </g>
     </g>
     <g id="text_50">
      <!-- 0 -->
      <g transform="translate(56.4075 536.649054)scale(0.1 -0.1)">
       <use xlink:href="#DejaVuSans-48"/>
      </g>
     </g>
    </g>
    <g id="ytick_13">
     <g id="line2d_44">
      <g>
       <use style="stroke:#000000;stroke-width:0.8;" x="69.77" xlink:href="#ma3241fbf63" y="509.903505"/>
      </g>
     </g>
     <g id="text_51">
      <!-- 25000 -->
      <g transform="translate(30.9575 513.702724)scale(0.1 -0.1)">
       <use xlink:href="#DejaVuSans-50"/>
       <use x="63.623047" xlink:href="#DejaVuSans-53"/>
       <use x="127.246094" xlink:href="#DejaVuSans-48"/>
       <use x="190.869141" xlink:href="#DejaVuSans-48"/>
       <use x="254.492188" xlink:href="#DejaVuSans-48"/>
      </g>
     </g>
    </g>
    <g id="ytick_14">
     <g id="line2d_45">
      <g>
       <use style="stroke:#000000;stroke-width:0.8;" x="69.77" xlink:href="#ma3241fbf63" y="486.957174"/>
      </g>
     </g>
     <g id="text_52">
      <!-- 50000 -->
      <g transform="translate(30.9575 490.756393)scale(0.1 -0.1)">
       <use xlink:href="#DejaVuSans-53"/>
       <use x="63.623047" xlink:href="#DejaVuSans-48"/>
       <use x="127.246094" xlink:href="#DejaVuSans-48"/>
       <use x="190.869141" xlink:href="#DejaVuSans-48"/>
       <use x="254.492188" xlink:href="#DejaVuSans-48"/>
      </g>
     </g>
    </g>
    <g id="ytick_15">
     <g id="line2d_46">
      <g>
       <use style="stroke:#000000;stroke-width:0.8;" x="69.77" xlink:href="#ma3241fbf63" y="464.010843"/>
      </g>
     </g>
     <g id="text_53">
      <!-- 75000 -->
      <defs>
       <path d="M 8.203125 72.90625 
L 55.078125 72.90625 
L 55.078125 68.703125 
L 28.609375 0 
L 18.3125 0 
L 43.21875 64.59375 
L 8.203125 64.59375 
z
" id="DejaVuSans-55"/>
      </defs>
      <g transform="translate(30.9575 467.810062)scale(0.1 -0.1)">
       <use xlink:href="#DejaVuSans-55"/>
       <use x="63.623047" xlink:href="#DejaVuSans-53"/>
       <use x="127.246094" xlink:href="#DejaVuSans-48"/>
       <use x="190.869141" xlink:href="#DejaVuSans-48"/>
       <use x="254.492188" xlink:href="#DejaVuSans-48"/>
      </g>
     </g>
    </g>
    <g id="text_54">
     <!-- Loan Amount -->
     <g transform="translate(24.877813 527.527344)rotate(-90)scale(0.1 -0.1)">
      <use xlink:href="#DejaVuSans-76"/>
      <use x="53.962891" xlink:href="#DejaVuSans-111"/>
      <use x="115.144531" xlink:href="#DejaVuSans-97"/>
      <use x="176.423828" xlink:href="#DejaVuSans-110"/>
      <use x="239.802734" xlink:href="#DejaVuSans-32"/>
      <use x="271.589844" xlink:href="#DejaVuSans-65"/>
      <use x="339.998047" xlink:href="#DejaVuSans-109"/>
      <use x="437.410156" xlink:href="#DejaVuSans-111"/>
      <use x="498.591797" xlink:href="#DejaVuSans-117"/>
      <use x="561.970703" xlink:href="#DejaVuSans-110"/>
      <use x="625.349609" xlink:href="#DejaVuSans-116"/>
     </g>
    </g>
   </g>
   <g id="line2d_47">
    <path clip-path="url(#p7c63d7dd0a)" d="M 98.835 531.748412 
L 102.702847 532.32207 
L 110.313772 532.390909 
L 117.924697 531.45011 
L 121.792545 530.578149 
L 125.535622 525.300493 
L 129.40347 529.063691 
L 133.271317 529.201369 
L 136.764856 527.75575 
L 140.632703 525.139869 
L 144.375781 530.76172 
L 148.243628 529.591457 
L 151.986706 529.407886 
L 155.854554 529.683242 
L 159.722401 526.424863 
L 163.465479 527.686911 
L 167.333326 524.795674 
L 171.076404 522.684611 
L 174.944251 520.894797 
L 178.812098 521.147207 
L 182.430407 529.201369 
L 186.298254 527.641019 
L 190.041332 531.220646 
L 197.652257 530.50931 
L 201.520104 527.962267 
L 205.387951 531.541895 
L 212.998876 531.427163 
L 216.741954 532.253231 
L 224.477649 531.587788 
L 227.971188 520.917744 
L 231.839035 516.328478 
L 235.582113 507.471194 
L 239.44996 518.944359 
L 243.193038 519.104984 
L 247.060885 520.412924 
L 250.928733 511.922782 
L 254.67181 503.088445 
L 258.539658 506.094414 
L 262.282736 488.60931 
L 266.150583 507.608872 
L 270.01843 509.880559 
L 273.511969 529.797974 
L 277.379816 530.532256 
L 281.122894 531.014129 
L 284.990742 522.56988 
L 288.733819 518.967306 
L 292.601667 526.011829 
L 296.469514 527.57218 
L 300.212592 505.956736 
L 304.080439 509.146276 
L 307.823517 500.105422 
L 311.691364 504.373439 
L 315.559211 520.50471 
L 319.052751 531.931982 
L 322.920598 522.501041 
L 326.663676 523.556572 
L 330.531523 523.464786 
L 334.274601 519.81632 
L 338.142448 516.787404 
L 342.010295 520.573549 
L 345.753373 531.564841 
L 349.62122 531.587788 
L 353.364298 501.183899 
L 357.232145 502.652464 
L 361.099992 485.649233 
L 364.718301 484.341292 
L 368.586148 509.398686 
L 372.329226 500.036583 
L 376.197073 528.329409 
L 379.940151 529.522618 
L 383.807998 520.642388 
L 387.675846 523.258269 
L 391.418924 527.641019 
L 395.286771 519.931051 
L 399.029849 502.92782 
L 402.897696 499.577656 
L 406.765543 488.724042 
L 410.259082 481.97782 
L 414.12693 488.471632 
L 417.870008 497.994359 
L 421.737855 516.557941 
L 425.480933 502.423001 
L 429.34878 486.750657 
L 433.216627 486.222892 
L 436.959705 504.855312 
L 440.827552 497.076506 
L 444.57063 527.365663 
L 448.438477 520.2523 
L 452.306324 510.821358 
L 455.799864 500.266046 
L 459.667711 529.38494 
L 463.410789 531.817251 
L 471.021714 530.233954 
L 474.889561 526.906736 
L 478.757408 528.512979 
L 482.500486 523.350055 
L 486.368333 515.571249 
L 490.111411 519.495071 
L 493.979258 515.548302 
L 497.847106 522.615772 
L 501.340645 486.429409 
L 505.208492 513.024206 
L 508.95157 512.840635 
L 512.819417 511.991621 
L 516.562495 526.401917 
L 520.430342 512.221084 
L 524.29819 531.105915 
L 528.041267 521.468456 
L 531.909115 524.497371 
L 535.652193 515.043483 
L 539.52004 523.097645 
L 543.387887 517.544633 
L 547.006196 522.546933 
L 550.874043 505.704326 
L 554.617121 503.662103 
L 558.484968 517.659365 
L 562.228046 505.291292 
L 566.095893 515.020537 
L 569.96374 516.925082 
L 573.706818 521.468456 
L 577.574665 519.403286 
L 581.317743 519.632749 
L 585.18559 514.469825 
L 589.053437 517.200438 
L 592.546977 514.194469 
L 596.414824 526.677273 
L 600.157902 519.586857 
L 604.025749 512.863582 
L 607.768827 520.160515 
L 611.636674 522.294524 
L 615.504521 521.950329 
L 619.247599 503.937459 
L 623.115446 513.597864 
L 626.858524 502.537733 
L 630.726372 512.221084 
L 634.594219 485.373877 
L 638.087758 491.707065 
L 641.955605 507.517087 
L 645.698683 456.209091 
L 649.56653 499.73828 
L 653.309608 496.869989 
L 657.177455 473.510624 
L 661.045303 495.103122 
L 664.788381 485.809858 
L 668.656228 496.434009 
L 672.399306 510.431271 
L 676.267153 509.719934 
L 680.135 511.532694 
L 680.135 511.532694 
" style="fill:none;stroke:#008000;stroke-linecap:square;stroke-width:1.5;"/>
   </g>
   <g id="patch_18">
    <path d="M 69.77 536.2 
L 69.77 452.4 
" style="fill:none;stroke:#000000;stroke-linecap:square;stroke-linejoin:miter;stroke-width:0.8;"/>
   </g>
   <g id="patch_19">
    <path d="M 709.2 536.2 
L 709.2 452.4 
" style="fill:none;stroke:#000000;stroke-linecap:square;stroke-linejoin:miter;stroke-width:0.8;"/>
   </g>
   <g id="patch_20">
    <path d="M 69.77 536.2 
L 709.2 536.2 
" style="fill:none;stroke:#000000;stroke-linecap:square;stroke-linejoin:miter;stroke-width:0.8;"/>
   </g>
   <g id="patch_21">
    <path d="M 69.77 452.4 
L 709.2 452.4 
" style="fill:none;stroke:#000000;stroke-linecap:square;stroke-linejoin:miter;stroke-width:0.8;"/>
   </g>
   <g id="text_55">
    <!-- Services loans over time -->
    <defs>
     <path d="M 53.515625 70.515625 
L 53.515625 60.890625 
Q 47.90625 63.578125 42.921875 64.890625 
Q 37.9375 66.21875 33.296875 66.21875 
Q 25.25 66.21875 20.875 63.09375 
Q 16.5 59.96875 16.5 54.203125 
Q 16.5 49.359375 19.40625 46.890625 
Q 22.3125 44.4375 30.421875 42.921875 
L 36.375 41.703125 
Q 47.40625 39.59375 52.65625 34.296875 
Q 57.90625 29 57.90625 20.125 
Q 57.90625 9.515625 50.796875 4.046875 
Q 43.703125 -1.421875 29.984375 -1.421875 
Q 24.8125 -1.421875 18.96875 -0.25 
Q 13.140625 0.921875 6.890625 3.21875 
L 6.890625 13.375 
Q 12.890625 10.015625 18.65625 8.296875 
Q 24.421875 6.59375 29.984375 6.59375 
Q 38.421875 6.59375 43.015625 9.90625 
Q 47.609375 13.234375 47.609375 19.390625 
Q 47.609375 24.75 44.3125 27.78125 
Q 41.015625 30.8125 33.5 32.328125 
L 27.484375 33.5 
Q 16.453125 35.6875 11.515625 40.375 
Q 6.59375 45.0625 6.59375 53.421875 
Q 6.59375 63.09375 13.40625 68.65625 
Q 20.21875 74.21875 32.171875 74.21875 
Q 37.3125 74.21875 42.625 73.28125 
Q 47.953125 72.359375 53.515625 70.515625 
z
" id="DejaVuSans-83"/>
    </defs>
    <g transform="translate(315.582813 446.4)scale(0.12 -0.12)">
     <use xlink:href="#DejaVuSans-83"/>
     <use x="63.476562" xlink:href="#DejaVuSans-101"/>
     <use x="125" xlink:href="#DejaVuSans-114"/>
     <use x="166.113281" xlink:href="#DejaVuSans-118"/>
     <use x="225.292969" xlink:href="#DejaVuSans-105"/>
     <use x="253.076172" xlink:href="#DejaVuSans-99"/>
     <use x="308.056641" xlink:href="#DejaVuSans-101"/>
     <use x="369.580078" xlink:href="#DejaVuSans-115"/>
     <use x="421.679688" xlink:href="#DejaVuSans-32"/>
     <use x="453.466797" xlink:href="#DejaVuSans-108"/>
     <use x="481.25" xlink:href="#DejaVuSans-111"/>
     <use x="542.431641" xlink:href="#DejaVuSans-97"/>
     <use x="603.710938" xlink:href="#DejaVuSans-110"/>
     <use x="667.089844" xlink:href="#DejaVuSans-115"/>
     <use x="719.189453" xlink:href="#DejaVuSans-32"/>
     <use x="750.976562" xlink:href="#DejaVuSans-111"/>
     <use x="812.158203" xlink:href="#DejaVuSans-118"/>
     <use x="871.337891" xlink:href="#DejaVuSans-101"/>
     <use x="932.861328" xlink:href="#DejaVuSans-114"/>
     <use x="973.974609" xlink:href="#DejaVuSans-32"/>
     <use x="1005.761719" xlink:href="#DejaVuSans-116"/>
     <use x="1044.970703" xlink:href="#DejaVuSans-105"/>
     <use x="1072.753906" xlink:href="#DejaVuSans-109"/>
     <use x="1170.166016" xlink:href="#DejaVuSans-101"/>
    </g>
   </g>
  </g>
  <g id="axes_5">
   <g id="patch_22">
    <path d="M 69.77 678.04 
L 709.2 678.04 
L 709.2 594.24 
L 69.77 594.24 
z
" style="fill:#ffffff;"/>
   </g>
   <g id="matplotlib.axis_9">
    <g id="xtick_29">
     <g id="line2d_48">
      <g>
       <use style="stroke:#000000;stroke-width:0.8;" x="157.790637" xlink:href="#m32209fd7c3" y="678.04"/>
      </g>
     </g>
     <g id="text_56">
      <!-- 2008 -->
      <g transform="translate(145.065637 692.638438)scale(0.1 -0.1)">
       <use xlink:href="#DejaVuSans-50"/>
       <use x="63.623047" xlink:href="#DejaVuSans-48"/>
       <use x="127.246094" xlink:href="#DejaVuSans-48"/>
       <use x="190.869141" xlink:href="#DejaVuSans-56"/>
      </g>
     </g>
    </g>
    <g id="xtick_30">
     <g id="line2d_49">
      <g>
       <use style="stroke:#000000;stroke-width:0.8;" x="252.093855" xlink:href="#m32209fd7c3" y="678.04"/>
      </g>
     </g>
     <g id="text_57">
      <!-- 2010 -->
      <g transform="translate(239.368855 692.638438)scale(0.1 -0.1)">
       <use xlink:href="#DejaVuSans-50"/>
       <use x="63.623047" xlink:href="#DejaVuSans-48"/>
       <use x="127.246094" xlink:href="#DejaVuSans-49"/>
       <use x="190.869141" xlink:href="#DejaVuSans-48"/>
      </g>
     </g>
    </g>
    <g id="xtick_31">
     <g id="line2d_50">
      <g>
       <use style="stroke:#000000;stroke-width:0.8;" x="346.268067" xlink:href="#m32209fd7c3" y="678.04"/>
      </g>
     </g>
     <g id="text_58">
      <!-- 2012 -->
      <g transform="translate(333.543067 692.638438)scale(0.1 -0.1)">
       <use xlink:href="#DejaVuSans-50"/>
       <use x="63.623047" xlink:href="#DejaVuSans-48"/>
       <use x="127.246094" xlink:href="#DejaVuSans-49"/>
       <use x="190.869141" xlink:href="#DejaVuSans-50"/>
      </g>
     </g>
    </g>
    <g id="xtick_32">
     <g id="line2d_51">
      <g>
       <use style="stroke:#000000;stroke-width:0.8;" x="440.571285" xlink:href="#m32209fd7c3" y="678.04"/>
      </g>
     </g>
     <g id="text_59">
      <!-- 2014 -->
      <g transform="translate(427.846285 692.638438)scale(0.1 -0.1)">
       <use xlink:href="#DejaVuSans-50"/>
       <use x="63.623047" xlink:href="#DejaVuSans-48"/>
       <use x="127.246094" xlink:href="#DejaVuSans-49"/>
       <use x="190.869141" xlink:href="#DejaVuSans-52"/>
      </g>
     </g>
    </g>
    <g id="xtick_33">
     <g id="line2d_52">
      <g>
       <use style="stroke:#000000;stroke-width:0.8;" x="534.745497" xlink:href="#m32209fd7c3" y="678.04"/>
      </g>
     </g>
     <g id="text_60">
      <!-- 2016 -->
      <g transform="translate(522.020497 692.638438)scale(0.1 -0.1)">
       <use xlink:href="#DejaVuSans-50"/>
       <use x="63.623047" xlink:href="#DejaVuSans-48"/>
       <use x="127.246094" xlink:href="#DejaVuSans-49"/>
       <use x="190.869141" xlink:href="#DejaVuSans-54"/>
      </g>
     </g>
    </g>
    <g id="xtick_34">
     <g id="line2d_53">
      <g>
       <use style="stroke:#000000;stroke-width:0.8;" x="629.048715" xlink:href="#m32209fd7c3" y="678.04"/>
      </g>
     </g>
     <g id="text_61">
      <!-- 2018 -->
      <g transform="translate(616.323715 692.638438)scale(0.1 -0.1)">
       <use xlink:href="#DejaVuSans-50"/>
       <use x="63.623047" xlink:href="#DejaVuSans-48"/>
       <use x="127.246094" xlink:href="#DejaVuSans-49"/>
       <use x="190.869141" xlink:href="#DejaVuSans-56"/>
      </g>
     </g>
    </g>
    <g id="text_62">
     <!-- Date -->
     <g transform="translate(377.534219 706.316563)scale(0.1 -0.1)">
      <use xlink:href="#DejaVuSans-68"/>
      <use x="77.001953" xlink:href="#DejaVuSans-97"/>
      <use x="138.28125" xlink:href="#DejaVuSans-116"/>
      <use x="177.490234" xlink:href="#DejaVuSans-101"/>
     </g>
    </g>
   </g>
   <g id="matplotlib.axis_10">
    <g id="ytick_16">
     <g id="line2d_54">
      <g>
       <use style="stroke:#000000;stroke-width:0.8;" x="69.77" xlink:href="#ma3241fbf63" y="674.543899"/>
      </g>
     </g>
     <g id="text_63">
      <!-- 0 -->
      <g transform="translate(56.4075 678.343118)scale(0.1 -0.1)">
       <use xlink:href="#DejaVuSans-48"/>
      </g>
     </g>
    </g>
    <g id="ytick_17">
     <g id="line2d_55">
      <g>
       <use style="stroke:#000000;stroke-width:0.8;" x="69.77" xlink:href="#ma3241fbf63" y="649.504682"/>
      </g>
     </g>
     <g id="text_64">
      <!-- 20000 -->
      <g transform="translate(30.9575 653.303901)scale(0.1 -0.1)">
       <use xlink:href="#DejaVuSans-50"/>
       <use x="63.623047" xlink:href="#DejaVuSans-48"/>
       <use x="127.246094" xlink:href="#DejaVuSans-48"/>
       <use x="190.869141" xlink:href="#DejaVuSans-48"/>
       <use x="254.492188" xlink:href="#DejaVuSans-48"/>
      </g>
     </g>
    </g>
    <g id="ytick_18">
     <g id="line2d_56">
      <g>
       <use style="stroke:#000000;stroke-width:0.8;" x="69.77" xlink:href="#ma3241fbf63" y="624.465465"/>
      </g>
     </g>
     <g id="text_65">
      <!-- 40000 -->
      <g transform="translate(30.9575 628.264684)scale(0.1 -0.1)">
       <use xlink:href="#DejaVuSans-52"/>
       <use x="63.623047" xlink:href="#DejaVuSans-48"/>
       <use x="127.246094" xlink:href="#DejaVuSans-48"/>
       <use x="190.869141" xlink:href="#DejaVuSans-48"/>
       <use x="254.492188" xlink:href="#DejaVuSans-48"/>
      </g>
     </g>
    </g>
    <g id="ytick_19">
     <g id="line2d_57">
      <g>
       <use style="stroke:#000000;stroke-width:0.8;" x="69.77" xlink:href="#ma3241fbf63" y="599.426248"/>
      </g>
     </g>
     <g id="text_66">
      <!-- 60000 -->
      <g transform="translate(30.9575 603.225467)scale(0.1 -0.1)">
       <use xlink:href="#DejaVuSans-54"/>
       <use x="63.623047" xlink:href="#DejaVuSans-48"/>
       <use x="127.246094" xlink:href="#DejaVuSans-48"/>
       <use x="190.869141" xlink:href="#DejaVuSans-48"/>
       <use x="254.492188" xlink:href="#DejaVuSans-48"/>
      </g>
     </g>
    </g>
    <g id="text_67">
     <!-- Loan Amount -->
     <g transform="translate(24.877813 669.367344)rotate(-90)scale(0.1 -0.1)">
      <use xlink:href="#DejaVuSans-76"/>
      <use x="53.962891" xlink:href="#DejaVuSans-111"/>
      <use x="115.144531" xlink:href="#DejaVuSans-97"/>
      <use x="176.423828" xlink:href="#DejaVuSans-110"/>
      <use x="239.802734" xlink:href="#DejaVuSans-32"/>
      <use x="271.589844" xlink:href="#DejaVuSans-65"/>
      <use x="339.998047" xlink:href="#DejaVuSans-109"/>
      <use x="437.410156" xlink:href="#DejaVuSans-111"/>
      <use x="498.591797" xlink:href="#DejaVuSans-117"/>
      <use x="561.970703" xlink:href="#DejaVuSans-110"/>
      <use x="625.349609" xlink:href="#DejaVuSans-116"/>
     </g>
    </g>
   </g>
   <g id="line2d_58">
    <path clip-path="url(#pdced2a2070)" d="M 98.835 674.230909 
L 102.834179 672.259071 
L 106.704352 669.504757 
L 110.703531 667.345124 
L 114.70271 669.849046 
L 118.314871 671.97738 
L 122.31405 668.44059 
L 126.184223 670.443727 
L 130.183402 662.963261 
L 134.053575 670.537625 
L 138.052754 669.348262 
L 142.051933 668.033703 
L 145.922106 664.653409 
L 149.921285 667.501619 
L 153.791458 665.185492 
L 157.790637 659.927256 
L 161.789816 657.861521 
L 165.530983 670.537625 
L 169.530162 672.29037 
L 173.400335 668.597085 
L 177.399514 670.600223 
L 181.269687 674.011816 
L 185.268866 672.947649 
L 189.268045 673.792723 
L 193.138218 672.165174 
L 197.137397 674.105713 
L 209.005928 670.631522 
L 212.618089 661.961693 
L 216.617268 654.512526 
L 220.487441 654.637722 
L 224.48662 665.310688 
L 228.356793 661.273114 
L 232.355972 655.858384 
L 236.355151 645.905295 
L 240.225324 632.791005 
L 244.224503 644.622035 
L 248.094676 634.794142 
L 252.093855 651.883408 
L 256.093034 647.032059 
L 259.705195 663.808335 
L 267.574547 673.57363 
L 271.573726 660.897526 
L 275.443899 659.269977 
L 279.443078 662.431178 
L 283.442257 666.124463 
L 287.31243 655.670589 
L 291.311609 634.85674 
L 295.181782 640.30277 
L 299.180961 649.379486 
L 303.18014 655.107207 
L 306.792301 671.194904 
L 310.79148 664.903801 
L 314.661653 664.058727 
L 318.660832 669.066571 
L 322.531005 642.462402 
L 326.530184 642.337206 
L 330.529363 666.374855 
L 338.398715 669.880345 
L 342.268888 626.468602 
L 346.268067 614.418479 
L 350.267246 644.528138 
L 354.008413 602.024067 
L 358.007592 640.647059 
L 361.877765 649.692476 
L 365.876944 666.719144 
L 369.747117 668.065002 
L 373.746296 670.756718 
L 377.745475 654.449928 
L 381.615648 666.21836 
L 389.485 648.002329 
L 393.484179 628.878627 
L 397.483358 623.150906 
L 401.095519 626.312107 
L 405.094698 639.833285 
L 408.964871 632.415416 
L 412.96405 652.728481 
L 416.834223 618.299558 
L 420.833402 628.346544 
L 424.832581 633.949068 
L 428.702754 640.897451 
L 432.701933 650.036766 
L 436.572106 666.562649 
L 440.571285 646.812966 
L 444.570464 651.194829 
L 448.182625 664.058727 
L 452.181804 673.448434 
L 456.051977 664.778605 
L 460.051156 673.792723 
L 467.920508 668.409291 
L 471.919687 658.049315 
L 475.78986 661.304413 
L 479.789039 656.985148 
L 483.659212 658.174511 
L 487.658391 641.58603 
L 491.65757 637.047672 
L 495.269731 639.676789 
L 499.26891 661.648702 
L 503.139083 668.221497 
L 507.138262 656.233972 
L 511.008435 654.168236 
L 515.007614 643.620466 
L 519.006793 668.315394 
L 522.876966 671.539193 
L 526.876145 660.897526 
L 530.746318 644.027353 
L 534.745497 661.241815 
L 538.744676 658.456202 
L 542.485843 639.708088 
L 546.485022 648.503113 
L 550.355195 641.053946 
L 554.354374 665.623678 
L 558.224547 653.479658 
L 562.223726 653.636153 
L 566.222905 647.626741 
L 570.093078 659.520369 
L 574.092257 652.509388 
L 577.96243 650.600148 
L 581.961609 664.496913 
L 585.960788 665.216791 
L 589.572949 654.982011 
L 593.572128 665.717575 
L 597.442301 648.377917 
L 601.44148 652.44679 
L 605.311653 652.853677 
L 609.310832 648.346618 
L 613.310011 663.151056 
L 617.180184 632.446715 
L 621.179363 605.999042 
L 625.049536 598.049091 
L 633.047894 657.548531 
L 636.660055 603.307327 
L 640.659234 635.733113 
L 644.529407 640.61576 
L 648.528586 605.999042 
L 652.398759 638.205735 
L 656.397938 635.263627 
L 660.397117 624.246372 
L 664.26729 607.751788 
L 668.266469 613.010023 
L 672.136642 625.028847 
L 676.135821 654.262133 
L 680.135 655.701888 
L 680.135 655.701888 
" style="fill:none;stroke:#ffff00;stroke-linecap:square;stroke-width:1.5;"/>
   </g>
   <g id="patch_23">
    <path d="M 69.77 678.04 
L 69.77 594.24 
" style="fill:none;stroke:#000000;stroke-linecap:square;stroke-linejoin:miter;stroke-width:0.8;"/>
   </g>
   <g id="patch_24">
    <path d="M 709.2 678.04 
L 709.2 594.24 
" style="fill:none;stroke:#000000;stroke-linecap:square;stroke-linejoin:miter;stroke-width:0.8;"/>
   </g>
   <g id="patch_25">
    <path d="M 69.77 678.04 
L 709.2 678.04 
" style="fill:none;stroke:#000000;stroke-linecap:square;stroke-linejoin:miter;stroke-width:0.8;"/>
   </g>
   <g id="patch_26">
    <path d="M 69.77 594.24 
L 709.2 594.24 
" style="fill:none;stroke:#000000;stroke-linecap:square;stroke-linejoin:miter;stroke-width:0.8;"/>
   </g>
   <g id="text_68">
    <!-- Clothing loans over time -->
    <defs>
     <path d="M 64.40625 67.28125 
L 64.40625 56.890625 
Q 59.421875 61.53125 53.78125 63.8125 
Q 48.140625 66.109375 41.796875 66.109375 
Q 29.296875 66.109375 22.65625 58.46875 
Q 16.015625 50.828125 16.015625 36.375 
Q 16.015625 21.96875 22.65625 14.328125 
Q 29.296875 6.6875 41.796875 6.6875 
Q 48.140625 6.6875 53.78125 8.984375 
Q 59.421875 11.28125 64.40625 15.921875 
L 64.40625 5.609375 
Q 59.234375 2.09375 53.4375 0.328125 
Q 47.65625 -1.421875 41.21875 -1.421875 
Q 24.65625 -1.421875 15.125 8.703125 
Q 5.609375 18.84375 5.609375 36.375 
Q 5.609375 53.953125 15.125 64.078125 
Q 24.65625 74.21875 41.21875 74.21875 
Q 47.75 74.21875 53.53125 72.484375 
Q 59.328125 70.75 64.40625 67.28125 
z
" id="DejaVuSans-67"/>
     <path d="M 54.890625 33.015625 
L 54.890625 0 
L 45.90625 0 
L 45.90625 32.71875 
Q 45.90625 40.484375 42.875 44.328125 
Q 39.84375 48.1875 33.796875 48.1875 
Q 26.515625 48.1875 22.3125 43.546875 
Q 18.109375 38.921875 18.109375 30.90625 
L 18.109375 0 
L 9.078125 0 
L 9.078125 75.984375 
L 18.109375 75.984375 
L 18.109375 46.1875 
Q 21.34375 51.125 25.703125 53.5625 
Q 30.078125 56 35.796875 56 
Q 45.21875 56 50.046875 50.171875 
Q 54.890625 44.34375 54.890625 33.015625 
z
" id="DejaVuSans-104"/>
    </defs>
    <g transform="translate(315.924062 588.24)scale(0.12 -0.12)">
     <use xlink:href="#DejaVuSans-67"/>
     <use x="69.824219" xlink:href="#DejaVuSans-108"/>
     <use x="97.607422" xlink:href="#DejaVuSans-111"/>
     <use x="158.789062" xlink:href="#DejaVuSans-116"/>
     <use x="197.998047" xlink:href="#DejaVuSans-104"/>
     <use x="261.376953" xlink:href="#DejaVuSans-105"/>
     <use x="289.160156" xlink:href="#DejaVuSans-110"/>
     <use x="352.539062" xlink:href="#DejaVuSans-103"/>
     <use x="416.015625" xlink:href="#DejaVuSans-32"/>
     <use x="447.802734" xlink:href="#DejaVuSans-108"/>
     <use x="475.585938" xlink:href="#DejaVuSans-111"/>
     <use x="536.767578" xlink:href="#DejaVuSans-97"/>
     <use x="598.046875" xlink:href="#DejaVuSans-110"/>
     <use x="661.425781" xlink:href="#DejaVuSans-115"/>
     <use x="713.525391" xlink:href="#DejaVuSans-32"/>
     <use x="745.3125" xlink:href="#DejaVuSans-111"/>
     <use x="806.494141" xlink:href="#DejaVuSans-118"/>
     <use x="865.673828" xlink:href="#DejaVuSans-101"/>
     <use x="927.197266" xlink:href="#DejaVuSans-114"/>
     <use x="968.310547" xlink:href="#DejaVuSans-32"/>
     <use x="1000.097656" xlink:href="#DejaVuSans-116"/>
     <use x="1039.306641" xlink:href="#DejaVuSans-105"/>
     <use x="1067.089844" xlink:href="#DejaVuSans-109"/>
     <use x="1164.501953" xlink:href="#DejaVuSans-101"/>
    </g>
   </g>
  </g>
 </g>
 <defs>
  <clipPath id="pb95c94367b">
   <rect height="83.8" width="639.43" x="69.77" y="26.88"/>
  </clipPath>
  <clipPath id="p8e7524ef2f">
   <rect height="83.8" width="639.43" x="69.77" y="168.72"/>
  </clipPath>
  <clipPath id="p99ff309ac9">
   <rect height="83.8" width="639.43" x="69.77" y="310.56"/>
  </clipPath>
  <clipPath id="p7c63d7dd0a">
   <rect height="83.8" width="639.43" x="69.77" y="452.4"/>
  </clipPath>
  <clipPath id="pdced2a2070">
   <rect height="83.8" width="639.43" x="69.77" y="594.24"/>
  </clipPath>
 </defs>
</svg>
