<?xml version="1.0" encoding="utf-8" standalone="no"?>
<!DOCTYPE svg PUBLIC "-//W3C//DTD SVG 1.1//EN"
  "http://www.w3.org/Graphics/SVG/1.1/DTD/svg11.dtd">
<!-- Created with matplotlib (https://matplotlib.org/) -->
<svg height="720pt" version="1.1" viewBox="0 0 720 720" width="720pt" xmlns="http://www.w3.org/2000/svg" xmlns:xlink="http://www.w3.org/1999/xlink">
 <defs>
  <style type="text/css">
*{stroke-linecap:butt;stroke-linejoin:round;}
  </style>
 </defs>
 <g id="figure_1">
  <g id="patch_1">
   <path d="M 0 720 
L 720 720 
L 720 0 
L 0 0 
z
" style="fill:#ffffff;"/>
  </g>
  <g id="axes_1">
   <g id="patch_2">
    <path d="M 63.47 110.68 
L 709.2 110.68 
L 709.2 26.88 
L 63.47 26.88 
z
" style="fill:#ffffff;"/>
   </g>
   <g id="matplotlib.axis_1">
    <g id="xtick_1">
     <g id="line2d_1">
      <defs>
       <path d="M 0 0 
L 0 3.5 
" id="m5df532ff56" style="stroke:#000000;stroke-width:0.8;"/>
      </defs>
      <g>
       <use style="stroke:#000000;stroke-width:0.8;" x="146.508962" xlink:href="#m5df532ff56" y="110.68"/>
      </g>
     </g>
     <g id="text_1">
      <!-- 2010 -->
      <defs>
       <path d="M 19.1875 8.296875 
L 53.609375 8.296875 
L 53.609375 0 
L 7.328125 0 
L 7.328125 8.296875 
Q 12.9375 14.109375 22.625 23.890625 
Q 32.328125 33.6875 34.8125 36.53125 
Q 39.546875 41.84375 41.421875 45.53125 
Q 43.3125 49.21875 43.3125 52.78125 
Q 43.3125 58.59375 39.234375 62.25 
Q 35.15625 65.921875 28.609375 65.921875 
Q 23.96875 65.921875 18.8125 64.3125 
Q 13.671875 62.703125 7.8125 59.421875 
L 7.8125 69.390625 
Q 13.765625 71.78125 18.9375 73 
Q 24.125 74.21875 28.421875 74.21875 
Q 39.75 74.21875 46.484375 68.546875 
Q 53.21875 62.890625 53.21875 53.421875 
Q 53.21875 48.921875 51.53125 44.890625 
Q 49.859375 40.875 45.40625 35.40625 
Q 44.1875 33.984375 37.640625 27.21875 
Q 31.109375 20.453125 19.1875 8.296875 
z
" id="DejaVuSans-50"/>
       <path d="M 31.78125 66.40625 
Q 24.171875 66.40625 20.328125 58.90625 
Q 16.5 51.421875 16.5 36.375 
Q 16.5 21.390625 20.328125 13.890625 
Q 24.171875 6.390625 31.78125 6.390625 
Q 39.453125 6.390625 43.28125 13.890625 
Q 47.125 21.390625 47.125 36.375 
Q 47.125 51.421875 43.28125 58.90625 
Q 39.453125 66.40625 31.78125 66.40625 
z
M 31.78125 74.21875 
Q 44.046875 74.21875 50.515625 64.515625 
Q 56.984375 54.828125 56.984375 36.375 
Q 56.984375 17.96875 50.515625 8.265625 
Q 44.046875 -1.421875 31.78125 -1.421875 
Q 19.53125 -1.421875 13.0625 8.265625 
Q 6.59375 17.96875 6.59375 36.375 
Q 6.59375 54.828125 13.0625 64.515625 
Q 19.53125 74.21875 31.78125 74.21875 
z
" id="DejaVuSans-48"/>
       <path d="M 12.40625 8.296875 
L 28.515625 8.296875 
L 28.515625 63.921875 
L 10.984375 60.40625 
L 10.984375 69.390625 
L 28.421875 72.90625 
L 38.28125 72.90625 
L 38.28125 8.296875 
L 54.390625 8.296875 
L 54.390625 0 
L 12.40625 0 
z
" id="DejaVuSans-49"/>
      </defs>
      <g transform="translate(133.783962 125.278438)scale(0.1 -0.1)">
       <use xlink:href="#DejaVuSans-50"/>
       <use x="63.623047" xlink:href="#DejaVuSans-48"/>
       <use x="127.246094" xlink:href="#DejaVuSans-49"/>
       <use x="190.869141" xlink:href="#DejaVuSans-48"/>
      </g>
     </g>
    </g>
    <g id="xtick_2">
     <g id="line2d_2">
      <g>
       <use style="stroke:#000000;stroke-width:0.8;" x="263.85012" xlink:href="#m5df532ff56" y="110.68"/>
      </g>
     </g>
     <g id="text_2">
      <!-- 2012 -->
      <g transform="translate(251.12512 125.278438)scale(0.1 -0.1)">
       <use xlink:href="#DejaVuSans-50"/>
       <use x="63.623047" xlink:href="#DejaVuSans-48"/>
       <use x="127.246094" xlink:href="#DejaVuSans-49"/>
       <use x="190.869141" xlink:href="#DejaVuSans-50"/>
      </g>
     </g>
    </g>
    <g id="xtick_3">
     <g id="line2d_3">
      <g>
       <use style="stroke:#000000;stroke-width:0.8;" x="381.352019" xlink:href="#m5df532ff56" y="110.68"/>
      </g>
     </g>
     <g id="text_3">
      <!-- 2014 -->
      <defs>
       <path d="M 37.796875 64.3125 
L 12.890625 25.390625 
L 37.796875 25.390625 
z
M 35.203125 72.90625 
L 47.609375 72.90625 
L 47.609375 25.390625 
L 58.015625 25.390625 
L 58.015625 17.1875 
L 47.609375 17.1875 
L 47.609375 0 
L 37.796875 0 
L 37.796875 17.1875 
L 4.890625 17.1875 
L 4.890625 26.703125 
z
" id="DejaVuSans-52"/>
      </defs>
      <g transform="translate(368.627019 125.278438)scale(0.1 -0.1)">
       <use xlink:href="#DejaVuSans-50"/>
       <use x="63.623047" xlink:href="#DejaVuSans-48"/>
       <use x="127.246094" xlink:href="#DejaVuSans-49"/>
       <use x="190.869141" xlink:href="#DejaVuSans-52"/>
      </g>
     </g>
    </g>
    <g id="xtick_4">
     <g id="line2d_4">
      <g>
       <use style="stroke:#000000;stroke-width:0.8;" x="498.693177" xlink:href="#m5df532ff56" y="110.68"/>
      </g>
     </g>
     <g id="text_4">
      <!-- 2016 -->
      <defs>
       <path d="M 33.015625 40.375 
Q 26.375 40.375 22.484375 35.828125 
Q 18.609375 31.296875 18.609375 23.390625 
Q 18.609375 15.53125 22.484375 10.953125 
Q 26.375 6.390625 33.015625 6.390625 
Q 39.65625 6.390625 43.53125 10.953125 
Q 47.40625 15.53125 47.40625 23.390625 
Q 47.40625 31.296875 43.53125 35.828125 
Q 39.65625 40.375 33.015625 40.375 
z
M 52.59375 71.296875 
L 52.59375 62.3125 
Q 48.875 64.0625 45.09375 64.984375 
Q 41.3125 65.921875 37.59375 65.921875 
Q 27.828125 65.921875 22.671875 59.328125 
Q 17.53125 52.734375 16.796875 39.40625 
Q 19.671875 43.65625 24.015625 45.921875 
Q 28.375 48.1875 33.59375 48.1875 
Q 44.578125 48.1875 50.953125 41.515625 
Q 57.328125 34.859375 57.328125 23.390625 
Q 57.328125 12.15625 50.6875 5.359375 
Q 44.046875 -1.421875 33.015625 -1.421875 
Q 20.359375 -1.421875 13.671875 8.265625 
Q 6.984375 17.96875 6.984375 36.375 
Q 6.984375 53.65625 15.1875 63.9375 
Q 23.390625 74.21875 37.203125 74.21875 
Q 40.921875 74.21875 44.703125 73.484375 
Q 48.484375 72.75 52.59375 71.296875 
z
" id="DejaVuSans-54"/>
      </defs>
      <g transform="translate(485.968177 125.278438)scale(0.1 -0.1)">
       <use xlink:href="#DejaVuSans-50"/>
       <use x="63.623047" xlink:href="#DejaVuSans-48"/>
       <use x="127.246094" xlink:href="#DejaVuSans-49"/>
       <use x="190.869141" xlink:href="#DejaVuSans-54"/>
      </g>
     </g>
    </g>
    <g id="xtick_5">
     <g id="line2d_5">
      <g>
       <use style="stroke:#000000;stroke-width:0.8;" x="616.195077" xlink:href="#m5df532ff56" y="110.68"/>
      </g>
     </g>
     <g id="text_5">
      <!-- 2018 -->
      <defs>
       <path d="M 31.78125 34.625 
Q 24.75 34.625 20.71875 30.859375 
Q 16.703125 27.09375 16.703125 20.515625 
Q 16.703125 13.921875 20.71875 10.15625 
Q 24.75 6.390625 31.78125 6.390625 
Q 38.8125 6.390625 42.859375 10.171875 
Q 46.921875 13.96875 46.921875 20.515625 
Q 46.921875 27.09375 42.890625 30.859375 
Q 38.875 34.625 31.78125 34.625 
z
M 21.921875 38.8125 
Q 15.578125 40.375 12.03125 44.71875 
Q 8.5 49.078125 8.5 55.328125 
Q 8.5 64.0625 14.71875 69.140625 
Q 20.953125 74.21875 31.78125 74.21875 
Q 42.671875 74.21875 48.875 69.140625 
Q 55.078125 64.0625 55.078125 55.328125 
Q 55.078125 49.078125 51.53125 44.71875 
Q 48 40.375 41.703125 38.8125 
Q 48.828125 37.15625 52.796875 32.3125 
Q 56.78125 27.484375 56.78125 20.515625 
Q 56.78125 9.90625 50.3125 4.234375 
Q 43.84375 -1.421875 31.78125 -1.421875 
Q 19.734375 -1.421875 13.25 4.234375 
Q 6.78125 9.90625 6.78125 20.515625 
Q 6.78125 27.484375 10.78125 32.3125 
Q 14.796875 37.15625 21.921875 38.8125 
z
M 18.3125 54.390625 
Q 18.3125 48.734375 21.84375 45.5625 
Q 25.390625 42.390625 31.78125 42.390625 
Q 38.140625 42.390625 41.71875 45.5625 
Q 45.3125 48.734375 45.3125 54.390625 
Q 45.3125 60.0625 41.71875 63.234375 
Q 38.140625 66.40625 31.78125 66.40625 
Q 25.390625 66.40625 21.84375 63.234375 
Q 18.3125 60.0625 18.3125 54.390625 
z
" id="DejaVuSans-56"/>
      </defs>
      <g transform="translate(603.470077 125.278438)scale(0.1 -0.1)">
       <use xlink:href="#DejaVuSans-50"/>
       <use x="63.623047" xlink:href="#DejaVuSans-48"/>
       <use x="127.246094" xlink:href="#DejaVuSans-49"/>
       <use x="190.869141" xlink:href="#DejaVuSans-56"/>
      </g>
     </g>
    </g>
    <g id="text_6">
     <!-- Date -->
     <defs>
      <path d="M 19.671875 64.796875 
L 19.671875 8.109375 
L 31.59375 8.109375 
Q 46.6875 8.109375 53.6875 14.9375 
Q 60.6875 21.78125 60.6875 36.53125 
Q 60.6875 51.171875 53.6875 57.984375 
Q 46.6875 64.796875 31.59375 64.796875 
z
M 9.8125 72.90625 
L 30.078125 72.90625 
Q 51.265625 72.90625 61.171875 64.09375 
Q 71.09375 55.28125 71.09375 36.53125 
Q 71.09375 17.671875 61.125 8.828125 
Q 51.171875 0 30.078125 0 
L 9.8125 0 
z
" id="DejaVuSans-68"/>
      <path d="M 34.28125 27.484375 
Q 23.390625 27.484375 19.1875 25 
Q 14.984375 22.515625 14.984375 16.5 
Q 14.984375 11.71875 18.140625 8.90625 
Q 21.296875 6.109375 26.703125 6.109375 
Q 34.1875 6.109375 38.703125 11.40625 
Q 43.21875 16.703125 43.21875 25.484375 
L 43.21875 27.484375 
z
M 52.203125 31.203125 
L 52.203125 0 
L 43.21875 0 
L 43.21875 8.296875 
Q 40.140625 3.328125 35.546875 0.953125 
Q 30.953125 -1.421875 24.3125 -1.421875 
Q 15.921875 -1.421875 10.953125 3.296875 
Q 6 8.015625 6 15.921875 
Q 6 25.140625 12.171875 29.828125 
Q 18.359375 34.515625 30.609375 34.515625 
L 43.21875 34.515625 
L 43.21875 35.40625 
Q 43.21875 41.609375 39.140625 45 
Q 35.0625 48.390625 27.6875 48.390625 
Q 23 48.390625 18.546875 47.265625 
Q 14.109375 46.140625 10.015625 43.890625 
L 10.015625 52.203125 
Q 14.9375 54.109375 19.578125 55.046875 
Q 24.21875 56 28.609375 56 
Q 40.484375 56 46.34375 49.84375 
Q 52.203125 43.703125 52.203125 31.203125 
z
" id="DejaVuSans-97"/>
      <path d="M 18.3125 70.21875 
L 18.3125 54.6875 
L 36.8125 54.6875 
L 36.8125 47.703125 
L 18.3125 47.703125 
L 18.3125 18.015625 
Q 18.3125 11.328125 20.140625 9.421875 
Q 21.96875 7.515625 27.59375 7.515625 
L 36.8125 7.515625 
L 36.8125 0 
L 27.59375 0 
Q 17.1875 0 13.234375 3.875 
Q 9.28125 7.765625 9.28125 18.015625 
L 9.28125 47.703125 
L 2.6875 47.703125 
L 2.6875 54.6875 
L 9.28125 54.6875 
L 9.28125 70.21875 
z
" id="DejaVuSans-116"/>
      <path d="M 56.203125 29.59375 
L 56.203125 25.203125 
L 14.890625 25.203125 
Q 15.484375 15.921875 20.484375 11.0625 
Q 25.484375 6.203125 34.421875 6.203125 
Q 39.59375 6.203125 44.453125 7.46875 
Q 49.3125 8.734375 54.109375 11.28125 
L 54.109375 2.78125 
Q 49.265625 0.734375 44.1875 -0.34375 
Q 39.109375 -1.421875 33.890625 -1.421875 
Q 20.796875 -1.421875 13.15625 6.1875 
Q 5.515625 13.8125 5.515625 26.8125 
Q 5.515625 40.234375 12.765625 48.109375 
Q 20.015625 56 32.328125 56 
Q 43.359375 56 49.78125 48.890625 
Q 56.203125 41.796875 56.203125 29.59375 
z
M 47.21875 32.234375 
Q 47.125 39.59375 43.09375 43.984375 
Q 39.0625 48.390625 32.421875 48.390625 
Q 24.90625 48.390625 20.390625 44.140625 
Q 15.875 39.890625 15.1875 32.171875 
z
" id="DejaVuSans-101"/>
     </defs>
     <g transform="translate(374.384219 138.956563)scale(0.1 -0.1)">
      <use xlink:href="#DejaVuSans-68"/>
      <use x="77.001953" xlink:href="#DejaVuSans-97"/>
      <use x="138.28125" xlink:href="#DejaVuSans-116"/>
      <use x="177.490234" xlink:href="#DejaVuSans-101"/>
     </g>
    </g>
   </g>
   <g id="matplotlib.axis_2">
    <g id="ytick_1">
     <g id="line2d_6">
      <defs>
       <path d="M 0 0 
L -3.5 0 
" id="m794b5878d2" style="stroke:#000000;stroke-width:0.8;"/>
      </defs>
      <g>
       <use style="stroke:#000000;stroke-width:0.8;" x="63.47" xlink:href="#m794b5878d2" y="106.99442"/>
      </g>
     </g>
     <g id="text_7">
      <!-- 0 -->
      <g transform="translate(50.1075 110.793639)scale(0.1 -0.1)">
       <use xlink:href="#DejaVuSans-48"/>
      </g>
     </g>
    </g>
    <g id="ytick_2">
     <g id="line2d_7">
      <g>
       <use style="stroke:#000000;stroke-width:0.8;" x="63.47" xlink:href="#m794b5878d2" y="82.292145"/>
      </g>
     </g>
     <g id="text_8">
      <!-- 25000 -->
      <defs>
       <path d="M 10.796875 72.90625 
L 49.515625 72.90625 
L 49.515625 64.59375 
L 19.828125 64.59375 
L 19.828125 46.734375 
Q 21.96875 47.46875 24.109375 47.828125 
Q 26.265625 48.1875 28.421875 48.1875 
Q 40.625 48.1875 47.75 41.5 
Q 54.890625 34.8125 54.890625 23.390625 
Q 54.890625 11.625 47.5625 5.09375 
Q 40.234375 -1.421875 26.90625 -1.421875 
Q 22.3125 -1.421875 17.546875 -0.640625 
Q 12.796875 0.140625 7.71875 1.703125 
L 7.71875 11.625 
Q 12.109375 9.234375 16.796875 8.0625 
Q 21.484375 6.890625 26.703125 6.890625 
Q 35.15625 6.890625 40.078125 11.328125 
Q 45.015625 15.765625 45.015625 23.390625 
Q 45.015625 31 40.078125 35.4375 
Q 35.15625 39.890625 26.703125 39.890625 
Q 22.75 39.890625 18.8125 39.015625 
Q 14.890625 38.140625 10.796875 36.28125 
z
" id="DejaVuSans-53"/>
      </defs>
      <g transform="translate(24.6575 86.091364)scale(0.1 -0.1)">
       <use xlink:href="#DejaVuSans-50"/>
       <use x="63.623047" xlink:href="#DejaVuSans-53"/>
       <use x="127.246094" xlink:href="#DejaVuSans-48"/>
       <use x="190.869141" xlink:href="#DejaVuSans-48"/>
       <use x="254.492188" xlink:href="#DejaVuSans-48"/>
      </g>
     </g>
    </g>
    <g id="ytick_3">
     <g id="line2d_8">
      <g>
       <use style="stroke:#000000;stroke-width:0.8;" x="63.47" xlink:href="#m794b5878d2" y="57.589869"/>
      </g>
     </g>
     <g id="text_9">
      <!-- 50000 -->
      <g transform="translate(24.6575 61.389088)scale(0.1 -0.1)">
       <use xlink:href="#DejaVuSans-53"/>
       <use x="63.623047" xlink:href="#DejaVuSans-48"/>
       <use x="127.246094" xlink:href="#DejaVuSans-48"/>
       <use x="190.869141" xlink:href="#DejaVuSans-48"/>
       <use x="254.492188" xlink:href="#DejaVuSans-48"/>
      </g>
     </g>
    </g>
    <g id="ytick_4">
     <g id="line2d_9">
      <g>
       <use style="stroke:#000000;stroke-width:0.8;" x="63.47" xlink:href="#m794b5878d2" y="32.887593"/>
      </g>
     </g>
     <g id="text_10">
      <!-- 75000 -->
      <defs>
       <path d="M 8.203125 72.90625 
L 55.078125 72.90625 
L 55.078125 68.703125 
L 28.609375 0 
L 18.3125 0 
L 43.21875 64.59375 
L 8.203125 64.59375 
z
" id="DejaVuSans-55"/>
      </defs>
      <g transform="translate(24.6575 36.686812)scale(0.1 -0.1)">
       <use xlink:href="#DejaVuSans-55"/>
       <use x="63.623047" xlink:href="#DejaVuSans-53"/>
       <use x="127.246094" xlink:href="#DejaVuSans-48"/>
       <use x="190.869141" xlink:href="#DejaVuSans-48"/>
       <use x="254.492188" xlink:href="#DejaVuSans-48"/>
      </g>
     </g>
    </g>
    <g id="text_11">
     <!-- Loan Amount -->
     <defs>
      <path d="M 9.8125 72.90625 
L 19.671875 72.90625 
L 19.671875 8.296875 
L 55.171875 8.296875 
L 55.171875 0 
L 9.8125 0 
z
" id="DejaVuSans-76"/>
      <path d="M 30.609375 48.390625 
Q 23.390625 48.390625 19.1875 42.75 
Q 14.984375 37.109375 14.984375 27.296875 
Q 14.984375 17.484375 19.15625 11.84375 
Q 23.34375 6.203125 30.609375 6.203125 
Q 37.796875 6.203125 41.984375 11.859375 
Q 46.1875 17.53125 46.1875 27.296875 
Q 46.1875 37.015625 41.984375 42.703125 
Q 37.796875 48.390625 30.609375 48.390625 
z
M 30.609375 56 
Q 42.328125 56 49.015625 48.375 
Q 55.71875 40.765625 55.71875 27.296875 
Q 55.71875 13.875 49.015625 6.21875 
Q 42.328125 -1.421875 30.609375 -1.421875 
Q 18.84375 -1.421875 12.171875 6.21875 
Q 5.515625 13.875 5.515625 27.296875 
Q 5.515625 40.765625 12.171875 48.375 
Q 18.84375 56 30.609375 56 
z
" id="DejaVuSans-111"/>
      <path d="M 54.890625 33.015625 
L 54.890625 0 
L 45.90625 0 
L 45.90625 32.71875 
Q 45.90625 40.484375 42.875 44.328125 
Q 39.84375 48.1875 33.796875 48.1875 
Q 26.515625 48.1875 22.3125 43.546875 
Q 18.109375 38.921875 18.109375 30.90625 
L 18.109375 0 
L 9.078125 0 
L 9.078125 54.6875 
L 18.109375 54.6875 
L 18.109375 46.1875 
Q 21.34375 51.125 25.703125 53.5625 
Q 30.078125 56 35.796875 56 
Q 45.21875 56 50.046875 50.171875 
Q 54.890625 44.34375 54.890625 33.015625 
z
" id="DejaVuSans-110"/>
      <path id="DejaVuSans-32"/>
      <path d="M 34.1875 63.1875 
L 20.796875 26.90625 
L 47.609375 26.90625 
z
M 28.609375 72.90625 
L 39.796875 72.90625 
L 67.578125 0 
L 57.328125 0 
L 50.6875 18.703125 
L 17.828125 18.703125 
L 11.1875 0 
L 0.78125 0 
z
" id="DejaVuSans-65"/>
      <path d="M 52 44.1875 
Q 55.375 50.25 60.0625 53.125 
Q 64.75 56 71.09375 56 
Q 79.640625 56 84.28125 50.015625 
Q 88.921875 44.046875 88.921875 33.015625 
L 88.921875 0 
L 79.890625 0 
L 79.890625 32.71875 
Q 79.890625 40.578125 77.09375 44.375 
Q 74.3125 48.1875 68.609375 48.1875 
Q 61.625 48.1875 57.5625 43.546875 
Q 53.515625 38.921875 53.515625 30.90625 
L 53.515625 0 
L 44.484375 0 
L 44.484375 32.71875 
Q 44.484375 40.625 41.703125 44.40625 
Q 38.921875 48.1875 33.109375 48.1875 
Q 26.21875 48.1875 22.15625 43.53125 
Q 18.109375 38.875 18.109375 30.90625 
L 18.109375 0 
L 9.078125 0 
L 9.078125 54.6875 
L 18.109375 54.6875 
L 18.109375 46.1875 
Q 21.1875 51.21875 25.484375 53.609375 
Q 29.78125 56 35.6875 56 
Q 41.65625 56 45.828125 52.96875 
Q 50 49.953125 52 44.1875 
z
" id="DejaVuSans-109"/>
      <path d="M 8.5 21.578125 
L 8.5 54.6875 
L 17.484375 54.6875 
L 17.484375 21.921875 
Q 17.484375 14.15625 20.5 10.265625 
Q 23.53125 6.390625 29.59375 6.390625 
Q 36.859375 6.390625 41.078125 11.03125 
Q 45.3125 15.671875 45.3125 23.6875 
L 45.3125 54.6875 
L 54.296875 54.6875 
L 54.296875 0 
L 45.3125 0 
L 45.3125 8.40625 
Q 42.046875 3.421875 37.71875 1 
Q 33.40625 -1.421875 27.6875 -1.421875 
Q 18.265625 -1.421875 13.375 4.4375 
Q 8.5 10.296875 8.5 21.578125 
z
M 31.109375 56 
z
" id="DejaVuSans-117"/>
     </defs>
     <g transform="translate(18.577813 102.007344)rotate(-90)scale(0.1 -0.1)">
      <use xlink:href="#DejaVuSans-76"/>
      <use x="53.962891" xlink:href="#DejaVuSans-111"/>
      <use x="115.144531" xlink:href="#DejaVuSans-97"/>
      <use x="176.423828" xlink:href="#DejaVuSans-110"/>
      <use x="239.802734" xlink:href="#DejaVuSans-32"/>
      <use x="271.589844" xlink:href="#DejaVuSans-65"/>
      <use x="339.998047" xlink:href="#DejaVuSans-109"/>
      <use x="437.410156" xlink:href="#DejaVuSans-111"/>
      <use x="498.591797" xlink:href="#DejaVuSans-117"/>
      <use x="561.970703" xlink:href="#DejaVuSans-110"/>
      <use x="625.349609" xlink:href="#DejaVuSans-116"/>
     </g>
    </g>
   </g>
   <g id="line2d_10">
    <path clip-path="url(#pbfc35c84a0)" d="M 92.821364 106.870909 
L 97.32212 102.251584 
L 102.305101 98.20041 
L 107.12734 94.840901 
L 112.110321 93.630489 
L 116.93256 101.78224 
L 121.915541 94.297451 
L 126.898522 88.64063 
L 131.720761 80.513581 
L 136.703742 90.567407 
L 141.525981 80.884115 
L 146.508962 78.043353 
L 151.491943 82.440358 
L 155.992699 91.851925 
L 160.97568 105.858116 
L 165.797919 106.105139 
L 170.7809 98.941479 
L 175.60314 89.455805 
L 180.58612 94.865603 
L 185.569101 93.877512 
L 190.39134 78.759719 
L 195.374321 81.427565 
L 200.19656 82.539168 
L 205.179541 78.315078 
L 210.162522 95.903099 
L 214.663278 101.263493 
L 219.646259 96.89119 
L 224.468498 99.756654 
L 229.451479 100.942363 
L 234.273719 89.332293 
L 239.256699 89.925148 
L 244.23968 95.680778 
L 249.061919 104.845322 
L 254.0449 104.919429 
L 258.867139 83.403747 
L 263.85012 76.907049 
L 268.833101 81.032329 
L 273.494599 72.954685 
L 278.477579 82.267443 
L 283.299819 88.3195 
L 288.282799 92.518887 
L 293.105039 103.585506 
L 298.08802 102.375095 
L 303.071 87.99837 
L 307.89324 104.474788 
L 312.87622 88.813546 
L 317.69846 85.429334 
L 322.68144 78.932635 
L 327.664421 30.689091 
L 332.165178 52.031857 
L 337.148158 61.443424 
L 341.970398 75.004973 
L 346.953378 82.637977 
L 351.775618 61.838661 
L 356.758599 61.566936 
L 361.741579 66.902627 
L 366.563819 86.046891 
L 371.546799 82.934404 
L 376.369039 105.314666 
L 381.352019 99.682547 
L 386.335 95.137328 
L 390.835757 89.529912 
L 395.818737 93.506978 
L 400.640977 102.64682 
L 410.446197 98.570944 
L 415.429178 101.312897 
L 420.412158 94.371558 
L 425.234398 79.698406 
L 430.217378 75.375508 
L 435.039618 91.234369 
L 440.022598 81.551077 
L 445.005579 80.884115 
L 449.506336 47.708959 
L 454.489316 86.293913 
L 459.311556 97.162915 
L 464.294536 67.001436 
L 469.116776 81.106436 
L 474.099757 89.776934 
L 479.082737 92.914123 
L 483.904977 98.916776 
L 488.887957 76.314194 
L 493.710197 86.244509 
L 498.693177 100.448317 
L 503.676158 77.499903 
L 508.337656 88.517118 
L 513.320637 52.945841 
L 518.142876 70.805587 
L 523.125857 90.740323 
L 527.948096 66.457986 
L 532.931077 76.610621 
L 537.914058 81.47697 
L 542.736297 72.90528 
L 547.719278 71.126716 
L 552.541517 96.199526 
L 557.524498 85.972784 
L 562.507478 78.142162 
L 567.008235 91.308475 
L 571.991216 91.827223 
L 576.813455 77.623415 
L 581.796436 52.649414 
L 586.618675 92.22246 
L 591.601656 80.29126 
L 596.584637 85.898677 
L 601.406876 58.059212 
L 606.389857 95.730183 
L 611.212096 80.414772 
L 616.195077 73.819264 
L 621.178057 73.473432 
L 625.678814 63.543118 
L 630.661795 45.288136 
L 635.484034 57.515762 
L 640.467015 72.68296 
L 645.289254 58.701472 
L 650.272235 69.446961 
L 655.255216 56.478267 
L 660.077455 52.82233 
L 665.060436 44.670579 
L 669.882675 50.920255 
L 674.865656 66.038047 
L 679.848636 80.29126 
" style="fill:none;stroke:#ffa500;stroke-linecap:square;stroke-width:1.5;"/>
   </g>
   <g id="patch_3">
    <path d="M 63.47 110.68 
L 63.47 26.88 
" style="fill:none;stroke:#000000;stroke-linecap:square;stroke-linejoin:miter;stroke-width:0.8;"/>
   </g>
   <g id="patch_4">
    <path d="M 709.2 110.68 
L 709.2 26.88 
" style="fill:none;stroke:#000000;stroke-linecap:square;stroke-linejoin:miter;stroke-width:0.8;"/>
   </g>
   <g id="patch_5">
    <path d="M 63.47 110.68 
L 709.2 110.68 
" style="fill:none;stroke:#000000;stroke-linecap:square;stroke-linejoin:miter;stroke-width:0.8;"/>
   </g>
   <g id="patch_6">
    <path d="M 63.47 26.88 
L 709.2 26.88 
" style="fill:none;stroke:#000000;stroke-linecap:square;stroke-linejoin:miter;stroke-width:0.8;"/>
   </g>
   <g id="text_12">
    <!-- Philippines loans over time -->
    <defs>
     <path d="M 19.671875 64.796875 
L 19.671875 37.40625 
L 32.078125 37.40625 
Q 38.96875 37.40625 42.71875 40.96875 
Q 46.484375 44.53125 46.484375 51.125 
Q 46.484375 57.671875 42.71875 61.234375 
Q 38.96875 64.796875 32.078125 64.796875 
z
M 9.8125 72.90625 
L 32.078125 72.90625 
Q 44.34375 72.90625 50.609375 67.359375 
Q 56.890625 61.8125 56.890625 51.125 
Q 56.890625 40.328125 50.609375 34.8125 
Q 44.34375 29.296875 32.078125 29.296875 
L 19.671875 29.296875 
L 19.671875 0 
L 9.8125 0 
z
" id="DejaVuSans-80"/>
     <path d="M 54.890625 33.015625 
L 54.890625 0 
L 45.90625 0 
L 45.90625 32.71875 
Q 45.90625 40.484375 42.875 44.328125 
Q 39.84375 48.1875 33.796875 48.1875 
Q 26.515625 48.1875 22.3125 43.546875 
Q 18.109375 38.921875 18.109375 30.90625 
L 18.109375 0 
L 9.078125 0 
L 9.078125 75.984375 
L 18.109375 75.984375 
L 18.109375 46.1875 
Q 21.34375 51.125 25.703125 53.5625 
Q 30.078125 56 35.796875 56 
Q 45.21875 56 50.046875 50.171875 
Q 54.890625 44.34375 54.890625 33.015625 
z
" id="DejaVuSans-104"/>
     <path d="M 9.421875 54.6875 
L 18.40625 54.6875 
L 18.40625 0 
L 9.421875 0 
z
M 9.421875 75.984375 
L 18.40625 75.984375 
L 18.40625 64.59375 
L 9.421875 64.59375 
z
" id="DejaVuSans-105"/>
     <path d="M 9.421875 75.984375 
L 18.40625 75.984375 
L 18.40625 0 
L 9.421875 0 
z
" id="DejaVuSans-108"/>
     <path d="M 18.109375 8.203125 
L 18.109375 -20.796875 
L 9.078125 -20.796875 
L 9.078125 54.6875 
L 18.109375 54.6875 
L 18.109375 46.390625 
Q 20.953125 51.265625 25.265625 53.625 
Q 29.59375 56 35.59375 56 
Q 45.5625 56 51.78125 48.09375 
Q 58.015625 40.1875 58.015625 27.296875 
Q 58.015625 14.40625 51.78125 6.484375 
Q 45.5625 -1.421875 35.59375 -1.421875 
Q 29.59375 -1.421875 25.265625 0.953125 
Q 20.953125 3.328125 18.109375 8.203125 
z
M 48.6875 27.296875 
Q 48.6875 37.203125 44.609375 42.84375 
Q 40.53125 48.484375 33.40625 48.484375 
Q 26.265625 48.484375 22.1875 42.84375 
Q 18.109375 37.203125 18.109375 27.296875 
Q 18.109375 17.390625 22.1875 11.75 
Q 26.265625 6.109375 33.40625 6.109375 
Q 40.53125 6.109375 44.609375 11.75 
Q 48.6875 17.390625 48.6875 27.296875 
z
" id="DejaVuSans-112"/>
     <path d="M 44.28125 53.078125 
L 44.28125 44.578125 
Q 40.484375 46.53125 36.375 47.5 
Q 32.28125 48.484375 27.875 48.484375 
Q 21.1875 48.484375 17.84375 46.4375 
Q 14.5 44.390625 14.5 40.28125 
Q 14.5 37.15625 16.890625 35.375 
Q 19.28125 33.59375 26.515625 31.984375 
L 29.59375 31.296875 
Q 39.15625 29.25 43.1875 25.515625 
Q 47.21875 21.78125 47.21875 15.09375 
Q 47.21875 7.46875 41.1875 3.015625 
Q 35.15625 -1.421875 24.609375 -1.421875 
Q 20.21875 -1.421875 15.453125 -0.5625 
Q 10.6875 0.296875 5.421875 2 
L 5.421875 11.28125 
Q 10.40625 8.6875 15.234375 7.390625 
Q 20.0625 6.109375 24.8125 6.109375 
Q 31.15625 6.109375 34.5625 8.28125 
Q 37.984375 10.453125 37.984375 14.40625 
Q 37.984375 18.0625 35.515625 20.015625 
Q 33.0625 21.96875 24.703125 23.78125 
L 21.578125 24.515625 
Q 13.234375 26.265625 9.515625 29.90625 
Q 5.8125 33.546875 5.8125 39.890625 
Q 5.8125 47.609375 11.28125 51.796875 
Q 16.75 56 26.8125 56 
Q 31.78125 56 36.171875 55.265625 
Q 40.578125 54.546875 44.28125 53.078125 
z
" id="DejaVuSans-115"/>
     <path d="M 2.984375 54.6875 
L 12.5 54.6875 
L 29.59375 8.796875 
L 46.6875 54.6875 
L 56.203125 54.6875 
L 35.6875 0 
L 23.484375 0 
z
" id="DejaVuSans-118"/>
     <path d="M 41.109375 46.296875 
Q 39.59375 47.171875 37.8125 47.578125 
Q 36.03125 48 33.890625 48 
Q 26.265625 48 22.1875 43.046875 
Q 18.109375 38.09375 18.109375 28.8125 
L 18.109375 0 
L 9.078125 0 
L 9.078125 54.6875 
L 18.109375 54.6875 
L 18.109375 46.1875 
Q 20.953125 51.171875 25.484375 53.578125 
Q 30.03125 56 36.53125 56 
Q 37.453125 56 38.578125 55.875 
Q 39.703125 55.765625 41.0625 55.515625 
z
" id="DejaVuSans-114"/>
    </defs>
    <g transform="translate(305.409062 20.88)scale(0.12 -0.12)">
     <use xlink:href="#DejaVuSans-80"/>
     <use x="60.302734" xlink:href="#DejaVuSans-104"/>
     <use x="123.681641" xlink:href="#DejaVuSans-105"/>
     <use x="151.464844" xlink:href="#DejaVuSans-108"/>
     <use x="179.248047" xlink:href="#DejaVuSans-105"/>
     <use x="207.03125" xlink:href="#DejaVuSans-112"/>
     <use x="270.507812" xlink:href="#DejaVuSans-112"/>
     <use x="333.984375" xlink:href="#DejaVuSans-105"/>
     <use x="361.767578" xlink:href="#DejaVuSans-110"/>
     <use x="425.146484" xlink:href="#DejaVuSans-101"/>
     <use x="486.669922" xlink:href="#DejaVuSans-115"/>
     <use x="538.769531" xlink:href="#DejaVuSans-32"/>
     <use x="570.556641" xlink:href="#DejaVuSans-108"/>
     <use x="598.339844" xlink:href="#DejaVuSans-111"/>
     <use x="659.521484" xlink:href="#DejaVuSans-97"/>
     <use x="720.800781" xlink:href="#DejaVuSans-110"/>
     <use x="784.179688" xlink:href="#DejaVuSans-115"/>
     <use x="836.279297" xlink:href="#DejaVuSans-32"/>
     <use x="868.066406" xlink:href="#DejaVuSans-111"/>
     <use x="929.248047" xlink:href="#DejaVuSans-118"/>
     <use x="988.427734" xlink:href="#DejaVuSans-101"/>
     <use x="1049.951172" xlink:href="#DejaVuSans-114"/>
     <use x="1091.064453" xlink:href="#DejaVuSans-32"/>
     <use x="1122.851562" xlink:href="#DejaVuSans-116"/>
     <use x="1162.060547" xlink:href="#DejaVuSans-105"/>
     <use x="1189.84375" xlink:href="#DejaVuSans-109"/>
     <use x="1287.255859" xlink:href="#DejaVuSans-101"/>
    </g>
   </g>
  </g>
  <g id="axes_2">
   <g id="patch_7">
    <path d="M 63.47 252.52 
L 709.2 252.52 
L 709.2 168.72 
L 63.47 168.72 
z
" style="fill:#ffffff;"/>
   </g>
   <g id="matplotlib.axis_3">
    <g id="xtick_6">
     <g id="line2d_11">
      <g>
       <use style="stroke:#000000;stroke-width:0.8;" x="118.338259" xlink:href="#m5df532ff56" y="252.52"/>
      </g>
     </g>
     <g id="text_13">
      <!-- 2008 -->
      <g transform="translate(105.613259 267.118438)scale(0.1 -0.1)">
       <use xlink:href="#DejaVuSans-50"/>
       <use x="63.623047" xlink:href="#DejaVuSans-48"/>
       <use x="127.246094" xlink:href="#DejaVuSans-48"/>
       <use x="190.869141" xlink:href="#DejaVuSans-56"/>
      </g>
     </g>
    </g>
    <g id="xtick_7">
     <g id="line2d_12">
      <g>
       <use style="stroke:#000000;stroke-width:0.8;" x="219.712447" xlink:href="#m5df532ff56" y="252.52"/>
      </g>
     </g>
     <g id="text_14">
      <!-- 2010 -->
      <g transform="translate(206.987447 267.118438)scale(0.1 -0.1)">
       <use xlink:href="#DejaVuSans-50"/>
       <use x="63.623047" xlink:href="#DejaVuSans-48"/>
       <use x="127.246094" xlink:href="#DejaVuSans-49"/>
       <use x="190.869141" xlink:href="#DejaVuSans-48"/>
      </g>
     </g>
    </g>
    <g id="xtick_8">
     <g id="line2d_13">
      <g>
       <use style="stroke:#000000;stroke-width:0.8;" x="320.947956" xlink:href="#m5df532ff56" y="252.52"/>
      </g>
     </g>
     <g id="text_15">
      <!-- 2012 -->
      <g transform="translate(308.222956 267.118438)scale(0.1 -0.1)">
       <use xlink:href="#DejaVuSans-50"/>
       <use x="63.623047" xlink:href="#DejaVuSans-48"/>
       <use x="127.246094" xlink:href="#DejaVuSans-49"/>
       <use x="190.869141" xlink:href="#DejaVuSans-50"/>
      </g>
     </g>
    </g>
    <g id="xtick_9">
     <g id="line2d_14">
      <g>
       <use style="stroke:#000000;stroke-width:0.8;" x="422.322143" xlink:href="#m5df532ff56" y="252.52"/>
      </g>
     </g>
     <g id="text_16">
      <!-- 2014 -->
      <g transform="translate(409.597143 267.118438)scale(0.1 -0.1)">
       <use xlink:href="#DejaVuSans-50"/>
       <use x="63.623047" xlink:href="#DejaVuSans-48"/>
       <use x="127.246094" xlink:href="#DejaVuSans-49"/>
       <use x="190.869141" xlink:href="#DejaVuSans-52"/>
      </g>
     </g>
    </g>
    <g id="xtick_10">
     <g id="line2d_15">
      <g>
       <use style="stroke:#000000;stroke-width:0.8;" x="523.557652" xlink:href="#m5df532ff56" y="252.52"/>
      </g>
     </g>
     <g id="text_17">
      <!-- 2016 -->
      <g transform="translate(510.832652 267.118438)scale(0.1 -0.1)">
       <use xlink:href="#DejaVuSans-50"/>
       <use x="63.623047" xlink:href="#DejaVuSans-48"/>
       <use x="127.246094" xlink:href="#DejaVuSans-49"/>
       <use x="190.869141" xlink:href="#DejaVuSans-54"/>
      </g>
     </g>
    </g>
    <g id="xtick_11">
     <g id="line2d_16">
      <g>
       <use style="stroke:#000000;stroke-width:0.8;" x="624.93184" xlink:href="#m5df532ff56" y="252.52"/>
      </g>
     </g>
     <g id="text_18">
      <!-- 2018 -->
      <g transform="translate(612.20684 267.118438)scale(0.1 -0.1)">
       <use xlink:href="#DejaVuSans-50"/>
       <use x="63.623047" xlink:href="#DejaVuSans-48"/>
       <use x="127.246094" xlink:href="#DejaVuSans-49"/>
       <use x="190.869141" xlink:href="#DejaVuSans-56"/>
      </g>
     </g>
    </g>
    <g id="text_19">
     <!-- Date -->
     <g transform="translate(374.384219 280.796563)scale(0.1 -0.1)">
      <use xlink:href="#DejaVuSans-68"/>
      <use x="77.001953" xlink:href="#DejaVuSans-97"/>
      <use x="138.28125" xlink:href="#DejaVuSans-116"/>
      <use x="177.490234" xlink:href="#DejaVuSans-101"/>
     </g>
    </g>
   </g>
   <g id="matplotlib.axis_4">
    <g id="ytick_5">
     <g id="line2d_17">
      <g>
       <use style="stroke:#000000;stroke-width:0.8;" x="63.47" xlink:href="#m794b5878d2" y="249.167088"/>
      </g>
     </g>
     <g id="text_20">
      <!-- 0 -->
      <g transform="translate(50.1075 252.966306)scale(0.1 -0.1)">
       <use xlink:href="#DejaVuSans-48"/>
      </g>
     </g>
    </g>
    <g id="ytick_6">
     <g id="line2d_18">
      <g>
       <use style="stroke:#000000;stroke-width:0.8;" x="63.47" xlink:href="#m794b5878d2" y="227.699862"/>
      </g>
     </g>
     <g id="text_21">
      <!-- 20000 -->
      <g transform="translate(24.6575 231.49908)scale(0.1 -0.1)">
       <use xlink:href="#DejaVuSans-50"/>
       <use x="63.623047" xlink:href="#DejaVuSans-48"/>
       <use x="127.246094" xlink:href="#DejaVuSans-48"/>
       <use x="190.869141" xlink:href="#DejaVuSans-48"/>
       <use x="254.492188" xlink:href="#DejaVuSans-48"/>
      </g>
     </g>
    </g>
    <g id="ytick_7">
     <g id="line2d_19">
      <g>
       <use style="stroke:#000000;stroke-width:0.8;" x="63.47" xlink:href="#m794b5878d2" y="206.232636"/>
      </g>
     </g>
     <g id="text_22">
      <!-- 40000 -->
      <g transform="translate(24.6575 210.031854)scale(0.1 -0.1)">
       <use xlink:href="#DejaVuSans-52"/>
       <use x="63.623047" xlink:href="#DejaVuSans-48"/>
       <use x="127.246094" xlink:href="#DejaVuSans-48"/>
       <use x="190.869141" xlink:href="#DejaVuSans-48"/>
       <use x="254.492188" xlink:href="#DejaVuSans-48"/>
      </g>
     </g>
    </g>
    <g id="ytick_8">
     <g id="line2d_20">
      <g>
       <use style="stroke:#000000;stroke-width:0.8;" x="63.47" xlink:href="#m794b5878d2" y="184.76541"/>
      </g>
     </g>
     <g id="text_23">
      <!-- 60000 -->
      <g transform="translate(24.6575 188.564628)scale(0.1 -0.1)">
       <use xlink:href="#DejaVuSans-54"/>
       <use x="63.623047" xlink:href="#DejaVuSans-48"/>
       <use x="127.246094" xlink:href="#DejaVuSans-48"/>
       <use x="190.869141" xlink:href="#DejaVuSans-48"/>
       <use x="254.492188" xlink:href="#DejaVuSans-48"/>
      </g>
     </g>
    </g>
    <g id="text_24">
     <!-- Loan Amount -->
     <g transform="translate(18.577813 243.847344)rotate(-90)scale(0.1 -0.1)">
      <use xlink:href="#DejaVuSans-76"/>
      <use x="53.962891" xlink:href="#DejaVuSans-111"/>
      <use x="115.144531" xlink:href="#DejaVuSans-97"/>
      <use x="176.423828" xlink:href="#DejaVuSans-110"/>
      <use x="239.802734" xlink:href="#DejaVuSans-32"/>
      <use x="271.589844" xlink:href="#DejaVuSans-65"/>
      <use x="339.998047" xlink:href="#DejaVuSans-109"/>
      <use x="437.410156" xlink:href="#DejaVuSans-111"/>
      <use x="498.591797" xlink:href="#DejaVuSans-117"/>
      <use x="561.970703" xlink:href="#DejaVuSans-110"/>
      <use x="625.349609" xlink:href="#DejaVuSans-116"/>
     </g>
    </g>
   </g>
   <g id="line2d_21">
    <path clip-path="url(#pd8a3e31b19)" d="M 92.821364 248.388901 
L 97.120406 248.630407 
L 101.419448 247.503378 
L 105.579811 243.880783 
L 109.878853 235.267059 
L 114.039217 231.376124 
L 118.338259 235.723237 
L 122.637301 236.179416 
L 126.658986 243.880783 
L 130.958028 248.442569 
L 135.118391 247.744884 
L 139.417433 248.093726 
L 143.577797 248.710909 
L 147.876839 247.315539 
L 152.175881 248.630407 
L 156.336245 248.469403 
L 160.635287 245.866502 
L 164.79565 246.295846 
L 173.393734 247.44971 
L 177.27674 218.764129 
L 181.575782 232.851996 
L 185.736146 229.122065 
L 190.035188 228.934227 
L 194.195551 232.556822 
L 198.494593 228.048704 
L 202.793636 230.436933 
L 206.953999 207.252329 
L 211.253041 222.386723 
L 215.413405 203.173556 
L 219.712447 211.035928 
L 224.011489 217.207755 
L 227.894495 244.39063 
L 232.193537 245.786 
L 236.3539 248.066892 
L 240.652942 239.721508 
L 244.813306 229.014729 
L 249.112348 232.342149 
L 253.41139 240.338691 
L 257.571753 205.588619 
L 261.870796 199.416791 
L 266.031159 213.370488 
L 270.330201 216.51007 
L 274.629243 214.926862 
L 278.512249 247.503378 
L 282.811291 238.674981 
L 286.971655 239.480002 
L 291.270697 243.424605 
L 295.43106 228.800057 
L 299.730102 222.977072 
L 304.029144 230.705273 
L 308.189508 246.295846 
L 316.648913 205.051938 
L 320.947956 214.282845 
L 325.246998 209.613724 
L 329.268682 198.692273 
L 333.567724 204.756764 
L 337.728088 233.818021 
L 342.02713 226.733836 
L 346.187493 240.097185 
L 350.486536 241.143712 
L 354.785578 243.746613 
L 358.945941 242.136571 
L 363.244983 242.029235 
L 367.405347 220.96452 
L 371.704389 230.329597 
L 376.003431 216.77841 
L 379.886437 216.724742 
L 384.185479 205.588619 
L 388.345842 218.522623 
L 392.644884 233.066668 
L 396.805248 208.32569 
L 401.10429 216.483236 
L 405.403332 218.737295 
L 409.563696 232.61049 
L 413.862738 236.796599 
L 418.023101 246.644689 
L 422.322143 233.039834 
L 426.621185 241.009542 
L 430.504191 239.560504 
L 434.803233 242.056069 
L 438.963597 237.225943 
L 443.262639 248.201062 
L 447.423002 247.100867 
L 451.722044 246.617855 
L 456.021087 229.41724 
L 460.18145 235.991578 
L 464.480492 235.052387 
L 468.640856 231.376124 
L 472.939898 213.826667 
L 477.23894 228.773223 
L 481.121946 227.61936 
L 485.420988 239.66784 
L 489.581351 246.376348 
L 493.880393 231.832303 
L 498.040757 245.168817 
L 502.339799 234.784046 
L 506.638841 244.444298 
L 510.799204 247.637548 
L 515.098247 229.658746 
L 519.25861 223.03074 
L 523.557652 245.222485 
L 527.856694 231.161452 
L 531.878379 231.510294 
L 536.177421 212.055621 
L 540.337784 215.275705 
L 544.636827 228.343878 
L 548.79719 229.68558 
L 553.096232 237.628454 
L 557.395274 240.177687 
L 561.555638 231.08095 
L 565.85468 234.891382 
L 570.015043 243.075762 
L 574.314085 241.116878 
L 578.613127 237.011271 
L 582.496133 242.190239 
L 586.795175 238.084632 
L 590.955539 235.93791 
L 595.254581 217.261423 
L 599.414944 239.560504 
L 603.713987 237.816292 
L 608.013029 241.33155 
L 612.173392 195.660027 
L 616.472434 238.057798 
L 620.632798 233.308174 
L 624.93184 221.23286 
L 629.230882 232.288481 
L 633.113888 215.087866 
L 637.41293 216.832079 
L 641.573293 211.814114 
L 645.872335 211.760446 
L 650.032699 194.345159 
L 654.331741 232.234813 
L 658.630783 172.529091 
L 662.791147 223.379582 
L 667.090189 200.248646 
L 671.250552 235.240225 
L 675.549594 232.87883 
L 679.848636 232.771494 
L 679.848636 232.771494 
" style="fill:none;stroke:#0000ff;stroke-linecap:square;stroke-width:1.5;"/>
   </g>
   <g id="patch_8">
    <path d="M 63.47 252.52 
L 63.47 168.72 
" style="fill:none;stroke:#000000;stroke-linecap:square;stroke-linejoin:miter;stroke-width:0.8;"/>
   </g>
   <g id="patch_9">
    <path d="M 709.2 252.52 
L 709.2 168.72 
" style="fill:none;stroke:#000000;stroke-linecap:square;stroke-linejoin:miter;stroke-width:0.8;"/>
   </g>
   <g id="patch_10">
    <path d="M 63.47 252.52 
L 709.2 252.52 
" style="fill:none;stroke:#000000;stroke-linecap:square;stroke-linejoin:miter;stroke-width:0.8;"/>
   </g>
   <g id="patch_11">
    <path d="M 63.47 168.72 
L 709.2 168.72 
" style="fill:none;stroke:#000000;stroke-linecap:square;stroke-linejoin:miter;stroke-width:0.8;"/>
   </g>
   <g id="text_25">
    <!-- Peru loans over time -->
    <g transform="translate(324.37375 162.72)scale(0.12 -0.12)">
     <use xlink:href="#DejaVuSans-80"/>
     <use x="56.677734" xlink:href="#DejaVuSans-101"/>
     <use x="118.201172" xlink:href="#DejaVuSans-114"/>
     <use x="159.314453" xlink:href="#DejaVuSans-117"/>
     <use x="222.693359" xlink:href="#DejaVuSans-32"/>
     <use x="254.480469" xlink:href="#DejaVuSans-108"/>
     <use x="282.263672" xlink:href="#DejaVuSans-111"/>
     <use x="343.445312" xlink:href="#DejaVuSans-97"/>
     <use x="404.724609" xlink:href="#DejaVuSans-110"/>
     <use x="468.103516" xlink:href="#DejaVuSans-115"/>
     <use x="520.203125" xlink:href="#DejaVuSans-32"/>
     <use x="551.990234" xlink:href="#DejaVuSans-111"/>
     <use x="613.171875" xlink:href="#DejaVuSans-118"/>
     <use x="672.351562" xlink:href="#DejaVuSans-101"/>
     <use x="733.875" xlink:href="#DejaVuSans-114"/>
     <use x="774.988281" xlink:href="#DejaVuSans-32"/>
     <use x="806.775391" xlink:href="#DejaVuSans-116"/>
     <use x="845.984375" xlink:href="#DejaVuSans-105"/>
     <use x="873.767578" xlink:href="#DejaVuSans-109"/>
     <use x="971.179688" xlink:href="#DejaVuSans-101"/>
    </g>
   </g>
  </g>
  <g id="axes_3">
   <g id="patch_12">
    <path d="M 63.47 394.36 
L 709.2 394.36 
L 709.2 310.56 
L 63.47 310.56 
z
" style="fill:#ffffff;"/>
   </g>
   <g id="matplotlib.axis_5">
    <g id="xtick_12">
     <g id="line2d_22">
      <g>
       <use style="stroke:#000000;stroke-width:0.8;" x="81.554046" xlink:href="#m5df532ff56" y="394.36"/>
      </g>
     </g>
     <g id="text_26">
      <!-- 2006 -->
      <g transform="translate(68.829046 408.958438)scale(0.1 -0.1)">
       <use xlink:href="#DejaVuSans-50"/>
       <use x="63.623047" xlink:href="#DejaVuSans-48"/>
       <use x="127.246094" xlink:href="#DejaVuSans-48"/>
       <use x="190.869141" xlink:href="#DejaVuSans-54"/>
      </g>
     </g>
    </g>
    <g id="xtick_13">
     <g id="line2d_23">
      <g>
       <use style="stroke:#000000;stroke-width:0.8;" x="172.944515" xlink:href="#m5df532ff56" y="394.36"/>
      </g>
     </g>
     <g id="text_27">
      <!-- 2008 -->
      <g transform="translate(160.219515 408.958438)scale(0.1 -0.1)">
       <use xlink:href="#DejaVuSans-50"/>
       <use x="63.623047" xlink:href="#DejaVuSans-48"/>
       <use x="127.246094" xlink:href="#DejaVuSans-48"/>
       <use x="190.869141" xlink:href="#DejaVuSans-56"/>
      </g>
     </g>
    </g>
    <g id="xtick_14">
     <g id="line2d_24">
      <g>
       <use style="stroke:#000000;stroke-width:0.8;" x="264.460176" xlink:href="#m5df532ff56" y="394.36"/>
      </g>
     </g>
     <g id="text_28">
      <!-- 2010 -->
      <g transform="translate(251.735176 408.958438)scale(0.1 -0.1)">
       <use xlink:href="#DejaVuSans-50"/>
       <use x="63.623047" xlink:href="#DejaVuSans-48"/>
       <use x="127.246094" xlink:href="#DejaVuSans-49"/>
       <use x="190.869141" xlink:href="#DejaVuSans-48"/>
      </g>
     </g>
    </g>
    <g id="xtick_15">
     <g id="line2d_25">
      <g>
       <use style="stroke:#000000;stroke-width:0.8;" x="355.850645" xlink:href="#m5df532ff56" y="394.36"/>
      </g>
     </g>
     <g id="text_29">
      <!-- 2012 -->
      <g transform="translate(343.125645 408.958438)scale(0.1 -0.1)">
       <use xlink:href="#DejaVuSans-50"/>
       <use x="63.623047" xlink:href="#DejaVuSans-48"/>
       <use x="127.246094" xlink:href="#DejaVuSans-49"/>
       <use x="190.869141" xlink:href="#DejaVuSans-50"/>
      </g>
     </g>
    </g>
    <g id="xtick_16">
     <g id="line2d_26">
      <g>
       <use style="stroke:#000000;stroke-width:0.8;" x="447.366306" xlink:href="#m5df532ff56" y="394.36"/>
      </g>
     </g>
     <g id="text_30">
      <!-- 2014 -->
      <g transform="translate(434.641306 408.958438)scale(0.1 -0.1)">
       <use xlink:href="#DejaVuSans-50"/>
       <use x="63.623047" xlink:href="#DejaVuSans-48"/>
       <use x="127.246094" xlink:href="#DejaVuSans-49"/>
       <use x="190.869141" xlink:href="#DejaVuSans-52"/>
      </g>
     </g>
    </g>
    <g id="xtick_17">
     <g id="line2d_27">
      <g>
       <use style="stroke:#000000;stroke-width:0.8;" x="538.756775" xlink:href="#m5df532ff56" y="394.36"/>
      </g>
     </g>
     <g id="text_31">
      <!-- 2016 -->
      <g transform="translate(526.031775 408.958438)scale(0.1 -0.1)">
       <use xlink:href="#DejaVuSans-50"/>
       <use x="63.623047" xlink:href="#DejaVuSans-48"/>
       <use x="127.246094" xlink:href="#DejaVuSans-49"/>
       <use x="190.869141" xlink:href="#DejaVuSans-54"/>
      </g>
     </g>
    </g>
    <g id="xtick_18">
     <g id="line2d_28">
      <g>
       <use style="stroke:#000000;stroke-width:0.8;" x="630.272437" xlink:href="#m5df532ff56" y="394.36"/>
      </g>
     </g>
     <g id="text_32">
      <!-- 2018 -->
      <g transform="translate(617.547437 408.958438)scale(0.1 -0.1)">
       <use xlink:href="#DejaVuSans-50"/>
       <use x="63.623047" xlink:href="#DejaVuSans-48"/>
       <use x="127.246094" xlink:href="#DejaVuSans-49"/>
       <use x="190.869141" xlink:href="#DejaVuSans-56"/>
      </g>
     </g>
    </g>
    <g id="text_33">
     <!-- Date -->
     <g transform="translate(374.384219 422.636563)scale(0.1 -0.1)">
      <use xlink:href="#DejaVuSans-68"/>
      <use x="77.001953" xlink:href="#DejaVuSans-97"/>
      <use x="138.28125" xlink:href="#DejaVuSans-116"/>
      <use x="177.490234" xlink:href="#DejaVuSans-101"/>
     </g>
    </g>
   </g>
   <g id="matplotlib.axis_6">
    <g id="ytick_9">
     <g id="line2d_29">
      <g>
       <use style="stroke:#000000;stroke-width:0.8;" x="63.47" xlink:href="#m794b5878d2" y="390.743612"/>
      </g>
     </g>
     <g id="text_34">
      <!-- 0 -->
      <g transform="translate(50.1075 394.542831)scale(0.1 -0.1)">
       <use xlink:href="#DejaVuSans-48"/>
      </g>
     </g>
    </g>
    <g id="ytick_10">
     <g id="line2d_30">
      <g>
       <use style="stroke:#000000;stroke-width:0.8;" x="63.47" xlink:href="#m794b5878d2" y="365.049913"/>
      </g>
     </g>
     <g id="text_35">
      <!-- 20000 -->
      <g transform="translate(24.6575 368.849131)scale(0.1 -0.1)">
       <use xlink:href="#DejaVuSans-50"/>
       <use x="63.623047" xlink:href="#DejaVuSans-48"/>
       <use x="127.246094" xlink:href="#DejaVuSans-48"/>
       <use x="190.869141" xlink:href="#DejaVuSans-48"/>
       <use x="254.492188" xlink:href="#DejaVuSans-48"/>
      </g>
     </g>
    </g>
    <g id="ytick_11">
     <g id="line2d_31">
      <g>
       <use style="stroke:#000000;stroke-width:0.8;" x="63.47" xlink:href="#m794b5878d2" y="339.356213"/>
      </g>
     </g>
     <g id="text_36">
      <!-- 40000 -->
      <g transform="translate(24.6575 343.155432)scale(0.1 -0.1)">
       <use xlink:href="#DejaVuSans-52"/>
       <use x="63.623047" xlink:href="#DejaVuSans-48"/>
       <use x="127.246094" xlink:href="#DejaVuSans-48"/>
       <use x="190.869141" xlink:href="#DejaVuSans-48"/>
       <use x="254.492188" xlink:href="#DejaVuSans-48"/>
      </g>
     </g>
    </g>
    <g id="ytick_12">
     <g id="line2d_32">
      <g>
       <use style="stroke:#000000;stroke-width:0.8;" x="63.47" xlink:href="#m794b5878d2" y="313.662514"/>
      </g>
     </g>
     <g id="text_37">
      <!-- 60000 -->
      <g transform="translate(24.6575 317.461733)scale(0.1 -0.1)">
       <use xlink:href="#DejaVuSans-54"/>
       <use x="63.623047" xlink:href="#DejaVuSans-48"/>
       <use x="127.246094" xlink:href="#DejaVuSans-48"/>
       <use x="190.869141" xlink:href="#DejaVuSans-48"/>
       <use x="254.492188" xlink:href="#DejaVuSans-48"/>
      </g>
     </g>
    </g>
    <g id="text_38">
     <!-- Loan Amount -->
     <g transform="translate(18.577813 385.687344)rotate(-90)scale(0.1 -0.1)">
      <use xlink:href="#DejaVuSans-76"/>
      <use x="53.962891" xlink:href="#DejaVuSans-111"/>
      <use x="115.144531" xlink:href="#DejaVuSans-97"/>
      <use x="176.423828" xlink:href="#DejaVuSans-110"/>
      <use x="239.802734" xlink:href="#DejaVuSans-32"/>
      <use x="271.589844" xlink:href="#DejaVuSans-65"/>
      <use x="339.998047" xlink:href="#DejaVuSans-109"/>
      <use x="437.410156" xlink:href="#DejaVuSans-111"/>
      <use x="498.591797" xlink:href="#DejaVuSans-117"/>
      <use x="561.970703" xlink:href="#DejaVuSans-110"/>
      <use x="625.349609" xlink:href="#DejaVuSans-116"/>
     </g>
    </g>
   </g>
   <g id="line2d_33">
    <path clip-path="url(#p012cc15f1e)" d="M 92.821364 389.876449 
L 100.458101 389.041404 
L 108.094839 389.972801 
L 111.975804 388.238476 
L 115.731577 390.454558 
L 119.612542 385.861809 
L 123.368315 384.96253 
L 127.24928 387.499782 
L 131.130245 388.623882 
L 134.635633 377.993114 
L 138.516598 380.498249 
L 142.272371 387.146494 
L 146.153336 384.96253 
L 149.909109 388.142125 
L 153.790074 390.004918 
L 157.671039 390.550909 
L 161.426812 384.866178 
L 165.307777 385.73334 
L 169.063549 387.08226 
L 172.944515 389.20199 
L 176.82548 386.85744 
L 180.45606 389.266224 
L 211.128204 390.293972 
L 226.151294 389.20199 
L 230.03226 389.747981 
L 233.788032 389.587395 
L 237.668997 389.169873 
L 241.42477 390.037035 
L 245.305735 387.050143 
L 249.1867 381.012123 
L 252.942473 377.736177 
L 256.823438 377.993114 
L 260.579211 381.815051 
L 264.460176 387.018025 
L 268.341141 378.860276 
L 271.846529 388.174242 
L 275.727494 390.390323 
L 283.364232 384.448656 
L 287.120005 378.667573 
L 291.00097 383.453025 
L 294.881935 383.934782 
L 298.637707 363.733111 
L 302.518673 363.187119 
L 306.274445 375.231041 
L 310.15541 371.055815 
L 314.036376 367.233877 
L 317.541763 386.953791 
L 321.422729 384.320187 
L 325.178501 386.568386 
L 329.059466 384.320187 
L 332.815239 372.083563 
L 336.696204 370.252887 
L 340.577169 377.993114 
L 348.213907 388.399062 
L 351.96968 337.910943 
L 355.850645 346.646801 
L 359.73161 351.721306 
L 363.36219 353.166577 
L 367.243155 361.645497 
L 370.998928 335.855447 
L 374.879893 381.590231 
L 378.635666 387.30708 
L 382.516631 383.999016 
L 386.397596 374.845635 
L 390.153369 388.559647 
L 394.034334 365.981309 
L 397.790107 366.398832 
L 401.671072 349.858513 
L 405.552037 336.658375 
L 409.057425 314.369091 
L 412.93839 348.638062 
L 416.694163 351.753423 
L 420.575128 354.451262 
L 424.3309 343.338737 
L 428.211866 348.381125 
L 432.092831 357.116983 
L 435.848603 378.057348 
L 439.729569 368.903967 
L 443.485341 385.476403 
L 447.366306 378.539105 
L 451.247271 384.159601 
L 454.752659 367.587165 
L 458.633624 381.750817 
L 462.389397 375.809149 
L 466.270362 389.491044 
L 470.026135 390.326089 
L 473.9071 388.655999 
L 477.788065 383.196088 
L 481.543838 376.515726 
L 485.424803 377.093834 
L 489.180576 372.982842 
L 493.061541 369.739013 
L 496.942506 372.982842 
L 500.447894 347.417612 
L 504.328859 362.384191 
L 508.084632 379.14933 
L 511.965597 371.569689 
L 515.721369 378.025231 
L 519.602335 378.282168 
L 523.4833 383.870547 
L 527.239072 381.365412 
L 531.120038 377.47924 
L 534.87581 366.013426 
L 538.756775 384.641358 
L 542.63774 376.162438 
L 546.268321 372.661671 
L 550.149286 351.239549 
L 553.905059 353.13446 
L 557.786024 381.622349 
L 561.541796 366.5273 
L 565.422761 373.528833 
L 569.303727 376.933249 
L 573.059499 383.966899 
L 576.940464 376.35514 
L 580.696237 367.715634 
L 584.577202 362.769597 
L 588.458167 363.990048 
L 591.963555 377.382888 
L 595.84452 382.136223 
L 599.600293 368.004688 
L 603.481258 369.225139 
L 607.237031 371.569689 
L 611.117996 385.283701 
L 614.998961 382.104105 
L 618.754734 362.448426 
L 622.635699 364.760859 
L 626.391472 356.185586 
L 630.272437 353.070225 
L 634.153402 358.626488 
L 637.65879 326.605715 
L 641.539755 353.230811 
L 645.295528 345.747521 
L 649.176493 359.814821 
L 652.932265 356.217704 
L 656.81323 347.449729 
L 660.694196 343.884728 
L 664.449968 341.925583 
L 668.330933 356.217704 
L 672.086706 347.128557 
L 675.967671 354.162208 
L 679.848636 370.381355 
L 679.848636 370.381355 
" style="fill:none;stroke:#ff0000;stroke-linecap:square;stroke-width:1.5;"/>
   </g>
   <g id="patch_13">
    <path d="M 63.47 394.36 
L 63.47 310.56 
" style="fill:none;stroke:#000000;stroke-linecap:square;stroke-linejoin:miter;stroke-width:0.8;"/>
   </g>
   <g id="patch_14">
    <path d="M 709.2 394.36 
L 709.2 310.56 
" style="fill:none;stroke:#000000;stroke-linecap:square;stroke-linejoin:miter;stroke-width:0.8;"/>
   </g>
   <g id="patch_15">
    <path d="M 63.47 394.36 
L 709.2 394.36 
" style="fill:none;stroke:#000000;stroke-linecap:square;stroke-linejoin:miter;stroke-width:0.8;"/>
   </g>
   <g id="patch_16">
    <path d="M 63.47 310.56 
L 709.2 310.56 
" style="fill:none;stroke:#000000;stroke-linecap:square;stroke-linejoin:miter;stroke-width:0.8;"/>
   </g>
   <g id="text_39">
    <!-- Kenya loans over time -->
    <defs>
     <path d="M 9.8125 72.90625 
L 19.671875 72.90625 
L 19.671875 42.09375 
L 52.390625 72.90625 
L 65.09375 72.90625 
L 28.90625 38.921875 
L 67.671875 0 
L 54.6875 0 
L 19.671875 35.109375 
L 19.671875 0 
L 9.8125 0 
z
" id="DejaVuSans-75"/>
     <path d="M 32.171875 -5.078125 
Q 28.375 -14.84375 24.75 -17.8125 
Q 21.140625 -20.796875 15.09375 -20.796875 
L 7.90625 -20.796875 
L 7.90625 -13.28125 
L 13.1875 -13.28125 
Q 16.890625 -13.28125 18.9375 -11.515625 
Q 21 -9.765625 23.484375 -3.21875 
L 25.09375 0.875 
L 2.984375 54.6875 
L 12.5 54.6875 
L 29.59375 11.921875 
L 46.6875 54.6875 
L 56.203125 54.6875 
z
" id="DejaVuSans-121"/>
    </defs>
    <g transform="translate(319.377812 304.56)scale(0.12 -0.12)">
     <use xlink:href="#DejaVuSans-75"/>
     <use x="60.576172" xlink:href="#DejaVuSans-101"/>
     <use x="122.099609" xlink:href="#DejaVuSans-110"/>
     <use x="185.478516" xlink:href="#DejaVuSans-121"/>
     <use x="244.658203" xlink:href="#DejaVuSans-97"/>
     <use x="305.9375" xlink:href="#DejaVuSans-32"/>
     <use x="337.724609" xlink:href="#DejaVuSans-108"/>
     <use x="365.507812" xlink:href="#DejaVuSans-111"/>
     <use x="426.689453" xlink:href="#DejaVuSans-97"/>
     <use x="487.96875" xlink:href="#DejaVuSans-110"/>
     <use x="551.347656" xlink:href="#DejaVuSans-115"/>
     <use x="603.447266" xlink:href="#DejaVuSans-32"/>
     <use x="635.234375" xlink:href="#DejaVuSans-111"/>
     <use x="696.416016" xlink:href="#DejaVuSans-118"/>
     <use x="755.595703" xlink:href="#DejaVuSans-101"/>
     <use x="817.119141" xlink:href="#DejaVuSans-114"/>
     <use x="858.232422" xlink:href="#DejaVuSans-32"/>
     <use x="890.019531" xlink:href="#DejaVuSans-116"/>
     <use x="929.228516" xlink:href="#DejaVuSans-105"/>
     <use x="957.011719" xlink:href="#DejaVuSans-109"/>
     <use x="1054.423828" xlink:href="#DejaVuSans-101"/>
    </g>
   </g>
  </g>
  <g id="axes_4">
   <g id="patch_17">
    <path d="M 63.47 536.2 
L 709.2 536.2 
L 709.2 452.4 
L 63.47 452.4 
z
" style="fill:#ffffff;"/>
   </g>
   <g id="matplotlib.axis_7">
    <g id="xtick_19">
     <g id="line2d_34">
      <g>
       <use style="stroke:#000000;stroke-width:0.8;" x="122.289775" xlink:href="#m5df532ff56" y="536.2"/>
      </g>
     </g>
     <g id="text_40">
      <!-- 2008 -->
      <g transform="translate(109.564775 550.798438)scale(0.1 -0.1)">
       <use xlink:href="#DejaVuSans-50"/>
       <use x="63.623047" xlink:href="#DejaVuSans-48"/>
       <use x="127.246094" xlink:href="#DejaVuSans-48"/>
       <use x="190.869141" xlink:href="#DejaVuSans-56"/>
      </g>
     </g>
    </g>
    <g id="xtick_20">
     <g id="line2d_35">
      <g>
       <use style="stroke:#000000;stroke-width:0.8;" x="222.950562" xlink:href="#m5df532ff56" y="536.2"/>
      </g>
     </g>
     <g id="text_41">
      <!-- 2010 -->
      <g transform="translate(210.225562 550.798438)scale(0.1 -0.1)">
       <use xlink:href="#DejaVuSans-50"/>
       <use x="63.623047" xlink:href="#DejaVuSans-48"/>
       <use x="127.246094" xlink:href="#DejaVuSans-49"/>
       <use x="190.869141" xlink:href="#DejaVuSans-48"/>
      </g>
     </g>
    </g>
    <g id="xtick_21">
     <g id="line2d_36">
      <g>
       <use style="stroke:#000000;stroke-width:0.8;" x="323.473646" xlink:href="#m5df532ff56" y="536.2"/>
      </g>
     </g>
     <g id="text_42">
      <!-- 2012 -->
      <g transform="translate(310.748646 550.798438)scale(0.1 -0.1)">
       <use xlink:href="#DejaVuSans-50"/>
       <use x="63.623047" xlink:href="#DejaVuSans-48"/>
       <use x="127.246094" xlink:href="#DejaVuSans-49"/>
       <use x="190.869141" xlink:href="#DejaVuSans-50"/>
      </g>
     </g>
    </g>
    <g id="xtick_22">
     <g id="line2d_37">
      <g>
       <use style="stroke:#000000;stroke-width:0.8;" x="424.134434" xlink:href="#m5df532ff56" y="536.2"/>
      </g>
     </g>
     <g id="text_43">
      <!-- 2014 -->
      <g transform="translate(411.409434 550.798438)scale(0.1 -0.1)">
       <use xlink:href="#DejaVuSans-50"/>
       <use x="63.623047" xlink:href="#DejaVuSans-48"/>
       <use x="127.246094" xlink:href="#DejaVuSans-49"/>
       <use x="190.869141" xlink:href="#DejaVuSans-52"/>
      </g>
     </g>
    </g>
    <g id="xtick_23">
     <g id="line2d_38">
      <g>
       <use style="stroke:#000000;stroke-width:0.8;" x="524.657518" xlink:href="#m5df532ff56" y="536.2"/>
      </g>
     </g>
     <g id="text_44">
      <!-- 2016 -->
      <g transform="translate(511.932518 550.798438)scale(0.1 -0.1)">
       <use xlink:href="#DejaVuSans-50"/>
       <use x="63.623047" xlink:href="#DejaVuSans-48"/>
       <use x="127.246094" xlink:href="#DejaVuSans-49"/>
       <use x="190.869141" xlink:href="#DejaVuSans-54"/>
      </g>
     </g>
    </g>
    <g id="xtick_24">
     <g id="line2d_39">
      <g>
       <use style="stroke:#000000;stroke-width:0.8;" x="625.318306" xlink:href="#m5df532ff56" y="536.2"/>
      </g>
     </g>
     <g id="text_45">
      <!-- 2018 -->
      <g transform="translate(612.593306 550.798438)scale(0.1 -0.1)">
       <use xlink:href="#DejaVuSans-50"/>
       <use x="63.623047" xlink:href="#DejaVuSans-48"/>
       <use x="127.246094" xlink:href="#DejaVuSans-49"/>
       <use x="190.869141" xlink:href="#DejaVuSans-56"/>
      </g>
     </g>
    </g>
    <g id="text_46">
     <!-- Date -->
     <g transform="translate(374.384219 564.476562)scale(0.1 -0.1)">
      <use xlink:href="#DejaVuSans-68"/>
      <use x="77.001953" xlink:href="#DejaVuSans-97"/>
      <use x="138.28125" xlink:href="#DejaVuSans-116"/>
      <use x="177.490234" xlink:href="#DejaVuSans-101"/>
     </g>
    </g>
   </g>
   <g id="matplotlib.axis_8">
    <g id="ytick_13">
     <g id="line2d_40">
      <g>
       <use style="stroke:#000000;stroke-width:0.8;" x="63.47" xlink:href="#m794b5878d2" y="532.936103"/>
      </g>
     </g>
     <g id="text_47">
      <!-- 0 -->
      <g transform="translate(50.1075 536.735322)scale(0.1 -0.1)">
       <use xlink:href="#DejaVuSans-48"/>
      </g>
     </g>
    </g>
    <g id="ytick_14">
     <g id="line2d_41">
      <g>
       <use style="stroke:#000000;stroke-width:0.8;" x="63.47" xlink:href="#m794b5878d2" y="503.859074"/>
      </g>
     </g>
     <g id="text_48">
      <!-- 20000 -->
      <g transform="translate(24.6575 507.658292)scale(0.1 -0.1)">
       <use xlink:href="#DejaVuSans-50"/>
       <use x="63.623047" xlink:href="#DejaVuSans-48"/>
       <use x="127.246094" xlink:href="#DejaVuSans-48"/>
       <use x="190.869141" xlink:href="#DejaVuSans-48"/>
       <use x="254.492188" xlink:href="#DejaVuSans-48"/>
      </g>
     </g>
    </g>
    <g id="ytick_15">
     <g id="line2d_42">
      <g>
       <use style="stroke:#000000;stroke-width:0.8;" x="63.47" xlink:href="#m794b5878d2" y="474.782044"/>
      </g>
     </g>
     <g id="text_49">
      <!-- 40000 -->
      <g transform="translate(24.6575 478.581262)scale(0.1 -0.1)">
       <use xlink:href="#DejaVuSans-52"/>
       <use x="63.623047" xlink:href="#DejaVuSans-48"/>
       <use x="127.246094" xlink:href="#DejaVuSans-48"/>
       <use x="190.869141" xlink:href="#DejaVuSans-48"/>
       <use x="254.492188" xlink:href="#DejaVuSans-48"/>
      </g>
     </g>
    </g>
    <g id="text_50">
     <!-- Loan Amount -->
     <g transform="translate(18.577813 527.527344)rotate(-90)scale(0.1 -0.1)">
      <use xlink:href="#DejaVuSans-76"/>
      <use x="53.962891" xlink:href="#DejaVuSans-111"/>
      <use x="115.144531" xlink:href="#DejaVuSans-97"/>
      <use x="176.423828" xlink:href="#DejaVuSans-110"/>
      <use x="239.802734" xlink:href="#DejaVuSans-32"/>
      <use x="271.589844" xlink:href="#DejaVuSans-65"/>
      <use x="339.998047" xlink:href="#DejaVuSans-109"/>
      <use x="437.410156" xlink:href="#DejaVuSans-111"/>
      <use x="498.591797" xlink:href="#DejaVuSans-117"/>
      <use x="561.970703" xlink:href="#DejaVuSans-110"/>
      <use x="625.349609" xlink:href="#DejaVuSans-116"/>
     </g>
    </g>
   </g>
   <g id="line2d_43">
    <path clip-path="url(#p7ed6b2a739)" d="M 92.821364 531.554944 
L 96.952449 528.065701 
L 101.221238 530.537248 
L 105.490026 527.774931 
L 113.889901 525.521461 
L 118.020986 524.93992 
L 126.558563 527.847623 
L 130.551946 529.664938 
L 138.95182 531.554944 
L 147.351694 532.209178 
L 151.620483 531.191482 
L 160.020357 531.809368 
L 180.813488 531.9911 
L 185.082277 525.666846 
L 189.213362 529.337821 
L 193.482151 524.322033 
L 197.613237 531.482252 
L 201.882025 520.251249 
L 206.150814 525.267037 
L 210.281899 531.445906 
L 214.550688 531.70033 
L 218.681774 503.89542 
L 227.219351 525.957616 
L 231.07503 529.265128 
L 239.474905 531.30052 
L 243.743693 524.830881 
L 247.874779 529.483206 
L 252.143567 512.836607 
L 256.412356 525.775885 
L 260.543442 522.068563 
L 264.81223 524.867228 
L 268.943316 525.303383 
L 277.480893 515.817002 
L 281.336573 532.136485 
L 285.605361 522.39568 
L 289.736447 525.194344 
L 294.005235 525.303383 
L 298.136321 518.942783 
L 302.40511 525.012613 
L 306.673898 524.140302 
L 319.204858 510.037942 
L 323.473646 508.947554 
L 327.742435 489.247866 
L 331.735818 507.748126 
L 336.004606 498.988671 
L 340.135692 525.884924 
L 344.404481 529.374167 
L 348.535566 524.249341 
L 352.804355 530.791672 
L 357.073143 528.065701 
L 361.204229 531.445906 
L 365.473017 500.442523 
L 369.604103 516.32585 
L 373.872892 518.688359 
L 378.14168 499.533865 
L 381.99736 502.586954 
L 386.266149 509.420056 
L 390.397234 489.829407 
L 394.666023 479.579754 
L 398.797108 476.563012 
L 403.065897 471.438185 
L 407.334685 497.389434 
L 411.465771 524.612804 
L 415.73456 510.219674 
L 428.403222 499.206749 
L 432.258902 526.284733 
L 436.527691 528.574549 
L 449.058651 531.845715 
L 453.327439 527.120697 
L 461.727313 513.817956 
L 465.996102 521.523369 
L 470.127188 504.440614 
L 474.395976 511.273716 
L 478.664765 510.401405 
L 482.520445 482.269379 
L 486.789233 529.010704 
L 490.920319 527.120697 
L 495.189107 505.894466 
L 499.320193 530.500902 
L 503.588981 520.360288 
L 507.85777 531.409559 
L 511.988856 506.221582 
L 516.257644 501.35118 
L 520.38873 513.963341 
L 524.657518 532.390909 
L 528.926307 505.16754 
L 532.91969 496.84424 
L 537.188478 479.252637 
L 541.319564 515.562578 
L 545.588352 526.90262 
L 549.719438 514.799306 
L 553.988226 525.775885 
L 558.257015 503.786381 
L 562.388101 492.846149 
L 566.656889 510.583137 
L 575.056763 529.919362 
L 583.181232 532.245524 
L 587.45002 516.071426 
L 591.581106 514.217765 
L 595.849895 524.64915 
L 599.98098 524.794535 
L 604.249769 518.324896 
L 608.518557 530.355517 
L 612.649643 513.236416 
L 616.918431 511.346409 
L 621.049517 477.289938 
L 625.318306 495.317696 
L 629.587094 510.54679 
L 633.442774 504.149844 
L 637.711563 507.857165 
L 641.842648 474.491273 
L 646.111437 512.872953 
L 650.242522 494.917887 
L 654.511311 483.468806 
L 658.780099 457.335826 
L 662.911185 501.060409 
L 667.179974 485.904008 
L 671.311059 496.698855 
L 675.579848 468.057981 
L 679.848636 456.209091 
" style="fill:none;stroke:#008000;stroke-linecap:square;stroke-width:1.5;"/>
   </g>
   <g id="patch_18">
    <path d="M 63.47 536.2 
L 63.47 452.4 
" style="fill:none;stroke:#000000;stroke-linecap:square;stroke-linejoin:miter;stroke-width:0.8;"/>
   </g>
   <g id="patch_19">
    <path d="M 709.2 536.2 
L 709.2 452.4 
" style="fill:none;stroke:#000000;stroke-linecap:square;stroke-linejoin:miter;stroke-width:0.8;"/>
   </g>
   <g id="patch_20">
    <path d="M 63.47 536.2 
L 709.2 536.2 
" style="fill:none;stroke:#000000;stroke-linecap:square;stroke-linejoin:miter;stroke-width:0.8;"/>
   </g>
   <g id="patch_21">
    <path d="M 63.47 452.4 
L 709.2 452.4 
" style="fill:none;stroke:#000000;stroke-linecap:square;stroke-linejoin:miter;stroke-width:0.8;"/>
   </g>
   <g id="text_51">
    <!-- Paraguay loans over time -->
    <defs>
     <path d="M 45.40625 27.984375 
Q 45.40625 37.75 41.375 43.109375 
Q 37.359375 48.484375 30.078125 48.484375 
Q 22.859375 48.484375 18.828125 43.109375 
Q 14.796875 37.75 14.796875 27.984375 
Q 14.796875 18.265625 18.828125 12.890625 
Q 22.859375 7.515625 30.078125 7.515625 
Q 37.359375 7.515625 41.375 12.890625 
Q 45.40625 18.265625 45.40625 27.984375 
z
M 54.390625 6.78125 
Q 54.390625 -7.171875 48.1875 -13.984375 
Q 42 -20.796875 29.203125 -20.796875 
Q 24.46875 -20.796875 20.265625 -20.09375 
Q 16.0625 -19.390625 12.109375 -17.921875 
L 12.109375 -9.1875 
Q 16.0625 -11.328125 19.921875 -12.34375 
Q 23.78125 -13.375 27.78125 -13.375 
Q 36.625 -13.375 41.015625 -8.765625 
Q 45.40625 -4.15625 45.40625 5.171875 
L 45.40625 9.625 
Q 42.625 4.78125 38.28125 2.390625 
Q 33.9375 0 27.875 0 
Q 17.828125 0 11.671875 7.65625 
Q 5.515625 15.328125 5.515625 27.984375 
Q 5.515625 40.671875 11.671875 48.328125 
Q 17.828125 56 27.875 56 
Q 33.9375 56 38.28125 53.609375 
Q 42.625 51.21875 45.40625 46.390625 
L 45.40625 54.6875 
L 54.390625 54.6875 
z
" id="DejaVuSans-103"/>
    </defs>
    <g transform="translate(309.727187 446.4)scale(0.12 -0.12)">
     <use xlink:href="#DejaVuSans-80"/>
     <use x="55.802734" xlink:href="#DejaVuSans-97"/>
     <use x="117.082031" xlink:href="#DejaVuSans-114"/>
     <use x="158.195312" xlink:href="#DejaVuSans-97"/>
     <use x="219.474609" xlink:href="#DejaVuSans-103"/>
     <use x="282.951172" xlink:href="#DejaVuSans-117"/>
     <use x="346.330078" xlink:href="#DejaVuSans-97"/>
     <use x="407.609375" xlink:href="#DejaVuSans-121"/>
     <use x="466.789062" xlink:href="#DejaVuSans-32"/>
     <use x="498.576172" xlink:href="#DejaVuSans-108"/>
     <use x="526.359375" xlink:href="#DejaVuSans-111"/>
     <use x="587.541016" xlink:href="#DejaVuSans-97"/>
     <use x="648.820312" xlink:href="#DejaVuSans-110"/>
     <use x="712.199219" xlink:href="#DejaVuSans-115"/>
     <use x="764.298828" xlink:href="#DejaVuSans-32"/>
     <use x="796.085938" xlink:href="#DejaVuSans-111"/>
     <use x="857.267578" xlink:href="#DejaVuSans-118"/>
     <use x="916.447266" xlink:href="#DejaVuSans-101"/>
     <use x="977.970703" xlink:href="#DejaVuSans-114"/>
     <use x="1019.083984" xlink:href="#DejaVuSans-32"/>
     <use x="1050.871094" xlink:href="#DejaVuSans-116"/>
     <use x="1090.080078" xlink:href="#DejaVuSans-105"/>
     <use x="1117.863281" xlink:href="#DejaVuSans-109"/>
     <use x="1215.275391" xlink:href="#DejaVuSans-101"/>
    </g>
   </g>
  </g>
  <g id="axes_5">
   <g id="patch_22">
    <path d="M 63.47 678.04 
L 709.2 678.04 
L 709.2 594.24 
L 63.47 594.24 
z
" style="fill:#ffffff;"/>
   </g>
   <g id="matplotlib.axis_9">
    <g id="xtick_25">
     <g id="line2d_44">
      <g>
       <use style="stroke:#000000;stroke-width:0.8;" x="124.220497" xlink:href="#m5df532ff56" y="678.04"/>
      </g>
     </g>
     <g id="text_52">
      <!-- 2010 -->
      <g transform="translate(111.495497 692.638438)scale(0.1 -0.1)">
       <use xlink:href="#DejaVuSans-50"/>
       <use x="63.623047" xlink:href="#DejaVuSans-48"/>
       <use x="127.246094" xlink:href="#DejaVuSans-49"/>
       <use x="190.869141" xlink:href="#DejaVuSans-48"/>
      </g>
     </g>
    </g>
    <g id="xtick_26">
     <g id="line2d_45">
      <g>
       <use style="stroke:#000000;stroke-width:0.8;" x="186.506821" xlink:href="#m5df532ff56" y="678.04"/>
      </g>
     </g>
     <g id="text_53">
      <!-- 2011 -->
      <g transform="translate(173.781821 692.638438)scale(0.1 -0.1)">
       <use xlink:href="#DejaVuSans-50"/>
       <use x="63.623047" xlink:href="#DejaVuSans-48"/>
       <use x="127.246094" xlink:href="#DejaVuSans-49"/>
       <use x="190.869141" xlink:href="#DejaVuSans-49"/>
      </g>
     </g>
    </g>
    <g id="xtick_27">
     <g id="line2d_46">
      <g>
       <use style="stroke:#000000;stroke-width:0.8;" x="248.793145" xlink:href="#m5df532ff56" y="678.04"/>
      </g>
     </g>
     <g id="text_54">
      <!-- 2012 -->
      <g transform="translate(236.068145 692.638438)scale(0.1 -0.1)">
       <use xlink:href="#DejaVuSans-50"/>
       <use x="63.623047" xlink:href="#DejaVuSans-48"/>
       <use x="127.246094" xlink:href="#DejaVuSans-49"/>
       <use x="190.869141" xlink:href="#DejaVuSans-50"/>
      </g>
     </g>
    </g>
    <g id="xtick_28">
     <g id="line2d_47">
      <g>
       <use style="stroke:#000000;stroke-width:0.8;" x="311.250116" xlink:href="#m5df532ff56" y="678.04"/>
      </g>
     </g>
     <g id="text_55">
      <!-- 2013 -->
      <defs>
       <path d="M 40.578125 39.3125 
Q 47.65625 37.796875 51.625 33 
Q 55.609375 28.21875 55.609375 21.1875 
Q 55.609375 10.40625 48.1875 4.484375 
Q 40.765625 -1.421875 27.09375 -1.421875 
Q 22.515625 -1.421875 17.65625 -0.515625 
Q 12.796875 0.390625 7.625 2.203125 
L 7.625 11.71875 
Q 11.71875 9.328125 16.59375 8.109375 
Q 21.484375 6.890625 26.8125 6.890625 
Q 36.078125 6.890625 40.9375 10.546875 
Q 45.796875 14.203125 45.796875 21.1875 
Q 45.796875 27.640625 41.28125 31.265625 
Q 36.765625 34.90625 28.71875 34.90625 
L 20.21875 34.90625 
L 20.21875 43.015625 
L 29.109375 43.015625 
Q 36.375 43.015625 40.234375 45.921875 
Q 44.09375 48.828125 44.09375 54.296875 
Q 44.09375 59.90625 40.109375 62.90625 
Q 36.140625 65.921875 28.71875 65.921875 
Q 24.65625 65.921875 20.015625 65.03125 
Q 15.375 64.15625 9.8125 62.3125 
L 9.8125 71.09375 
Q 15.4375 72.65625 20.34375 73.4375 
Q 25.25 74.21875 29.59375 74.21875 
Q 40.828125 74.21875 47.359375 69.109375 
Q 53.90625 64.015625 53.90625 55.328125 
Q 53.90625 49.265625 50.4375 45.09375 
Q 46.96875 40.921875 40.578125 39.3125 
z
" id="DejaVuSans-51"/>
      </defs>
      <g transform="translate(298.525116 692.638438)scale(0.1 -0.1)">
       <use xlink:href="#DejaVuSans-50"/>
       <use x="63.623047" xlink:href="#DejaVuSans-48"/>
       <use x="127.246094" xlink:href="#DejaVuSans-49"/>
       <use x="190.869141" xlink:href="#DejaVuSans-51"/>
      </g>
     </g>
    </g>
    <g id="xtick_29">
     <g id="line2d_48">
      <g>
       <use style="stroke:#000000;stroke-width:0.8;" x="373.53644" xlink:href="#m5df532ff56" y="678.04"/>
      </g>
     </g>
     <g id="text_56">
      <!-- 2014 -->
      <g transform="translate(360.81144 692.638438)scale(0.1 -0.1)">
       <use xlink:href="#DejaVuSans-50"/>
       <use x="63.623047" xlink:href="#DejaVuSans-48"/>
       <use x="127.246094" xlink:href="#DejaVuSans-49"/>
       <use x="190.869141" xlink:href="#DejaVuSans-52"/>
      </g>
     </g>
    </g>
    <g id="xtick_30">
     <g id="line2d_49">
      <g>
       <use style="stroke:#000000;stroke-width:0.8;" x="435.822764" xlink:href="#m5df532ff56" y="678.04"/>
      </g>
     </g>
     <g id="text_57">
      <!-- 2015 -->
      <g transform="translate(423.097764 692.638438)scale(0.1 -0.1)">
       <use xlink:href="#DejaVuSans-50"/>
       <use x="63.623047" xlink:href="#DejaVuSans-48"/>
       <use x="127.246094" xlink:href="#DejaVuSans-49"/>
       <use x="190.869141" xlink:href="#DejaVuSans-53"/>
      </g>
     </g>
    </g>
    <g id="xtick_31">
     <g id="line2d_50">
      <g>
       <use style="stroke:#000000;stroke-width:0.8;" x="498.109088" xlink:href="#m5df532ff56" y="678.04"/>
      </g>
     </g>
     <g id="text_58">
      <!-- 2016 -->
      <g transform="translate(485.384088 692.638438)scale(0.1 -0.1)">
       <use xlink:href="#DejaVuSans-50"/>
       <use x="63.623047" xlink:href="#DejaVuSans-48"/>
       <use x="127.246094" xlink:href="#DejaVuSans-49"/>
       <use x="190.869141" xlink:href="#DejaVuSans-54"/>
      </g>
     </g>
    </g>
    <g id="xtick_32">
     <g id="line2d_51">
      <g>
       <use style="stroke:#000000;stroke-width:0.8;" x="560.56606" xlink:href="#m5df532ff56" y="678.04"/>
      </g>
     </g>
     <g id="text_59">
      <!-- 2017 -->
      <g transform="translate(547.84106 692.638438)scale(0.1 -0.1)">
       <use xlink:href="#DejaVuSans-50"/>
       <use x="63.623047" xlink:href="#DejaVuSans-48"/>
       <use x="127.246094" xlink:href="#DejaVuSans-49"/>
       <use x="190.869141" xlink:href="#DejaVuSans-55"/>
      </g>
     </g>
    </g>
    <g id="xtick_33">
     <g id="line2d_52">
      <g>
       <use style="stroke:#000000;stroke-width:0.8;" x="622.852384" xlink:href="#m5df532ff56" y="678.04"/>
      </g>
     </g>
     <g id="text_60">
      <!-- 2018 -->
      <g transform="translate(610.127384 692.638438)scale(0.1 -0.1)">
       <use xlink:href="#DejaVuSans-50"/>
       <use x="63.623047" xlink:href="#DejaVuSans-48"/>
       <use x="127.246094" xlink:href="#DejaVuSans-49"/>
       <use x="190.869141" xlink:href="#DejaVuSans-56"/>
      </g>
     </g>
    </g>
    <g id="xtick_34">
     <g id="line2d_53">
      <g>
       <use style="stroke:#000000;stroke-width:0.8;" x="685.138708" xlink:href="#m5df532ff56" y="678.04"/>
      </g>
     </g>
     <g id="text_61">
      <!-- 2019 -->
      <defs>
       <path d="M 10.984375 1.515625 
L 10.984375 10.5 
Q 14.703125 8.734375 18.5 7.8125 
Q 22.3125 6.890625 25.984375 6.890625 
Q 35.75 6.890625 40.890625 13.453125 
Q 46.046875 20.015625 46.78125 33.40625 
Q 43.953125 29.203125 39.59375 26.953125 
Q 35.25 24.703125 29.984375 24.703125 
Q 19.046875 24.703125 12.671875 31.3125 
Q 6.296875 37.9375 6.296875 49.421875 
Q 6.296875 60.640625 12.9375 67.421875 
Q 19.578125 74.21875 30.609375 74.21875 
Q 43.265625 74.21875 49.921875 64.515625 
Q 56.59375 54.828125 56.59375 36.375 
Q 56.59375 19.140625 48.40625 8.859375 
Q 40.234375 -1.421875 26.421875 -1.421875 
Q 22.703125 -1.421875 18.890625 -0.6875 
Q 15.09375 0.046875 10.984375 1.515625 
z
M 30.609375 32.421875 
Q 37.25 32.421875 41.125 36.953125 
Q 45.015625 41.5 45.015625 49.421875 
Q 45.015625 57.28125 41.125 61.84375 
Q 37.25 66.40625 30.609375 66.40625 
Q 23.96875 66.40625 20.09375 61.84375 
Q 16.21875 57.28125 16.21875 49.421875 
Q 16.21875 41.5 20.09375 36.953125 
Q 23.96875 32.421875 30.609375 32.421875 
z
" id="DejaVuSans-57"/>
      </defs>
      <g transform="translate(672.413708 692.638438)scale(0.1 -0.1)">
       <use xlink:href="#DejaVuSans-50"/>
       <use x="63.623047" xlink:href="#DejaVuSans-48"/>
       <use x="127.246094" xlink:href="#DejaVuSans-49"/>
       <use x="190.869141" xlink:href="#DejaVuSans-57"/>
      </g>
     </g>
    </g>
    <g id="text_62">
     <!-- Date -->
     <g transform="translate(374.384219 706.316563)scale(0.1 -0.1)">
      <use xlink:href="#DejaVuSans-68"/>
      <use x="77.001953" xlink:href="#DejaVuSans-97"/>
      <use x="138.28125" xlink:href="#DejaVuSans-116"/>
      <use x="177.490234" xlink:href="#DejaVuSans-101"/>
     </g>
    </g>
   </g>
   <g id="matplotlib.axis_10">
    <g id="ytick_16">
     <g id="line2d_54">
      <g>
       <use style="stroke:#000000;stroke-width:0.8;" x="63.47" xlink:href="#m794b5878d2" y="676.059273"/>
      </g>
     </g>
     <g id="text_63">
      <!-- 0 -->
      <g transform="translate(50.1075 679.858491)scale(0.1 -0.1)">
       <use xlink:href="#DejaVuSans-48"/>
      </g>
     </g>
    </g>
    <g id="ytick_17">
     <g id="line2d_55">
      <g>
       <use style="stroke:#000000;stroke-width:0.8;" x="63.47" xlink:href="#m794b5878d2" y="651.681091"/>
      </g>
     </g>
     <g id="text_64">
      <!-- 20000 -->
      <g transform="translate(24.6575 655.48031)scale(0.1 -0.1)">
       <use xlink:href="#DejaVuSans-50"/>
       <use x="63.623047" xlink:href="#DejaVuSans-48"/>
       <use x="127.246094" xlink:href="#DejaVuSans-48"/>
       <use x="190.869141" xlink:href="#DejaVuSans-48"/>
       <use x="254.492188" xlink:href="#DejaVuSans-48"/>
      </g>
     </g>
    </g>
    <g id="ytick_18">
     <g id="line2d_56">
      <g>
       <use style="stroke:#000000;stroke-width:0.8;" x="63.47" xlink:href="#m794b5878d2" y="627.302909"/>
      </g>
     </g>
     <g id="text_65">
      <!-- 40000 -->
      <g transform="translate(24.6575 631.102128)scale(0.1 -0.1)">
       <use xlink:href="#DejaVuSans-52"/>
       <use x="63.623047" xlink:href="#DejaVuSans-48"/>
       <use x="127.246094" xlink:href="#DejaVuSans-48"/>
       <use x="190.869141" xlink:href="#DejaVuSans-48"/>
       <use x="254.492188" xlink:href="#DejaVuSans-48"/>
      </g>
     </g>
    </g>
    <g id="ytick_19">
     <g id="line2d_57">
      <g>
       <use style="stroke:#000000;stroke-width:0.8;" x="63.47" xlink:href="#m794b5878d2" y="602.924727"/>
      </g>
     </g>
     <g id="text_66">
      <!-- 60000 -->
      <g transform="translate(24.6575 606.723946)scale(0.1 -0.1)">
       <use xlink:href="#DejaVuSans-54"/>
       <use x="63.623047" xlink:href="#DejaVuSans-48"/>
       <use x="127.246094" xlink:href="#DejaVuSans-48"/>
       <use x="190.869141" xlink:href="#DejaVuSans-48"/>
       <use x="254.492188" xlink:href="#DejaVuSans-48"/>
      </g>
     </g>
    </g>
    <g id="text_67">
     <!-- Loan Amount -->
     <g transform="translate(18.577813 669.367344)rotate(-90)scale(0.1 -0.1)">
      <use xlink:href="#DejaVuSans-76"/>
      <use x="53.962891" xlink:href="#DejaVuSans-111"/>
      <use x="115.144531" xlink:href="#DejaVuSans-97"/>
      <use x="176.423828" xlink:href="#DejaVuSans-110"/>
      <use x="239.802734" xlink:href="#DejaVuSans-32"/>
      <use x="271.589844" xlink:href="#DejaVuSans-65"/>
      <use x="339.998047" xlink:href="#DejaVuSans-109"/>
      <use x="437.410156" xlink:href="#DejaVuSans-111"/>
      <use x="498.591797" xlink:href="#DejaVuSans-117"/>
      <use x="561.970703" xlink:href="#DejaVuSans-110"/>
      <use x="625.349609" xlink:href="#DejaVuSans-116"/>
     </g>
    </g>
   </g>
   <g id="line2d_58">
    <path clip-path="url(#pc2f24ae552)" d="M 92.821364 667.526909 
L 108.52093 652.9 
L 113.811002 654.118909 
L 129.510568 663.870182 
L 170.807254 664.327273 
L 176.097326 644.52 
L 217.394012 670.208509 
L 222.684083 663.870182 
L 243.503073 670.878909 
L 248.793145 672.128291 
L 254.083216 658.659345 
L 269.441488 669.355273 
L 274.731559 673.408145 
L 279.850983 669.568582 
L 285.141054 669.964727 
L 305.960045 663.870182 
L 311.250116 662.072291 
L 316.540188 643.5144 
L 321.318317 653.082836 
L 326.608388 625.474545 
L 331.727812 634.7992 
L 337.017883 668.441091 
L 342.137307 667.587855 
L 347.427378 673.408145 
L 352.71745 662.895055 
L 357.836874 669.416218 
L 363.126945 668.623927 
L 373.53644 669.568582 
L 378.826512 660.914327 
L 404.423631 674.230909 
L 409.713702 669.964727 
L 430.532693 651.102109 
L 435.822764 665.089091 
L 441.112836 657.775636 
L 445.890965 627.912364 
L 451.181036 657.775636 
L 456.30046 654.301745 
L 461.590531 644.672364 
L 472.000026 662.2856 
L 487.699593 653.174255 
L 492.819017 658.689818 
L 498.109088 661.432364 
L 503.39916 660.243927 
L 508.347936 663.870182 
L 513.638007 627.485745 
L 524.047503 656.282473 
L 529.166927 620.263709 
L 534.456998 660.213455 
L 539.747069 609.019273 
L 544.866493 655.337818 
L 550.156564 650.462182 
L 555.275988 652.9 
L 560.56606 655.094036 
L 565.856131 655.337818 
L 570.63426 651.681091 
L 575.924331 654.118909 
L 581.043755 598.049091 
L 586.333827 648.024364 
L 591.453251 660.213455 
L 596.743322 652.9 
L 602.033393 640.710909 
L 607.152817 661.432364 
L 612.442888 665.089091 
L 617.562312 638.273091 
L 622.852384 657.775636 
L 628.142455 639.492 
L 632.920584 634.616364 
L 638.210655 658.994545 
L 643.330079 632.605164 
L 648.620151 624.865091 
L 653.739575 641.929818 
L 659.029646 644.367636 
L 664.319717 621.208364 
L 669.439141 650.462182 
L 674.729212 618.770545 
L 679.848636 649.243273 
" style="fill:none;stroke:#ffff00;stroke-linecap:square;stroke-width:1.5;"/>
   </g>
   <g id="patch_23">
    <path d="M 63.47 678.04 
L 63.47 594.24 
" style="fill:none;stroke:#000000;stroke-linecap:square;stroke-linejoin:miter;stroke-width:0.8;"/>
   </g>
   <g id="patch_24">
    <path d="M 709.2 678.04 
L 709.2 594.24 
" style="fill:none;stroke:#000000;stroke-linecap:square;stroke-linejoin:miter;stroke-width:0.8;"/>
   </g>
   <g id="patch_25">
    <path d="M 63.47 678.04 
L 709.2 678.04 
" style="fill:none;stroke:#000000;stroke-linecap:square;stroke-linejoin:miter;stroke-width:0.8;"/>
   </g>
   <g id="patch_26">
    <path d="M 63.47 594.24 
L 709.2 594.24 
" style="fill:none;stroke:#000000;stroke-linecap:square;stroke-linejoin:miter;stroke-width:0.8;"/>
   </g>
   <g id="text_68">
    <!-- United States loans over time -->
    <defs>
     <path d="M 8.6875 72.90625 
L 18.609375 72.90625 
L 18.609375 28.609375 
Q 18.609375 16.890625 22.84375 11.734375 
Q 27.09375 6.59375 36.625 6.59375 
Q 46.09375 6.59375 50.34375 11.734375 
Q 54.59375 16.890625 54.59375 28.609375 
L 54.59375 72.90625 
L 64.5 72.90625 
L 64.5 27.390625 
Q 64.5 13.140625 57.4375 5.859375 
Q 50.390625 -1.421875 36.625 -1.421875 
Q 22.796875 -1.421875 15.734375 5.859375 
Q 8.6875 13.140625 8.6875 27.390625 
z
" id="DejaVuSans-85"/>
     <path d="M 45.40625 46.390625 
L 45.40625 75.984375 
L 54.390625 75.984375 
L 54.390625 0 
L 45.40625 0 
L 45.40625 8.203125 
Q 42.578125 3.328125 38.25 0.953125 
Q 33.9375 -1.421875 27.875 -1.421875 
Q 17.96875 -1.421875 11.734375 6.484375 
Q 5.515625 14.40625 5.515625 27.296875 
Q 5.515625 40.1875 11.734375 48.09375 
Q 17.96875 56 27.875 56 
Q 33.9375 56 38.25 53.625 
Q 42.578125 51.265625 45.40625 46.390625 
z
M 14.796875 27.296875 
Q 14.796875 17.390625 18.875 11.75 
Q 22.953125 6.109375 30.078125 6.109375 
Q 37.203125 6.109375 41.296875 11.75 
Q 45.40625 17.390625 45.40625 27.296875 
Q 45.40625 37.203125 41.296875 42.84375 
Q 37.203125 48.484375 30.078125 48.484375 
Q 22.953125 48.484375 18.875 42.84375 
Q 14.796875 37.203125 14.796875 27.296875 
z
" id="DejaVuSans-100"/>
     <path d="M 53.515625 70.515625 
L 53.515625 60.890625 
Q 47.90625 63.578125 42.921875 64.890625 
Q 37.9375 66.21875 33.296875 66.21875 
Q 25.25 66.21875 20.875 63.09375 
Q 16.5 59.96875 16.5 54.203125 
Q 16.5 49.359375 19.40625 46.890625 
Q 22.3125 44.4375 30.421875 42.921875 
L 36.375 41.703125 
Q 47.40625 39.59375 52.65625 34.296875 
Q 57.90625 29 57.90625 20.125 
Q 57.90625 9.515625 50.796875 4.046875 
Q 43.703125 -1.421875 29.984375 -1.421875 
Q 24.8125 -1.421875 18.96875 -0.25 
Q 13.140625 0.921875 6.890625 3.21875 
L 6.890625 13.375 
Q 12.890625 10.015625 18.65625 8.296875 
Q 24.421875 6.59375 29.984375 6.59375 
Q 38.421875 6.59375 43.015625 9.90625 
Q 47.609375 13.234375 47.609375 19.390625 
Q 47.609375 24.75 44.3125 27.78125 
Q 41.015625 30.8125 33.5 32.328125 
L 27.484375 33.5 
Q 16.453125 35.6875 11.515625 40.375 
Q 6.59375 45.0625 6.59375 53.421875 
Q 6.59375 63.09375 13.40625 68.65625 
Q 20.21875 74.21875 32.171875 74.21875 
Q 37.3125 74.21875 42.625 73.28125 
Q 47.953125 72.359375 53.515625 70.515625 
z
" id="DejaVuSans-83"/>
    </defs>
    <g transform="translate(297.106562 588.24)scale(0.12 -0.12)">
     <use xlink:href="#DejaVuSans-85"/>
     <use x="73.193359" xlink:href="#DejaVuSans-110"/>
     <use x="136.572266" xlink:href="#DejaVuSans-105"/>
     <use x="164.355469" xlink:href="#DejaVuSans-116"/>
     <use x="203.564453" xlink:href="#DejaVuSans-101"/>
     <use x="265.087891" xlink:href="#DejaVuSans-100"/>
     <use x="328.564453" xlink:href="#DejaVuSans-32"/>
     <use x="360.351562" xlink:href="#DejaVuSans-83"/>
     <use x="423.828125" xlink:href="#DejaVuSans-116"/>
     <use x="463.037109" xlink:href="#DejaVuSans-97"/>
     <use x="524.316406" xlink:href="#DejaVuSans-116"/>
     <use x="563.525391" xlink:href="#DejaVuSans-101"/>
     <use x="625.048828" xlink:href="#DejaVuSans-115"/>
     <use x="677.148438" xlink:href="#DejaVuSans-32"/>
     <use x="708.935547" xlink:href="#DejaVuSans-108"/>
     <use x="736.71875" xlink:href="#DejaVuSans-111"/>
     <use x="797.900391" xlink:href="#DejaVuSans-97"/>
     <use x="859.179688" xlink:href="#DejaVuSans-110"/>
     <use x="922.558594" xlink:href="#DejaVuSans-115"/>
     <use x="974.658203" xlink:href="#DejaVuSans-32"/>
     <use x="1006.445312" xlink:href="#DejaVuSans-111"/>
     <use x="1067.626953" xlink:href="#DejaVuSans-118"/>
     <use x="1126.806641" xlink:href="#DejaVuSans-101"/>
     <use x="1188.330078" xlink:href="#DejaVuSans-114"/>
     <use x="1229.443359" xlink:href="#DejaVuSans-32"/>
     <use x="1261.230469" xlink:href="#DejaVuSans-116"/>
     <use x="1300.439453" xlink:href="#DejaVuSans-105"/>
     <use x="1328.222656" xlink:href="#DejaVuSans-109"/>
     <use x="1425.634766" xlink:href="#DejaVuSans-101"/>
    </g>
   </g>
  </g>
 </g>
 <defs>
  <clipPath id="pbfc35c84a0">
   <rect height="83.8" width="645.73" x="63.47" y="26.88"/>
  </clipPath>
  <clipPath id="pd8a3e31b19">
   <rect height="83.8" width="645.73" x="63.47" y="168.72"/>
  </clipPath>
  <clipPath id="p012cc15f1e">
   <rect height="83.8" width="645.73" x="63.47" y="310.56"/>
  </clipPath>
  <clipPath id="p7ed6b2a739">
   <rect height="83.8" width="645.73" x="63.47" y="452.4"/>
  </clipPath>
  <clipPath id="pc2f24ae552">
   <rect height="83.8" width="645.73" x="63.47" y="594.24"/>
  </clipPath>
 </defs>
</svg>
