<?xml version="1.0" encoding="utf-8" standalone="no"?>
<!DOCTYPE svg PUBLIC "-//W3C//DTD SVG 1.1//EN"
  "http://www.w3.org/Graphics/SVG/1.1/DTD/svg11.dtd">
<!-- Created with matplotlib (https://matplotlib.org/) -->
<svg height="720pt" version="1.1" viewBox="0 0 720 720" width="720pt" xmlns="http://www.w3.org/2000/svg" xmlns:xlink="http://www.w3.org/1999/xlink">
 <defs>
  <style type="text/css">
*{stroke-linecap:butt;stroke-linejoin:round;}
  </style>
 </defs>
 <g id="figure_1">
  <g id="patch_1">
   <path d="M 0 720 
L 720 720 
L 720 0 
L 0 0 
z
" style="fill:#ffffff;"/>
  </g>
  <g id="axes_1">
   <g id="patch_2">
    <path d="M 63.47 101.024495 
L 709.2 101.024495 
L 709.2 26.88 
L 63.47 26.88 
z
" style="fill:#ffffff;"/>
   </g>
   <g id="matplotlib.axis_1">
    <g id="xtick_1">
     <g id="line2d_1">
      <defs>
       <path d="M 0 0 
L 0 3.5 
" id="m9405a65098" style="stroke:#000000;stroke-width:0.8;"/>
      </defs>
      <g>
       <use style="stroke:#000000;stroke-width:0.8;" x="146.508962" xlink:href="#m9405a65098" y="101.024495"/>
      </g>
     </g>
     <g id="text_1">
      <!-- 2010 -->
      <defs>
       <path d="M 19.1875 8.296875 
L 53.609375 8.296875 
L 53.609375 0 
L 7.328125 0 
L 7.328125 8.296875 
Q 12.9375 14.109375 22.625 23.890625 
Q 32.328125 33.6875 34.8125 36.53125 
Q 39.546875 41.84375 41.421875 45.53125 
Q 43.3125 49.21875 43.3125 52.78125 
Q 43.3125 58.59375 39.234375 62.25 
Q 35.15625 65.921875 28.609375 65.921875 
Q 23.96875 65.921875 18.8125 64.3125 
Q 13.671875 62.703125 7.8125 59.421875 
L 7.8125 69.390625 
Q 13.765625 71.78125 18.9375 73 
Q 24.125 74.21875 28.421875 74.21875 
Q 39.75 74.21875 46.484375 68.546875 
Q 53.21875 62.890625 53.21875 53.421875 
Q 53.21875 48.921875 51.53125 44.890625 
Q 49.859375 40.875 45.40625 35.40625 
Q 44.1875 33.984375 37.640625 27.21875 
Q 31.109375 20.453125 19.1875 8.296875 
z
" id="DejaVuSans-50"/>
       <path d="M 31.78125 66.40625 
Q 24.171875 66.40625 20.328125 58.90625 
Q 16.5 51.421875 16.5 36.375 
Q 16.5 21.390625 20.328125 13.890625 
Q 24.171875 6.390625 31.78125 6.390625 
Q 39.453125 6.390625 43.28125 13.890625 
Q 47.125 21.390625 47.125 36.375 
Q 47.125 51.421875 43.28125 58.90625 
Q 39.453125 66.40625 31.78125 66.40625 
z
M 31.78125 74.21875 
Q 44.046875 74.21875 50.515625 64.515625 
Q 56.984375 54.828125 56.984375 36.375 
Q 56.984375 17.96875 50.515625 8.265625 
Q 44.046875 -1.421875 31.78125 -1.421875 
Q 19.53125 -1.421875 13.0625 8.265625 
Q 6.59375 17.96875 6.59375 36.375 
Q 6.59375 54.828125 13.0625 64.515625 
Q 19.53125 74.21875 31.78125 74.21875 
z
" id="DejaVuSans-48"/>
       <path d="M 12.40625 8.296875 
L 28.515625 8.296875 
L 28.515625 63.921875 
L 10.984375 60.40625 
L 10.984375 69.390625 
L 28.421875 72.90625 
L 38.28125 72.90625 
L 38.28125 8.296875 
L 54.390625 8.296875 
L 54.390625 0 
L 12.40625 0 
z
" id="DejaVuSans-49"/>
      </defs>
      <g transform="translate(133.783962 115.622933)scale(0.1 -0.1)">
       <use xlink:href="#DejaVuSans-50"/>
       <use x="63.623047" xlink:href="#DejaVuSans-48"/>
       <use x="127.246094" xlink:href="#DejaVuSans-49"/>
       <use x="190.869141" xlink:href="#DejaVuSans-48"/>
      </g>
     </g>
    </g>
    <g id="xtick_2">
     <g id="line2d_2">
      <g>
       <use style="stroke:#000000;stroke-width:0.8;" x="263.85012" xlink:href="#m9405a65098" y="101.024495"/>
      </g>
     </g>
     <g id="text_2">
      <!-- 2012 -->
      <g transform="translate(251.12512 115.622933)scale(0.1 -0.1)">
       <use xlink:href="#DejaVuSans-50"/>
       <use x="63.623047" xlink:href="#DejaVuSans-48"/>
       <use x="127.246094" xlink:href="#DejaVuSans-49"/>
       <use x="190.869141" xlink:href="#DejaVuSans-50"/>
      </g>
     </g>
    </g>
    <g id="xtick_3">
     <g id="line2d_3">
      <g>
       <use style="stroke:#000000;stroke-width:0.8;" x="381.352019" xlink:href="#m9405a65098" y="101.024495"/>
      </g>
     </g>
     <g id="text_3">
      <!-- 2014 -->
      <defs>
       <path d="M 37.796875 64.3125 
L 12.890625 25.390625 
L 37.796875 25.390625 
z
M 35.203125 72.90625 
L 47.609375 72.90625 
L 47.609375 25.390625 
L 58.015625 25.390625 
L 58.015625 17.1875 
L 47.609375 17.1875 
L 47.609375 0 
L 37.796875 0 
L 37.796875 17.1875 
L 4.890625 17.1875 
L 4.890625 26.703125 
z
" id="DejaVuSans-52"/>
      </defs>
      <g transform="translate(368.627019 115.622933)scale(0.1 -0.1)">
       <use xlink:href="#DejaVuSans-50"/>
       <use x="63.623047" xlink:href="#DejaVuSans-48"/>
       <use x="127.246094" xlink:href="#DejaVuSans-49"/>
       <use x="190.869141" xlink:href="#DejaVuSans-52"/>
      </g>
     </g>
    </g>
    <g id="xtick_4">
     <g id="line2d_4">
      <g>
       <use style="stroke:#000000;stroke-width:0.8;" x="498.693177" xlink:href="#m9405a65098" y="101.024495"/>
      </g>
     </g>
     <g id="text_4">
      <!-- 2016 -->
      <defs>
       <path d="M 33.015625 40.375 
Q 26.375 40.375 22.484375 35.828125 
Q 18.609375 31.296875 18.609375 23.390625 
Q 18.609375 15.53125 22.484375 10.953125 
Q 26.375 6.390625 33.015625 6.390625 
Q 39.65625 6.390625 43.53125 10.953125 
Q 47.40625 15.53125 47.40625 23.390625 
Q 47.40625 31.296875 43.53125 35.828125 
Q 39.65625 40.375 33.015625 40.375 
z
M 52.59375 71.296875 
L 52.59375 62.3125 
Q 48.875 64.0625 45.09375 64.984375 
Q 41.3125 65.921875 37.59375 65.921875 
Q 27.828125 65.921875 22.671875 59.328125 
Q 17.53125 52.734375 16.796875 39.40625 
Q 19.671875 43.65625 24.015625 45.921875 
Q 28.375 48.1875 33.59375 48.1875 
Q 44.578125 48.1875 50.953125 41.515625 
Q 57.328125 34.859375 57.328125 23.390625 
Q 57.328125 12.15625 50.6875 5.359375 
Q 44.046875 -1.421875 33.015625 -1.421875 
Q 20.359375 -1.421875 13.671875 8.265625 
Q 6.984375 17.96875 6.984375 36.375 
Q 6.984375 53.65625 15.1875 63.9375 
Q 23.390625 74.21875 37.203125 74.21875 
Q 40.921875 74.21875 44.703125 73.484375 
Q 48.484375 72.75 52.59375 71.296875 
z
" id="DejaVuSans-54"/>
      </defs>
      <g transform="translate(485.968177 115.622933)scale(0.1 -0.1)">
       <use xlink:href="#DejaVuSans-50"/>
       <use x="63.623047" xlink:href="#DejaVuSans-48"/>
       <use x="127.246094" xlink:href="#DejaVuSans-49"/>
       <use x="190.869141" xlink:href="#DejaVuSans-54"/>
      </g>
     </g>
    </g>
    <g id="xtick_5">
     <g id="line2d_5">
      <g>
       <use style="stroke:#000000;stroke-width:0.8;" x="616.195077" xlink:href="#m9405a65098" y="101.024495"/>
      </g>
     </g>
     <g id="text_5">
      <!-- 2018 -->
      <defs>
       <path d="M 31.78125 34.625 
Q 24.75 34.625 20.71875 30.859375 
Q 16.703125 27.09375 16.703125 20.515625 
Q 16.703125 13.921875 20.71875 10.15625 
Q 24.75 6.390625 31.78125 6.390625 
Q 38.8125 6.390625 42.859375 10.171875 
Q 46.921875 13.96875 46.921875 20.515625 
Q 46.921875 27.09375 42.890625 30.859375 
Q 38.875 34.625 31.78125 34.625 
z
M 21.921875 38.8125 
Q 15.578125 40.375 12.03125 44.71875 
Q 8.5 49.078125 8.5 55.328125 
Q 8.5 64.0625 14.71875 69.140625 
Q 20.953125 74.21875 31.78125 74.21875 
Q 42.671875 74.21875 48.875 69.140625 
Q 55.078125 64.0625 55.078125 55.328125 
Q 55.078125 49.078125 51.53125 44.71875 
Q 48 40.375 41.703125 38.8125 
Q 48.828125 37.15625 52.796875 32.3125 
Q 56.78125 27.484375 56.78125 20.515625 
Q 56.78125 9.90625 50.3125 4.234375 
Q 43.84375 -1.421875 31.78125 -1.421875 
Q 19.734375 -1.421875 13.25 4.234375 
Q 6.78125 9.90625 6.78125 20.515625 
Q 6.78125 27.484375 10.78125 32.3125 
Q 14.796875 37.15625 21.921875 38.8125 
z
M 18.3125 54.390625 
Q 18.3125 48.734375 21.84375 45.5625 
Q 25.390625 42.390625 31.78125 42.390625 
Q 38.140625 42.390625 41.71875 45.5625 
Q 45.3125 48.734375 45.3125 54.390625 
Q 45.3125 60.0625 41.71875 63.234375 
Q 38.140625 66.40625 31.78125 66.40625 
Q 25.390625 66.40625 21.84375 63.234375 
Q 18.3125 60.0625 18.3125 54.390625 
z
" id="DejaVuSans-56"/>
      </defs>
      <g transform="translate(603.470077 115.622933)scale(0.1 -0.1)">
       <use xlink:href="#DejaVuSans-50"/>
       <use x="63.623047" xlink:href="#DejaVuSans-48"/>
       <use x="127.246094" xlink:href="#DejaVuSans-49"/>
       <use x="190.869141" xlink:href="#DejaVuSans-56"/>
      </g>
     </g>
    </g>
    <g id="text_6">
     <!-- Date -->
     <defs>
      <path d="M 19.671875 64.796875 
L 19.671875 8.109375 
L 31.59375 8.109375 
Q 46.6875 8.109375 53.6875 14.9375 
Q 60.6875 21.78125 60.6875 36.53125 
Q 60.6875 51.171875 53.6875 57.984375 
Q 46.6875 64.796875 31.59375 64.796875 
z
M 9.8125 72.90625 
L 30.078125 72.90625 
Q 51.265625 72.90625 61.171875 64.09375 
Q 71.09375 55.28125 71.09375 36.53125 
Q 71.09375 17.671875 61.125 8.828125 
Q 51.171875 0 30.078125 0 
L 9.8125 0 
z
" id="DejaVuSans-68"/>
      <path d="M 34.28125 27.484375 
Q 23.390625 27.484375 19.1875 25 
Q 14.984375 22.515625 14.984375 16.5 
Q 14.984375 11.71875 18.140625 8.90625 
Q 21.296875 6.109375 26.703125 6.109375 
Q 34.1875 6.109375 38.703125 11.40625 
Q 43.21875 16.703125 43.21875 25.484375 
L 43.21875 27.484375 
z
M 52.203125 31.203125 
L 52.203125 0 
L 43.21875 0 
L 43.21875 8.296875 
Q 40.140625 3.328125 35.546875 0.953125 
Q 30.953125 -1.421875 24.3125 -1.421875 
Q 15.921875 -1.421875 10.953125 3.296875 
Q 6 8.015625 6 15.921875 
Q 6 25.140625 12.171875 29.828125 
Q 18.359375 34.515625 30.609375 34.515625 
L 43.21875 34.515625 
L 43.21875 35.40625 
Q 43.21875 41.609375 39.140625 45 
Q 35.0625 48.390625 27.6875 48.390625 
Q 23 48.390625 18.546875 47.265625 
Q 14.109375 46.140625 10.015625 43.890625 
L 10.015625 52.203125 
Q 14.9375 54.109375 19.578125 55.046875 
Q 24.21875 56 28.609375 56 
Q 40.484375 56 46.34375 49.84375 
Q 52.203125 43.703125 52.203125 31.203125 
z
" id="DejaVuSans-97"/>
      <path d="M 18.3125 70.21875 
L 18.3125 54.6875 
L 36.8125 54.6875 
L 36.8125 47.703125 
L 18.3125 47.703125 
L 18.3125 18.015625 
Q 18.3125 11.328125 20.140625 9.421875 
Q 21.96875 7.515625 27.59375 7.515625 
L 36.8125 7.515625 
L 36.8125 0 
L 27.59375 0 
Q 17.1875 0 13.234375 3.875 
Q 9.28125 7.765625 9.28125 18.015625 
L 9.28125 47.703125 
L 2.6875 47.703125 
L 2.6875 54.6875 
L 9.28125 54.6875 
L 9.28125 70.21875 
z
" id="DejaVuSans-116"/>
      <path d="M 56.203125 29.59375 
L 56.203125 25.203125 
L 14.890625 25.203125 
Q 15.484375 15.921875 20.484375 11.0625 
Q 25.484375 6.203125 34.421875 6.203125 
Q 39.59375 6.203125 44.453125 7.46875 
Q 49.3125 8.734375 54.109375 11.28125 
L 54.109375 2.78125 
Q 49.265625 0.734375 44.1875 -0.34375 
Q 39.109375 -1.421875 33.890625 -1.421875 
Q 20.796875 -1.421875 13.15625 6.1875 
Q 5.515625 13.8125 5.515625 26.8125 
Q 5.515625 40.234375 12.765625 48.109375 
Q 20.015625 56 32.328125 56 
Q 43.359375 56 49.78125 48.890625 
Q 56.203125 41.796875 56.203125 29.59375 
z
M 47.21875 32.234375 
Q 47.125 39.59375 43.09375 43.984375 
Q 39.0625 48.390625 32.421875 48.390625 
Q 24.90625 48.390625 20.390625 44.140625 
Q 15.875 39.890625 15.1875 32.171875 
z
" id="DejaVuSans-101"/>
     </defs>
     <g transform="translate(374.384219 129.301058)scale(0.1 -0.1)">
      <use xlink:href="#DejaVuSans-68"/>
      <use x="77.001953" xlink:href="#DejaVuSans-97"/>
      <use x="138.28125" xlink:href="#DejaVuSans-116"/>
      <use x="177.490234" xlink:href="#DejaVuSans-101"/>
     </g>
    </g>
   </g>
   <g id="matplotlib.axis_2">
    <g id="ytick_1">
     <g id="line2d_6">
      <defs>
       <path d="M 0 0 
L -3.5 0 
" id="mb696f9e614" style="stroke:#000000;stroke-width:0.8;"/>
      </defs>
      <g>
       <use style="stroke:#000000;stroke-width:0.8;" x="63.47" xlink:href="#mb696f9e614" y="97.763571"/>
      </g>
     </g>
     <g id="text_7">
      <!-- 0 -->
      <g transform="translate(50.1075 101.56279)scale(0.1 -0.1)">
       <use xlink:href="#DejaVuSans-48"/>
      </g>
     </g>
    </g>
    <g id="ytick_2">
     <g id="line2d_7">
      <g>
       <use style="stroke:#000000;stroke-width:0.8;" x="63.47" xlink:href="#mb696f9e614" y="54.051453"/>
      </g>
     </g>
     <g id="text_8">
      <!-- 50000 -->
      <defs>
       <path d="M 10.796875 72.90625 
L 49.515625 72.90625 
L 49.515625 64.59375 
L 19.828125 64.59375 
L 19.828125 46.734375 
Q 21.96875 47.46875 24.109375 47.828125 
Q 26.265625 48.1875 28.421875 48.1875 
Q 40.625 48.1875 47.75 41.5 
Q 54.890625 34.8125 54.890625 23.390625 
Q 54.890625 11.625 47.5625 5.09375 
Q 40.234375 -1.421875 26.90625 -1.421875 
Q 22.3125 -1.421875 17.546875 -0.640625 
Q 12.796875 0.140625 7.71875 1.703125 
L 7.71875 11.625 
Q 12.109375 9.234375 16.796875 8.0625 
Q 21.484375 6.890625 26.703125 6.890625 
Q 35.15625 6.890625 40.078125 11.328125 
Q 45.015625 15.765625 45.015625 23.390625 
Q 45.015625 31 40.078125 35.4375 
Q 35.15625 39.890625 26.703125 39.890625 
Q 22.75 39.890625 18.8125 39.015625 
Q 14.890625 38.140625 10.796875 36.28125 
z
" id="DejaVuSans-53"/>
      </defs>
      <g transform="translate(24.6575 57.850672)scale(0.1 -0.1)">
       <use xlink:href="#DejaVuSans-53"/>
       <use x="63.623047" xlink:href="#DejaVuSans-48"/>
       <use x="127.246094" xlink:href="#DejaVuSans-48"/>
       <use x="190.869141" xlink:href="#DejaVuSans-48"/>
       <use x="254.492188" xlink:href="#DejaVuSans-48"/>
      </g>
     </g>
    </g>
    <g id="text_9">
     <!-- Loan Amount -->
     <defs>
      <path d="M 9.8125 72.90625 
L 19.671875 72.90625 
L 19.671875 8.296875 
L 55.171875 8.296875 
L 55.171875 0 
L 9.8125 0 
z
" id="DejaVuSans-76"/>
      <path d="M 30.609375 48.390625 
Q 23.390625 48.390625 19.1875 42.75 
Q 14.984375 37.109375 14.984375 27.296875 
Q 14.984375 17.484375 19.15625 11.84375 
Q 23.34375 6.203125 30.609375 6.203125 
Q 37.796875 6.203125 41.984375 11.859375 
Q 46.1875 17.53125 46.1875 27.296875 
Q 46.1875 37.015625 41.984375 42.703125 
Q 37.796875 48.390625 30.609375 48.390625 
z
M 30.609375 56 
Q 42.328125 56 49.015625 48.375 
Q 55.71875 40.765625 55.71875 27.296875 
Q 55.71875 13.875 49.015625 6.21875 
Q 42.328125 -1.421875 30.609375 -1.421875 
Q 18.84375 -1.421875 12.171875 6.21875 
Q 5.515625 13.875 5.515625 27.296875 
Q 5.515625 40.765625 12.171875 48.375 
Q 18.84375 56 30.609375 56 
z
" id="DejaVuSans-111"/>
      <path d="M 54.890625 33.015625 
L 54.890625 0 
L 45.90625 0 
L 45.90625 32.71875 
Q 45.90625 40.484375 42.875 44.328125 
Q 39.84375 48.1875 33.796875 48.1875 
Q 26.515625 48.1875 22.3125 43.546875 
Q 18.109375 38.921875 18.109375 30.90625 
L 18.109375 0 
L 9.078125 0 
L 9.078125 54.6875 
L 18.109375 54.6875 
L 18.109375 46.1875 
Q 21.34375 51.125 25.703125 53.5625 
Q 30.078125 56 35.796875 56 
Q 45.21875 56 50.046875 50.171875 
Q 54.890625 44.34375 54.890625 33.015625 
z
" id="DejaVuSans-110"/>
      <path id="DejaVuSans-32"/>
      <path d="M 34.1875 63.1875 
L 20.796875 26.90625 
L 47.609375 26.90625 
z
M 28.609375 72.90625 
L 39.796875 72.90625 
L 67.578125 0 
L 57.328125 0 
L 50.6875 18.703125 
L 17.828125 18.703125 
L 11.1875 0 
L 0.78125 0 
z
" id="DejaVuSans-65"/>
      <path d="M 52 44.1875 
Q 55.375 50.25 60.0625 53.125 
Q 64.75 56 71.09375 56 
Q 79.640625 56 84.28125 50.015625 
Q 88.921875 44.046875 88.921875 33.015625 
L 88.921875 0 
L 79.890625 0 
L 79.890625 32.71875 
Q 79.890625 40.578125 77.09375 44.375 
Q 74.3125 48.1875 68.609375 48.1875 
Q 61.625 48.1875 57.5625 43.546875 
Q 53.515625 38.921875 53.515625 30.90625 
L 53.515625 0 
L 44.484375 0 
L 44.484375 32.71875 
Q 44.484375 40.625 41.703125 44.40625 
Q 38.921875 48.1875 33.109375 48.1875 
Q 26.21875 48.1875 22.15625 43.53125 
Q 18.109375 38.875 18.109375 30.90625 
L 18.109375 0 
L 9.078125 0 
L 9.078125 54.6875 
L 18.109375 54.6875 
L 18.109375 46.1875 
Q 21.1875 51.21875 25.484375 53.609375 
Q 29.78125 56 35.6875 56 
Q 41.65625 56 45.828125 52.96875 
Q 50 49.953125 52 44.1875 
z
" id="DejaVuSans-109"/>
      <path d="M 8.5 21.578125 
L 8.5 54.6875 
L 17.484375 54.6875 
L 17.484375 21.921875 
Q 17.484375 14.15625 20.5 10.265625 
Q 23.53125 6.390625 29.59375 6.390625 
Q 36.859375 6.390625 41.078125 11.03125 
Q 45.3125 15.671875 45.3125 23.6875 
L 45.3125 54.6875 
L 54.296875 54.6875 
L 54.296875 0 
L 45.3125 0 
L 45.3125 8.40625 
Q 42.046875 3.421875 37.71875 1 
Q 33.40625 -1.421875 27.6875 -1.421875 
Q 18.265625 -1.421875 13.375 4.4375 
Q 8.5 10.296875 8.5 21.578125 
z
M 31.109375 56 
z
" id="DejaVuSans-117"/>
     </defs>
     <g transform="translate(18.577813 97.179591)rotate(-90)scale(0.1 -0.1)">
      <use xlink:href="#DejaVuSans-76"/>
      <use x="53.962891" xlink:href="#DejaVuSans-111"/>
      <use x="115.144531" xlink:href="#DejaVuSans-97"/>
      <use x="176.423828" xlink:href="#DejaVuSans-110"/>
      <use x="239.802734" xlink:href="#DejaVuSans-32"/>
      <use x="271.589844" xlink:href="#DejaVuSans-65"/>
      <use x="339.998047" xlink:href="#DejaVuSans-109"/>
      <use x="437.410156" xlink:href="#DejaVuSans-111"/>
      <use x="498.591797" xlink:href="#DejaVuSans-117"/>
      <use x="561.970703" xlink:href="#DejaVuSans-110"/>
      <use x="625.349609" xlink:href="#DejaVuSans-116"/>
     </g>
    </g>
   </g>
   <g id="line2d_8">
    <path clip-path="url(#pa31ebebad6)" d="M 92.821364 97.654291 
L 97.32212 93.567208 
L 102.305101 89.982814 
L 107.12734 87.01039 
L 112.110321 85.939443 
L 116.93256 93.151943 
L 121.915541 86.529557 
L 126.898522 81.524519 
L 131.720761 74.333876 
L 136.703742 83.229292 
L 141.525981 74.661717 
L 146.508962 72.14827 
L 151.491943 76.038649 
L 155.992699 84.365807 
L 160.97568 96.758193 
L 165.797919 96.976753 
L 170.7809 90.638496 
L 175.60314 82.245769 
L 180.58612 87.032246 
L 185.569101 86.158004 
L 190.39134 72.782096 
L 195.374321 75.14255 
L 200.19656 76.126073 
L 205.179541 72.388687 
L 210.162522 87.950201 
L 214.663278 92.692966 
L 219.646259 88.824443 
L 224.468498 91.359746 
L 229.451479 92.408837 
L 234.273719 82.136489 
L 239.256699 82.661034 
L 244.23968 87.753496 
L 249.061919 95.862094 
L 254.0449 95.927662 
L 258.867139 76.891035 
L 263.85012 71.142891 
L 268.833101 74.792853 
L 273.494599 67.645922 
L 278.477579 75.885656 
L 283.299819 81.240391 
L 288.282799 84.955921 
L 293.105039 94.747435 
L 298.08802 93.676488 
L 303.071 80.956262 
L 307.89324 95.534253 
L 312.87622 81.677512 
L 317.69846 78.683232 
L 322.68144 72.935088 
L 327.664421 30.250204 
L 332.165178 49.13384 
L 337.148158 57.460998 
L 341.970398 69.459975 
L 346.953378 76.213497 
L 351.775618 57.810695 
L 356.758599 57.570278 
L 361.741579 62.291187 
L 366.563819 79.229633 
L 371.546799 76.47577 
L 376.369039 96.277359 
L 381.352019 91.294178 
L 386.335 87.272663 
L 390.835757 82.311338 
L 395.818737 85.830163 
L 400.640977 93.916905 
L 410.446197 90.310655 
L 415.429178 92.736678 
L 420.412158 86.595125 
L 425.234398 73.612626 
L 430.217378 69.787816 
L 435.039618 83.819406 
L 440.022598 75.25183 
L 445.005579 74.661717 
L 449.506336 45.309029 
L 454.489316 79.448194 
L 459.311556 89.06486 
L 464.294536 62.378611 
L 469.116776 74.858421 
L 474.099757 82.529898 
L 479.082737 85.305618 
L 483.904977 90.61664 
L 488.887957 70.618346 
L 493.710197 79.404482 
L 498.693177 91.971716 
L 503.676158 71.667437 
L 508.337656 81.415239 
L 513.320637 49.942514 
L 518.142876 65.744445 
L 523.125857 83.382284 
L 527.948096 61.897778 
L 532.931077 70.880619 
L 537.914058 75.186262 
L 542.736297 67.60221 
L 547.719278 66.028573 
L 552.541517 88.212474 
L 557.524498 79.164065 
L 562.507478 72.235694 
L 567.008235 83.884974 
L 571.991216 84.343951 
L 576.813455 71.776717 
L 581.796436 49.680241 
L 586.618675 84.693648 
L 591.601656 74.137171 
L 596.584637 79.098497 
L 601.406876 54.466718 
L 606.389857 87.797208 
L 611.212096 74.246452 
L 616.195077 68.410884 
L 621.178057 68.104899 
L 625.678814 59.318763 
L 630.661795 43.167135 
L 635.484034 53.985885 
L 640.467015 67.405505 
L 645.289254 55.034976 
L 650.272235 64.542361 
L 655.255216 53.06793 
L 660.077455 49.833233 
L 665.060436 42.620734 
L 669.882675 48.150317 
L 674.865656 61.526225 
L 679.848636 74.137171 
" style="fill:none;stroke:#ffa500;stroke-linecap:square;stroke-width:1.5;"/>
   </g>
   <g id="patch_3">
    <path d="M 63.47 101.024495 
L 63.47 26.88 
" style="fill:none;stroke:#000000;stroke-linecap:square;stroke-linejoin:miter;stroke-width:0.8;"/>
   </g>
   <g id="patch_4">
    <path d="M 709.2 101.024495 
L 709.2 26.88 
" style="fill:none;stroke:#000000;stroke-linecap:square;stroke-linejoin:miter;stroke-width:0.8;"/>
   </g>
   <g id="patch_5">
    <path d="M 63.47 101.024495 
L 709.2 101.024495 
" style="fill:none;stroke:#000000;stroke-linecap:square;stroke-linejoin:miter;stroke-width:0.8;"/>
   </g>
   <g id="patch_6">
    <path d="M 63.47 26.88 
L 709.2 26.88 
" style="fill:none;stroke:#000000;stroke-linecap:square;stroke-linejoin:miter;stroke-width:0.8;"/>
   </g>
   <g id="text_10">
    <!-- Philippines loans over time -->
    <defs>
     <path d="M 19.671875 64.796875 
L 19.671875 37.40625 
L 32.078125 37.40625 
Q 38.96875 37.40625 42.71875 40.96875 
Q 46.484375 44.53125 46.484375 51.125 
Q 46.484375 57.671875 42.71875 61.234375 
Q 38.96875 64.796875 32.078125 64.796875 
z
M 9.8125 72.90625 
L 32.078125 72.90625 
Q 44.34375 72.90625 50.609375 67.359375 
Q 56.890625 61.8125 56.890625 51.125 
Q 56.890625 40.328125 50.609375 34.8125 
Q 44.34375 29.296875 32.078125 29.296875 
L 19.671875 29.296875 
L 19.671875 0 
L 9.8125 0 
z
" id="DejaVuSans-80"/>
     <path d="M 54.890625 33.015625 
L 54.890625 0 
L 45.90625 0 
L 45.90625 32.71875 
Q 45.90625 40.484375 42.875 44.328125 
Q 39.84375 48.1875 33.796875 48.1875 
Q 26.515625 48.1875 22.3125 43.546875 
Q 18.109375 38.921875 18.109375 30.90625 
L 18.109375 0 
L 9.078125 0 
L 9.078125 75.984375 
L 18.109375 75.984375 
L 18.109375 46.1875 
Q 21.34375 51.125 25.703125 53.5625 
Q 30.078125 56 35.796875 56 
Q 45.21875 56 50.046875 50.171875 
Q 54.890625 44.34375 54.890625 33.015625 
z
" id="DejaVuSans-104"/>
     <path d="M 9.421875 54.6875 
L 18.40625 54.6875 
L 18.40625 0 
L 9.421875 0 
z
M 9.421875 75.984375 
L 18.40625 75.984375 
L 18.40625 64.59375 
L 9.421875 64.59375 
z
" id="DejaVuSans-105"/>
     <path d="M 9.421875 75.984375 
L 18.40625 75.984375 
L 18.40625 0 
L 9.421875 0 
z
" id="DejaVuSans-108"/>
     <path d="M 18.109375 8.203125 
L 18.109375 -20.796875 
L 9.078125 -20.796875 
L 9.078125 54.6875 
L 18.109375 54.6875 
L 18.109375 46.390625 
Q 20.953125 51.265625 25.265625 53.625 
Q 29.59375 56 35.59375 56 
Q 45.5625 56 51.78125 48.09375 
Q 58.015625 40.1875 58.015625 27.296875 
Q 58.015625 14.40625 51.78125 6.484375 
Q 45.5625 -1.421875 35.59375 -1.421875 
Q 29.59375 -1.421875 25.265625 0.953125 
Q 20.953125 3.328125 18.109375 8.203125 
z
M 48.6875 27.296875 
Q 48.6875 37.203125 44.609375 42.84375 
Q 40.53125 48.484375 33.40625 48.484375 
Q 26.265625 48.484375 22.1875 42.84375 
Q 18.109375 37.203125 18.109375 27.296875 
Q 18.109375 17.390625 22.1875 11.75 
Q 26.265625 6.109375 33.40625 6.109375 
Q 40.53125 6.109375 44.609375 11.75 
Q 48.6875 17.390625 48.6875 27.296875 
z
" id="DejaVuSans-112"/>
     <path d="M 44.28125 53.078125 
L 44.28125 44.578125 
Q 40.484375 46.53125 36.375 47.5 
Q 32.28125 48.484375 27.875 48.484375 
Q 21.1875 48.484375 17.84375 46.4375 
Q 14.5 44.390625 14.5 40.28125 
Q 14.5 37.15625 16.890625 35.375 
Q 19.28125 33.59375 26.515625 31.984375 
L 29.59375 31.296875 
Q 39.15625 29.25 43.1875 25.515625 
Q 47.21875 21.78125 47.21875 15.09375 
Q 47.21875 7.46875 41.1875 3.015625 
Q 35.15625 -1.421875 24.609375 -1.421875 
Q 20.21875 -1.421875 15.453125 -0.5625 
Q 10.6875 0.296875 5.421875 2 
L 5.421875 11.28125 
Q 10.40625 8.6875 15.234375 7.390625 
Q 20.0625 6.109375 24.8125 6.109375 
Q 31.15625 6.109375 34.5625 8.28125 
Q 37.984375 10.453125 37.984375 14.40625 
Q 37.984375 18.0625 35.515625 20.015625 
Q 33.0625 21.96875 24.703125 23.78125 
L 21.578125 24.515625 
Q 13.234375 26.265625 9.515625 29.90625 
Q 5.8125 33.546875 5.8125 39.890625 
Q 5.8125 47.609375 11.28125 51.796875 
Q 16.75 56 26.8125 56 
Q 31.78125 56 36.171875 55.265625 
Q 40.578125 54.546875 44.28125 53.078125 
z
" id="DejaVuSans-115"/>
     <path d="M 2.984375 54.6875 
L 12.5 54.6875 
L 29.59375 8.796875 
L 46.6875 54.6875 
L 56.203125 54.6875 
L 35.6875 0 
L 23.484375 0 
z
" id="DejaVuSans-118"/>
     <path d="M 41.109375 46.296875 
Q 39.59375 47.171875 37.8125 47.578125 
Q 36.03125 48 33.890625 48 
Q 26.265625 48 22.1875 43.046875 
Q 18.109375 38.09375 18.109375 28.8125 
L 18.109375 0 
L 9.078125 0 
L 9.078125 54.6875 
L 18.109375 54.6875 
L 18.109375 46.1875 
Q 20.953125 51.171875 25.484375 53.578125 
Q 30.03125 56 36.53125 56 
Q 37.453125 56 38.578125 55.875 
Q 39.703125 55.765625 41.0625 55.515625 
z
" id="DejaVuSans-114"/>
    </defs>
    <g transform="translate(305.409062 20.88)scale(0.12 -0.12)">
     <use xlink:href="#DejaVuSans-80"/>
     <use x="60.302734" xlink:href="#DejaVuSans-104"/>
     <use x="123.681641" xlink:href="#DejaVuSans-105"/>
     <use x="151.464844" xlink:href="#DejaVuSans-108"/>
     <use x="179.248047" xlink:href="#DejaVuSans-105"/>
     <use x="207.03125" xlink:href="#DejaVuSans-112"/>
     <use x="270.507812" xlink:href="#DejaVuSans-112"/>
     <use x="333.984375" xlink:href="#DejaVuSans-105"/>
     <use x="361.767578" xlink:href="#DejaVuSans-110"/>
     <use x="425.146484" xlink:href="#DejaVuSans-101"/>
     <use x="486.669922" xlink:href="#DejaVuSans-115"/>
     <use x="538.769531" xlink:href="#DejaVuSans-32"/>
     <use x="570.556641" xlink:href="#DejaVuSans-108"/>
     <use x="598.339844" xlink:href="#DejaVuSans-111"/>
     <use x="659.521484" xlink:href="#DejaVuSans-97"/>
     <use x="720.800781" xlink:href="#DejaVuSans-110"/>
     <use x="784.179688" xlink:href="#DejaVuSans-115"/>
     <use x="836.279297" xlink:href="#DejaVuSans-32"/>
     <use x="868.066406" xlink:href="#DejaVuSans-111"/>
     <use x="929.248047" xlink:href="#DejaVuSans-118"/>
     <use x="988.427734" xlink:href="#DejaVuSans-101"/>
     <use x="1049.951172" xlink:href="#DejaVuSans-114"/>
     <use x="1091.064453" xlink:href="#DejaVuSans-32"/>
     <use x="1122.851562" xlink:href="#DejaVuSans-116"/>
     <use x="1162.060547" xlink:href="#DejaVuSans-105"/>
     <use x="1189.84375" xlink:href="#DejaVuSans-109"/>
     <use x="1287.255859" xlink:href="#DejaVuSans-101"/>
    </g>
   </g>
  </g>
  <g id="axes_2">
   <g id="patch_7">
    <path d="M 63.47 233.208991 
L 709.2 233.208991 
L 709.2 159.064495 
L 63.47 159.064495 
z
" style="fill:#ffffff;"/>
   </g>
   <g id="matplotlib.axis_3">
    <g id="xtick_6">
     <g id="line2d_9">
      <g>
       <use style="stroke:#000000;stroke-width:0.8;" x="118.338259" xlink:href="#m9405a65098" y="233.208991"/>
      </g>
     </g>
     <g id="text_11">
      <!-- 2008 -->
      <g transform="translate(105.613259 247.807428)scale(0.1 -0.1)">
       <use xlink:href="#DejaVuSans-50"/>
       <use x="63.623047" xlink:href="#DejaVuSans-48"/>
       <use x="127.246094" xlink:href="#DejaVuSans-48"/>
       <use x="190.869141" xlink:href="#DejaVuSans-56"/>
      </g>
     </g>
    </g>
    <g id="xtick_7">
     <g id="line2d_10">
      <g>
       <use style="stroke:#000000;stroke-width:0.8;" x="219.712447" xlink:href="#m9405a65098" y="233.208991"/>
      </g>
     </g>
     <g id="text_12">
      <!-- 2010 -->
      <g transform="translate(206.987447 247.807428)scale(0.1 -0.1)">
       <use xlink:href="#DejaVuSans-50"/>
       <use x="63.623047" xlink:href="#DejaVuSans-48"/>
       <use x="127.246094" xlink:href="#DejaVuSans-49"/>
       <use x="190.869141" xlink:href="#DejaVuSans-48"/>
      </g>
     </g>
    </g>
    <g id="xtick_8">
     <g id="line2d_11">
      <g>
       <use style="stroke:#000000;stroke-width:0.8;" x="320.947956" xlink:href="#m9405a65098" y="233.208991"/>
      </g>
     </g>
     <g id="text_13">
      <!-- 2012 -->
      <g transform="translate(308.222956 247.807428)scale(0.1 -0.1)">
       <use xlink:href="#DejaVuSans-50"/>
       <use x="63.623047" xlink:href="#DejaVuSans-48"/>
       <use x="127.246094" xlink:href="#DejaVuSans-49"/>
       <use x="190.869141" xlink:href="#DejaVuSans-50"/>
      </g>
     </g>
    </g>
    <g id="xtick_9">
     <g id="line2d_12">
      <g>
       <use style="stroke:#000000;stroke-width:0.8;" x="422.322143" xlink:href="#m9405a65098" y="233.208991"/>
      </g>
     </g>
     <g id="text_14">
      <!-- 2014 -->
      <g transform="translate(409.597143 247.807428)scale(0.1 -0.1)">
       <use xlink:href="#DejaVuSans-50"/>
       <use x="63.623047" xlink:href="#DejaVuSans-48"/>
       <use x="127.246094" xlink:href="#DejaVuSans-49"/>
       <use x="190.869141" xlink:href="#DejaVuSans-52"/>
      </g>
     </g>
    </g>
    <g id="xtick_10">
     <g id="line2d_13">
      <g>
       <use style="stroke:#000000;stroke-width:0.8;" x="523.557652" xlink:href="#m9405a65098" y="233.208991"/>
      </g>
     </g>
     <g id="text_15">
      <!-- 2016 -->
      <g transform="translate(510.832652 247.807428)scale(0.1 -0.1)">
       <use xlink:href="#DejaVuSans-50"/>
       <use x="63.623047" xlink:href="#DejaVuSans-48"/>
       <use x="127.246094" xlink:href="#DejaVuSans-49"/>
       <use x="190.869141" xlink:href="#DejaVuSans-54"/>
      </g>
     </g>
    </g>
    <g id="xtick_11">
     <g id="line2d_14">
      <g>
       <use style="stroke:#000000;stroke-width:0.8;" x="624.93184" xlink:href="#m9405a65098" y="233.208991"/>
      </g>
     </g>
     <g id="text_16">
      <!-- 2018 -->
      <g transform="translate(612.20684 247.807428)scale(0.1 -0.1)">
       <use xlink:href="#DejaVuSans-50"/>
       <use x="63.623047" xlink:href="#DejaVuSans-48"/>
       <use x="127.246094" xlink:href="#DejaVuSans-49"/>
       <use x="190.869141" xlink:href="#DejaVuSans-56"/>
      </g>
     </g>
    </g>
    <g id="text_17">
     <!-- Date -->
     <g transform="translate(374.384219 261.485553)scale(0.1 -0.1)">
      <use xlink:href="#DejaVuSans-68"/>
      <use x="77.001953" xlink:href="#DejaVuSans-97"/>
      <use x="138.28125" xlink:href="#DejaVuSans-116"/>
      <use x="177.490234" xlink:href="#DejaVuSans-101"/>
     </g>
    </g>
   </g>
   <g id="matplotlib.axis_4">
    <g id="ytick_3">
     <g id="line2d_15">
      <g>
       <use style="stroke:#000000;stroke-width:0.8;" x="63.47" xlink:href="#mb696f9e614" y="230.242404"/>
      </g>
     </g>
     <g id="text_18">
      <!-- 0 -->
      <g transform="translate(50.1075 234.041623)scale(0.1 -0.1)">
       <use xlink:href="#DejaVuSans-48"/>
      </g>
     </g>
    </g>
    <g id="ytick_4">
     <g id="line2d_16">
      <g>
       <use style="stroke:#000000;stroke-width:0.8;" x="63.47" xlink:href="#mb696f9e614" y="182.758017"/>
      </g>
     </g>
     <g id="text_19">
      <!-- 50000 -->
      <g transform="translate(24.6575 186.557236)scale(0.1 -0.1)">
       <use xlink:href="#DejaVuSans-53"/>
       <use x="63.623047" xlink:href="#DejaVuSans-48"/>
       <use x="127.246094" xlink:href="#DejaVuSans-48"/>
       <use x="190.869141" xlink:href="#DejaVuSans-48"/>
       <use x="254.492188" xlink:href="#DejaVuSans-48"/>
      </g>
     </g>
    </g>
    <g id="text_20">
     <!-- Loan Amount -->
     <g transform="translate(18.577813 229.364087)rotate(-90)scale(0.1 -0.1)">
      <use xlink:href="#DejaVuSans-76"/>
      <use x="53.962891" xlink:href="#DejaVuSans-111"/>
      <use x="115.144531" xlink:href="#DejaVuSans-97"/>
      <use x="176.423828" xlink:href="#DejaVuSans-110"/>
      <use x="239.802734" xlink:href="#DejaVuSans-32"/>
      <use x="271.589844" xlink:href="#DejaVuSans-65"/>
      <use x="339.998047" xlink:href="#DejaVuSans-109"/>
      <use x="437.410156" xlink:href="#DejaVuSans-111"/>
      <use x="498.591797" xlink:href="#DejaVuSans-117"/>
      <use x="561.970703" xlink:href="#DejaVuSans-110"/>
      <use x="625.349609" xlink:href="#DejaVuSans-116"/>
     </g>
    </g>
   </g>
   <g id="line2d_17">
    <path clip-path="url(#pe11e32f838)" d="M 92.821364 229.55388 
L 97.120406 229.76756 
L 101.419448 228.770388 
L 105.579811 225.565192 
L 109.878853 217.943948 
L 114.039217 214.50133 
L 118.338259 218.347565 
L 122.637301 218.751182 
L 126.658986 225.565192 
L 130.958028 229.601365 
L 135.118391 228.984068 
L 139.417433 229.292716 
L 143.577797 229.838787 
L 147.876839 228.604193 
L 152.175881 229.76756 
L 156.336245 229.625107 
L 160.635287 227.322114 
L 164.79565 227.701989 
L 173.393734 228.722904 
L 177.27674 203.342499 
L 181.575782 215.80715 
L 185.736146 212.506985 
L 190.035188 212.34079 
L 194.195551 215.545986 
L 198.494593 211.557298 
L 202.793636 213.670353 
L 206.953999 193.157098 
L 211.253041 206.547695 
L 215.413405 189.548285 
L 219.712447 196.504747 
L 224.011489 201.965452 
L 227.894495 226.016293 
L 232.193537 227.250888 
L 236.3539 229.268974 
L 240.652942 221.885152 
L 244.813306 212.412017 
L 249.112348 215.356049 
L 253.41139 222.431222 
L 257.571753 191.685082 
L 261.870796 186.224378 
L 266.031159 198.570318 
L 270.330201 201.348155 
L 274.629243 199.947365 
L 278.512249 228.770388 
L 282.811291 220.959206 
L 286.971655 221.671472 
L 291.270697 225.161575 
L 295.43106 212.222079 
L 299.730102 207.070023 
L 304.029144 213.907775 
L 308.189508 227.701989 
L 316.648913 191.210238 
L 320.947956 199.377553 
L 325.246998 195.246411 
L 329.268682 185.583338 
L 333.567724 190.949074 
L 337.728088 216.661869 
L 342.02713 210.39393 
L 346.187493 222.217543 
L 350.486536 223.143488 
L 354.785578 225.446481 
L 358.945941 224.021949 
L 363.244983 223.92698 
L 367.405347 205.289359 
L 371.704389 213.575384 
L 376.003431 201.585577 
L 379.886437 201.538092 
L 384.185479 191.685082 
L 388.345842 203.128819 
L 392.644884 215.997088 
L 396.805248 194.106786 
L 401.10429 201.324412 
L 405.403332 203.318757 
L 409.563696 215.593471 
L 413.862738 219.297253 
L 418.023101 228.010638 
L 422.322143 215.973346 
L 426.621185 223.024777 
L 430.504191 221.742699 
L 434.803233 223.950723 
L 438.963597 219.677128 
L 443.262639 229.387685 
L 447.423002 228.414255 
L 451.722044 227.986896 
L 456.021087 212.76815 
L 460.18145 218.584987 
L 464.480492 217.75401 
L 468.640856 214.50133 
L 472.939898 198.973935 
L 477.23894 212.198337 
L 481.121946 211.177423 
L 485.420988 221.837667 
L 489.581351 227.773216 
L 493.880393 214.904947 
L 498.040757 226.704817 
L 502.339799 217.516588 
L 506.638841 226.063778 
L 510.799204 228.889099 
L 515.098247 212.981829 
L 519.25861 207.117508 
L 523.557652 226.752301 
L 527.856694 214.311392 
L 531.878379 214.620041 
L 536.177421 197.406951 
L 540.337784 200.256014 
L 544.636827 211.818462 
L 548.79719 213.005572 
L 553.096232 220.033261 
L 557.395274 222.288769 
L 561.555638 214.240166 
L 565.85468 217.611557 
L 570.015043 224.852926 
L 574.314085 223.119746 
L 578.613127 219.48719 
L 582.496133 224.069434 
L 586.795175 220.436878 
L 590.955539 218.537503 
L 595.254581 202.012936 
L 599.414944 221.742699 
L 603.713987 220.199456 
L 608.013029 223.309683 
L 612.173392 182.90047 
L 616.472434 220.413136 
L 620.632798 216.210768 
L 624.93184 205.526781 
L 629.230882 215.308564 
L 633.113888 200.089818 
L 637.41293 201.633061 
L 641.573293 197.193271 
L 645.872335 197.145786 
L 650.032699 181.737103 
L 654.331741 215.26108 
L 658.630783 162.4347 
L 662.791147 207.426156 
L 667.090189 186.960385 
L 671.250552 217.920206 
L 675.549594 215.830893 
L 679.848636 215.735924 
L 679.848636 215.735924 
" style="fill:none;stroke:#0000ff;stroke-linecap:square;stroke-width:1.5;"/>
   </g>
   <g id="patch_8">
    <path d="M 63.47 233.208991 
L 63.47 159.064495 
" style="fill:none;stroke:#000000;stroke-linecap:square;stroke-linejoin:miter;stroke-width:0.8;"/>
   </g>
   <g id="patch_9">
    <path d="M 709.2 233.208991 
L 709.2 159.064495 
" style="fill:none;stroke:#000000;stroke-linecap:square;stroke-linejoin:miter;stroke-width:0.8;"/>
   </g>
   <g id="patch_10">
    <path d="M 63.47 233.208991 
L 709.2 233.208991 
" style="fill:none;stroke:#000000;stroke-linecap:square;stroke-linejoin:miter;stroke-width:0.8;"/>
   </g>
   <g id="patch_11">
    <path d="M 63.47 159.064495 
L 709.2 159.064495 
" style="fill:none;stroke:#000000;stroke-linecap:square;stroke-linejoin:miter;stroke-width:0.8;"/>
   </g>
   <g id="text_21">
    <!-- Peru loans over time -->
    <g transform="translate(324.37375 153.064495)scale(0.12 -0.12)">
     <use xlink:href="#DejaVuSans-80"/>
     <use x="56.677734" xlink:href="#DejaVuSans-101"/>
     <use x="118.201172" xlink:href="#DejaVuSans-114"/>
     <use x="159.314453" xlink:href="#DejaVuSans-117"/>
     <use x="222.693359" xlink:href="#DejaVuSans-32"/>
     <use x="254.480469" xlink:href="#DejaVuSans-108"/>
     <use x="282.263672" xlink:href="#DejaVuSans-111"/>
     <use x="343.445312" xlink:href="#DejaVuSans-97"/>
     <use x="404.724609" xlink:href="#DejaVuSans-110"/>
     <use x="468.103516" xlink:href="#DejaVuSans-115"/>
     <use x="520.203125" xlink:href="#DejaVuSans-32"/>
     <use x="551.990234" xlink:href="#DejaVuSans-111"/>
     <use x="613.171875" xlink:href="#DejaVuSans-118"/>
     <use x="672.351562" xlink:href="#DejaVuSans-101"/>
     <use x="733.875" xlink:href="#DejaVuSans-114"/>
     <use x="774.988281" xlink:href="#DejaVuSans-32"/>
     <use x="806.775391" xlink:href="#DejaVuSans-116"/>
     <use x="845.984375" xlink:href="#DejaVuSans-105"/>
     <use x="873.767578" xlink:href="#DejaVuSans-109"/>
     <use x="971.179688" xlink:href="#DejaVuSans-101"/>
    </g>
   </g>
  </g>
  <g id="axes_3">
   <g id="patch_12">
    <path d="M 63.47 365.393486 
L 709.2 365.393486 
L 709.2 291.248991 
L 63.47 291.248991 
z
" style="fill:#ffffff;"/>
   </g>
   <g id="matplotlib.axis_5">
    <g id="xtick_12">
     <g id="line2d_18">
      <g>
       <use style="stroke:#000000;stroke-width:0.8;" x="81.554046" xlink:href="#m9405a65098" y="365.393486"/>
      </g>
     </g>
     <g id="text_22">
      <!-- 2006 -->
      <g transform="translate(68.829046 379.991924)scale(0.1 -0.1)">
       <use xlink:href="#DejaVuSans-50"/>
       <use x="63.623047" xlink:href="#DejaVuSans-48"/>
       <use x="127.246094" xlink:href="#DejaVuSans-48"/>
       <use x="190.869141" xlink:href="#DejaVuSans-54"/>
      </g>
     </g>
    </g>
    <g id="xtick_13">
     <g id="line2d_19">
      <g>
       <use style="stroke:#000000;stroke-width:0.8;" x="172.944515" xlink:href="#m9405a65098" y="365.393486"/>
      </g>
     </g>
     <g id="text_23">
      <!-- 2008 -->
      <g transform="translate(160.219515 379.991924)scale(0.1 -0.1)">
       <use xlink:href="#DejaVuSans-50"/>
       <use x="63.623047" xlink:href="#DejaVuSans-48"/>
       <use x="127.246094" xlink:href="#DejaVuSans-48"/>
       <use x="190.869141" xlink:href="#DejaVuSans-56"/>
      </g>
     </g>
    </g>
    <g id="xtick_14">
     <g id="line2d_20">
      <g>
       <use style="stroke:#000000;stroke-width:0.8;" x="264.460176" xlink:href="#m9405a65098" y="365.393486"/>
      </g>
     </g>
     <g id="text_24">
      <!-- 2010 -->
      <g transform="translate(251.735176 379.991924)scale(0.1 -0.1)">
       <use xlink:href="#DejaVuSans-50"/>
       <use x="63.623047" xlink:href="#DejaVuSans-48"/>
       <use x="127.246094" xlink:href="#DejaVuSans-49"/>
       <use x="190.869141" xlink:href="#DejaVuSans-48"/>
      </g>
     </g>
    </g>
    <g id="xtick_15">
     <g id="line2d_21">
      <g>
       <use style="stroke:#000000;stroke-width:0.8;" x="355.850645" xlink:href="#m9405a65098" y="365.393486"/>
      </g>
     </g>
     <g id="text_25">
      <!-- 2012 -->
      <g transform="translate(343.125645 379.991924)scale(0.1 -0.1)">
       <use xlink:href="#DejaVuSans-50"/>
       <use x="63.623047" xlink:href="#DejaVuSans-48"/>
       <use x="127.246094" xlink:href="#DejaVuSans-49"/>
       <use x="190.869141" xlink:href="#DejaVuSans-50"/>
      </g>
     </g>
    </g>
    <g id="xtick_16">
     <g id="line2d_22">
      <g>
       <use style="stroke:#000000;stroke-width:0.8;" x="447.366306" xlink:href="#m9405a65098" y="365.393486"/>
      </g>
     </g>
     <g id="text_26">
      <!-- 2014 -->
      <g transform="translate(434.641306 379.991924)scale(0.1 -0.1)">
       <use xlink:href="#DejaVuSans-50"/>
       <use x="63.623047" xlink:href="#DejaVuSans-48"/>
       <use x="127.246094" xlink:href="#DejaVuSans-49"/>
       <use x="190.869141" xlink:href="#DejaVuSans-52"/>
      </g>
     </g>
    </g>
    <g id="xtick_17">
     <g id="line2d_23">
      <g>
       <use style="stroke:#000000;stroke-width:0.8;" x="538.756775" xlink:href="#m9405a65098" y="365.393486"/>
      </g>
     </g>
     <g id="text_27">
      <!-- 2016 -->
      <g transform="translate(526.031775 379.991924)scale(0.1 -0.1)">
       <use xlink:href="#DejaVuSans-50"/>
       <use x="63.623047" xlink:href="#DejaVuSans-48"/>
       <use x="127.246094" xlink:href="#DejaVuSans-49"/>
       <use x="190.869141" xlink:href="#DejaVuSans-54"/>
      </g>
     </g>
    </g>
    <g id="xtick_18">
     <g id="line2d_24">
      <g>
       <use style="stroke:#000000;stroke-width:0.8;" x="630.272437" xlink:href="#m9405a65098" y="365.393486"/>
      </g>
     </g>
     <g id="text_28">
      <!-- 2018 -->
      <g transform="translate(617.547437 379.991924)scale(0.1 -0.1)">
       <use xlink:href="#DejaVuSans-50"/>
       <use x="63.623047" xlink:href="#DejaVuSans-48"/>
       <use x="127.246094" xlink:href="#DejaVuSans-49"/>
       <use x="190.869141" xlink:href="#DejaVuSans-56"/>
      </g>
     </g>
    </g>
    <g id="text_29">
     <!-- Date -->
     <g transform="translate(374.384219 393.670049)scale(0.1 -0.1)">
      <use xlink:href="#DejaVuSans-68"/>
      <use x="77.001953" xlink:href="#DejaVuSans-97"/>
      <use x="138.28125" xlink:href="#DejaVuSans-116"/>
      <use x="177.490234" xlink:href="#DejaVuSans-101"/>
     </g>
    </g>
   </g>
   <g id="matplotlib.axis_6">
    <g id="ytick_5">
     <g id="line2d_25">
      <g>
       <use style="stroke:#000000;stroke-width:0.8;" x="63.47" xlink:href="#mb696f9e614" y="362.193781"/>
      </g>
     </g>
     <g id="text_30">
      <!-- 0 -->
      <g transform="translate(50.1075 365.993)scale(0.1 -0.1)">
       <use xlink:href="#DejaVuSans-48"/>
      </g>
     </g>
    </g>
    <g id="ytick_6">
     <g id="line2d_26">
      <g>
       <use style="stroke:#000000;stroke-width:0.8;" x="63.47" xlink:href="#mb696f9e614" y="333.777219"/>
      </g>
     </g>
     <g id="text_31">
      <!-- 25000 -->
      <g transform="translate(24.6575 337.576437)scale(0.1 -0.1)">
       <use xlink:href="#DejaVuSans-50"/>
       <use x="63.623047" xlink:href="#DejaVuSans-53"/>
       <use x="127.246094" xlink:href="#DejaVuSans-48"/>
       <use x="190.869141" xlink:href="#DejaVuSans-48"/>
       <use x="254.492188" xlink:href="#DejaVuSans-48"/>
      </g>
     </g>
    </g>
    <g id="ytick_7">
     <g id="line2d_27">
      <g>
       <use style="stroke:#000000;stroke-width:0.8;" x="63.47" xlink:href="#mb696f9e614" y="305.360656"/>
      </g>
     </g>
     <g id="text_32">
      <!-- 50000 -->
      <g transform="translate(24.6575 309.159875)scale(0.1 -0.1)">
       <use xlink:href="#DejaVuSans-53"/>
       <use x="63.623047" xlink:href="#DejaVuSans-48"/>
       <use x="127.246094" xlink:href="#DejaVuSans-48"/>
       <use x="190.869141" xlink:href="#DejaVuSans-48"/>
       <use x="254.492188" xlink:href="#DejaVuSans-48"/>
      </g>
     </g>
    </g>
    <g id="text_33">
     <!-- Loan Amount -->
     <g transform="translate(18.577813 361.548582)rotate(-90)scale(0.1 -0.1)">
      <use xlink:href="#DejaVuSans-76"/>
      <use x="53.962891" xlink:href="#DejaVuSans-111"/>
      <use x="115.144531" xlink:href="#DejaVuSans-97"/>
      <use x="176.423828" xlink:href="#DejaVuSans-110"/>
      <use x="239.802734" xlink:href="#DejaVuSans-32"/>
      <use x="271.589844" xlink:href="#DejaVuSans-65"/>
      <use x="339.998047" xlink:href="#DejaVuSans-109"/>
      <use x="437.410156" xlink:href="#DejaVuSans-111"/>
      <use x="498.591797" xlink:href="#DejaVuSans-117"/>
      <use x="561.970703" xlink:href="#DejaVuSans-110"/>
      <use x="625.349609" xlink:href="#DejaVuSans-116"/>
     </g>
    </g>
   </g>
   <g id="line2d_28">
    <path clip-path="url(#p20231f4b9a)" d="M 92.821364 361.426534 
L 100.458101 360.687704 
L 108.094839 361.511784 
L 111.975804 359.97729 
L 115.731577 361.938032 
L 119.612542 357.874464 
L 123.368315 357.0788 
L 127.24928 359.323709 
L 131.130245 360.318288 
L 134.635633 350.912406 
L 138.516598 353.128898 
L 142.272371 359.011126 
L 146.153336 357.0788 
L 149.909109 359.89204 
L 153.790074 361.540201 
L 157.671039 362.023282 
L 161.426812 356.99355 
L 165.307777 357.760798 
L 169.063549 358.954293 
L 172.944515 360.829786 
L 176.82548 358.755377 
L 180.45606 360.88662 
L 211.128204 361.79595 
L 226.151294 360.829786 
L 230.03226 361.312868 
L 233.788032 361.170785 
L 237.668997 360.80137 
L 241.42477 361.568617 
L 245.305735 358.925877 
L 249.1867 353.583563 
L 252.942473 350.685074 
L 256.823438 350.912406 
L 260.579211 354.293977 
L 264.460176 358.89746 
L 268.341141 351.679653 
L 271.846529 359.920456 
L 275.727494 361.881199 
L 283.364232 356.624135 
L 287.120005 351.509154 
L 291.00097 355.743222 
L 294.881935 356.16947 
L 298.637707 338.295452 
L 302.518673 337.812371 
L 306.274445 348.468582 
L 310.15541 344.774428 
L 314.036376 341.392858 
L 317.541763 358.840627 
L 321.422729 356.510469 
L 325.178501 358.499628 
L 329.059466 356.510469 
L 332.815239 345.683759 
L 336.696204 344.064014 
L 340.577169 350.912406 
L 348.213907 360.119372 
L 351.96968 315.448536 
L 355.850645 323.177841 
L 359.73161 327.667658 
L 363.36219 328.946403 
L 367.243155 336.448376 
L 370.998928 313.629876 
L 374.879893 354.095061 
L 378.635666 359.153209 
L 382.516631 356.226303 
L 386.397596 348.127583 
L 390.153369 360.261455 
L 394.034334 340.284612 
L 397.790107 340.654027 
L 401.671072 326.019497 
L 405.552037 314.34029 
L 409.057425 294.619195 
L 412.93839 324.939668 
L 416.694163 327.696074 
L 420.575128 330.083066 
L 424.3309 320.250935 
L 428.211866 324.712335 
L 432.092831 332.44164 
L 435.848603 350.969239 
L 439.729569 342.870519 
L 443.485341 357.533465 
L 447.366306 351.395488 
L 451.247271 356.368386 
L 454.752659 341.70544 
L 458.633624 354.237144 
L 462.389397 348.98008 
L 466.270362 361.085535 
L 470.026135 361.824366 
L 473.9071 360.346705 
L 477.788065 355.515889 
L 481.543838 349.605244 
L 485.424803 350.116742 
L 489.180576 346.479422 
L 493.061541 343.609349 
L 496.942506 346.479422 
L 500.447894 323.859838 
L 504.328859 337.101957 
L 508.084632 351.935402 
L 511.965597 345.229093 
L 515.721369 350.940823 
L 519.602335 351.168155 
L 523.4833 356.112637 
L 527.239072 353.896145 
L 531.120038 350.457741 
L 534.87581 340.313028 
L 538.756775 356.794635 
L 542.63774 349.292662 
L 546.268321 346.195257 
L 550.149286 327.241409 
L 553.905059 328.917986 
L 557.786024 354.123478 
L 561.541796 340.767693 
L 565.422761 346.962504 
L 569.303727 349.974659 
L 573.059499 356.197887 
L 576.940464 349.463161 
L 580.696237 341.819106 
L 584.577202 337.442955 
L 588.458167 338.522785 
L 591.963555 350.372491 
L 595.84452 354.578143 
L 599.600293 342.074855 
L 603.481258 343.154684 
L 607.237031 345.229093 
L 611.117996 357.362966 
L 614.998961 354.549726 
L 618.754734 337.15879 
L 622.635699 339.204782 
L 626.391472 331.61756 
L 630.272437 328.861153 
L 634.153402 333.777219 
L 637.65879 305.445906 
L 641.539755 329.003236 
L 645.295528 322.382177 
L 649.176493 334.828632 
L 652.932265 331.645977 
L 656.81323 323.888255 
L 660.694196 320.734016 
L 664.449968 319.000606 
L 668.330933 331.645977 
L 672.086706 323.604089 
L 675.967671 329.827316 
L 679.848636 344.177681 
L 679.848636 344.177681 
" style="fill:none;stroke:#ff0000;stroke-linecap:square;stroke-width:1.5;"/>
   </g>
   <g id="patch_13">
    <path d="M 63.47 365.393486 
L 63.47 291.248991 
" style="fill:none;stroke:#000000;stroke-linecap:square;stroke-linejoin:miter;stroke-width:0.8;"/>
   </g>
   <g id="patch_14">
    <path d="M 709.2 365.393486 
L 709.2 291.248991 
" style="fill:none;stroke:#000000;stroke-linecap:square;stroke-linejoin:miter;stroke-width:0.8;"/>
   </g>
   <g id="patch_15">
    <path d="M 63.47 365.393486 
L 709.2 365.393486 
" style="fill:none;stroke:#000000;stroke-linecap:square;stroke-linejoin:miter;stroke-width:0.8;"/>
   </g>
   <g id="patch_16">
    <path d="M 63.47 291.248991 
L 709.2 291.248991 
" style="fill:none;stroke:#000000;stroke-linecap:square;stroke-linejoin:miter;stroke-width:0.8;"/>
   </g>
   <g id="text_34">
    <!-- Kenya loans over time -->
    <defs>
     <path d="M 9.8125 72.90625 
L 19.671875 72.90625 
L 19.671875 42.09375 
L 52.390625 72.90625 
L 65.09375 72.90625 
L 28.90625 38.921875 
L 67.671875 0 
L 54.6875 0 
L 19.671875 35.109375 
L 19.671875 0 
L 9.8125 0 
z
" id="DejaVuSans-75"/>
     <path d="M 32.171875 -5.078125 
Q 28.375 -14.84375 24.75 -17.8125 
Q 21.140625 -20.796875 15.09375 -20.796875 
L 7.90625 -20.796875 
L 7.90625 -13.28125 
L 13.1875 -13.28125 
Q 16.890625 -13.28125 18.9375 -11.515625 
Q 21 -9.765625 23.484375 -3.21875 
L 25.09375 0.875 
L 2.984375 54.6875 
L 12.5 54.6875 
L 29.59375 11.921875 
L 46.6875 54.6875 
L 56.203125 54.6875 
z
" id="DejaVuSans-121"/>
    </defs>
    <g transform="translate(319.377812 285.248991)scale(0.12 -0.12)">
     <use xlink:href="#DejaVuSans-75"/>
     <use x="60.576172" xlink:href="#DejaVuSans-101"/>
     <use x="122.099609" xlink:href="#DejaVuSans-110"/>
     <use x="185.478516" xlink:href="#DejaVuSans-121"/>
     <use x="244.658203" xlink:href="#DejaVuSans-97"/>
     <use x="305.9375" xlink:href="#DejaVuSans-32"/>
     <use x="337.724609" xlink:href="#DejaVuSans-108"/>
     <use x="365.507812" xlink:href="#DejaVuSans-111"/>
     <use x="426.689453" xlink:href="#DejaVuSans-97"/>
     <use x="487.96875" xlink:href="#DejaVuSans-110"/>
     <use x="551.347656" xlink:href="#DejaVuSans-115"/>
     <use x="603.447266" xlink:href="#DejaVuSans-32"/>
     <use x="635.234375" xlink:href="#DejaVuSans-111"/>
     <use x="696.416016" xlink:href="#DejaVuSans-118"/>
     <use x="755.595703" xlink:href="#DejaVuSans-101"/>
     <use x="817.119141" xlink:href="#DejaVuSans-114"/>
     <use x="858.232422" xlink:href="#DejaVuSans-32"/>
     <use x="890.019531" xlink:href="#DejaVuSans-116"/>
     <use x="929.228516" xlink:href="#DejaVuSans-105"/>
     <use x="957.011719" xlink:href="#DejaVuSans-109"/>
     <use x="1054.423828" xlink:href="#DejaVuSans-101"/>
    </g>
   </g>
  </g>
  <g id="axes_4">
   <g id="patch_17">
    <path d="M 63.47 497.577982 
L 709.2 497.577982 
L 709.2 423.433486 
L 63.47 423.433486 
z
" style="fill:#ffffff;"/>
   </g>
   <g id="matplotlib.axis_7">
    <g id="xtick_19">
     <g id="line2d_29">
      <g>
       <use style="stroke:#000000;stroke-width:0.8;" x="122.289775" xlink:href="#m9405a65098" y="497.577982"/>
      </g>
     </g>
     <g id="text_35">
      <!-- 2008 -->
      <g transform="translate(109.564775 512.176419)scale(0.1 -0.1)">
       <use xlink:href="#DejaVuSans-50"/>
       <use x="63.623047" xlink:href="#DejaVuSans-48"/>
       <use x="127.246094" xlink:href="#DejaVuSans-48"/>
       <use x="190.869141" xlink:href="#DejaVuSans-56"/>
      </g>
     </g>
    </g>
    <g id="xtick_20">
     <g id="line2d_30">
      <g>
       <use style="stroke:#000000;stroke-width:0.8;" x="222.950562" xlink:href="#m9405a65098" y="497.577982"/>
      </g>
     </g>
     <g id="text_36">
      <!-- 2010 -->
      <g transform="translate(210.225562 512.176419)scale(0.1 -0.1)">
       <use xlink:href="#DejaVuSans-50"/>
       <use x="63.623047" xlink:href="#DejaVuSans-48"/>
       <use x="127.246094" xlink:href="#DejaVuSans-49"/>
       <use x="190.869141" xlink:href="#DejaVuSans-48"/>
      </g>
     </g>
    </g>
    <g id="xtick_21">
     <g id="line2d_31">
      <g>
       <use style="stroke:#000000;stroke-width:0.8;" x="323.473646" xlink:href="#m9405a65098" y="497.577982"/>
      </g>
     </g>
     <g id="text_37">
      <!-- 2012 -->
      <g transform="translate(310.748646 512.176419)scale(0.1 -0.1)">
       <use xlink:href="#DejaVuSans-50"/>
       <use x="63.623047" xlink:href="#DejaVuSans-48"/>
       <use x="127.246094" xlink:href="#DejaVuSans-49"/>
       <use x="190.869141" xlink:href="#DejaVuSans-50"/>
      </g>
     </g>
    </g>
    <g id="xtick_22">
     <g id="line2d_32">
      <g>
       <use style="stroke:#000000;stroke-width:0.8;" x="424.134434" xlink:href="#m9405a65098" y="497.577982"/>
      </g>
     </g>
     <g id="text_38">
      <!-- 2014 -->
      <g transform="translate(411.409434 512.176419)scale(0.1 -0.1)">
       <use xlink:href="#DejaVuSans-50"/>
       <use x="63.623047" xlink:href="#DejaVuSans-48"/>
       <use x="127.246094" xlink:href="#DejaVuSans-49"/>
       <use x="190.869141" xlink:href="#DejaVuSans-52"/>
      </g>
     </g>
    </g>
    <g id="xtick_23">
     <g id="line2d_33">
      <g>
       <use style="stroke:#000000;stroke-width:0.8;" x="524.657518" xlink:href="#m9405a65098" y="497.577982"/>
      </g>
     </g>
     <g id="text_39">
      <!-- 2016 -->
      <g transform="translate(511.932518 512.176419)scale(0.1 -0.1)">
       <use xlink:href="#DejaVuSans-50"/>
       <use x="63.623047" xlink:href="#DejaVuSans-48"/>
       <use x="127.246094" xlink:href="#DejaVuSans-49"/>
       <use x="190.869141" xlink:href="#DejaVuSans-54"/>
      </g>
     </g>
    </g>
    <g id="xtick_24">
     <g id="line2d_34">
      <g>
       <use style="stroke:#000000;stroke-width:0.8;" x="625.318306" xlink:href="#m9405a65098" y="497.577982"/>
      </g>
     </g>
     <g id="text_40">
      <!-- 2018 -->
      <g transform="translate(612.593306 512.176419)scale(0.1 -0.1)">
       <use xlink:href="#DejaVuSans-50"/>
       <use x="63.623047" xlink:href="#DejaVuSans-48"/>
       <use x="127.246094" xlink:href="#DejaVuSans-49"/>
       <use x="190.869141" xlink:href="#DejaVuSans-56"/>
      </g>
     </g>
    </g>
    <g id="text_41">
     <!-- Date -->
     <g transform="translate(374.384219 525.854544)scale(0.1 -0.1)">
      <use xlink:href="#DejaVuSans-68"/>
      <use x="77.001953" xlink:href="#DejaVuSans-97"/>
      <use x="138.28125" xlink:href="#DejaVuSans-116"/>
      <use x="177.490234" xlink:href="#DejaVuSans-101"/>
     </g>
    </g>
   </g>
   <g id="matplotlib.axis_8">
    <g id="ytick_8">
     <g id="line2d_35">
      <g>
       <use style="stroke:#000000;stroke-width:0.8;" x="63.47" xlink:href="#mb696f9e614" y="494.690154"/>
      </g>
     </g>
     <g id="text_42">
      <!-- 0 -->
      <g transform="translate(50.1075 498.489373)scale(0.1 -0.1)">
       <use xlink:href="#DejaVuSans-48"/>
      </g>
     </g>
    </g>
    <g id="ytick_9">
     <g id="line2d_36">
      <g>
       <use style="stroke:#000000;stroke-width:0.8;" x="63.47" xlink:href="#mb696f9e614" y="468.963403"/>
      </g>
     </g>
     <g id="text_43">
      <!-- 20000 -->
      <g transform="translate(24.6575 472.762622)scale(0.1 -0.1)">
       <use xlink:href="#DejaVuSans-50"/>
       <use x="63.623047" xlink:href="#DejaVuSans-48"/>
       <use x="127.246094" xlink:href="#DejaVuSans-48"/>
       <use x="190.869141" xlink:href="#DejaVuSans-48"/>
       <use x="254.492188" xlink:href="#DejaVuSans-48"/>
      </g>
     </g>
    </g>
    <g id="ytick_10">
     <g id="line2d_37">
      <g>
       <use style="stroke:#000000;stroke-width:0.8;" x="63.47" xlink:href="#mb696f9e614" y="443.236653"/>
      </g>
     </g>
     <g id="text_44">
      <!-- 40000 -->
      <g transform="translate(24.6575 447.035871)scale(0.1 -0.1)">
       <use xlink:href="#DejaVuSans-52"/>
       <use x="63.623047" xlink:href="#DejaVuSans-48"/>
       <use x="127.246094" xlink:href="#DejaVuSans-48"/>
       <use x="190.869141" xlink:href="#DejaVuSans-48"/>
       <use x="254.492188" xlink:href="#DejaVuSans-48"/>
      </g>
     </g>
    </g>
    <g id="text_45">
     <!-- Loan Amount -->
     <g transform="translate(18.577813 493.733078)rotate(-90)scale(0.1 -0.1)">
      <use xlink:href="#DejaVuSans-76"/>
      <use x="53.962891" xlink:href="#DejaVuSans-111"/>
      <use x="115.144531" xlink:href="#DejaVuSans-97"/>
      <use x="176.423828" xlink:href="#DejaVuSans-110"/>
      <use x="239.802734" xlink:href="#DejaVuSans-32"/>
      <use x="271.589844" xlink:href="#DejaVuSans-65"/>
      <use x="339.998047" xlink:href="#DejaVuSans-109"/>
      <use x="437.410156" xlink:href="#DejaVuSans-111"/>
      <use x="498.591797" xlink:href="#DejaVuSans-117"/>
      <use x="561.970703" xlink:href="#DejaVuSans-110"/>
      <use x="625.349609" xlink:href="#DejaVuSans-116"/>
     </g>
    </g>
   </g>
   <g id="line2d_38">
    <path clip-path="url(#p7fabfc9ae9)" d="M 92.821364 493.468133 
L 96.952449 490.380923 
L 101.221238 492.567697 
L 105.490026 490.123656 
L 113.889901 488.129833 
L 118.020986 487.615298 
L 126.558563 490.187973 
L 130.551946 491.795895 
L 138.95182 493.468133 
L 147.351694 494.046985 
L 151.620483 493.146549 
L 160.020357 493.693243 
L 180.813488 493.854035 
L 185.082277 488.258466 
L 189.213362 491.506469 
L 193.482151 487.068604 
L 197.613237 493.403817 
L 201.882025 483.466859 
L 206.150814 487.904724 
L 210.281899 493.371658 
L 214.550688 493.596767 
L 218.681774 468.995562 
L 227.219351 488.515734 
L 231.07503 491.442152 
L 239.474905 493.243024 
L 243.743693 487.518822 
L 247.874779 491.635102 
L 252.143567 476.906538 
L 256.412356 488.354942 
L 260.543442 485.074781 
L 264.81223 487.550981 
L 268.943316 487.936882 
L 277.480893 479.54353 
L 281.336573 493.982668 
L 285.605361 485.364207 
L 289.736447 487.840407 
L 294.005235 487.936882 
L 298.136321 482.309155 
L 302.40511 487.679615 
L 306.673898 486.907812 
L 319.204858 474.430338 
L 323.473646 473.465585 
L 327.742435 456.035711 
L 331.735818 472.404356 
L 336.004606 464.654173 
L 340.135692 488.451417 
L 344.404481 491.538627 
L 348.535566 487.004287 
L 352.804355 492.792806 
L 357.073143 490.380923 
L 361.204229 493.371658 
L 365.473017 465.94051 
L 369.604103 479.993748 
L 373.872892 482.084046 
L 378.14168 465.136549 
L 381.99736 467.837858 
L 386.266149 473.883644 
L 390.397234 456.550246 
L 394.666023 447.481567 
L 398.797108 444.812416 
L 403.065897 440.278076 
L 407.334685 463.239201 
L 411.465771 487.325872 
L 415.73456 474.59113 
L 428.403222 464.847123 
L 432.258902 488.80516 
L 436.527691 490.831142 
L 449.058651 493.725401 
L 453.327439 489.544804 
L 461.727313 477.774816 
L 465.996102 484.592404 
L 470.127188 469.477938 
L 474.395976 475.523725 
L 478.664765 474.751922 
L 482.520445 449.861291 
L 486.789233 491.217043 
L 490.920319 489.544804 
L 495.189107 470.764276 
L 499.320193 492.535539 
L 503.588981 483.563334 
L 507.85777 493.3395 
L 511.988856 471.053702 
L 516.257644 466.744471 
L 520.38873 477.903449 
L 524.657518 494.207778 
L 528.926307 470.121107 
L 532.91969 462.756825 
L 537.188478 447.192141 
L 541.319564 479.318421 
L 545.588352 489.351853 
L 549.719438 478.643093 
L 553.988226 488.354942 
L 558.257015 468.899087 
L 562.388101 459.219397 
L 566.656889 474.912715 
L 575.056763 492.021004 
L 583.181232 494.079144 
L 587.45002 479.768639 
L 591.581106 478.128558 
L 595.849895 487.35803 
L 599.98098 487.486664 
L 604.249769 481.762462 
L 608.518557 492.406905 
L 612.649643 477.260281 
L 616.918431 475.588042 
L 621.049517 445.455585 
L 625.318306 461.40617 
L 629.587094 474.880556 
L 633.442774 469.220671 
L 637.711563 472.500832 
L 641.842648 442.979385 
L 646.111437 476.938696 
L 650.242522 461.052428 
L 654.511311 450.92252 
L 658.780099 427.800602 
L 662.911185 466.487204 
L 667.179974 453.077135 
L 671.311059 462.628191 
L 675.579848 437.287342 
L 679.848636 426.803691 
" style="fill:none;stroke:#008000;stroke-linecap:square;stroke-width:1.5;"/>
   </g>
   <g id="patch_18">
    <path d="M 63.47 497.577982 
L 63.47 423.433486 
" style="fill:none;stroke:#000000;stroke-linecap:square;stroke-linejoin:miter;stroke-width:0.8;"/>
   </g>
   <g id="patch_19">
    <path d="M 709.2 497.577982 
L 709.2 423.433486 
" style="fill:none;stroke:#000000;stroke-linecap:square;stroke-linejoin:miter;stroke-width:0.8;"/>
   </g>
   <g id="patch_20">
    <path d="M 63.47 497.577982 
L 709.2 497.577982 
" style="fill:none;stroke:#000000;stroke-linecap:square;stroke-linejoin:miter;stroke-width:0.8;"/>
   </g>
   <g id="patch_21">
    <path d="M 63.47 423.433486 
L 709.2 423.433486 
" style="fill:none;stroke:#000000;stroke-linecap:square;stroke-linejoin:miter;stroke-width:0.8;"/>
   </g>
   <g id="text_46">
    <!-- Paraguay loans over time -->
    <defs>
     <path d="M 45.40625 27.984375 
Q 45.40625 37.75 41.375 43.109375 
Q 37.359375 48.484375 30.078125 48.484375 
Q 22.859375 48.484375 18.828125 43.109375 
Q 14.796875 37.75 14.796875 27.984375 
Q 14.796875 18.265625 18.828125 12.890625 
Q 22.859375 7.515625 30.078125 7.515625 
Q 37.359375 7.515625 41.375 12.890625 
Q 45.40625 18.265625 45.40625 27.984375 
z
M 54.390625 6.78125 
Q 54.390625 -7.171875 48.1875 -13.984375 
Q 42 -20.796875 29.203125 -20.796875 
Q 24.46875 -20.796875 20.265625 -20.09375 
Q 16.0625 -19.390625 12.109375 -17.921875 
L 12.109375 -9.1875 
Q 16.0625 -11.328125 19.921875 -12.34375 
Q 23.78125 -13.375 27.78125 -13.375 
Q 36.625 -13.375 41.015625 -8.765625 
Q 45.40625 -4.15625 45.40625 5.171875 
L 45.40625 9.625 
Q 42.625 4.78125 38.28125 2.390625 
Q 33.9375 0 27.875 0 
Q 17.828125 0 11.671875 7.65625 
Q 5.515625 15.328125 5.515625 27.984375 
Q 5.515625 40.671875 11.671875 48.328125 
Q 17.828125 56 27.875 56 
Q 33.9375 56 38.28125 53.609375 
Q 42.625 51.21875 45.40625 46.390625 
L 45.40625 54.6875 
L 54.390625 54.6875 
z
" id="DejaVuSans-103"/>
    </defs>
    <g transform="translate(309.727187 417.433486)scale(0.12 -0.12)">
     <use xlink:href="#DejaVuSans-80"/>
     <use x="55.802734" xlink:href="#DejaVuSans-97"/>
     <use x="117.082031" xlink:href="#DejaVuSans-114"/>
     <use x="158.195312" xlink:href="#DejaVuSans-97"/>
     <use x="219.474609" xlink:href="#DejaVuSans-103"/>
     <use x="282.951172" xlink:href="#DejaVuSans-117"/>
     <use x="346.330078" xlink:href="#DejaVuSans-97"/>
     <use x="407.609375" xlink:href="#DejaVuSans-121"/>
     <use x="466.789062" xlink:href="#DejaVuSans-32"/>
     <use x="498.576172" xlink:href="#DejaVuSans-108"/>
     <use x="526.359375" xlink:href="#DejaVuSans-111"/>
     <use x="587.541016" xlink:href="#DejaVuSans-97"/>
     <use x="648.820312" xlink:href="#DejaVuSans-110"/>
     <use x="712.199219" xlink:href="#DejaVuSans-115"/>
     <use x="764.298828" xlink:href="#DejaVuSans-32"/>
     <use x="796.085938" xlink:href="#DejaVuSans-111"/>
     <use x="857.267578" xlink:href="#DejaVuSans-118"/>
     <use x="916.447266" xlink:href="#DejaVuSans-101"/>
     <use x="977.970703" xlink:href="#DejaVuSans-114"/>
     <use x="1019.083984" xlink:href="#DejaVuSans-32"/>
     <use x="1050.871094" xlink:href="#DejaVuSans-116"/>
     <use x="1090.080078" xlink:href="#DejaVuSans-105"/>
     <use x="1117.863281" xlink:href="#DejaVuSans-109"/>
     <use x="1215.275391" xlink:href="#DejaVuSans-101"/>
    </g>
   </g>
  </g>
  <g id="axes_5">
   <g id="patch_22">
    <path d="M 63.47 629.762477 
L 709.2 629.762477 
L 709.2 555.617982 
L 63.47 555.617982 
z
" style="fill:#ffffff;"/>
   </g>
   <g id="patch_23">
    <path clip-path="url(#pf008247386)" d="M 92.821364 629.762477 
L 92.822001 629.762477 
L 92.822001 559.148672 
L 92.821364 559.148672 
z
" style="fill:#1f77b4;opacity:0.5;"/>
   </g>
   <g id="patch_24">
    <path clip-path="url(#pf008247386)" d="M 92.82216 629.762477 
L 92.822797 629.762477 
L 92.822797 559.830647 
L 92.82216 559.830647 
z
" style="fill:#1f77b4;opacity:0.5;"/>
   </g>
   <g id="patch_25">
    <path clip-path="url(#pf008247386)" d="M 92.822957 629.762477 
L 92.823594 629.762477 
L 92.823594 569.828734 
L 92.822957 569.828734 
z
" style="fill:#1f77b4;opacity:0.5;"/>
   </g>
   <g id="patch_26">
    <path clip-path="url(#pf008247386)" d="M 92.823753 629.762477 
L 92.82439 629.762477 
L 92.82439 603.659344 
L 92.823753 603.659344 
z
" style="fill:#1f77b4;opacity:0.5;"/>
   </g>
   <g id="patch_27">
    <path clip-path="url(#pf008247386)" d="M 92.82455 629.762477 
L 92.825187 629.762477 
L 92.825187 606.843034 
L 92.82455 606.843034 
z
" style="fill:#1f77b4;opacity:0.5;"/>
   </g>
   <g id="patch_28">
    <path clip-path="url(#pf008247386)" d="M 92.825346 629.762477 
L 92.825983 629.762477 
L 92.825983 616.242602 
L 92.825346 616.242602 
z
" style="fill:#1f77b4;opacity:0.5;"/>
   </g>
   <g id="patch_29">
    <path clip-path="url(#pf008247386)" d="M 92.826143 629.762477 
L 92.82678 629.762477 
L 92.82678 617.070301 
L 92.826143 617.070301 
z
" style="fill:#1f77b4;opacity:0.5;"/>
   </g>
   <g id="patch_30">
    <path clip-path="url(#pf008247386)" d="M 92.826939 629.762477 
L 92.827576 629.762477 
L 92.827576 622.574888 
L 92.826939 622.574888 
z
" style="fill:#1f77b4;opacity:0.5;"/>
   </g>
   <g id="patch_31">
    <path clip-path="url(#pf008247386)" d="M 92.827735 629.762477 
L 92.828373 629.762477 
L 92.828373 622.862271 
L 92.827735 622.862271 
z
" style="fill:#1f77b4;opacity:0.5;"/>
   </g>
   <g id="patch_32">
    <path clip-path="url(#pf008247386)" d="M 92.828532 629.762477 
L 92.829169 629.762477 
L 92.829169 623.25836 
L 92.828532 623.25836 
z
" style="fill:#1f77b4;opacity:0.5;"/>
   </g>
   <g id="matplotlib.axis_9">
    <g id="xtick_25">
     <g id="line2d_39">
      <g>
       <use style="stroke:#000000;stroke-width:0.8;" x="92.821682" xlink:href="#m9405a65098" y="629.762477"/>
      </g>
     </g>
     <g id="text_47">
      <!-- Agriculture -->
      <defs>
       <path d="M 48.78125 52.59375 
L 48.78125 44.1875 
Q 44.96875 46.296875 41.140625 47.34375 
Q 37.3125 48.390625 33.40625 48.390625 
Q 24.65625 48.390625 19.8125 42.84375 
Q 14.984375 37.3125 14.984375 27.296875 
Q 14.984375 17.28125 19.8125 11.734375 
Q 24.65625 6.203125 33.40625 6.203125 
Q 37.3125 6.203125 41.140625 7.25 
Q 44.96875 8.296875 48.78125 10.40625 
L 48.78125 2.09375 
Q 45.015625 0.34375 40.984375 -0.53125 
Q 36.96875 -1.421875 32.421875 -1.421875 
Q 20.0625 -1.421875 12.78125 6.34375 
Q 5.515625 14.109375 5.515625 27.296875 
Q 5.515625 40.671875 12.859375 48.328125 
Q 20.21875 56 33.015625 56 
Q 37.15625 56 41.109375 55.140625 
Q 45.0625 54.296875 48.78125 52.59375 
z
" id="DejaVuSans-99"/>
      </defs>
      <g transform="translate(75.331286 681.018523)rotate(-45)scale(0.1 -0.1)">
       <use xlink:href="#DejaVuSans-65"/>
       <use x="68.408203" xlink:href="#DejaVuSans-103"/>
       <use x="131.884766" xlink:href="#DejaVuSans-114"/>
       <use x="172.998047" xlink:href="#DejaVuSans-105"/>
       <use x="200.78125" xlink:href="#DejaVuSans-99"/>
       <use x="255.761719" xlink:href="#DejaVuSans-117"/>
       <use x="319.140625" xlink:href="#DejaVuSans-108"/>
       <use x="346.923828" xlink:href="#DejaVuSans-116"/>
       <use x="386.132812" xlink:href="#DejaVuSans-117"/>
       <use x="449.511719" xlink:href="#DejaVuSans-114"/>
       <use x="488.375" xlink:href="#DejaVuSans-101"/>
      </g>
     </g>
    </g>
    <g id="xtick_26">
     <g id="line2d_40">
      <g>
       <use style="stroke:#000000;stroke-width:0.8;" x="92.822479" xlink:href="#m9405a65098" y="629.762477"/>
      </g>
     </g>
     <g id="text_48">
      <!-- Food -->
      <defs>
       <path d="M 9.8125 72.90625 
L 51.703125 72.90625 
L 51.703125 64.59375 
L 19.671875 64.59375 
L 19.671875 43.109375 
L 48.578125 43.109375 
L 48.578125 34.8125 
L 19.671875 34.8125 
L 19.671875 0 
L 9.8125 0 
z
" id="DejaVuSans-70"/>
       <path d="M 45.40625 46.390625 
L 45.40625 75.984375 
L 54.390625 75.984375 
L 54.390625 0 
L 45.40625 0 
L 45.40625 8.203125 
Q 42.578125 3.328125 38.25 0.953125 
Q 33.9375 -1.421875 27.875 -1.421875 
Q 17.96875 -1.421875 11.734375 6.484375 
Q 5.515625 14.40625 5.515625 27.296875 
Q 5.515625 40.1875 11.734375 48.09375 
Q 17.96875 56 27.875 56 
Q 33.9375 56 38.25 53.625 
Q 42.578125 51.265625 45.40625 46.390625 
z
M 14.796875 27.296875 
Q 14.796875 17.390625 18.875 11.75 
Q 22.953125 6.109375 30.078125 6.109375 
Q 37.203125 6.109375 41.296875 11.75 
Q 45.40625 17.390625 45.40625 27.296875 
Q 45.40625 37.203125 41.296875 42.84375 
Q 37.203125 48.484375 30.078125 48.484375 
Q 22.953125 48.484375 18.875 42.84375 
Q 14.796875 37.203125 14.796875 27.296875 
z
" id="DejaVuSans-100"/>
      </defs>
      <g transform="translate(86.297209 659.088269)rotate(-45)scale(0.1 -0.1)">
       <use xlink:href="#DejaVuSans-70"/>
       <use x="53.894531" xlink:href="#DejaVuSans-111"/>
       <use x="115.076172" xlink:href="#DejaVuSans-111"/>
       <use x="176.257812" xlink:href="#DejaVuSans-100"/>
      </g>
     </g>
    </g>
    <g id="xtick_27">
     <g id="line2d_41">
      <g>
       <use style="stroke:#000000;stroke-width:0.8;" x="92.823275" xlink:href="#m9405a65098" y="629.762477"/>
      </g>
     </g>
     <g id="text_49">
      <!-- Retail -->
      <defs>
       <path d="M 44.390625 34.1875 
Q 47.5625 33.109375 50.5625 29.59375 
Q 53.5625 26.078125 56.59375 19.921875 
L 66.609375 0 
L 56 0 
L 46.6875 18.703125 
Q 43.0625 26.03125 39.671875 28.421875 
Q 36.28125 30.8125 30.421875 30.8125 
L 19.671875 30.8125 
L 19.671875 0 
L 9.8125 0 
L 9.8125 72.90625 
L 32.078125 72.90625 
Q 44.578125 72.90625 50.734375 67.671875 
Q 56.890625 62.453125 56.890625 51.90625 
Q 56.890625 45.015625 53.6875 40.46875 
Q 50.484375 35.9375 44.390625 34.1875 
z
M 19.671875 64.796875 
L 19.671875 38.921875 
L 32.078125 38.921875 
Q 39.203125 38.921875 42.84375 42.21875 
Q 46.484375 45.515625 46.484375 51.90625 
Q 46.484375 58.296875 42.84375 61.546875 
Q 39.203125 64.796875 32.078125 64.796875 
z
" id="DejaVuSans-82"/>
      </defs>
      <g transform="translate(84.784355 662.11557)rotate(-45)scale(0.1 -0.1)">
       <use xlink:href="#DejaVuSans-82"/>
       <use x="64.982422" xlink:href="#DejaVuSans-101"/>
       <use x="126.505859" xlink:href="#DejaVuSans-116"/>
       <use x="165.714844" xlink:href="#DejaVuSans-97"/>
       <use x="226.994141" xlink:href="#DejaVuSans-105"/>
       <use x="254.777344" xlink:href="#DejaVuSans-108"/>
      </g>
     </g>
    </g>
    <g id="xtick_28">
     <g id="line2d_42">
      <g>
       <use style="stroke:#000000;stroke-width:0.8;" x="92.824072" xlink:href="#m9405a65098" y="629.762477"/>
      </g>
     </g>
     <g id="text_50">
      <!-- Services -->
      <defs>
       <path d="M 53.515625 70.515625 
L 53.515625 60.890625 
Q 47.90625 63.578125 42.921875 64.890625 
Q 37.9375 66.21875 33.296875 66.21875 
Q 25.25 66.21875 20.875 63.09375 
Q 16.5 59.96875 16.5 54.203125 
Q 16.5 49.359375 19.40625 46.890625 
Q 22.3125 44.4375 30.421875 42.921875 
L 36.375 41.703125 
Q 47.40625 39.59375 52.65625 34.296875 
Q 57.90625 29 57.90625 20.125 
Q 57.90625 9.515625 50.796875 4.046875 
Q 43.703125 -1.421875 29.984375 -1.421875 
Q 24.8125 -1.421875 18.96875 -0.25 
Q 13.140625 0.921875 6.890625 3.21875 
L 6.890625 13.375 
Q 12.890625 10.015625 18.65625 8.296875 
Q 24.421875 6.59375 29.984375 6.59375 
Q 38.421875 6.59375 43.015625 9.90625 
Q 47.609375 13.234375 47.609375 19.390625 
Q 47.609375 24.75 44.3125 27.78125 
Q 41.015625 30.8125 33.5 32.328125 
L 27.484375 33.5 
Q 16.453125 35.6875 11.515625 40.375 
Q 6.59375 45.0625 6.59375 53.421875 
Q 6.59375 63.09375 13.40625 68.65625 
Q 20.21875 74.21875 32.171875 74.21875 
Q 37.3125 74.21875 42.625 73.28125 
Q 47.953125 72.359375 53.515625 70.515625 
z
" id="DejaVuSans-83"/>
      </defs>
      <g transform="translate(79.865787 671.954298)rotate(-45)scale(0.1 -0.1)">
       <use xlink:href="#DejaVuSans-83"/>
       <use x="63.476562" xlink:href="#DejaVuSans-101"/>
       <use x="125" xlink:href="#DejaVuSans-114"/>
       <use x="166.113281" xlink:href="#DejaVuSans-118"/>
       <use x="225.292969" xlink:href="#DejaVuSans-105"/>
       <use x="253.076172" xlink:href="#DejaVuSans-99"/>
       <use x="308.056641" xlink:href="#DejaVuSans-101"/>
       <use x="369.580078" xlink:href="#DejaVuSans-115"/>
      </g>
     </g>
    </g>
    <g id="xtick_29">
     <g id="line2d_43">
      <g>
       <use style="stroke:#000000;stroke-width:0.8;" x="92.824868" xlink:href="#m9405a65098" y="629.762477"/>
      </g>
     </g>
     <g id="text_51">
      <!-- Clothing -->
      <defs>
       <path d="M 64.40625 67.28125 
L 64.40625 56.890625 
Q 59.421875 61.53125 53.78125 63.8125 
Q 48.140625 66.109375 41.796875 66.109375 
Q 29.296875 66.109375 22.65625 58.46875 
Q 16.015625 50.828125 16.015625 36.375 
Q 16.015625 21.96875 22.65625 14.328125 
Q 29.296875 6.6875 41.796875 6.6875 
Q 48.140625 6.6875 53.78125 8.984375 
Q 59.421875 11.28125 64.40625 15.921875 
L 64.40625 5.609375 
Q 59.234375 2.09375 53.4375 0.328125 
Q 47.65625 -1.421875 41.21875 -1.421875 
Q 24.65625 -1.421875 15.125 8.703125 
Q 5.609375 18.84375 5.609375 36.375 
Q 5.609375 53.953125 15.125 64.078125 
Q 24.65625 74.21875 41.21875 74.21875 
Q 47.75 74.21875 53.53125 72.484375 
Q 59.328125 70.75 64.40625 67.28125 
z
" id="DejaVuSans-67"/>
      </defs>
      <g transform="translate(80.067667 671.552131)rotate(-45)scale(0.1 -0.1)">
       <use xlink:href="#DejaVuSans-67"/>
       <use x="69.824219" xlink:href="#DejaVuSans-108"/>
       <use x="97.607422" xlink:href="#DejaVuSans-111"/>
       <use x="158.789062" xlink:href="#DejaVuSans-116"/>
       <use x="197.998047" xlink:href="#DejaVuSans-104"/>
       <use x="261.376953" xlink:href="#DejaVuSans-105"/>
       <use x="289.160156" xlink:href="#DejaVuSans-110"/>
       <use x="352.539062" xlink:href="#DejaVuSans-103"/>
      </g>
     </g>
    </g>
    <g id="xtick_30">
     <g id="line2d_44">
      <g>
       <use style="stroke:#000000;stroke-width:0.8;" x="92.825665" xlink:href="#m9405a65098" y="629.762477"/>
      </g>
     </g>
     <g id="text_52">
      <!-- Education -->
      <defs>
       <path d="M 9.8125 72.90625 
L 55.90625 72.90625 
L 55.90625 64.59375 
L 19.671875 64.59375 
L 19.671875 43.015625 
L 54.390625 43.015625 
L 54.390625 34.71875 
L 19.671875 34.71875 
L 19.671875 8.296875 
L 56.78125 8.296875 
L 56.78125 0 
L 9.8125 0 
z
" id="DejaVuSans-69"/>
      </defs>
      <g transform="translate(77.17485 677.339358)rotate(-45)scale(0.1 -0.1)">
       <use xlink:href="#DejaVuSans-69"/>
       <use x="63.183594" xlink:href="#DejaVuSans-100"/>
       <use x="126.660156" xlink:href="#DejaVuSans-117"/>
       <use x="190.039062" xlink:href="#DejaVuSans-99"/>
       <use x="245.019531" xlink:href="#DejaVuSans-97"/>
       <use x="306.298828" xlink:href="#DejaVuSans-116"/>
       <use x="345.507812" xlink:href="#DejaVuSans-105"/>
       <use x="373.291016" xlink:href="#DejaVuSans-111"/>
       <use x="434.472656" xlink:href="#DejaVuSans-110"/>
      </g>
     </g>
    </g>
    <g id="xtick_31">
     <g id="line2d_45">
      <g>
       <use style="stroke:#000000;stroke-width:0.8;" x="92.826461" xlink:href="#m9405a65098" y="629.762477"/>
      </g>
     </g>
     <g id="text_53">
      <!-- Housing -->
      <defs>
       <path d="M 9.8125 72.90625 
L 19.671875 72.90625 
L 19.671875 43.015625 
L 55.515625 43.015625 
L 55.515625 72.90625 
L 65.375 72.90625 
L 65.375 0 
L 55.515625 0 
L 55.515625 34.71875 
L 19.671875 34.71875 
L 19.671875 0 
L 9.8125 0 
z
" id="DejaVuSans-72"/>
      </defs>
      <g transform="translate(80.405689 670.879275)rotate(-45)scale(0.1 -0.1)">
       <use xlink:href="#DejaVuSans-72"/>
       <use x="75.195312" xlink:href="#DejaVuSans-111"/>
       <use x="136.376953" xlink:href="#DejaVuSans-117"/>
       <use x="199.755859" xlink:href="#DejaVuSans-115"/>
       <use x="251.855469" xlink:href="#DejaVuSans-105"/>
       <use x="279.638672" xlink:href="#DejaVuSans-110"/>
       <use x="343.017578" xlink:href="#DejaVuSans-103"/>
      </g>
     </g>
    </g>
    <g id="xtick_32">
     <g id="line2d_46">
      <g>
       <use style="stroke:#000000;stroke-width:0.8;" x="92.827258" xlink:href="#m9405a65098" y="629.762477"/>
      </g>
     </g>
     <g id="text_54">
      <!-- Arts -->
      <g transform="translate(87.678636 656.334972)rotate(-45)scale(0.1 -0.1)">
       <use xlink:href="#DejaVuSans-65"/>
       <use x="68.408203" xlink:href="#DejaVuSans-114"/>
       <use x="109.521484" xlink:href="#DejaVuSans-116"/>
       <use x="148.730469" xlink:href="#DejaVuSans-115"/>
      </g>
     </g>
    </g>
    <g id="xtick_33">
     <g id="line2d_47">
      <g>
       <use style="stroke:#000000;stroke-width:0.8;" x="92.828054" xlink:href="#m9405a65098" y="629.762477"/>
      </g>
     </g>
     <g id="text_55">
      <!-- Transportation -->
      <defs>
       <path d="M -0.296875 72.90625 
L 61.375 72.90625 
L 61.375 64.59375 
L 35.5 64.59375 
L 35.5 0 
L 25.59375 0 
L 25.59375 64.59375 
L -0.296875 64.59375 
z
" id="DejaVuSans-84"/>
      </defs>
      <g transform="translate(69.252672 693.188494)rotate(-45)scale(0.1 -0.1)">
       <use xlink:href="#DejaVuSans-84"/>
       <use x="46.333984" xlink:href="#DejaVuSans-114"/>
       <use x="87.447266" xlink:href="#DejaVuSans-97"/>
       <use x="148.726562" xlink:href="#DejaVuSans-110"/>
       <use x="212.105469" xlink:href="#DejaVuSans-115"/>
       <use x="264.205078" xlink:href="#DejaVuSans-112"/>
       <use x="327.681641" xlink:href="#DejaVuSans-111"/>
       <use x="388.863281" xlink:href="#DejaVuSans-114"/>
       <use x="429.976562" xlink:href="#DejaVuSans-116"/>
       <use x="469.185547" xlink:href="#DejaVuSans-97"/>
       <use x="530.464844" xlink:href="#DejaVuSans-116"/>
       <use x="569.673828" xlink:href="#DejaVuSans-105"/>
       <use x="597.457031" xlink:href="#DejaVuSans-111"/>
       <use x="658.638672" xlink:href="#DejaVuSans-110"/>
      </g>
     </g>
    </g>
    <g id="xtick_34">
     <g id="line2d_48">
      <g>
       <use style="stroke:#000000;stroke-width:0.8;" x="92.828851" xlink:href="#m9405a65098" y="629.762477"/>
      </g>
     </g>
     <g id="text_56">
      <!-- Personal Use -->
      <defs>
       <path d="M 8.6875 72.90625 
L 18.609375 72.90625 
L 18.609375 28.609375 
Q 18.609375 16.890625 22.84375 11.734375 
Q 27.09375 6.59375 36.625 6.59375 
Q 46.09375 6.59375 50.34375 11.734375 
Q 54.59375 16.890625 54.59375 28.609375 
L 54.59375 72.90625 
L 64.5 72.90625 
L 64.5 27.390625 
Q 64.5 13.140625 57.4375 5.859375 
Q 50.390625 -1.421875 36.625 -1.421875 
Q 22.796875 -1.421875 15.734375 5.859375 
Q 8.6875 13.140625 8.6875 27.390625 
z
" id="DejaVuSans-85"/>
      </defs>
      <g transform="translate(72.024443 687.646544)rotate(-45)scale(0.1 -0.1)">
       <use xlink:href="#DejaVuSans-80"/>
       <use x="56.677734" xlink:href="#DejaVuSans-101"/>
       <use x="118.201172" xlink:href="#DejaVuSans-114"/>
       <use x="159.314453" xlink:href="#DejaVuSans-115"/>
       <use x="211.414062" xlink:href="#DejaVuSans-111"/>
       <use x="272.595703" xlink:href="#DejaVuSans-110"/>
       <use x="335.974609" xlink:href="#DejaVuSans-97"/>
       <use x="397.253906" xlink:href="#DejaVuSans-108"/>
       <use x="425.037109" xlink:href="#DejaVuSans-32"/>
       <use x="456.824219" xlink:href="#DejaVuSans-85"/>
       <use x="530.017578" xlink:href="#DejaVuSans-115"/>
       <use x="582.117188" xlink:href="#DejaVuSans-101"/>
      </g>
     </g>
    </g>
    <g id="text_57">
     <!-- Sectors -->
     <g transform="translate(367.655312 706.257492)scale(0.1 -0.1)">
      <use xlink:href="#DejaVuSans-83"/>
      <use x="63.476562" xlink:href="#DejaVuSans-101"/>
      <use x="125" xlink:href="#DejaVuSans-99"/>
      <use x="179.980469" xlink:href="#DejaVuSans-116"/>
      <use x="219.189453" xlink:href="#DejaVuSans-111"/>
      <use x="280.371094" xlink:href="#DejaVuSans-114"/>
      <use x="321.484375" xlink:href="#DejaVuSans-115"/>
     </g>
    </g>
   </g>
   <g id="matplotlib.axis_10">
    <g id="ytick_11">
     <g id="line2d_49">
      <g>
       <use style="stroke:#000000;stroke-width:0.8;" x="63.47" xlink:href="#mb696f9e614" y="629.762477"/>
      </g>
     </g>
     <g id="text_58">
      <!-- 0 -->
      <g transform="translate(50.1075 633.561696)scale(0.1 -0.1)">
       <use xlink:href="#DejaVuSans-48"/>
      </g>
     </g>
    </g>
    <g id="ytick_12">
     <g id="line2d_50">
      <g>
       <use style="stroke:#000000;stroke-width:0.8;" x="63.47" xlink:href="#mb696f9e614" y="586.965194"/>
      </g>
     </g>
     <g id="text_59">
      <!-- 5 -->
      <g transform="translate(50.1075 590.764413)scale(0.1 -0.1)">
       <use xlink:href="#DejaVuSans-53"/>
      </g>
     </g>
    </g>
    <g id="text_60">
     <!-- Loan Amount -->
     <g transform="translate(44.027812 625.917573)rotate(-90)scale(0.1 -0.1)">
      <use xlink:href="#DejaVuSans-76"/>
      <use x="53.962891" xlink:href="#DejaVuSans-111"/>
      <use x="115.144531" xlink:href="#DejaVuSans-97"/>
      <use x="176.423828" xlink:href="#DejaVuSans-110"/>
      <use x="239.802734" xlink:href="#DejaVuSans-32"/>
      <use x="271.589844" xlink:href="#DejaVuSans-65"/>
      <use x="339.998047" xlink:href="#DejaVuSans-109"/>
      <use x="437.410156" xlink:href="#DejaVuSans-111"/>
      <use x="498.591797" xlink:href="#DejaVuSans-117"/>
      <use x="561.970703" xlink:href="#DejaVuSans-110"/>
      <use x="625.349609" xlink:href="#DejaVuSans-116"/>
     </g>
    </g>
    <g id="text_61">
     <!-- 1e6 -->
     <g transform="translate(63.47 552.617982)scale(0.1 -0.1)">
      <use xlink:href="#DejaVuSans-49"/>
      <use x="63.623047" xlink:href="#DejaVuSans-101"/>
      <use x="125.146484" xlink:href="#DejaVuSans-54"/>
     </g>
    </g>
   </g>
   <g id="line2d_51">
    <path clip-path="url(#pf008247386)" d="M 677.108754 629.702561 
L 677.18203 629.599848 
L 677.206721 629.608407 
L 677.279997 629.676883 
L 677.472744 629.680093 
L 677.497435 629.541001 
L 677.690183 629.721392 
L 677.714873 629.676883 
L 677.812044 629.7261 
L 677.836734 629.734873 
L 677.861425 629.640291 
L 677.933108 629.7154 
L 677.957799 629.743861 
L 677.981693 629.716898 
L 678.006384 629.71968 
L 678.103554 629.676883 
L 678.128245 629.664258 
L 678.152936 629.53394 
L 678.175237 629.601132 
L 678.199928 629.40726 
L 678.223822 629.47274 
L 678.248513 629.708981 
L 678.272408 629.702989 
L 678.297098 629.743861 
L 678.321789 629.670035 
L 678.345683 629.715828 
L 678.370374 629.710265 
L 678.418959 629.716898 
L 678.44365 629.656126 
L 678.563122 629.749638 
L 678.587813 629.71968 
L 678.684983 629.587222 
L 678.709674 629.685442 
L 678.734364 629.634085 
L 678.756666 629.424379 
L 678.781357 629.634085 
L 678.805251 629.609691 
L 678.829942 629.542071 
L 678.878527 629.665755 
L 678.951803 629.601774 
L 678.975697 629.640505 
L 679.000388 629.659764 
L 679.025079 629.651418 
L 679.048177 629.676883 
L 679.072867 629.421383 
L 679.121452 629.6236 
L 679.145347 629.370668 
L 679.170038 629.651204 
L 679.194728 629.291707 
L 679.218623 629.616967 
L 679.243314 629.582729 
L 679.267208 629.599848 
L 679.291899 629.615255 
L 679.316589 629.616967 
L 679.338891 629.591288 
L 679.363582 629.608407 
L 679.387476 629.214672 
L 679.412167 629.56561 
L 679.436061 629.651204 
L 679.460752 629.599848 
L 679.485443 629.514253 
L 679.509337 629.659764 
L 679.534028 629.685442 
L 679.557922 629.497134 
L 679.582613 629.634085 
L 679.607304 629.505694 
L 679.629605 629.471456 
L 679.654296 629.642645 
L 679.67819 629.457333 
L 679.702881 629.40298 
L 679.726775 629.522813 
L 679.751466 629.539931 
L 679.776157 629.377302 
L 679.800051 629.582729 
L 679.824742 629.360183 
L 679.848636 629.574169 
" style="fill:none;stroke:#ffff00;stroke-linecap:square;stroke-width:1.5;"/>
   </g>
   <g id="patch_33">
    <path d="M 63.47 629.762477 
L 63.47 555.617982 
" style="fill:none;stroke:#000000;stroke-linecap:square;stroke-linejoin:miter;stroke-width:0.8;"/>
   </g>
   <g id="patch_34">
    <path d="M 709.2 629.762477 
L 709.2 555.617982 
" style="fill:none;stroke:#000000;stroke-linecap:square;stroke-linejoin:miter;stroke-width:0.8;"/>
   </g>
   <g id="patch_35">
    <path d="M 63.47 629.762477 
L 709.2 629.762477 
" style="fill:none;stroke:#000000;stroke-linecap:square;stroke-linejoin:miter;stroke-width:0.8;"/>
   </g>
   <g id="patch_36">
    <path d="M 63.47 555.617982 
L 709.2 555.617982 
" style="fill:none;stroke:#000000;stroke-linecap:square;stroke-linejoin:miter;stroke-width:0.8;"/>
   </g>
   <g id="text_62">
    <!-- Sectors with most loans -->
    <defs>
     <path d="M 4.203125 54.6875 
L 13.1875 54.6875 
L 24.421875 12.015625 
L 35.59375 54.6875 
L 46.1875 54.6875 
L 57.421875 12.015625 
L 68.609375 54.6875 
L 77.59375 54.6875 
L 63.28125 0 
L 52.6875 0 
L 40.921875 44.828125 
L 29.109375 0 
L 18.5 0 
z
" id="DejaVuSans-119"/>
    </defs>
    <g transform="translate(314.53375 549.617982)scale(0.12 -0.12)">
     <use xlink:href="#DejaVuSans-83"/>
     <use x="63.476562" xlink:href="#DejaVuSans-101"/>
     <use x="125" xlink:href="#DejaVuSans-99"/>
     <use x="179.980469" xlink:href="#DejaVuSans-116"/>
     <use x="219.189453" xlink:href="#DejaVuSans-111"/>
     <use x="280.371094" xlink:href="#DejaVuSans-114"/>
     <use x="321.484375" xlink:href="#DejaVuSans-115"/>
     <use x="373.583984" xlink:href="#DejaVuSans-32"/>
     <use x="405.371094" xlink:href="#DejaVuSans-119"/>
     <use x="487.158203" xlink:href="#DejaVuSans-105"/>
     <use x="514.941406" xlink:href="#DejaVuSans-116"/>
     <use x="554.150391" xlink:href="#DejaVuSans-104"/>
     <use x="617.529297" xlink:href="#DejaVuSans-32"/>
     <use x="649.316406" xlink:href="#DejaVuSans-109"/>
     <use x="746.728516" xlink:href="#DejaVuSans-111"/>
     <use x="807.910156" xlink:href="#DejaVuSans-115"/>
     <use x="860.009766" xlink:href="#DejaVuSans-116"/>
     <use x="899.21875" xlink:href="#DejaVuSans-32"/>
     <use x="931.005859" xlink:href="#DejaVuSans-108"/>
     <use x="958.789062" xlink:href="#DejaVuSans-111"/>
     <use x="1019.970703" xlink:href="#DejaVuSans-97"/>
     <use x="1081.25" xlink:href="#DejaVuSans-110"/>
     <use x="1144.628906" xlink:href="#DejaVuSans-115"/>
    </g>
   </g>
  </g>
 </g>
 <defs>
  <clipPath id="pa31ebebad6">
   <rect height="74.144495" width="645.73" x="63.47" y="26.88"/>
  </clipPath>
  <clipPath id="pe11e32f838">
   <rect height="74.144495" width="645.73" x="63.47" y="159.064495"/>
  </clipPath>
  <clipPath id="p20231f4b9a">
   <rect height="74.144495" width="645.73" x="63.47" y="291.248991"/>
  </clipPath>
  <clipPath id="p7fabfc9ae9">
   <rect height="74.144495" width="645.73" x="63.47" y="423.433486"/>
  </clipPath>
  <clipPath id="pf008247386">
   <rect height="74.144495" width="645.73" x="63.47" y="555.617982"/>
  </clipPath>
 </defs>
</svg>
